<?xml version="1.0" encoding="UTF-8" standalone="no"?>
<!DOCTYPE svg  PUBLIC '-//W3C//DTD SVG 1.1//EN'  'http://www.w3.org/Graphics/SVG/1.1/DTD/svg11.dtd'>
<svg xmlns="http://www.w3.org/2000/svg" version="1.1">
<defs>
<font id="AntennaCond-Bold" horiz-adv-x="684">
<font-face panose-1="2 11 6 0 5 3 2 2 2 4" bbox="-41 -249.207 1066 986" underline-thickness="0" unicode-range="U+0020-00FE" font-family="AntennaCond" font-weight="700" ascent="819" x-height="580" cap-height="759" units-per-em="1024" descent="-205" underline-position="-256"/>
<missing-glyph/>
<glyph d="M0 0v1v-1z" glyph-name="space" horiz-adv-x="174" unicode=" "/>
<glyph d="M88 0v180h176v-180h-176zM107 237v-1l-14 523h168l-14 -523h-140v0v1z" glyph-name="exclam" horiz-adv-x="353" unicode="!"/>
<glyph d="M78 401l-7 358h160l-8 -358h-145zM300 402v-1l-8 358h160l-8 -358h-144v0v1z" glyph-name="quotedbl" horiz-adv-x="522" unicode='&quot;'/>
<glyph d="M90 0l28 185h-76v141h98l11 78h-109v141h130l32 214h146l-31 -214h77l31 214h147l-33 -214h79v-141h-100l-12 -78h112v-141h-133l-28 -185h-145l27 185h-77l-27 -185h-147zM272 316v-1h101l15 100h-101l-15 -100v0v1z" glyph-name="numbersign" horiz-adv-x="662" unicode="#"/>
<glyph d="M219 -94v-1v95q-118 10 -199 70l72 116q30 -21 81 -40q48 -17 111 -19q63 0 85 22q23 23 21 64q1 40 -26 63q-26 22 -87 40q-95 26 -158 67q-66 43 -69 156q-2 192 168 216v83h149v-83q89 -13 148 -48l-70 -124q-51 31 -153 36q-96 -2 -90 -74q0 -37 27 -56 q28 -19 88 -37q88 -22 154 -67q67 -46 71 -161q1 -97 -39 -151q-40 -55 -136 -70v-98h-148v1z" glyph-name="dollar" horiz-adv-x="576" unicode="$"/>
<glyph d="M233 264q-102 -2 -154 56t-52 195t52 195q53 57 154 56q101 2 154 -56t54 -195q-1 -137 -54 -195q-52 -58 -154 -56zM234 379q38 -1 54 27t15 105q2 75 -15 104t-54 28q-37 1 -54 -28q-16 -28 -16 -104q0 -77 16 -105t54 -27zM858 -7q-101 -2 -153 56q-52 56 -52 195 q0 137 52 195t153 56q103 1 155 -56q53 -59 53 -195q0 -137 -53 -195q-52 -57 -155 -56zM859 107q38 -2 55 28q16 29 16 104q0 77 -16 105q-17 29 -55 27q-37 1 -54 -27t-15 -105q-2 -74 15 -104q17 -29 54 -28zM301 1v-1l349 759h144l-350 -759h-143v1z" glyph-name="percent" horiz-adv-x="1092" unicode="%"/>
<glyph d="M293 -8q-131 -1 -199 50q-67 51 -67 167q1 83 42 133t102 81q-49 73 -51 160q8 194 200 191q188 5 192 -191q-2 -74 -40 -120q-36 -47 -92 -79l43 -47l80 -88q31 89 45 225l130 -16q-16 -195 -79 -317l129 -141h-191l-35 39q-77 -47 -209 -47zM293 119q70 -1 117 22 l-108 120l-53 59q-63 -41 -69 -104q-2 -38 18 -67q21 -28 95 -30zM270 584v-1q0 -50 32 -100q65 39 69 100q3 58 -51 58t-50 -58v1z" glyph-name="ampersand" horiz-adv-x="744" unicode="&amp;"/>
<glyph d="M78 402v-1l-7 358h161l-7 -358h-147v0v1z" glyph-name="quotesingle" horiz-adv-x="301" unicode="&apos;"/>
<glyph d="M258 -182v-1q-61 58 -117 182q-53 122 -58 312q5 175 58 304q56 130 117 191l115 -71q-48 -58 -89 -159q-42 -102 -43 -264q3 -168 46 -272q44 -106 86 -153l-115 -70v1z" glyph-name="parenleft" horiz-adv-x="456" unicode="("/>
<glyph d="M199 -182v-1l-114 70q47 61 88 160q42 101 43 264q-3 170 -46 272q-42 103 -85 152l114 71q63 -58 117 -182q55 -122 58 -312q-3 -176 -58 -304q-53 -129 -117 -191v1z" glyph-name="parenright" horiz-adv-x="456" unicode=")"/>
<glyph d="M209 257v-1l14 157l-114 -90l-68 112l137 73l-137 73l67 111l115 -91l-14 159h123l-13 -161l116 93l67 -110l-138 -74l138 -74l-66 -110l-117 91l13 -159h-123v0v1z" glyph-name="asterisk" horiz-adv-x="544" unicode="*"/>
<glyph d="M239 108v-1v187h-158v134h158v184h146v-184h158v-134h-158v-187h-146v0v1z" glyph-name="plus" horiz-adv-x="623" unicode="+"/>
<glyph d="M91 -156v-1l-43 78q48 24 62 38q15 13 13 41h-78v183h176v-168q3 -63 -22 -97q-25 -36 -108 -75v1z" glyph-name="comma" horiz-adv-x="266" unicode=","/>
<glyph d="M31 271v-1v141h293v-141h-293v0v1z" glyph-name="hyphen" horiz-adv-x="355" unicode="-"/>
<glyph d="M45 1v-1v183h176v-183h-176v0v1z" glyph-name="period" horiz-adv-x="266" unicode="."/>
<glyph d="M0 1v-1l350 759h157l-350 -759h-157v0v1z" glyph-name="slash" horiz-adv-x="507" unicode="/"/>
<glyph d="M330 -9q-180 2 -232 102q-53 101 -48 286q-5 182 47 284q52 103 233 105q179 -2 230 -106q52 -103 46 -283q6 -187 -46 -287t-230 -101zM330 135v-1q74 -2 96 57q24 57 22 188q2 130 -22 184q-23 56 -96 55q-74 2 -98 -55q-24 -54 -22 -184q-2 -131 22 -188 q24 -59 98 -57v1z" glyph-name="zero" horiz-adv-x="656" unicode="0"/>
<glyph d="M128 1v-1v617h-104v142h259v-759h-155v0v1z" glyph-name="one" horiz-adv-x="365" unicode="1"/>
<glyph d="M25 1v-1v123l190 204q78 83 103 127q23 41 20 85q4 41 -20.5 61.5t-76.5 19.5q-87 -3 -151 -36l-66 130q78 50 244 54q122 0 174 -52q53 -53 52 -153q2 -85 -32 -148q-33 -61 -137 -173l-99 -107h280v-135h-481v1z" glyph-name="two" horiz-adv-x="553" unicode="2"/>
<glyph d="M256 -8v-1l-133 14q-55 13 -103 42l69 128q70 -41 157 -43q66 -1 92 23q26 23 24 85q2 51 -23 73q-23 22 -97 22h-108v128h110q58 -1 80 19q21 19 19 61q1 45 -23 62t-75 15q-85 -2 -150 -35l-65 126q87 53 240 57q110 2 168 -37q58 -40 58 -147q4 -139 -74 -169 q53 -15 74 -58t20 -133q1 -129 -64 -182q-64 -52 -196 -51v1z" glyph-name="three" horiz-adv-x="557" unicode="3"/>
<glyph d="M28 150v-1v120l265 490h162l-261 -482h155l31 212h112v-212h92v-128h-92v-149h-145v149h-319v0v1z" glyph-name="four" horiz-adv-x="605" unicode="4"/>
<glyph d="M281 -8v-1q-160 0 -259 57l69 127q70 -43 180 -43q60 -2 89 22t29 99t-28 97q-28 24 -80 21q-73 -2 -108 -26l-120 35l21 379h434v-142h-302l-7 -135q38 25 139 26q108 2 157 -53q52 -56 50 -199q-2 -163 -68 -216q-67 -54 -196 -49v1z" glyph-name="five" horiz-adv-x="579" unicode="5"/>
<glyph d="M326 -9q-180 1 -233 90q-52 88 -46 246q-2 149 20 241q23 95 99 143t237 48h89v-142h-98q-115 0 -151 -39q-37 -40 -38 -111q40 51 174 52q129 -1 173 -71q42 -70 39 -185q3 -137 -56 -205t-209 -67zM329 128v-1q63 0 85 33q22 34 21 102q3 67 -23 99.5t-81 30.5 q-58 4 -88.5 -27.5t-33.5 -97.5q-2 -74 23 -107q24 -34 97 -33v1z" glyph-name="six" horiz-adv-x="626" unicode="6"/>
<glyph d="M108 1v-1l217 617h-306v142h475v-122l-220 -637h-166v0v1z" glyph-name="seven" horiz-adv-x="513" unicode="7"/>
<glyph d="M313 -9q-175 3 -226 69q-49 66 -45 157q-2 70 16 121q20 53 85 80q-50 24 -65 66q-16 41 -14 97q-4 74 47 130q49 54 202 57q153 -3 202 -57q50 -57 46 -130q2 -54 -15 -98q-16 -43 -64 -65q70 -27 88 -80t15 -121q6 -91 -45 -157t-227 -69zM313 123q69 0 92 32 q23 31 22 83q2 54 -22 83q-22 29 -92 31q-70 -2 -92 -31q-23 -30 -21 -83q-1 -52 21 -83q23 -32 92 -32zM313 465v-1q52 0 76.5 21.5t20.5 64.5q4 43 -20.5 64t-76.5 22q-104 -2 -98 -86q-6 -86 98 -86v1z" glyph-name="eight" horiz-adv-x="625" unicode="8"/>
<glyph d="M223 0h-89v135h99q110 0 148 38q38 37 40 114q-40 -50 -173 -52q-128 1 -172 71q-43 70 -40 184q-3 136 56 207q58 69 208 71q180 -1 233 -90t47 -247q8 -219 -58 -325q-65 -107 -299 -106zM295 362v-1q119 -7 123 126q2 73 -23 106q-24 35 -98 33q-61 2 -84 -33 q-23 -34 -22 -102q-2 -67 23.5 -99.5t80.5 -30.5v1z" glyph-name="nine" horiz-adv-x="626" unicode="9"/>
<glyph d="M53 0v179h176v-179h-176zM53 402v-1v179h176v-179h-176v0v1z" glyph-name="colon" horiz-adv-x="282" unicode=":"/>
<glyph d="M229 401h-176v179h176v-179zM100 -156v-1l-43 78q46 24 62 38q14 14 12 41h-78v179h176v-164q2 -63 -22 -97q-26 -37 -107 -75v1z" glyph-name="semicolon" horiz-adv-x="282" unicode=";"/>
<glyph d="M495 80v-1l-402 222v106l402 223v-149l-240 -126l240 -127v-149v0v1z" glyph-name="less" horiz-adv-x="622" unicode="&lt;"/>
<glyph d="M82 170v142h460v-142h-460zM82 405v-1v142h460v-142h-460v0v1z" glyph-name="equal" horiz-adv-x="623" unicode="="/>
<glyph d="M127 80v-1v148l241 126l-241 127v150l403 -223v-106l-403 -222v0v1z" glyph-name="greater" horiz-adv-x="623" unicode="&gt;"/>
<glyph d="M349 222h-150q-3 81 15 125t87 98l60 55q18 23 17 54q2 32 -20 51q-20 19 -82 19q-83 -1 -153 -38l-67 131q92 49 246 51q135 -2 184 -51q50 -50 48 -133q-2 -80 -28 -120q-28 -42 -74 -76q-59 -47 -72 -76q-14 -29 -11 -90zM186 1v-1v161h176v-161h-176v1z" glyph-name="question" horiz-adv-x="585" unicode="?"/>
<glyph d="M595 -154l-153 -15q-222 -2 -314 113q-93 114 -90 354q-3 238 90 354q92 114 314 114q220 0 313 -114q92 -116 89 -354q3 -139 -30 -203q-35 -63 -134 -62q-118 5 -132 69q-36 -68 -168 -69q-112 3 -145 79q-35 75 -30 185q-3 109 32 187q34 76 146 79l96 -12 q30 -14 45 -37l25 44l99 -9v-342q2 -47 9 -66q8 -20 39 -19q35 -3 45 31q12 36 11 145q2 204 -70 295q-71 90 -240 89q-170 2 -242 -89t-70 -295q-2 -204 70 -295q72 -90 242 -88q148 5 236 47l34 -79q-50 -21 -117 -37zM424 151v-1q58 1 74 38q16 35 14 108q2 74 -14 106 q-16 34 -74 34q-51 0 -66 -35q-17 -35 -15 -106q-1 -69 14 -108q15 -37 67 -37v1z" glyph-name="at" horiz-adv-x="881" unicode="@"/>
<glyph d="M14 0l236 764h172l237 -764h-165l-35 118h-251l-34 -118h-160zM246 260v-1h174l-86 288l-88 -288v0v1z" glyph-name="A" horiz-adv-x="672" unicode="A"/>
<glyph d="M343 0h-283v759h277q132 -2 188 -52t55 -143q-4 -136 -89 -167q105 -32 104 -185q-8 -218 -252 -212zM217 312v-178h124q90 -6 92 90q-2 95 -93 88h-123zM217 453v-1h115q90 -2 87 87q3 85 -87 81h-115v-168v1z" glyph-name="B" horiz-adv-x="631" unicode="B"/>
<glyph d="M332 -8v-1q-173 1 -241 104q-66 103 -63 284q-4 175 61 281q66 105 255 108q124 -2 206 -56l-86 -133q-45 30 -125 32q-78 3 -114 -48q-35 -52 -34 -188q-1 -135 34 -189q35 -53 115 -51q76 -1 134 39l79 -124q-44 -29 -95 -44l-126 -15v1z" glyph-name="C" horiz-adv-x="577" unicode="C"/>
<glyph d="M296 0h-236v759h236q179 3 257 -81q79 -83 77 -298q2 -219 -76 -301q-79 -83 -258 -79zM220 140v-1h91q82 -3 120 47t36 193q1 141 -36 189q-38 49 -125 44h-86v-473v1z" glyph-name="D" horiz-adv-x="657" unicode="D"/>
<glyph d="M60 1v-1v759h468v-147h-312v-151h298v-146h-298v-172h313v-143h-469v0v1z" glyph-name="E" horiz-adv-x="570" unicode="E"/>
<glyph d="M60 1v-1v759h469v-147h-309v-164h294v-145h-294v-303h-160v0v1z" glyph-name="F" horiz-adv-x="556" unicode="F"/>
<glyph d="M323 -8v-1q-173 2 -236 103q-63 103 -59 285q-3 202 70 296q74 95 252 93q142 -5 221 -59l-85 -133q-49 33 -143 37q-75 4 -114 -44q-40 -47 -40 -194q-2 -143 32 -197t116 -51q71 -2 94 39t21 128v18h-148v138h300v-128q4 -179 -55 -257q-59 -77 -226 -74v1z" glyph-name="G" horiz-adv-x="631" unicode="G"/>
<glyph d="M60 1v-1v759h160v-288h252v288h162v-759h-162v312h-252v-312h-160v0v1z" glyph-name="H" horiz-adv-x="693" unicode="H"/>
<glyph d="M69 1v-1v759h160v-759h-160v0v1z" glyph-name="I" horiz-adv-x="297" unicode="I"/>
<glyph d="M27 1v-1v143h73q46 -1 67 18t18 57v541h160v-551q-2 -123 -61 -166q-59 -45 -158 -42h-99v1z" glyph-name="J" horiz-adv-x="400" unicode="J"/>
<glyph d="M60 1v-1v759h158v-313l232 313h184l-228 -295l232 -464h-177l-163 328l-80 -109v-219h-158v0v1z" glyph-name="K" horiz-adv-x="654" unicode="K"/>
<glyph d="M60 1v-1v759h160v-616h295v-143h-455v0v1z" glyph-name="L" horiz-adv-x="525" unicode="L"/>
<glyph d="M60 1v-1v759h204l148 -482l149 482h205v-759h-156v484l-152 -484h-103l-153 484v-484h-142v0v1z" glyph-name="M" horiz-adv-x="824" unicode="M"/>
<glyph d="M60 1v-1v759h170l248 -438v438h153v-759h-147l-272 473v-473h-152v0v1z" glyph-name="N" horiz-adv-x="689" unicode="N"/>
<glyph d="M342 -9q-198 5 -259 116q-61 112 -55 272q-6 160 55 272t259 117q197 -4 259 -117q61 -111 56 -272q5 -161 -56 -272t-259 -116zM342 134v-1q99 2 127 66q28 63 25 175q3 110 -25 173q-28 64 -127 66q-98 -1 -126 -66q-28 -63 -25 -173q-3 -112 25 -175q28 -65 126 -66v1 z" glyph-name="O" unicode="O"/>
<glyph d="M217 0h-157v759h291q135 -1 194 -66q58 -63 56 -181q2 -118 -56 -189q-59 -73 -197 -74h-131v-249zM217 389v-1h129q51 -2 76 27t23 88q3 119 -99 114h-129v-229v1z" glyph-name="P" horiz-adv-x="627" unicode="P"/>
<glyph d="M541 -188h-96q-103 -2 -154 39t-50 124v31q-131 33 -175 135q-42 103 -38 238q-6 160 55 272t259 117q197 -4 259 -117q61 -111 56 -272q4 -147 -47 -254q-53 -106 -214 -125q-2 -29 14.5 -42t53.5 -11h77v-135zM342 134v-1q99 2 127 66q28 63 25 175q3 110 -25 173 q-28 64 -127 66q-98 -1 -126 -66q-28 -63 -25 -173q-3 -112 25 -175q28 -65 126 -66v1z" glyph-name="Q" unicode="Q"/>
<glyph d="M594 0h-168l-108 254h-101v-254h-157v759h289q136 -1 194 -64q58 -60 56 -178q4 -174 -127 -241zM217 395v-1h128q50 -2 74.5 26t23.5 86q3 117 -98 111h-128v-223v1z" glyph-name="R" horiz-adv-x="639" unicode="R"/>
<glyph d="M300 -8v-1q-185 0 -286 68l80 123q66 -47 202 -54q62 1 91 20.5t25 57.5q2 47 -33 68q-36 22 -126 47q-105 32 -155 82q-51 50 -51 142q4 221 262 223l134 -13q58 -14 99 -34l-70 -138q-52 30 -158 34q-113 3 -110 -67q-2 -38 26 -56q27 -18 95 -39q133 -39 189 -89 t54 -157q0 -101 -65 -160q-64 -57 -203 -58v1z" glyph-name="S" horiz-adv-x="597" unicode="S"/>
<glyph d="M215 1v-1v612h-203v147h570v-147h-205v-612h-162v0v1z" glyph-name="T" horiz-adv-x="593" unicode="T"/>
<glyph d="M342 -11v-1q-160 2 -225 72q-65 71 -62 206v493h160v-478q-1 -76 26 -113q27 -36 103 -35q75 -1 104 34q28 33 26 114v478h156v-493q3 -135 -62 -206t-226 -72v1z" glyph-name="U" unicode="U"/>
<glyph d="M246 -4v-1l-232 764h164l157 -532l154 532h163l-234 -764h-172v0v1z" glyph-name="V" horiz-adv-x="663" unicode="V"/>
<glyph d="M192 -4v-1l-170 764h164l98 -461l109 461h143l110 -461l99 461h153l-169 -764h-157l-111 452l-111 -452h-158v0v1z" glyph-name="W" horiz-adv-x="920" unicode="W"/>
<glyph d="M468 1v-1l-145 257l-133 -257h-173l225 399l-202 360h177l122 -217l111 217h174l-204 -361l225 -398h-177v0v1z" glyph-name="X" horiz-adv-x="663" unicode="X"/>
<glyph d="M240 1v-1v257l-242 502h171l154 -331l154 331h165l-242 -504v-255h-160v0v1z" glyph-name="Y" horiz-adv-x="641" unicode="Y"/>
<glyph d="M24 1v-1v121l327 491h-313v147h505v-133l-325 -483h334v-143h-528v0v1z" glyph-name="Z" horiz-adv-x="577" unicode="Z"/>
<glyph d="M90 -161v-1v949h294v-133h-136v-689h138v-127h-296v0v1z" glyph-name="bracketleft" horiz-adv-x="454" unicode="["/>
<glyph d="M350 1v-1l-350 759h157l350 -759h-157v0v1z" glyph-name="backslash" horiz-adv-x="507" unicode="\"/>
<glyph d="M70 -161v-1v127h138v689h-135v133h293v-949h-296v0v1z" glyph-name="bracketright" horiz-adv-x="454" unicode="]"/>
<glyph d="M67 584v-1l111 188h143l112 -188h-122l-63 81l-61 -81h-120v0v1z" glyph-name="asciicircum" horiz-adv-x="498" unicode="^"/>
<glyph d="M-31 -153v-1v115h446v-115h-446v0v1z" glyph-name="underscore" horiz-adv-x="383" unicode="_"/>
<glyph d="M208 636v-1l-148 187h172l108 -187h-132v0v1z" glyph-name="grave" horiz-adv-x="498" unicode="`"/>
<glyph d="M207 -7q-111 1 -148 52q-38 50 -35 130q-1 120 71 165q70 46 227 44h20q3 70 -77 68q-97 -3 -147 -30l-62 125q73 43 227 46q118 1 164 -45q47 -46 45 -153v-216q-4 -25 6 -36t34 -9v-134l-46 -2l-81 8q-26 11 -38 40q-41 -55 -160 -53zM243 121v-1q48 -2 72 20 q27 22 27 81v53h-19q-83 1 -119 -16q-34 -16 -33 -66q-5 -74 72 -72v1z" glyph-name="a" horiz-adv-x="558" unicode="a"/>
<glyph d="M162 -6l-113 11v782h154v-251q41 57 158 56q125 -5 162 -91q36 -88 32 -209q4 -124 -35 -211q-39 -85 -165 -88l-114 13q-34 14 -55 38zM307 128v-1q57 0 75 39q18 40 17 118q1 78 -16 121q-17 41 -76 41q-65 0 -85 -42q-20 -40 -18 -120q-2 -78 17 -117q19 -40 86 -40v1 z" glyph-name="b" horiz-adv-x="581" unicode="b"/>
<glyph d="M271 -7v-1q-144 1 -196 79q-51 78 -48 221q-5 140 48 219q53 78 205 80q107 -1 161 -31l-68 -134q-33 18 -85 20q-55 4 -81 -36t-22 -124q-2 -86 21 -124t85 -36q56 2 97 23l59 -118q-43 -20 -85 -31l-91 -8v1z" glyph-name="c" horiz-adv-x="459" unicode="c"/>
<glyph d="M221 -7q-125 3 -161 90t-32 210q-4 123 35 209q39 85 166 89q114 1 149 -44v240h156v-782l-124 -10l-12 53q-40 -55 -177 -55zM275 128v-1q65 0 85 42q20 41 18 121q2 78 -17 117q-19 40 -86 40q-57 0 -75 -39q-18 -38 -16 -118q-2 -81 15 -122q18 -41 76 -41v1z" glyph-name="d" horiz-adv-x="581" unicode="d"/>
<glyph d="M274 -7q-150 1 -201 78q-50 80 -46 221q-3 140 52 219q54 79 199 80q165 -3 196 -105q33 -102 23 -265h-321q5 -52 27 -74q23 -23 79 -22l91 10q41 13 61 23l59 -117q-78 -47 -219 -48zM274 456v-1q-56 2 -76 -28q-22 -29 -23 -86h186q0 57 -15 86q-15 28 -72 28v1z" glyph-name="e" horiz-adv-x="527" unicode="e"/>
<glyph d="M13 446v-1v135h94v47q-2 88 48.5 133t153.5 46l84 -2v-134h-68q-40 1 -52 -14q-13 -15 -12 -46v-30h132v-135h-132v-445h-154v445h-94v1z" glyph-name="f" horiz-adv-x="399" unicode="f"/>
<glyph d="M271 205l-63 3l-1 -16q-1 -16 14 -24l61 -6q148 2 201 -33q54 -34 51 -119q0 -101 -65 -142q-64 -42 -197 -40q-134 -2 -198 27q-64 28 -64 111q2 110 99 132q-32 31 -31 80q0 38 21 69q-59 40 -61 146q3 205 233 199l29 -1l229 47v-120h-79q51 -30 54 -125 q-1 -105 -64 -148q-61 -42 -169 -40zM270 -65q68 0 88 16t19 49q2 27 -19 39q-20 12 -87 12q-61 0 -84 -14q-25 -14 -23 -43q-1 -30 22 -44q22 -15 84 -15zM271 316v-1q43 1 63.5 19.5t18.5 55.5q2 37 -18.5 55t-63.5 19q-43 -1 -63 -19t-18 -55q-4 -74 81 -75v1z" glyph-name="g" horiz-adv-x="560" unicode="g"/>
<glyph d="M49 1v-1v787h154v-248q29 51 158 52q103 -1 138 -61q34 -57 32 -150v-380h-156v341q2 51 -12 77q-13 25 -63 25q-59 2 -79 -29q-19 -29 -17 -95v-319h-155v1z" glyph-name="h" horiz-adv-x="575" unicode="h"/>
<glyph d="M53 0v580h155v-580h-155zM53 634v-1v140h156v-140h-156v0v1z" glyph-name="i" horiz-adv-x="262" unicode="i"/>
<glyph d="M25 -162h-24v124h12q24 -2 34 13t6 47v558h155v-563q2 -100 -38 -140t-145 -39zM53 634v-1v140h156v-140h-156v1z" glyph-name="j" horiz-adv-x="262" unicode="j"/>
<glyph d="M49 1v-1v787h152v-440l158 233h162l-171 -242l182 -338h-165l-118 212l-48 -72v-140h-152v0v1z" glyph-name="k" horiz-adv-x="535" unicode="k"/>
<glyph d="M269 1v-1l-57 -2q-80 -2 -119 33q-40 36 -40 134v622h155v-601q-2 -32 9 -43t52 -9v-134v1z" glyph-name="l" horiz-adv-x="300" unicode="l"/>
<glyph d="M49 1v-1v571l124 10l12 -46q19 28 58 41t113 15q70 -2 98 -17q29 -17 38 -40q20 27 62 41l118 16q103 -1 135 -61q31 -58 28 -150v-380h-154v341q2 52 -10 77t-60 25q-58 1 -76 -29q-18 -31 -17 -95v-319h-153v341q2 52 -10 77t-60 25q-58 0 -76 -30q-19 -28 -17 -94 v-319h-153v1z" glyph-name="m" horiz-adv-x="875" unicode="m"/>
<glyph d="M49 1v-1v571l124 10l12 -46q35 55 176 56q103 -1 138 -61q34 -57 32 -150v-380h-156v341q2 51 -12 77q-13 25 -63 25q-60 0 -79 -30t-17 -94v-319h-155v1z" glyph-name="n" horiz-adv-x="575" unicode="n"/>
<glyph d="M283 -9q-149 1 -205 81q-54 80 -51 220q-3 137 51 217q55 81 205 82q152 -2 205 -83q53 -80 50 -216q3 -141 -50 -221q-52 -78 -205 -80zM283 127v-1q65 0 83 42t16 118q2 79 -16 118q-18 42 -83 42t-83 -42q-19 -40 -16 -118q-3 -76 16 -118q18 -42 83 -42v1z" glyph-name="o" horiz-adv-x="564" unicode="o"/>
<glyph d="M204 -162h-155v733l124 10l11 -46q41 56 177 56q125 -5 162 -90q36 -88 32 -209q4 -124 -35 -211q-39 -85 -165 -88l-96 11q-35 11 -55 34v-200zM307 128v-1q57 0 75 39q18 40 17 118q1 78 -16 121q-17 41 -76 41q-65 0 -85 -42q-20 -40 -18 -120q-2 -78 17 -117 q19 -40 86 -40v1z" glyph-name="p" horiz-adv-x="581" unicode="p"/>
<glyph d="M534 -162h-155v207q-39 -54 -158 -52q-125 3 -161 90t-32 210q-4 123 35 209q39 85 166 89l114 -13q37 -12 55 -36l22 43l114 -10v-737zM275 128v-1q65 0 85 42q20 41 18 121q2 78 -17 117q-19 40 -86 40q-57 0 -75 -39q-18 -38 -16 -118q-2 -81 15 -122q18 -41 76 -41v1 z" glyph-name="q" horiz-adv-x="581" unicode="q"/>
<glyph d="M49 1v-1v571l123 10l14 -54q18 25 54 42q36 16 107 16v-146q-95 -1 -121 -43t-21 -105v-291h-156v1z" glyph-name="r" horiz-adv-x="353" unicode="r"/>
<glyph d="M237 -6v-1q-134 -3 -229 43l60 119q66 -34 169 -37q32 -1 48.5 10.5t15.5 34.5q2 23 -21 38l-91 35q-80 26 -119 62q-40 37 -40 114q2 99 60 139q60 41 157 40l102 -8l78 -23l-59 -128q-54 23 -127 24q-34 1 -50 -9.5t-14 -31.5q-1 -19 20 -33q18 -11 81 -32 q85 -25 127 -64q41 -39 41 -121q-5 -176 -209 -172v1z" glyph-name="s" horiz-adv-x="465" unicode="s"/>
<glyph d="M13 446v-1v135h98l23 130l123 28v-158h132v-135h-132v-250q-1 -29 11 -46q12 -15 55 -15h66v-134l-86 -5q-115 -1 -158 42q-44 42 -41 140v268h-91v1z" glyph-name="t" horiz-adv-x="425" unicode="t"/>
<glyph d="M283 -7v-1q-139 -1 -190 57t-48 188v343h156v-334q-1 -62 12 -90t72 -27q55 -1 71 28q14 29 12 90v333h152v-343q4 -128 -46 -188q-50 -59 -191 -57v1z" glyph-name="u" horiz-adv-x="565" unicode="u"/>
<glyph d="M180 -4v-1l-178 585h162l106 -383l105 383h156l-181 -585h-170v0v1z" glyph-name="v" horiz-adv-x="531" unicode="v"/>
<glyph d="M152 -4v-1l-142 585h157l71 -340l85 340h142l84 -333l72 333h148l-140 -585h-152l-87 325l-85 -325h-153v0v1z" glyph-name="w" horiz-adv-x="779" unicode="w"/>
<glyph d="M349 1v-1l-98 171l-91 -171h-158l172 305l-157 275h168l84 -147l76 147h158l-158 -281l171 -299h-167v0v1z" glyph-name="x" horiz-adv-x="519" unicode="x"/>
<glyph d="M70 -161v-1v124h65q37 -1 40 24l3 14l-177 580h159l98 -356l98 356h152l-191 -625q-23 -73 -66 -96t-117 -21h-64v1z" glyph-name="y" horiz-adv-x="510" unicode="y"/>
<glyph d="M13 1v-1v102l231 343h-217v135h412v-104l-234 -350h243v-126h-435v0v1z" glyph-name="z" horiz-adv-x="457" unicode="z"/>
<glyph d="M307 -161v-1q-97 1 -143 35.5t-42 102.5q3 48 21 121l21 105q2 30 -23 38l-84 8v130q58 -4 84.5 7t22.5 37q-3 36 -21 107q-18 70 -21 119q-4 69 42 103.5t141 35.5h113v-133h-63q-71 6 -73 -57q1 -37 18 -97q16 -58 19 -105q4 -56 -58 -82q63 -27 58 -83 q-3 -53 -19 -112q-17 -62 -18 -92q1 -64 73 -61h63v-127h-111v1z" glyph-name="braceleft" horiz-adv-x="485" unicode="{"/>
<glyph d="M90 -161v-1v949h158v-949h-158v0v1z" glyph-name="bar" horiz-adv-x="337" unicode="|"/>
<glyph d="M69 -161v-1v127h62q73 -3 74 61q-1 26 -19 92q-16 59 -19 112q-3 58 58 83q-61 25 -58 82q3 47 19 105q18 64 19 97q-2 63 -74 57h-62v133h111q95 -1 141.5 -35.5t42.5 -103.5q-3 -49 -21 -119q-20 -71 -21 -107q-1 -28 23 -36l85 -7v-131l-85 -8q-25 -8 -23 -38t21 -105 q18 -73 21 -121q4 -68 -42.5 -102.5t-142.5 -35.5h-110v1z" glyph-name="braceright" horiz-adv-x="485" unicode="}"/>
<glyph d="M130 369v-1l-99 58q55 114 149 112q40 -1 70 -22q28 -19 51 -22q28 -1 65 49l98 -57q-56 -116 -148 -114q-43 3 -71 22t-50 21q-30 3 -65 -47v1z" glyph-name="asciitilde" horiz-adv-x="498" unicode="~"/>
<glyph d="M92 0l15 522h141l13 -522h-169zM89 579v-1v181h176v-181h-176v0v1z" glyph-name="exclamdown" horiz-adv-x="353" unicode="¡"/>
<glyph d="M203 -97v-1v102q-94 21 -129 95q-34 73 -33 193q-2 118 32 189q35 74 130 97v82h150v-76q61 -8 101 -27l-66 -131q-33 18 -86 20q-55 4 -80.5 -36t-21.5 -124q-2 -86 21 -124t84 -36q57 1 98 23l57 -115q-54 -29 -107 -34v-98h-150v1z" glyph-name="cent" horiz-adv-x="488" unicode="¢"/>
<glyph d="M393 -4v-1q-98 1 -182 41q-61 -39 -195 -36v135q76 -1 101 11q24 13 21 55q-2 48 -18 118h-101v125h72q-14 65 -16 121q-1 104 57 154.5t176 48.5q135 -2 220 -46l-66 -126q-31 14 -75 22l-78 7q-83 -2 -80 -78q0 -41 12 -103h146v-125h-123q13 -67 15 -115l-4 -61 q41 -15 98 -17q59 0 52 75v59h135v-65q2 -108 -36 -155t-131 -45v1z" glyph-name="sterling" horiz-adv-x="580" unicode="£"/>
<glyph d="M24 406v-1v110h104q15 131 78 193t192 60q116 0 198 -48l-72 -131q-48 27 -127 29q-97 3 -112 -103h174v-110h-182v-25v-28h182v-110h-174q15 -109 112 -108q80 3 129 34l69 -124q-80 -52 -209 -53q-121 -1 -183 59q-61 60 -75 192h-104v110h97v27v26h-97v1z" glyph-name="currency" horiz-adv-x="624" unicode="¤"/>
<glyph d="M63 222v-1v109h152l-208 429h165l125 -291l126 291h163l-207 -429h153v-109h-160v-54h160v-110h-160v-57h-151v57h-158v110h158v54h-158v0v1z" glyph-name="yen" horiz-adv-x="594" unicode="¥"/>
<glyph d="M90 -162v392h158v-392h-158zM90 396v-1v392h158v-392h-158v0v1z" glyph-name="brokenbar" horiz-adv-x="337" unicode="¦"/>
<glyph d="M129 -5l-57 2v121h41q40 0 52 16t10 49v31q-131 23 -124 162q-8 138 124 164v23q-3 88 34 143q37 56 159 57l57 -2v-127h-41q-40 0 -52 -17q-11 -18 -10 -50v-27q134 -24 128 -164q8 -140 -128 -163v-19q3 -87 -35 -143q-37 -54 -158 -56zM250 310v-1q40 -1 59.5 14.5 t18.5 47.5q2 65 -78 63q-39 1 -58.5 -15t-18.5 -48q-1 -32 18.5 -47.5t58.5 -14.5v1z" glyph-name="section" horiz-adv-x="500" unicode="§"/>
<glyph d="M81 635v137h137v-137h-137zM282 636v-1v137h136v-137h-136v0v1z" glyph-name="dieresis" horiz-adv-x="498" unicode="¨"/>
<glyph d="M348 141q-110 2 -150 65q-40 64 -39 178q-3 110 38 175q40 65 159 67q76 0 129 -33l-54 -82q-27 18 -78 20t-72 -31q-22 -32 -22 -119q0 -85 21 -119q22 -34 74 -33q45 -1 83 26l50 -78q-51 -36 -139 -36zM342 -9q-183 3 -249 111q-66 109 -62 277q-4 168 62 278 q66 107 249 112q183 -4 250 -112q66 -109 63 -278q3 -169 -63 -277q-68 -108 -250 -111zM342 47v-1q150 3 204 96q53 93 49 237q4 143 -49 238q-54 92 -204 95q-149 -3 -202 -95q-53 -94 -50 -238q-3 -145 50 -237q53 -93 202 -96v1z" glyph-name="copyright" unicode="©"/>
<glyph d="M188 282q-80 2 -110 42q-30 41 -29 105q0 97 58 131q57 34 184 32h15q3 32 -12 47t-49 14q-79 -3 -120 -25l-50 103q58 34 184 37q96 1 134 -37q37 -37 35 -124v-174q-6 -41 33 -36v-111l-38 -1q-44 -2 -67 9q-24 9 -33 41q-29 -56 -135 -53zM439 121h-374v110h374v-110z M227 386v-1q38 -4 57.5 16.5t21.5 65.5v37h-15l-96 -11q-28 -12 -26 -50q-1 -30 13 -44.5t45 -13.5v1z" glyph-name="ordfeminine" horiz-adv-x="508" unicode="ª"/>
<glyph d="M193 0l-128 290l128 290h136l-117 -290l117 -290h-136zM446 1v-1l-128 290l128 290h135l-117 -290l117 -290h-135v0v1z" glyph-name="guillemotleft" horiz-adv-x="669" unicode="«"/>
<glyph d="M137 130l-8 -7q-89 107 -92 257q3 149 92 256l7 -6q-86 -106 -89 -250q3 -147 90 -250zM241 223l-7 -7q-56 68 -59 164q1 94 58 163l8 -7q-54 -66 -55 -156q2 -93 55 -157zM279 256l-8 -7q-44 53 -46 131q2 76 46 131l8 -7q-42 -51 -44 -124q2 -73 44 -124zM332 303 l-8 -7q-27 35 -29 84q2 50 29 83l7 -8q-25 -32 -26 -75q2 -44 27 -77zM366 335l-8 -8q-15 21 -17 53q2 31 17 52l8 -7q-14 -21 -15 -45q1 -26 15 -45zM393 359l-6 -5q-5 9 -7 26l7 25l6 -5l-5 -20q2 -14 5 -21zM426 61q-123 3 -206 79l8 7q82 -73 198 -76q118 3 198 76l7 -8 q-84 -75 -205 -78zM426 332q-15 0 -27 9l6 6q8 -7 21 -7q12 -1 22 7l5 -6q-11 -9 -27 -9zM494 326l-7 8q14 20 14 46q0 25 -14 45l7 7q17 -23 17 -52t-17 -54zM307 282l-8 -7q-35 45 -36 105q2 61 37 104l7 -7q-31 -40 -33 -97q2 -58 33 -98zM426 -18q-152 5 -258 100l7 8 q103 -94 251 -97q146 3 250 96l7 -7q-106 -97 -257 -100zM426 124q-97 1 -165 62l8 8q64 -58 157 -60q92 1 157 60l7 -8q-67 -61 -164 -62zM426 174q-76 1 -132 50l7 7q51 -45 125 -47q74 2 124 47l7 -8q-53 -47 -131 -49zM426 214q-62 2 -105 39l7 8q42 -36 98 -37 q56 1 99 37l6 -8q-43 -37 -105 -39zM426 271q-39 2 -67 25l7 8q24 -21 60 -23q36 2 60 23l7 -8q-28 -23 -67 -25zM367 455l-8 9q29 23 67 24q40 -2 68 -24l-8 -9q-24 21 -60 23q-35 -2 -59 -23zM591 573l-7 -8q-64 58 -158 60q-91 -1 -156 -59l-8 7q67 61 164 63 q98 -2 165 -63zM465 354l-6 5l5 21l-5 20l6 5l7 -25q0 -16 -7 -26zM479 341l-8 7q9 12 11 32l-11 31l8 8q13 -17 13 -39q0 -23 -13 -39zM510 313l-8 7q19 25 19 60q0 34 -19 59l7 7q21 -27 23 -66q-2 -38 -22 -67zM553 275l-8 7q33 42 34 98q-2 58 -35 97l8 7 q35 -43 37 -104q-1 -62 -36 -105zM582 249l-8 7q43 53 44 124q-1 71 -44 124l8 7q45 -57 46 -131q-1 -76 -46 -131zM619 216l-8 7q54 65 56 157q-2 93 -56 156l8 7q56 -67 58 -163q-2 -97 -58 -164zM665 175l-7 6q69 84 70 199q-1 114 -71 197l8 7q71 -86 74 -204 q-3 -119 -74 -205zM723 123l-8 7q87 103 90 250q-3 145 -90 250l8 7q89 -107 92 -257q-3 -150 -92 -257zM195 181l-7 -7q-73 86 -74 206q1 117 73 204l8 -7q-70 -83 -71 -197q1 -116 71 -199zM350 321l-8 -8q-20 29 -21 67q1 38 21 66l8 -7q-18 -25 -19 -59q2 -34 19 -59z M380 348l-7 -7q-12 17 -12 39q0 21 12 39l7 -8q-7 -13 -9 -31q2 -19 9 -32zM405 412l-5 7l26 9l27 -9l-5 -7l-22 8q-11 0 -21 -8zM393 426l-7 7q17 14 40 14q22 0 39 -14l-6 -7q-13 12 -33 12q-18 -2 -33 -12zM380 440l-7 8q21 18 53 20q32 -2 53 -20l-7 -8q-20 17 -46 17 t-46 -17zM302 528l-7 8q53 47 131 49q78 -2 131 -50l-6 -7q-51 45 -125 47q-73 -2 -124 -47zM426 246q-50 0 -85 30l7 8q34 -26 78 -28q46 1 77 28l7 -7q-34 -29 -84 -31zM426 292q-32 0 -54 19l7 8q20 -15 47 -17q26 0 46 17l7 -8q-22 -19 -53 -19zM426 312q-22 0 -41 14 l7 8q16 -11 34 -13q20 2 33 13l7 -8q-17 -14 -40 -14zM349 475l-7 7q33 30 84 32q50 -2 84 -31l-7 -8q-32 28 -77 29q-45 -2 -77 -29zM328 498l-7 9q43 37 105 39q60 -1 105 -40l-6 -8q-40 37 -99 37q-58 -2 -98 -37zM632 619l-7 -8q-82 76 -199 77q-116 -3 -198 -76l-8 7 q87 78 206 79q119 -1 206 -79zM176 669l-7 9q107 96 257 99q152 -5 258 -99l-7 -9q-102 93 -251 98q-148 -5 -250 -98zM529 298v-1l-8 7q24 30 26 76q-1 43 -27 76l9 8q28 -35 28 -84t-28 -83v1z" glyph-name="logicalnot" horiz-adv-x="852" unicode="¬"/>
<glyph d="M0 0v1v-1z" glyph-name="uni00AD" horiz-adv-x="174" unicode="­"/>
<glyph d="M342 -9q-183 3 -249 111q-66 109 -62 277q-4 168 62 278q66 107 249 112q183 -4 250 -112q66 -109 63 -278q3 -169 -63 -277q-68 -108 -250 -111zM342 46q150 3 204 96q53 93 49 237q4 143 -49 238q-54 92 -204 95q-149 -3 -202 -95q-53 -94 -50 -238q-3 -145 50 -237 q53 -93 202 -96zM511 149h-97l-72 164h-60v-164h-95v464h177q88 0 120 -38q32 -37 30 -108q7 -112 -81 -145zM282 391v-1h78q32 -2 47.5 15.5t13.5 54.5q2 37 -13.5 54.5t-47.5 15.5h-78v-140v1z" glyph-name="registered" unicode="®"/>
<glyph d="M65 636v-1v128h368v-128h-368v0v1z" glyph-name="macron" horiz-adv-x="498" unicode="¯"/>
<glyph d="M243 272q-123 3 -167 74t-41 174q-3 103 41 174t167 74q125 -3 169 -74t41 -174q3 -103 -41 -174t-169 -74zM243 389v-1q54 1 70 37t15 91q2 56 -15 90q-17 35 -70 36q-53 -2 -69 -36t-15 -90q-1 -55 15 -91q16 -35 69 -37v1z" glyph-name="degree" horiz-adv-x="485" unicode="°"/>
<glyph d="M568 0h-155v445h-152v-445h-154v445h-94v135h94v47q-2 88 48.5 133t153.5 46l54 -1v-135h-38q-40 1 -52 -14q-13 -15 -12 -46v-30h152v47q-2 88 49 133t155 46l52 -1v-135h-38q-38 1 -52 -14q-12 -16 -11 -46v-30h101v-135h-101v-445zM935 1v-1l-57 -2q-79 -1 -119 33 q-39 36 -39 134v622h155v-601q-2 -33 8 -43q11 -11 52 -9v-134v1z" glyph-name="plusminus" horiz-adv-x="966" unicode="±"/>
<glyph d="M46 263v-1v90l126 134l67 77q15 22 13 43q-2 53 -58 46q-56 -3 -99 -24l-52 102q54 30 171 35q81 -1 121 -35t39 -102q1 -55 -21 -98q-23 -42 -92 -110l-56 -58h178v-100h-337v1z" glyph-name="twosuperior" horiz-adv-x="441" unicode="²"/>
<glyph d="M212 257v-1q-105 -1 -170 38l52 95q49 -28 108 -28q42 0 58 14q14 14 13 48q1 29 -15 39q-17 11 -62 11h-77v98h77q35 -1 51.5 10t12.5 33q2 24 -13 34.5t-47 6.5q-57 0 -102 -22l-50 95q63 34 173 37q74 1 118 -25q42 -26 42 -96q5 -86 -48 -110q35 -10 48 -39 q13 -28 12 -86q0 -85 -46 -119q-48 -35 -135 -34v1z" glyph-name="threesuperior" horiz-adv-x="447" unicode="³"/>
<glyph d="M159 636v-1l109 187h171l-148 -187h-132v0v1z" glyph-name="acute" horiz-adv-x="498" unicode="´"/>
<glyph d="M49 -161v-1v742h156v-334q-1 -62 12 -90t71 -27q56 -1 72 28q14 29 12 90v333h152v-343q3 -130 -46 -188q-48 -58 -184 -57q-60 0 -90 24v-178h-155v1z" glyph-name="mu" horiz-adv-x="568" unicode="µ"/>
<glyph d="M324 0h-151v270q-83 25 -115 87t-30 151q-4 117 54 183q57 66 218 68h236v-759h-151v255h-61v-255zM297 389v-1h88v231h-88q-60 2 -88 -27t-24 -89q-4 -59 24.5 -88t87.5 -27v1z" glyph-name="paragraph" horiz-adv-x="587" unicode="¶"/>
<glyph d="M45 285v-1v188h176v-188h-176v0v1z" glyph-name="periodcentered" horiz-adv-x="266" unicode="·"/>
<glyph d="M256 -248v-1q-66 0 -121 27l33 71q44 -17 77 -15q55 -2 51 39q3 45 -74 34l-26 19l16 81h84l-9 -50q47 4 78 -16q29 -19 31 -79q6 -116 -140 -111v1z" glyph-name="cedilla" horiz-adv-x="498" unicode="¸"/>
<glyph d="M115 263v-1v384h-70v113h199v-497h-129v0v1z" glyph-name="onesuperior" horiz-adv-x="329" unicode="¹"/>
<glyph d="M254 280q-122 2 -165 66q-44 65 -42 178q-1 111 42 177q44 66 165 67q123 -1 167 -68q44 -65 41 -176q3 -113 -41 -178t-167 -66zM254 391q54 0 67 34q15 33 13 96q2 62 -13 95q-13 34 -67 34q-51 0 -66 -34q-15 -36 -14 -95q-1 -60 14 -96q15 -34 66 -34zM65 122v-1v110 h378v-110h-378v1z" glyph-name="ordmasculine" horiz-adv-x="508" unicode="º"/>
<glyph d="M88 0l118 291l-118 289h137l128 -289l-128 -291h-137zM341 1v-1l117 291l-117 289h136l127 -289l-127 -291h-136v0v1z" glyph-name="guillemotright" horiz-adv-x="669" unicode="»"/>
<glyph d="M192 0l349 759h137l-348 -759h-138zM501 84v93l173 319h127l-171 -313h82l21 107h93v-107h60v-99h-60v-84h-115v84h-210zM118 263v-1v384h-69v113h198v-497h-129v0v1z" glyph-name="onequarter" horiz-adv-x="365" unicode="¼"/>
<glyph d="M330 0h-138l349 759h137zM247 262h-129v384h-69v113h198v-497zM582 1v-1v90l126 134q55 58 67 78q15 20 13 42q0 54 -59 46q-56 -3 -98 -24l-51 102q56 32 171 36q80 -1 120.5 -35.5t39.5 -102.5q1 -54 -23 -98q-25 -45 -91 -111l-56 -57h178v-100h-337v1z" glyph-name="onehalf" horiz-adv-x="365" unicode="½"/>
<glyph d="M212 256q-105 -1 -170 38l52 95q49 -28 108 -28q42 0 58 14q14 14 13 48q1 29 -15 39q-17 11 -62 11h-77v98h77q35 -1 51.5 10t12.5 33q2 24 -13 34.5t-47 6.5q-57 0 -102 -22l-50 95q63 34 173 37q74 1 118 -25q42 -26 42 -96q5 -86 -48 -110q35 -10 48 -39 q13 -28 12 -86q0 -85 -46 -119q-48 -35 -135 -34zM421 0h-138l349 759h137zM592 85v-1v93l174 319h127l-171 -313h82l22 107h92v-107h59v-99h-59v-84h-115v84h-211v1z" glyph-name="threequarters" horiz-adv-x="557" unicode="¾"/>
<glyph d="M291 -9q-134 2 -184 50q-50 50 -47 133q0 80 27 120q28 42 74 76q59 46 72 75q14 30 11 91h152q2 -83 -16 -125q-19 -45 -88 -98l-59 -55q-17 -23 -17 -53q-1 -32 20 -52q19 -19 82 -19q83 3 152 38l68 -130q-92 -50 -247 -51zM232 599v-1v161h176v-161h-176v1z" glyph-name="questiondown" horiz-adv-x="593" unicode="¿"/>
<glyph d="M294 797l-148 188h172l108 -188h-132zM14 0l236 764h172l237 -764h-165l-35 118h-251l-34 -118h-160zM246 260v-1h174l-86 288l-88 -288v0v1z" glyph-name="Agrave" horiz-adv-x="672" unicode="À"/>
<glyph d="M245 797l109 188h171l-148 -188h-132zM14 0l236 764h172l237 -764h-165l-35 118h-251l-34 -118h-160zM246 260v-1h174l-86 288l-88 -288v0v1z" glyph-name="Aacute" horiz-adv-x="672" unicode="Á"/>
<glyph d="M153 797l111 188h143l112 -188h-122l-63 81l-61 -81h-120zM14 0l236 764h172l237 -764h-165l-35 118h-251l-34 -118h-160zM246 260v-1h174l-86 288l-88 -288v0v1z" glyph-name="Acircumflex" horiz-adv-x="672" unicode="Â"/>
<glyph d="M216 791l-99 58q55 114 149 112q40 -1 70 -22q28 -19 51 -22q30 -1 65 49l98 -57q-56 -116 -148 -114q-42 3 -71 22q-28 19 -50 21q-30 3 -65 -47zM174 0h-160l236 764h172l237 -764h-165l-35 118h-251zM246 260v-1h174l-86 288l-88 -288v1z" glyph-name="Atilde" horiz-adv-x="672" unicode="Ã"/>
<glyph d="M167 797v138h137v-138h-137zM368 797v138h136v-138h-136zM14 0l236 764h172l237 -764h-165l-35 118h-251l-34 -118h-160zM246 260v-1h174l-86 288l-88 -288v0v1z" glyph-name="Adieresis" horiz-adv-x="672" unicode="Ä"/>
<glyph d="M174 0h-160l225 728q-30 37 -30 100q-1 60 28 99q28 38 98 40q68 -2 98 -40t29 -99q1 -61 -30 -98l227 -730h-165l-35 118h-251zM334 547l-88 -288h174zM335 766v-1q55 3 50 63q4 61 -50 65q-54 -5 -50 -65q-4 -60 50 -63v1z" glyph-name="Aring" horiz-adv-x="672" unicode="Å"/>
<glyph d="M9 0l363 759h548v-147h-312v-154h297v-143h-297v-172h313v-143h-469v120h-229l-56 -120h-158zM288 258v-1h164v342l-164 -342v0v1z" glyph-name="AE" horiz-adv-x="962" unicode="Æ"/>
<glyph d="M295 -248v-1q-65 0 -121 27l33 71l77 -15q56 -2 51 39q3 45 -74 34l-26 19l14 73q-125 26 -174 124q-49 97 -47 256q-4 175 61 281q66 105 255 108q124 -2 206 -56l-86 -133q-45 30 -125 32q-78 3 -114 -48q-35 -52 -34 -188q-1 -135 34 -189q35 -53 115 -51 q76 -1 134 39l79 -124q-44 -29 -95 -44l-126 -15l-6 -34q47 4 78 -16q30 -19 30 -79q4 -58 -31 -85.5t-108 -25.5v1z" glyph-name="Ccedilla" horiz-adv-x="577" unicode="Ç"/>
<glyph d="M244 797l-149 188h173l108 -188h-132zM60 1v-1v759h468v-147h-312v-151h298v-146h-298v-172h313v-143h-469v0v1z" glyph-name="Egrave" horiz-adv-x="570" unicode="È"/>
<glyph d="M195 797l108 188h171l-147 -188h-132zM60 1v-1v759h468v-147h-312v-151h298v-146h-298v-172h313v-143h-469v0v1z" glyph-name="Eacute" horiz-adv-x="570" unicode="É"/>
<glyph d="M103 797l111 188h143l112 -188h-123l-62 81l-62 -81h-119zM60 1v-1v759h468v-147h-312v-151h298v-146h-298v-172h313v-143h-469v0v1z" glyph-name="Ecircumflex" horiz-adv-x="570" unicode="Ê"/>
<glyph d="M117 797v138h137v-138h-137zM318 797v138h136v-138h-136zM60 1v-1v759h468v-147h-312v-151h298v-146h-298v-172h313v-143h-469v0v1z" glyph-name="Edieresis" horiz-adv-x="570" unicode="Ë"/>
<glyph d="M91 798l-132 188h171l93 -188h-132zM69 1v-1v759h160v-759h-160v0v1z" glyph-name="Igrave" horiz-adv-x="297" unicode="Ì"/>
<glyph d="M73 798l94 188h170l-133 -188h-131zM69 1v-1v759h160v-759h-160v0v1z" glyph-name="Iacute" horiz-adv-x="297" unicode="Í"/>
<glyph d="M-34 798l111 188h142l112 -188h-123l-61 81l-61 -81h-120zM69 1v-1v759h160v-759h-160v0v1z" glyph-name="Icircumflex" horiz-adv-x="297" unicode="Î"/>
<glyph d="M-19 797v138h137v-138h-137zM181 797v138h137v-138h-137zM69 1v-1v759h160v-759h-160v0v1z" glyph-name="Idieresis" horiz-adv-x="297" unicode="Ï"/>
<glyph d="M60 317h-60v130h60v312h236q179 3 257 -81q79 -83 77 -298q2 -219 -76 -301q-79 -83 -258 -79h-236v317zM220 140v-1h91q82 -3 120 47t36 193q1 141 -36 189q-38 49 -125 44h-86v-165h108v-130h-108v-178v1z" glyph-name="Eth" horiz-adv-x="657" unicode="Ð"/>
<glyph d="M225 791l-100 58q55 114 150 112q39 -1 69 -22q29 -19 52 -22q29 -2 64 49l98 -57q-55 -115 -148 -114q-42 3 -71 22q-28 19 -50 21q-29 3 -64 -47zM60 1v-1v759h170l248 -438v438h153v-759h-147l-272 473v-473h-152v1z" glyph-name="Ntilde" horiz-adv-x="689" unicode="Ñ"/>
<glyph d="M432 797h-132l-148 188h172zM342 -9q-198 5 -259 116q-61 112 -55 272q-6 160 55 272t259 117q197 -4 259 -117q61 -111 56 -272q5 -161 -56 -272t-259 -116zM342 134v-1q99 2 127 66q28 63 25 175q3 110 -25 173q-28 64 -127 66q-98 -1 -126 -66q-28 -63 -25 -173 q-3 -112 25 -175q28 -65 126 -66v1z" glyph-name="Ograve" unicode="Ò"/>
<glyph d="M383 797h-132l109 188h171zM342 -9q-198 5 -259 116q-61 112 -55 272q-6 160 55 272t259 117q197 -4 259 -117q61 -111 56 -272q5 -161 -56 -272t-259 -116zM342 134v-1q99 2 127 66q28 63 25 175q3 110 -25 173q-28 64 -127 66q-98 -1 -126 -66q-28 -63 -25 -173 q-3 -112 25 -175q28 -65 126 -66v1z" glyph-name="Oacute" unicode="Ó"/>
<glyph d="M279 797h-120l112 188h142l113 -188h-123l-63 81zM342 -9q-198 5 -259 116q-61 112 -55 272q-6 160 55 272t259 117q197 -4 259 -117q61 -111 56 -272q5 -161 -56 -272t-259 -116zM342 134v-1q99 2 127 66q28 63 25 175q3 110 -25 173q-28 64 -127 66q-98 -1 -126 -66 q-28 -63 -25 -173q-3 -112 25 -175q28 -65 126 -66v1z" glyph-name="Ocircumflex" unicode="Ô"/>
<glyph d="M222 791l-99 58q55 114 150 112q39 -1 69 -22q29 -19 51 -22q30 -1 65 49l98 -57q-56 -116 -148 -114q-42 3 -71 22q-28 19 -50 21q-30 3 -65 -47zM342 -9q-198 5 -259 116q-61 112 -55 272q-6 160 55 272t259 117q197 -4 259 -117q61 -111 56 -272q5 -161 -56 -272 t-259 -116zM342 134v-1q99 2 127 66q28 63 25 175q3 110 -25 173q-28 64 -127 66q-98 -1 -126 -66q-28 -63 -25 -173q-3 -112 25 -175q28 -65 126 -66v1z" glyph-name="Otilde" unicode="Õ"/>
<glyph d="M311 797h-138v138h138v-138zM510 797h-136v138h136v-138zM342 -9q-198 5 -259 116q-61 112 -55 272q-6 160 55 272t259 117q197 -4 259 -117q61 -111 56 -272q5 -161 -56 -272t-259 -116zM342 134v-1q99 2 127 66q28 63 25 175q3 110 -25 173q-28 64 -127 66 q-98 -1 -126 -66q-28 -63 -25 -173q-3 -112 25 -175q28 -65 126 -66v1z" glyph-name="Odieresis" unicode="Ö"/>
<glyph d="M185 138v-1l-95 96l127 127l-126 126l95 96l126 -126l127 126l94 -96l-127 -126l126 -125l-93 -97l-127 126l-127 -127v0v1z" glyph-name="multiply" horiz-adv-x="624" unicode="×"/>
<glyph d="M216 -42h-136l46 98q-60 57 -79 139q-21 84 -19 184q-6 160 55 272t259 117l105 -12l21 46h137l-48 -100q60 -56 81 -139q20 -90 19 -184q5 -161 -56 -272t-259 -116l-105 11zM291 131l51 -5q101 2 131 68q29 69 26 180q2 104 -22 167zM186 375v-1q-3 -100 18 -164 l183 406l-45 4q-102 -2 -130 -68q-30 -68 -26 -178v1z" glyph-name="Oslash" unicode="Ø"/>
<glyph d="M431 797h-132l-148 188h172zM342 -11v-1q-160 2 -225 72q-65 71 -62 206v493h160v-478q-1 -76 26 -113q27 -36 103 -35q75 -1 104 34q28 33 26 114v478h156v-493q3 -135 -62 -206t-226 -72v1z" glyph-name="Ugrave" unicode="Ù"/>
<glyph d="M382 797h-132l109 188h171zM342 -11v-1q-160 2 -225 72q-65 71 -62 206v493h160v-478q-1 -76 26 -113q27 -36 103 -35q75 -1 104 34q28 33 26 114v478h156v-493q3 -135 -62 -206t-226 -72v1z" glyph-name="Uacute" unicode="Ú"/>
<glyph d="M278 797h-120l112 188h142l113 -188h-123l-63 81zM342 -11v-1q-160 2 -225 72q-65 71 -62 206v493h160v-478q-1 -76 26 -113q27 -36 103 -35q75 -1 104 34q28 33 26 114v478h156v-493q3 -135 -62 -206t-226 -72v1z" glyph-name="Ucircumflex" unicode="Û"/>
<glyph d="M309 797h-137v138h137v-138zM509 797h-136v138h136v-138zM342 -11v-1q-160 2 -225 72q-65 71 -62 206v493h160v-478q-1 -76 26 -113q27 -36 103 -35q75 -1 104 34q28 33 26 114v478h156v-493q3 -135 -62 -206t-226 -72v1z" glyph-name="Udieresis" unicode="Ü"/>
<glyph d="M230 797l108 188h171l-147 -188h-132zM240 1v-1v257l-242 502h171l154 -331l154 331h165l-242 -504v-255h-160v0v1z" glyph-name="Yacute" horiz-adv-x="641" unicode="Ý"/>
<glyph d="M217 0h-157v759h157v-112h134q149 -1 201 -66q53 -66 49 -183q4 -116 -49 -186t-204 -71h-131v-141zM217 277v-1h129q53 -2 77.5 27t21.5 88q6 121 -99 117h-129v-232v1z" glyph-name="Thorn" horiz-adv-x="623" unicode="Þ"/>
<glyph d="M49 1v-1v575q-1 98 53 160q55 61 188 62q126 1 181 -48t54 -151q5 -156 -70 -183q62 -12 86 -59t23 -139q3 -123 -58 -171q-59 -48 -212 -46h-35v138h35q69 -1 93 23q25 23 24 78q1 55 -24 75q-26 21 -95 20h-20v121h20q87 -5 84 99q1 50 -20.5 73.5t-65.5 21.5 q-46 1 -68 -21.5t-20 -68.5v-559h-153v1z" glyph-name="germandbls" horiz-adv-x="591" unicode="ß"/>
<glyph d="M370 635h-132l-149 187h172zM207 -7q-111 1 -148 52q-38 50 -35 130q-1 120 71 165q70 46 227 44h20q3 70 -77 68q-97 -3 -147 -30l-62 125q73 43 227 46q118 1 164 -45q47 -46 45 -153v-216q-4 -25 6 -36t34 -9v-134l-46 -2l-81 8q-26 11 -38 40q-41 -55 -160 -53z M243 121v-1q48 -2 72 20q27 22 27 81v53h-19q-83 1 -119 -16q-34 -16 -33 -66q-5 -74 72 -72v1z" glyph-name="agrave" horiz-adv-x="558" unicode="à"/>
<glyph d="M321 635h-132l108 187h171zM207 -7q-111 1 -148 52q-38 50 -35 130q-1 120 71 165q70 46 227 44h20q3 70 -77 68q-97 -3 -147 -30l-62 125q73 43 227 46q118 1 164 -45q47 -46 45 -153v-216q-4 -25 6 -36t34 -9v-134l-46 -2l-81 8q-26 11 -38 40q-41 -55 -160 -53z M243 121v-1q48 -2 72 20q27 22 27 81v53h-19q-83 1 -119 -16q-34 -16 -33 -66q-5 -74 72 -72v1z" glyph-name="aacute" horiz-adv-x="558" unicode="á"/>
<glyph d="M216 635h-119l111 187h142l113 -187h-123l-62 81zM207 -7q-111 1 -148 52q-38 50 -35 130q-1 120 71 165q70 46 227 44h20q3 70 -77 68q-97 -3 -147 -30l-62 125q73 43 227 46q118 1 164 -45q47 -46 45 -153v-216q-4 -25 6 -36t34 -9v-134l-46 -2l-81 8q-26 11 -38 40 q-41 -55 -160 -53zM243 121v-1q48 -2 72 20q27 22 27 81v53h-19q-83 1 -119 -16q-34 -16 -33 -66q-5 -74 72 -72v1z" glyph-name="acircumflex" horiz-adv-x="558" unicode="â"/>
<glyph d="M160 628l-99 58q55 115 149 112q40 -1 70 -22q28 -19 51 -22q29 -2 65 50l98 -58q-55 -115 -149 -113q-42 2 -70 21q-27 19 -50 22q-30 2 -65 -48zM207 -7q-111 1 -148 52q-38 50 -35 130q-1 120 71 165q70 46 227 44h20q3 70 -77 68q-97 -3 -147 -30l-62 125 q73 43 227 46q118 1 164 -45q47 -46 45 -153v-216q-4 -25 6 -36t34 -9v-134l-46 -2l-81 8q-26 11 -38 40q-41 -55 -160 -53zM243 121v-1q48 -2 72 20q27 22 27 81v53h-19q-83 1 -119 -16q-34 -16 -33 -66q-5 -74 72 -72v1z" glyph-name="atilde" horiz-adv-x="558" unicode="ã"/>
<glyph d="M248 635h-137v137h137v-137zM448 635h-136v137h136v-137zM207 -7q-111 1 -148 52q-38 50 -35 130q-1 120 71 165q70 46 227 44h20q3 70 -77 68q-97 -3 -147 -30l-62 125q73 43 227 46q118 1 164 -45q47 -46 45 -153v-216q-4 -25 6 -36t34 -9v-134l-46 -2l-81 8 q-26 11 -38 40q-41 -55 -160 -53zM243 121v-1q48 -2 72 20q27 22 27 81v53h-19q-83 1 -119 -16q-34 -16 -33 -66q-5 -74 72 -72v1z" glyph-name="adieresis" horiz-adv-x="558" unicode="ä"/>
<glyph d="M279 625q-69 1 -98 40t-28 98q-1 59 28 99q28 38 98 40q69 -2 97 -40q30 -39 30 -99q0 -61 -30 -98q-29 -38 -97 -40zM279 699q54 3 50 64q4 60 -50 64q-54 -5 -50 -64q-4 -61 50 -64zM207 -7q-111 1 -148 52q-38 50 -35 130q-1 120 71 165q70 46 227 44h20q3 70 -77 68 q-97 -3 -147 -30l-62 125q73 43 227 46q118 1 164 -45q47 -46 45 -153v-216q-4 -25 6 -36t34 -9v-134l-46 -2l-81 8q-26 11 -38 40q-41 -55 -160 -53zM243 121v-1q48 -2 72 20q27 22 27 81v53h-19q-83 1 -119 -16q-34 -16 -33 -66q-5 -74 72 -72v1z" glyph-name="aring" horiz-adv-x="558" unicode="å"/>
<glyph d="M587 -7q-135 1 -184 70q-22 -33 -67 -52q-45 -18 -129 -18q-111 1 -148 52q-38 50 -35 130q-1 120 71 165q70 46 227 44h20q3 70 -77 68q-97 -3 -147 -30l-62 125q73 43 227 46q114 0 154 -46q53 43 153 44q165 -5 198 -105q32 -105 22 -265h-320q3 -51 26 -74 q24 -23 79 -22l91 10q38 11 62 23l58 -117q-78 -47 -219 -48zM243 120q48 -2 72 20q27 22 27 81v53h-19q-83 1 -119 -16q-34 -16 -33 -66q-5 -74 72 -72zM587 456v-1q-54 1 -76 -28q-21 -28 -22 -86h184q1 55 -13 86q-15 28 -73 28v1z" glyph-name="ae" horiz-adv-x="840" unicode="æ"/>
<glyph d="M236 -248v-1q-67 0 -121 27l33 71q43 -16 77 -15q55 -2 51 39q3 45 -74 34l-27 19l15 74q-96 21 -130 96t-33 196q-5 140 48 219q53 78 205 80q107 -1 161 -31l-68 -134q-33 18 -85 20q-55 4 -81 -36t-22 -124q-2 -86 21 -124t85 -36q56 2 97 23l59 -118q-43 -20 -85 -31 l-89 -8l-7 -35q48 4 79 -16q28 -19 30 -79q3 -58 -31.5 -85.5t-107.5 -25.5v1z" glyph-name="ccedilla" horiz-adv-x="459" unicode="ç"/>
<glyph d="M354 635h-133l-148 187h172zM274 -7q-150 1 -201 78q-50 80 -46 221q-3 140 52 219q54 79 199 80q165 -3 196 -105q33 -102 23 -265h-321q5 -52 27 -74q23 -23 79 -22l91 10q41 13 61 23l59 -117q-78 -47 -219 -48zM274 456v-1q-56 2 -76 -28q-22 -29 -23 -86h186 q0 57 -15 86q-15 28 -72 28v1z" glyph-name="egrave" horiz-adv-x="527" unicode="è"/>
<glyph d="M304 635h-132l109 187h171zM274 -7q-150 1 -201 78q-50 80 -46 221q-3 140 52 219q54 79 199 80q165 -3 196 -105q33 -102 23 -265h-321q5 -52 27 -74q23 -23 79 -22l91 10q41 13 61 23l59 -117q-78 -47 -219 -48zM274 456v-1q-56 2 -76 -28q-22 -29 -23 -86h186 q0 57 -15 86q-15 28 -72 28v1z" glyph-name="eacute" horiz-adv-x="527" unicode="é"/>
<glyph d="M200 635h-120l112 187h142l113 -187h-123l-63 81zM274 -7q-150 1 -201 78q-50 80 -46 221q-3 140 52 219q54 79 199 80q165 -3 196 -105q33 -102 23 -265h-321q5 -52 27 -74q23 -23 79 -22l91 10q41 13 61 23l59 -117q-78 -47 -219 -48zM274 456v-1q-56 2 -76 -28 q-22 -29 -23 -86h186q0 57 -15 86q-15 28 -72 28v1z" glyph-name="ecircumflex" horiz-adv-x="527" unicode="ê"/>
<glyph d="M232 635h-138v137h138v-137zM431 635h-136v137h136v-137zM274 -7q-150 1 -201 78q-50 80 -46 221q-3 140 52 219q54 79 199 80q165 -3 196 -105q33 -102 23 -265h-321q5 -52 27 -74q23 -23 79 -22l91 10q41 13 61 23l59 -117q-78 -47 -219 -48zM274 456v-1q-56 2 -76 -28 q-22 -29 -23 -86h186q0 57 -15 86q-15 28 -72 28v1z" glyph-name="edieresis" horiz-adv-x="527" unicode="ë"/>
<glyph d="M76 635l-114 187h170l76 -187h-132zM53 1v-1v580h155v-580h-155v0v1z" glyph-name="igrave" horiz-adv-x="262" unicode="ì"/>
<glyph d="M55 635l73 187h171l-113 -187h-131zM53 1v-1v580h155v-580h-155v0v1z" glyph-name="iacute" horiz-adv-x="262" unicode="í"/>
<glyph d="M-40 635l100 187h142l99 -187h-123l-49 81l-49 -81h-120zM53 1v-1v580h155v-580h-155v0v1z" glyph-name="icircumflex" horiz-adv-x="262" unicode="î"/>
<glyph d="M-16 635v137h122v-137h-122zM156 635v137h122v-137h-122zM53 1v-1v580h155v-580h-155v0v1z" glyph-name="idieresis" horiz-adv-x="262" unicode="ï"/>
<glyph d="M338 595l-97 -21v93l54 12l-45 57l120 69q42 -35 76 -95l98 21v-93l-59 -13q53 -139 54 -306q5 -150 -44 -237q-50 -90 -212 -91q-141 2 -199 75q-59 75 -57 209q-2 116 45 190q49 75 170 76q86 0 130 -42zM283 127v-1q65 2 83 42q18 39 16 104q2 65 -16 103 q-18 40 -83 42q-65 -2 -83 -42q-19 -38 -16 -103q-3 -64 16 -104q18 -40 83 -42v1z" glyph-name="eth" horiz-adv-x="566" unicode="ð"/>
<glyph d="M167 628l-99 58q55 115 149 112q40 -1 70 -22q28 -19 51 -22q29 -2 65 50l98 -58q-55 -115 -148 -113q-43 2 -71 21q-27 19 -50 22q-30 2 -65 -48zM49 1v-1v571l124 10l12 -46q35 55 176 56q103 -1 138 -61q34 -57 32 -150v-380h-156v341q2 51 -12 77q-13 25 -63 25 q-60 0 -79 -30t-17 -94v-319h-155v1z" glyph-name="ntilde" horiz-adv-x="575" unicode="ñ"/>
<glyph d="M372 635h-132l-149 187h172zM283 -9q-149 1 -205 81q-54 80 -51 220q-3 137 51 217q55 81 205 82q152 -2 205 -83q53 -80 50 -216q3 -141 -50 -221q-52 -78 -205 -80zM283 127v-1q65 0 83 42t16 118q2 79 -16 118q-18 42 -83 42t-83 -42q-19 -40 -16 -118q-3 -76 16 -118 q18 -42 83 -42v1z" glyph-name="ograve" horiz-adv-x="564" unicode="ò"/>
<glyph d="M323 635h-132l108 187h171zM283 -9q-149 1 -205 81q-54 80 -51 220q-3 137 51 217q55 81 205 82q152 -2 205 -83q53 -80 50 -216q3 -141 -50 -221q-52 -78 -205 -80zM283 127v-1q65 0 83 42t16 118q2 79 -16 118q-18 42 -83 42t-83 -42q-19 -40 -16 -118q-3 -76 16 -118 q18 -42 83 -42v1z" glyph-name="oacute" horiz-adv-x="564" unicode="ó"/>
<glyph d="M218 635h-119l111 187h143l112 -187h-123l-62 81zM283 -9q-149 1 -205 81q-54 80 -51 220q-3 137 51 217q55 81 205 82q152 -2 205 -83q53 -80 50 -216q3 -141 -50 -221q-52 -78 -205 -80zM283 127v-1q65 0 83 42t16 118q2 79 -16 118q-18 42 -83 42t-83 -42 q-19 -40 -16 -118q-3 -76 16 -118q18 -42 83 -42v1z" glyph-name="ocircumflex" horiz-adv-x="564" unicode="ô"/>
<glyph d="M162 628l-99 58q55 115 149 112q40 -1 70 -22q28 -19 51 -22q29 -2 65 50l98 -58q-55 -115 -149 -113q-42 2 -70 21q-27 19 -50 22q-30 2 -65 -48zM283 -9q-149 1 -205 81q-54 80 -51 220q-3 137 51 217q55 81 205 82q152 -2 205 -83q53 -80 50 -216q3 -141 -50 -221 q-52 -78 -205 -80zM283 127v-1q65 0 83 42t16 118q2 79 -16 118q-18 42 -83 42t-83 -42q-19 -40 -16 -118q-3 -76 16 -118q18 -42 83 -42v1z" glyph-name="otilde" horiz-adv-x="564" unicode="õ"/>
<glyph d="M250 635h-137v137h137v-137zM450 635h-136v137h136v-137zM283 -9q-149 1 -205 81q-54 80 -51 220q-3 137 51 217q55 81 205 82q152 -2 205 -83q53 -80 50 -216q3 -141 -50 -221q-52 -78 -205 -80zM283 127v-1q65 0 83 42t16 118q2 79 -16 118q-18 42 -83 42t-83 -42 q-19 -40 -16 -118q-3 -76 16 -118q18 -42 83 -42v1z" glyph-name="odieresis" horiz-adv-x="564" unicode="ö"/>
<glyph d="M235 96v133h153v-133h-153zM77 290v142h470v-142h-470zM235 492v-1v133h153v-133h-153v0v1z" glyph-name="divide" horiz-adv-x="623" unicode="÷"/>
<glyph d="M169 -45h-122l51 95q-76 79 -71 242q-3 137 51 217q55 81 205 82l93 -12l25 45h124l-54 -97q72 -80 67 -235q3 -141 -50 -221q-52 -78 -205 -80l-89 9zM177 286q-1 -50 8 -89l129 251l-31 3q-68 0 -87 -43q-21 -42 -19 -122zM283 123v-1q68 0 87 43t18 121q2 51 -6 86 l-129 -247l30 -3v1z" glyph-name="oslash" horiz-adv-x="564" unicode="ø"/>
<glyph d="M373 635h-132l-149 187h172zM283 -7v-1q-139 -1 -190 57t-48 188v343h156v-334q-1 -62 12 -90t72 -27q55 -1 71 28q14 29 12 90v333h152v-343q4 -128 -46 -188q-50 -59 -191 -57v1z" glyph-name="ugrave" horiz-adv-x="565" unicode="ù"/>
<glyph d="M324 635h-132l108 187h171zM283 -7v-1q-139 -1 -190 57t-48 188v343h156v-334q-1 -62 12 -90t72 -27q55 -1 71 28q14 29 12 90v333h152v-343q4 -128 -46 -188q-50 -59 -191 -57v1z" glyph-name="uacute" horiz-adv-x="565" unicode="ú"/>
<glyph d="M219 635h-119l111 187h143l112 -187h-123l-62 81zM283 -7v-1q-139 -1 -190 57t-48 188v343h156v-334q-1 -62 12 -90t72 -27q55 -1 71 28q14 29 12 90v333h152v-343q4 -128 -46 -188q-50 -59 -191 -57v1z" glyph-name="ucircumflex" horiz-adv-x="565" unicode="û"/>
<glyph d="M251 635h-137v137h137v-137zM451 635h-136v137h136v-137zM283 -7v-1q-139 -1 -190 57t-48 188v343h156v-334q-1 -62 12 -90t72 -27q55 -1 71 28q14 29 12 90v333h152v-343q4 -128 -46 -188q-50 -59 -191 -57v1z" glyph-name="udieresis" horiz-adv-x="565" unicode="ü"/>
<glyph d="M296 635h-132l109 187h171zM70 -161v-1v124h65q37 -1 40 24l3 14l-177 580h159l98 -356l98 356h152l-191 -625q-23 -73 -66 -96t-117 -21h-64v1z" glyph-name="yacute" horiz-adv-x="510" unicode="ý"/>
<glyph d="M204 -162h-155v949h154v-252q17 27 53 41t105 15q125 -5 162 -90q36 -88 32 -209q4 -124 -35 -211q-39 -85 -165 -88l-96 11q-35 11 -55 34v-200zM307 128v-1q57 0 75 39q18 40 17 118q1 78 -16 121q-17 41 -76 41q-65 0 -85 -42q-20 -40 -18 -120q-2 -78 17 -117 q19 -40 86 -40v1z" glyph-name="thorn" horiz-adv-x="582" unicode="þ"/>
</font>
</defs>
</svg>
