<svg xmlns="http://www.w3.org/2000/svg" viewBox="0 0 201.14 104.23"><g id="Layer_2" data-name="Layer 2"><g id="Layer_1-2" data-name="Layer 1"><path d="M197.4.41a5.32,5.32,0,0,1,1.52.22,3.08,3.08,0,0,1,1.24.69,2.74,2.74,0,0,1,.75,1.09,3.61,3.61,0,0,1,.23,1.33,4.17,4.17,0,0,1-.25,1.45,3,3,0,0,1-.76,1.18,3.27,3.27,0,0,1-1.29.74,5.28,5.28,0,0,1-1.63.25,5.42,5.42,0,0,1-1.52-.21,3.43,3.43,0,0,1-1.26-.65,2.56,2.56,0,0,1-.79-1.07,3.7,3.7,0,0,1-.25-1.37,4,4,0,0,1,.28-1.5,3.1,3.1,0,0,1,.82-1.2A3.54,3.54,0,0,1,195.8.64,5.68,5.68,0,0,1,197.4.41Zm0,.75a4.43,4.43,0,0,0-1.27.18,2.61,2.61,0,0,0-1,.59,2.52,2.52,0,0,0-.65,1,3.22,3.22,0,0,0-.21,1.16,2.83,2.83,0,0,0,.22,1.09,2.38,2.38,0,0,0,.63.84,2.6,2.6,0,0,0,1,.48,4.62,4.62,0,0,0,1.19.15,4.24,4.24,0,0,0,1.25-.18,2.38,2.38,0,0,0,1-.56,2.34,2.34,0,0,0,.62-.93,3.35,3.35,0,0,0,.2-1.15,3.21,3.21,0,0,0-.18-1.07,2.26,2.26,0,0,0-.58-.88,2.36,2.36,0,0,0-1-.53A4.29,4.29,0,0,0,197.39,1.16ZM195.52,5.7c.07-.63.12-1.25.14-1.85s0-1.23,0-1.84h.59l.51,0h.62a3.89,3.89,0,0,1,.9.07,1.05,1.05,0,0,1,.44.2.83.83,0,0,1,.27.32,1.08,1.08,0,0,1,.08.42,1.14,1.14,0,0,1-.09.46,1,1,0,0,1-.3.38,1.76,1.76,0,0,1-.47.25c.09.23.21.5.37.82s.28.58.37.79h-1.33l-.19-.58a1.55,1.55,0,0,0-.08-.23l-.5-1.3.36,0a1.21,1.21,0,0,0,.34-.05.44.44,0,0,0,.24-.17.43.43,0,0,0,.08-.24.33.33,0,0,0-.06-.19.35.35,0,0,0-.2-.11,1.51,1.51,0,0,0-.43,0h-.37q0,.45-.06,1.44c0,.65,0,1.13,0,1.43h-1.24Z"/><path d="M4.71,20.83c.41-2.17.68-3.66.79-4.48s.28-2.1.52-3.85a78.21,78.21,0,0,1,16.3-2.07,27.26,27.26,0,0,1,7.11.87,10.45,10.45,0,0,1,5,2.8,7.81,7.81,0,0,1,1.81,5.55c0,1.22-.16,4-.49,8.26s-.58,9.91-.76,16.86c-2.15,0-4.29-.07-6.42-.07s-4.26,0-6.59.07q.45-3.62,1-14.89c-.83.39-1.49.68-2,.85s-1.29.44-2.48.79-2.1.64-2.77.88a6.81,6.81,0,0,0-1.74.92A3.69,3.69,0,0,0,13,34.47a2.72,2.72,0,0,0-.31,1.31,2.43,2.43,0,0,0,.88,1.9,4.21,4.21,0,0,0,2.84.79,11.36,11.36,0,0,0,1.48-.11,13.85,13.85,0,0,0,2.17-.58c-.64,1.69-1.39,4.15-2.27,7.38a33.21,33.21,0,0,1-5.37.46,17.8,17.8,0,0,1-6.79-1.13,8.42,8.42,0,0,1-4.19-3.66,10,10,0,0,1-1.46-5,8.79,8.79,0,0,1,.54-3,10,10,0,0,1,1.7-2.88,11.33,11.33,0,0,1,2.7-2.41,18.64,18.64,0,0,1,4.22-1.89A55,55,0,0,1,16,23.91c1.14-.22,2.19-.45,3.14-.71a13.06,13.06,0,0,0,2-.65,3.42,3.42,0,0,0,1-.66,2.39,2.39,0,0,0,.54-.78,2.36,2.36,0,0,0,.17-.87,2.16,2.16,0,0,0-1.06-1.92,5.76,5.76,0,0,0-3.09-.67Q13,17.65,4.71,20.83Z"/><path d="M37.24,44.77q.93-10.33,1.61-24.07T39.54,0c2.55,0,4.93.07,7.15.07S51,0,53.08,0q-.72,5.12-1,11.25c2-.33,3.53-.55,4.61-.66a31.26,31.26,0,0,1,3.19-.16A21.38,21.38,0,0,1,68.5,12a12.84,12.84,0,0,1,5.86,5.36,17.72,17.72,0,0,1,2.25,9.22,23.3,23.3,0,0,1-2.14,10,15.28,15.28,0,0,1-5.72,6.79,15.64,15.64,0,0,1-8.36,2.21A15.45,15.45,0,0,1,57,45.26a11,11,0,0,1-2.93-1.07,11.18,11.18,0,0,1-2.21-1.49,21.63,21.63,0,0,1-2-2.13l-.12,4.2c-2.35,0-4.32-.07-5.9-.07C42.51,44.7,40.32,44.73,37.24,44.77ZM51.1,20.47q-.23,5.45-.23,6.65A17.65,17.65,0,0,0,51.41,32a5.31,5.31,0,0,0,2.07,2.89A5.86,5.86,0,0,0,56.93,36a5.69,5.69,0,0,0,3.45-1.08,6.67,6.67,0,0,0,2.26-3.17,12.62,12.62,0,0,0,.77-4.38,8,8,0,0,0-1.86-5.52,6.82,6.82,0,0,0-5.36-2.09A21.6,21.6,0,0,0,51.1,20.47Z"/><path d="M81,20.83c.42-2.17.68-3.66.79-4.48s.28-2.1.53-3.85a78.13,78.13,0,0,1,16.29-2.07,27.26,27.26,0,0,1,7.11.87,10.45,10.45,0,0,1,5,2.8,7.81,7.81,0,0,1,1.81,5.55c0,1.22-.16,4-.49,8.26s-.58,9.91-.76,16.86c-2.15,0-4.29-.07-6.42-.07s-4.26,0-6.59.07q.45-3.62,1-14.89c-.83.39-1.48.68-2,.85s-1.3.44-2.48.79-2.11.64-2.78.88a6.81,6.81,0,0,0-1.74.92,3.69,3.69,0,0,0-1,1.15A2.72,2.72,0,0,0,89,35.78a2.41,2.41,0,0,0,.89,1.9,4.16,4.16,0,0,0,2.83.79,11.36,11.36,0,0,0,1.48-.11,13.57,13.57,0,0,0,2.17-.58c-.64,1.69-1.39,4.15-2.27,7.38a33.21,33.21,0,0,1-5.37.46A17.8,17.8,0,0,1,82,44.49a8.4,8.4,0,0,1-4.18-3.66,9.93,9.93,0,0,1-1.47-5,8.79,8.79,0,0,1,.54-3,10.27,10.27,0,0,1,1.7-2.88,11.73,11.73,0,0,1,2.7-2.41,18.54,18.54,0,0,1,4.23-1.89,54.36,54.36,0,0,1,6.79-1.67c1.14-.22,2.19-.45,3.14-.71a13.06,13.06,0,0,0,2-.65,3.42,3.42,0,0,0,1-.66,2.39,2.39,0,0,0,.54-.78,2.36,2.36,0,0,0,.17-.87,2.15,2.15,0,0,0-1-1.92,5.83,5.83,0,0,0-3.1-.67Q89.35,17.65,81,20.83Z"/><path d="M113.45,44.77l.59-7.06,1.27-24.51L115.67,0c3,0,5.35.07,6.89.07,2,0,4.2,0,6.62-.07l-.75,10.07-1.21,24.79L127,44.77l-6.36,0Z"/><path d="M133.39,20.83c.41-2.17.68-3.66.79-4.48s.28-2.1.52-3.85A78.21,78.21,0,0,1,151,10.43a27.26,27.26,0,0,1,7.11.87,10.45,10.45,0,0,1,5,2.8A7.81,7.81,0,0,1,165,19.65c0,1.22-.17,4-.49,8.26s-.58,9.91-.76,16.86c-2.15,0-4.29-.07-6.42-.07s-4.26,0-6.59.07q.45-3.62,1-14.89c-.83.39-1.49.68-2,.85s-1.29.44-2.48.79-2.1.64-2.77.88a6.81,6.81,0,0,0-1.74.92,3.69,3.69,0,0,0-1.05,1.15,2.72,2.72,0,0,0-.31,1.31,2.43,2.43,0,0,0,.88,1.9,4.21,4.21,0,0,0,2.84.79,11.36,11.36,0,0,0,1.48-.11,13.85,13.85,0,0,0,2.17-.58c-.64,1.69-1.39,4.15-2.27,7.38a33.21,33.21,0,0,1-5.37.46,17.8,17.8,0,0,1-6.79-1.13,8.4,8.4,0,0,1-4.18-3.66,9.93,9.93,0,0,1-1.47-5,8.79,8.79,0,0,1,.54-3,10,10,0,0,1,1.7-2.88,11.33,11.33,0,0,1,2.7-2.41,18.64,18.64,0,0,1,4.22-1.89,55,55,0,0,1,6.8-1.67c1.14-.22,2.19-.45,3.14-.71a13.06,13.06,0,0,0,2-.65,3.42,3.42,0,0,0,1-.66,2.39,2.39,0,0,0,.54-.78,2.36,2.36,0,0,0,.17-.87,2.14,2.14,0,0,0-1.06-1.92,5.76,5.76,0,0,0-3.09-.67Q141.71,17.65,133.39,20.83Z"/><path d="M193.1,35.13c-.39,1.83-.73,3.63-1,5.38l-.72,4a49.71,49.71,0,0,1-5.09.91,31,31,0,0,1-3.54.2,23.91,23.91,0,0,1-5-.47,8.06,8.06,0,0,1-3.62-1.74,6.39,6.39,0,0,1-2-2.9,11.11,11.11,0,0,1-.53-3.48q0-.33,0-1.17c0-.55.1-1.79.23-3.72l.72-11.35h-5.13q.16-2.25.3-6l.1-3.06h5.45q.19-1.5.49-6.59L179.47,4c1-.2,3.22-.71,6.59-1.51q-.24,4.29-.33,9.24h7.5q-.25,6.82-.26,9H185.4L185,29c-.05,1.23-.07,2-.07,2.37a8.52,8.52,0,0,0,.35,2.62,2.52,2.52,0,0,0,1.22,1.51,4.12,4.12,0,0,0,1.92.46,11.87,11.87,0,0,0,1.65-.12A27,27,0,0,0,193.1,35.13Z"/><path d="M115.48,92.3a4.1,4.1,0,1,1-4-3,4.06,4.06,0,0,1,1.39.24,3.35,3.35,0,0,0,2.21-2.17,3.47,3.47,0,0,1-.19-.72c-.72-1.22-1.43-2.44-2.14-3.66-1.33.08-2.66.19-4,.31a4.42,4.42,0,0,0-.81,1.49,4.09,4.09,0,0,1-5.27,5,3.68,3.68,0,0,0-2.15,2.46,4.09,4.09,0,0,1-5.43,4.9A21.62,21.62,0,0,0,109,103.75l.46-.38c2.07-1.74,4.07-3.58,5.92-5.45,1.26-1.44,2.47-3,3.64-4.54-.66-1.07-1.32-2.14-2-3.22A3.87,3.87,0,0,0,115.48,92.3Z"/><path d="M38.53,74.73a3.71,3.71,0,0,0,2-2.4,4.08,4.08,0,0,1-.16-1.11,4,4,0,0,1,.23-1.35,3.7,3.7,0,0,0-2.46-2.13,4.13,4.13,0,0,1-1.11.15,4.08,4.08,0,1,1,4.1-4.08,3.88,3.88,0,0,1-.25,1.39,3.36,3.36,0,0,0,2.17,2.19,4.15,4.15,0,0,1,1.41-.26h0a4.42,4.42,0,0,1,.74.07c.33-.65.65-1.31,1-2A18.47,18.47,0,0,1,51,58.94c-7.33-6.35-16.46-9.32-29.42-5.64,2.2,1.84,4.17,3.67,6,5.48A95,95,0,0,1,38.53,74.73Z"/><path d="M71.11,88.63a4.09,4.09,0,0,1-.93-2.6,1.34,1.34,0,0,1,0-.2l-1.83-3.12L68,82.55a3.68,3.68,0,0,1-1.11.16,4.14,4.14,0,0,1-1.41-.25,3.33,3.33,0,0,0-2.19,2.16A4,4,0,0,1,63.49,86a4.08,4.08,0,0,1-.25,1.4,3.35,3.35,0,0,0,2.17,2.18,4,4,0,0,1,1.41-.26A4.09,4.09,0,1,1,63,92.09,3.68,3.68,0,0,0,60.5,90a4.16,4.16,0,0,1-3.12-.37c-.55.75-1.12,1.5-1.69,2.22A4.21,4.21,0,0,1,56,93.44a4.09,4.09,0,0,1-4.1,4.08,5.06,5.06,0,0,1-.69-.06,22.09,22.09,0,0,0,14,6.1c2-1.72,4-3.53,5.86-5.38,1.29-1.47,2.53-3,3.72-4.66C74,92.26,73.25,91,72.48,89.7A4.21,4.21,0,0,1,71.11,88.63Z"/><path d="M77.76,64.86a4.08,4.08,0,1,1,2.55,2.74,3.27,3.27,0,0,0-1.36.81c1.3,2,2.55,4.11,3.76,6.25a2.22,2.22,0,0,1,.39.12,3.69,3.69,0,0,0,2.13-2.43,4.16,4.16,0,0,1-.18-1.18,4.09,4.09,0,0,1,4.1-4.08,4.28,4.28,0,0,1,.72.07l1-1.93a18.37,18.37,0,0,1,4.58-6.13,30.82,30.82,0,0,0-7.54-5,.49.49,0,0,1-.11.14l-.08.09-.12,0A28.07,28.07,0,0,0,75,62.7c.79,1,1.56,2.11,2.31,3.2A5,5,0,0,0,77.76,64.86Z"/><path d="M127.81,74.75A3.35,3.35,0,0,0,130,72.59a4,4,0,0,1-.26-1.41,4.09,4.09,0,0,1,.26-1.4,3.37,3.37,0,0,0-2.17-2.18,4,4,0,0,1-1.41.26,4.09,4.09,0,1,1,3.87-2.74,3.66,3.66,0,0,0,2.45,2.13,4.07,4.07,0,0,1,1.11-.15h.35l.93-1.88A18.58,18.58,0,0,1,139.79,59a31,31,0,0,0-7.37-4.87l-.07.09-.09.09-.12,0a28.19,28.19,0,0,0-12.67,8.4,109,109,0,0,1,7.62,11.77A4.23,4.23,0,0,1,127.81,74.75Z"/><path d="M160.48,88.63a4,4,0,0,1-.71-1.22c-1-1.6-1.89-3.21-2.82-4.81a4.9,4.9,0,0,1-.77.07h0a4.15,4.15,0,0,1-1.37-.24,3.72,3.72,0,0,0-2.14,2.45,4.08,4.08,0,0,1,.16,1.11,4,4,0,0,1-.24,1.35,3.72,3.72,0,0,0,2.47,2.13A4.06,4.06,0,1,1,152.3,92a3.35,3.35,0,0,0-2.16-2.19,4.21,4.21,0,0,1-1.42.26h0a4,4,0,0,1-2.44-.82c-.5.68-1,1.36-1.51,2a4,4,0,0,1,.6,2.12,4.09,4.09,0,0,1-4.09,4.08,4,4,0,0,1-1.74-.39c10.39,11.14,30.54,5.27,28.45,3.15C165.31,96.58,162.86,92.63,160.48,88.63Z"/><path d="M176.8,54.08l-.14.18-.09.09-.12,0a27.92,27.92,0,0,0-12.53,8.26,113.55,113.55,0,0,1,8.85,13.93l20.66-5.45C188.71,64.32,183.51,57.13,176.8,54.08Z"/><path d="M20.57,103.63c2.08-1.74,4.07-3.57,5.93-5.45,1.26-1.44,2.47-3,3.64-4.54C28,90.24,26,86.74,24,83.27L.05,86.5Q1.52,89.43,3,92.37c3.61,7.85,10.6,10.89,17.14,11.64Z"/><path d="M136,65.65c-5.83,11.82-11.86,24-19.91,33.2-1.65,1.67-3.39,3.29-5.19,4.84a48.4,48.4,0,0,0,6.91.54h0c18.84,0,26.81-13.46,34.52-26.47,6-10.08,12.15-20.51,23.34-24.18-1-.54-4.63-1.32-10.09-1.32S141.76,53.23,136,65.65Z"/><path d="M91.7,65.65c-5.83,11.82-11.85,24-19.91,33.2-1.64,1.67-3.38,3.29-5.19,4.84a48.43,48.43,0,0,0,6.92.54h0c18.84,0,26.81-13.46,34.52-26.47,6-10.08,12.15-20.51,23.34-24.18-1-.54-4.63-1.32-10.09-1.32S97.43,53.23,91.7,65.65Z"/><path d="M47.13,65.65c-5.83,11.82-11.85,24-19.91,33.2-1.64,1.67-3.38,3.29-5.18,4.84a48.29,48.29,0,0,0,6.91.54h0c18.85,0,26.82-13.46,34.52-26.47,6-10.08,12.16-20.51,23.35-24.18-1-.54-4.64-1.32-10.09-1.32S52.86,53.23,47.13,65.65Z"/><path d="M22.2,66.84a3.06,3.06,0,0,0,1.09-.2,4.63,4.63,0,0,1,3.54,3.21,3,3,0,0,0-.3,1.31,3.09,3.09,0,0,0,4.21,2.89,4.66,4.66,0,0,1,3.52,3.2,3,3,0,0,0-.09,2.42,4.65,4.65,0,0,1-3.23,3.52,3.18,3.18,0,0,0-1.31-.29,3.09,3.09,0,1,0,2.77,1.72,4.41,4.41,0,0,1,3.33-3.27,3,3,0,0,0,1.34.31h0a2.84,2.84,0,0,0,.72-.1q1.13-2,2.19-4c0-.11-.08-.21-.13-.32a4.57,4.57,0,0,1,1.59-2.45c1.14-2.22,2.25-4.45,3.36-6.67l-.29,0h0a3,3,0,0,0-1.37.33,4.39,4.39,0,0,1-3.26-3.33,3.1,3.1,0,1,0-1.7,1.56,4.67,4.67,0,0,1,3.54,3.21,3,3,0,0,0-.3,1.31,3.13,3.13,0,0,0,.21,1.11,4.65,4.65,0,0,1-3.23,3.52,3.12,3.12,0,0,0-1.33-.3h0a3,3,0,0,0-1.37.32,4.38,4.38,0,0,1-3.26-3.31,3.09,3.09,0,0,0-4.18-4.09A4.39,4.39,0,0,1,25,65.08a3.1,3.1,0,1,0-2.79,1.76Z"/><path d="M51.31,96.4a2.56,2.56,0,0,0,.62.07A3.08,3.08,0,0,0,55,93.39a3,3,0,0,0-.12-.87A45.68,45.68,0,0,1,51.31,96.4Z"/><path d="M66.82,96.47a3.09,3.09,0,1,0,0-6.17,3.17,3.17,0,0,0-1.37.32,4.37,4.37,0,0,1-3.27-3.3A3.18,3.18,0,0,0,62.49,86a3.09,3.09,0,0,0-.32-1.36,4.4,4.4,0,0,1,3.33-3.27,3,3,0,0,0,1.34.31A3.17,3.17,0,0,0,68,81.45a4.69,4.69,0,0,1,3.53,3.22l0,.06-.06.15a.88.88,0,0,0,0,.15.57.57,0,0,0,0,.14,1.21,1.21,0,0,0,0,.18s0,.05,0,.08a3.31,3.31,0,0,0,0,.55,3.11,3.11,0,0,0,3.1,3.09h.07a3,3,0,0,0,.42,0l.1,0a3,3,0,0,0,.45-.12l.05,0a6,6,0,0,1,2,1c.18-.26.35-.52.52-.78a4.54,4.54,0,0,1-.81-1.74,3.1,3.1,0,0,0,0-2.68,4.38,4.38,0,0,1,3.31-3.27,3,3,0,0,0,1.33.31h0a3,3,0,0,0,.6-.07c.77-1.36,1.52-2.75,2.26-4.15l-.09-.22a4.66,4.66,0,0,1,1.42-2.32c1.18-2.27,2.32-4.56,3.46-6.85h-.25a3.08,3.08,0,0,0-3.09,3.08,3,3,0,0,0,.23,1.16,4.66,4.66,0,0,1-3.22,3.51,3.09,3.09,0,0,0-2.74,0,4.38,4.38,0,0,1-3.27-3.33,3,3,0,0,0,.3-1.32v0a1.21,1.21,0,0,0,0-.19v-.09a3.34,3.34,0,0,0-.3-1.08,4.39,4.39,0,0,1,3.34-3.27,3.07,3.07,0,1,0-1.57-1.69,4.63,4.63,0,0,1-3.24,3.53A3.14,3.14,0,0,0,74.26,68a3.08,3.08,0,0,0-3.09,3.08v0h0A3.07,3.07,0,0,0,75.36,74a4.68,4.68,0,0,1,3.55,3.23,3,3,0,0,0-.3,1.31,3.17,3.17,0,0,0,.21,1.11,4.65,4.65,0,0,1-3.23,3.5,3,3,0,0,0-2.68,0,4.42,4.42,0,0,1-3.28-3.32,3.09,3.09,0,0,0,.31-1.32,3,3,0,0,0-.25-1.21,3.1,3.1,0,0,0-2.85-1.89,2.83,2.83,0,0,0-.93.15c-.53.88-1,1.76-1.57,2.64l-.54.9a3.94,3.94,0,0,0,.14.49,4.91,4.91,0,0,1-2.33,3.16c-1.21,2-2.46,3.94-3.78,5.82a3.06,3.06,0,0,0,1.56.42,3.11,3.11,0,0,0,1.1-.2A4.64,4.64,0,0,1,64,92.08a3,3,0,0,0-.3,1.31A3.09,3.09,0,0,0,66.82,96.47Z"/><path d="M95.89,96.38a3.17,3.17,0,0,0,.76.1,3.09,3.09,0,0,0,3.09-3.08,3,3,0,0,0-.18-1A44.71,44.71,0,0,1,95.89,96.38Z"/><path d="M112.85,90.61a3.19,3.19,0,0,0-1.32-.29,3.08,3.08,0,1,0,3.1,3.08,3,3,0,0,0-.21-1.09,4.68,4.68,0,0,1,3.24-3.54,3,3,0,0,0,1.31.3,3.09,3.09,0,0,0,3.1-3.09v0a3.09,3.09,0,0,0-3.1-3.08,3.06,3.06,0,0,0-1.09.2,4.66,4.66,0,0,1-3.55-3.22,3,3,0,0,0,.3-1.31,2.93,2.93,0,0,0-.22-1.11,4.68,4.68,0,0,1,3.23-3.5,3,3,0,0,0,1.31.29,3.18,3.18,0,0,0,1.38-.32,4.39,4.39,0,0,1,3.28,3.31,3,3,0,0,0-.31,1.33,3,3,0,0,0,.25,1.21,3.1,3.1,0,0,0,2.85,1.89l.27,0c2.47-4.4,4.79-9,7-13.55a2.84,2.84,0,0,0-1,.19A4.66,4.66,0,0,1,129.22,65a3,3,0,0,0,.29-1.31,3.09,3.09,0,1,0-3.09,3.08,3,3,0,0,0,1.36-.32,4.41,4.41,0,0,1,3.28,3.31,3,3,0,0,0-.31,1.34,3.09,3.09,0,0,0,.32,1.36,4.4,4.4,0,0,1-3.33,3.27,3.11,3.11,0,0,0-2.45-.11,4.66,4.66,0,0,1-3.53-3.22s0,0,0-.05a.87.87,0,0,0,.07-.17s0-.08.05-.13a.83.83,0,0,0,0-.15l0-.17a.52.52,0,0,1,0-.11,3,3,0,0,0-.66-2.49A3.12,3.12,0,0,0,119,68h-.07a2,2,0,0,0-.42,0h-.11a3.81,3.81,0,0,0-.45.13h0a5.77,5.77,0,0,1-2-.95l-.54.75a4.6,4.6,0,0,1,.83,1.76,3,3,0,0,0-.31,1.33,3.09,3.09,0,0,0,.32,1.36,4.38,4.38,0,0,1-3.31,3.26,3.17,3.17,0,0,0-1.34-.3h0a3.06,3.06,0,0,0-1,.18c-.53.88-1,1.76-1.57,2.64l-.46.77a3.12,3.12,0,0,0,.27.85,4.39,4.39,0,0,1-2.6,3c-1.27,2.08-2.59,4.12-4,6.08a4.88,4.88,0,0,1,.63-.23A3.08,3.08,0,0,0,107.18,86a3,3,0,0,0-.23-1.16,4.66,4.66,0,0,1,3.22-3.5,3.18,3.18,0,0,0,1.34.31,3.07,3.07,0,0,0,1.39-.34,4.39,4.39,0,0,1,3.28,3.34,3,3,0,0,0-.3,1.31v0h0s0,.09,0,.14a.76.76,0,0,0,0,.15,3,3,0,0,0,.3,1.07A4.38,4.38,0,0,1,112.85,90.61Z"/><path d="M140.33,96.28a3.19,3.19,0,0,0,.94.15,3.09,3.09,0,0,0,3.09-3.09,3,3,0,0,0-.25-1.21A46.65,46.65,0,0,1,140.33,96.28Z"/><path d="M171,90.26a3,3,0,0,0-1.09.21,4.7,4.7,0,0,1-3.55-3.21,3.1,3.1,0,0,0-2.8-4.41,2.87,2.87,0,0,0-1.1.21A4.67,4.67,0,0,1,159,79.85a3,3,0,0,0,.3-1.31,3,3,0,0,0-.21-1.11,4.66,4.66,0,0,1,3.24-3.52,3,3,0,0,0,1.31.3,3.09,3.09,0,1,0-3.09-3.09,3,3,0,0,0,.32,1.36,4.39,4.39,0,0,1-3.34,3.27,3.09,3.09,0,0,0-1.33-.3h0a3.06,3.06,0,0,0-1.09.2l-.23-.07-1.6,2.69-.17.29a3.14,3.14,0,0,0,.32,1.33,4.4,4.4,0,0,1-3,3.18c-1.11,1.82-2.26,3.62-3.47,5.35a3,3,0,0,0,1.83.6h0a3,3,0,0,0,1.37-.32A4.39,4.39,0,0,1,153.36,92a3,3,0,0,0-.3,1.31,3.13,3.13,0,1,0,2-2.87,4.66,4.66,0,0,1-3.54-3.21,3.14,3.14,0,0,0,.09-2.42,4.65,4.65,0,0,1,3.23-3.52,3.09,3.09,0,0,0,1.33.3h0a3.14,3.14,0,0,0,1.37-.32,4.39,4.39,0,0,1,3.26,3.31,3.08,3.08,0,0,0-.3,1.32A3.1,3.1,0,0,0,165,88.7,4.41,4.41,0,0,1,168.25,92a3,3,0,0,0-.3,1.31A3.09,3.09,0,1,0,171,90.26Z"/></g></g></svg>