<svg xmlns="http://www.w3.org/2000/svg" viewBox="0 0 525.09 93.7"><title>logo_aeromexico</title><g id="Layer_2" data-name="Layer 2"><g id="Layer_1-2" data-name="Layer 1"><path d="M521.38,70.71a3.07,3.07,0,1,1,3-3.07,3,3,0,0,1-3,3.07Zm0-6.74a3.67,3.67,0,1,0,3.72,3.67A3.68,3.68,0,0,0,521.38,64Z" style="fill:#003263"/><path d="M520.59,67.38V66.07h.87c.44,0,.92.09.92.62s-.48.69-1,.69Zm1.37.51a1.09,1.09,0,0,0,1.1-1.15c0-.84-.49-1.21-1.5-1.21H520v4.24h.64V67.93h.74l1.12,1.83h.72L522,67.89Z" style="fill:#003263"/><path d="M82.45,28.35a9.41,9.41,0,0,1,4.18,1.06c2.16,1,4.69,2.2,7.86,3.74,0,0,5.11-3.64,5.38-3.83a2.69,2.69,0,0,1,4,.74A97.33,97.33,0,0,1,111.11,48a2,2,0,0,1-1.33,2.49,27.6,27.6,0,0,1-3.34.56c-1.85.23-1.82,1.73-1.82,2.63,0,1.13,0,8.66,0,11.24a6.82,6.82,0,0,1-7.14,6.76H83.86a9.38,9.38,0,0,1-9.33-9c0-3.05,0-24.28,0-26.66a7.9,7.9,0,0,1,7.91-7.64Z" style="fill:#003263"/><path d="M60.87,71.63H16.54v4.92h52a26.05,26.05,0,0,0,1.89-9.18c0-.25,0-33.42,0-33.42,0-2.63,1.07-7.09,6.49-8.27l.46-.09c15.35-3.62,31.17-.32,40.11,3.52,1.6.78,2-.5,1.92-1a16.43,16.43,0,0,0-16-16.59,27.83,27.83,0,0,0-15,3.71.46.46,0,0,1-.55-.18,22.17,22.17,0,0,0-8.71-5,.52.52,0,0,1,0-1,70.11,70.11,0,0,1,18.09.53c.68.12,1.2-.28.93-.91s-.38-.69-.73-1.43a8,8,0,0,0-5-3.86A115.29,115.29,0,0,0,65.65,0,127.66,127.66,0,0,0,40.49,2.75c-.69.15-1.66.4-1.84.42-.79.16-1,.91-.63,1.28s.81.74,1.1,1.09A1.2,1.2,0,0,1,39,7.29l-20.05,18H32.79a1.81,1.81,0,0,1,.07,3.62H14.92l-5.45,5H32.93a1.8,1.8,0,0,1,0,3.59H5.47L0,42.39H47.29a1.83,1.83,0,0,1,1.65,1.79A1.71,1.71,0,0,1,47.32,46H0v4.92H47.23a1.8,1.8,0,0,1,1.71,1.87,1.82,1.82,0,0,1-1.73,1.71H0v5H61.62a1.73,1.73,0,0,1,1.65,1.87,1.76,1.76,0,0,1-1.64,1.71H16.56v5H61.82c.83,0,1.55,1,1.55,1.87a1.77,1.77,0,0,1-1.57,1.75Z" style="fill:#003263"/><path d="M33.1,88.65v5s6.66,0,10.46,0a26.78,26.78,0,0,0,15.5-5Z" style="fill:#003263"/><path d="M33.1,80.16V85.1H63.19a27.56,27.56,0,0,0,3.64-4.92Z" style="fill:#003263"/><path d="M498,66.4l-1,.06c-.32,0-.64,0-1-.06a8.7,8.7,0,0,1-4.69-1.87,10.47,10.47,0,0,1-1.13-1.1c-2-2.21-3-6-3.27-9-.57-6.95.8-17.1,9.33-17.77.22,0,.43,0,.65,0h.2c.2,0,.42,0,.63,0,8.54.68,9.93,10.83,9.35,17.77-.25,3-1.21,6.66-3.28,9a12.53,12.53,0,0,1-1.12,1.1A8.88,8.88,0,0,1,498,66.4Zm20.41-16.71c0-.09,0-.17,0-.28a19.33,19.33,0,0,0-3.23-9.91c-3.73-5.85-10.27-9-18.14-8.9-7.86-.1-14.41,3.05-18.14,8.9a19.39,19.39,0,0,0-3.24,9.91c0,.11,0,.18,0,.28C474.52,62.52,482,71.4,494.75,72.42c.77.06,1.5.09,2.24.08s1.48,0,2.25-.08c12.75-1,20.23-9.9,19.16-22.74Z" style="fill:#003263"/><path d="M433.59,40.13c0-3.17.31-8.76.31-8.76H423.43s.32,5.58.32,8.76l0,22.88c0,3.18-.3,8.58-.3,8.58H433.9s-.28-5.4-.28-8.58l0-22.88Z" style="fill:#003263"/><path d="M372.52,65.37h-7.27c-.1-4-.15-7.95-.15-11.49l0-.55h0v-.09h12.08V47.55H365.1c0-6.12.15-10.15.15-10.15h15v-6c-10.47,0-25.61,0-25.61,0s.22,5.55.22,8.73V62.93c0,2.9-.18,7.84-.21,8.65h26.59l0-6.38s-5.24.17-8.73.17Z" style="fill:#003263"/><path d="M198.19,65.37h-7.28c-.1-4-.14-7.95-.16-11.49v-.55h0v-.09h12.08V47.55H190.76c0-6.12.14-10.15.14-10.15h15v-6c-10.47,0-25.61,0-25.61,0s.22,5.55.22,8.73V62.93c0,2.9-.18,7.84-.21,8.65h26.59l0-6.38s-5.24.17-8.73.17Z" style="fill:#003263"/><path d="M406.74,50l11.54-18.58h-8l-.06.18c-2.42,4.18-5.44,9.24-6.64,11.1l-.46.74-6.69-12h-12L396,52.19l-12.07,19.4h8c5.14-8.8,7.8-12.84,7.8-12.84l7.17,12.84h12L406.74,50Z" style="fill:#003263"/><path d="M466.21,66.13c-9.31,0-14.32-6.84-14.07-15.26.23-7.33,3.57-13.57,11.56-14.1,3.07-.2,5.56.32,9.85,1.47L473.12,32a36.59,36.59,0,0,0-8.85-1.36c-6.63-.25-12.63,1-17.41,5.44a21.29,21.29,0,0,0-6.8,15.32,20.34,20.34,0,0,0,7.36,15.92c5,4.22,10.35,5.17,16.73,5.17a35.07,35.07,0,0,0,10.69-1.38l-.59-6.17a25.42,25.42,0,0,1-8,1.22Z" style="fill:#003263"/><path d="M331.89,25.34h11.65l.33,2.69c2.6,26.86,4.2,43.58,4.2,43.58H335.94L334.74,55l-1.12-14.88-10.28,31.5h-6.49S313.6,60.39,313,58.83l-5.89-18.9s-.91,10.52-1.25,15c-.71,9-1.34,16.66-1.34,16.66h-9.05s3.71-37.62,4-39.91.73-6.36.73-6.36h11.9l9.86,27.09,10-27.09Z" style="fill:#003263"/><path d="M270.26,66.37a9.61,9.61,0,0,1-1,0,8.24,8.24,0,0,1-1,0,8.68,8.68,0,0,1-4.68-1.86,10.11,10.11,0,0,1-1.12-1.08c-1.95-2.2-3-6-3.26-8.93-.58-6.9.81-17,9.3-17.68l.64,0a.24.24,0,0,1,.1,0s.06,0,.09,0l.64,0c8.48.68,9.88,10.78,9.29,17.68-.24,3-1.2,6.65-3.26,8.93a10.75,10.75,0,0,1-1.12,1.08,8.74,8.74,0,0,1-4.67,1.86ZM290.6,49.74c0-.1,0-.19,0-.27a19.11,19.11,0,0,0-3.22-9.88c-3.71-5.83-10.22-9-18-8.85-7.85-.11-14.36,3-18.07,8.85A19.32,19.32,0,0,0,248,49.48c0,.08,0,.17,0,.27C246.9,62.52,254.35,71.36,267,72.38c.76.05,1.5.07,2.24.07s1.47,0,2.23-.07c12.69-1,20.15-9.86,19.08-22.64Z" style="fill:#003263"/><path d="M148.13,51.9l5-15,.3-.88,5.27,15.86Zm29.64,19.68c-.36-.83-2.51-5.93-4.09-10l-13.6-36.21H149.5s-3,8.49-3.44,9.89l-9.93,28.07c-1.29,3.59-3.1,8.29-3.1,8.29h8.64s2.44-7.8,2.95-9.21l1.33-3.9h15l2,5.94c.43,1.11,2.2,7.08,2.23,7.16Z" style="fill:#003263"/><path d="M230,49.14c-1.56.81-5.08.58-6.82.48l.13-11.5,1-.06a15.06,15.06,0,0,1,6.5.61c1.44.63,2.28,2,2.36,4.25.12,3.39-1.17,5.2-3.14,6.22ZM248.5,71.59c-2.5-3.59-3.42-5.08-5.35-7.7l-7.21-11.2a12,12,0,0,0,7.22-10.59,10.3,10.3,0,0,0-2.9-7.93,9.71,9.71,0,0,0-5.82-2.47c-1.93-.25-3.32-.26-4.48-.33H213s.2,5.56.2,8.74V62.84c0,3.19-.2,8.74-.2,8.74h10.45s-.31-5.55-.31-8.74l.08-7.29s2.27,0,3.87,0l6.61,12.11c.89,1.54,2.17,3.47,2.48,3.91Z" style="fill:#003263"/><path d="M296.57,92.38s18.3-15,64.49-15c34.81,0,55.68,11.12,96.38,11.12C494.06,88.55,518.5,76,518.5,76S497,92.72,454,92.72s-56.8-11.27-99.35-11.27-58.05,10.93-58.05,10.93Z" style="fill:#e12228"/></g></g></svg>