<svg xmlns="http://www.w3.org/2000/svg" viewBox="0 0 520.22 92.83"><title>logo_aeromexico_alt</title><g id="Layer_2" data-name="Layer 2"><g id="Layer_1-2" data-name="Layer 1"><path d="M516.54,70.05a3,3,0,1,1,2.95-3,2.94,2.94,0,0,1-2.95,3Zm0-6.68A3.64,3.64,0,1,0,520.22,67a3.64,3.64,0,0,0-3.68-3.63Z" style="fill:#fff"/><path d="M515.76,66.76v-1.3h.86c.44,0,.91.09.91.61s-.47.68-1,.68Zm1.36.51a1.08,1.08,0,0,0,1.09-1.14c0-.83-.48-1.2-1.48-1.2h-1.6v4.2h.63V67.3h.73l1.11,1.82h.71l-1.2-1.85Z" style="fill:#fff"/><path d="M81.68,28.08a9.32,9.32,0,0,1,4.14,1.05c2.14,1,4.65,2.18,7.79,3.7,0,0,5.06-3.61,5.33-3.79a2.66,2.66,0,0,1,3.92.73,96.43,96.43,0,0,1,7.21,17.73A2,2,0,0,1,108.77,50a27.35,27.35,0,0,1-3.31.56c-1.84.23-1.8,1.71-1.8,2.61,0,1.12,0,8.58,0,11.13A6.75,6.75,0,0,1,96.59,71H83.08a9.29,9.29,0,0,1-9.25-8.9c0-3,0-24.05,0-26.41a7.83,7.83,0,0,1,7.84-7.57Z" style="fill:#fff"/><path d="M60.31,71H16.39v4.88H67.92a25.81,25.81,0,0,0,1.87-9.09c0-.25,0-33.11,0-33.11,0-2.61,1.06-7,6.43-8.2l.45-.09c15.21-3.59,30.88-.32,39.73,3.49,1.59.77,1.95-.49,1.9-1a16.27,16.27,0,0,0-15.88-16.43A27.57,27.57,0,0,0,87.59,15a.46.46,0,0,1-.55-.18A22,22,0,0,0,78.42,10a.51.51,0,0,1,0-1,69.46,69.46,0,0,1,17.92.52c.68.12,1.19-.28.92-.9s-.38-.69-.72-1.42a8,8,0,0,0-5-3.83A114.22,114.22,0,0,0,65,0,126.48,126.48,0,0,0,40.12,2.73c-.68.14-1.65.39-1.82.42-.78.16-1,.9-.62,1.27s.8.73,1.09,1.08a1.19,1.19,0,0,1-.16,1.73L18.74,25.06H32.48a1.79,1.79,0,0,1,.07,3.58H14.78l-5.4,4.92H32.63a1.79,1.79,0,0,1,0,3.56H5.42L0,42H46.85a1.81,1.81,0,0,1,1.64,1.78,1.69,1.69,0,0,1-1.6,1.81H0v4.88H46.79a1.78,1.78,0,0,1,1.69,1.85A1.8,1.8,0,0,1,46.77,54H0v4.91H61a1.72,1.72,0,0,1,1.63,1.85,1.75,1.75,0,0,1-1.63,1.7H16.41V67.4H61.24c.82,0,1.53,1,1.53,1.85A1.76,1.76,0,0,1,61.22,71Z" style="fill:#fff"/><path d="M32.79,87.82v5s6.6,0,10.36,0a26.53,26.53,0,0,0,15.36-5Z" style="fill:#fff"/><path d="M32.79,79.42v4.89H62.6a27.31,27.31,0,0,0,3.61-4.88Z" style="fill:#fff"/><path d="M493.36,65.78l-1,.05c-.31,0-.64,0-1-.05a8.62,8.62,0,0,1-4.65-1.85,10.38,10.38,0,0,1-1.12-1.09c-1.95-2.19-3-5.93-3.24-8.87-.57-6.88.8-16.94,9.25-17.61.22,0,.42,0,.64,0h.19c.2,0,.42,0,.63,0,8.46.67,9.84,10.73,9.27,17.61-.25,2.94-1.2,6.6-3.25,8.87A12.41,12.41,0,0,1,498,63.93a8.8,8.8,0,0,1-4.65,1.85Zm20.22-16.56c0-.09,0-.17,0-.27a19.15,19.15,0,0,0-3.2-9.81c-3.7-5.79-10.18-8.92-18-8.82-7.79-.1-14.27,3-18,8.82a19.21,19.21,0,0,0-3.21,9.81c0,.1,0,.18,0,.27-1.05,12.72,6.35,21.51,19,22.53.76.06,1.49.09,2.22.08s1.47,0,2.22-.08c12.63-1,20-9.81,19-22.53Z" style="fill:#fff"/><path d="M429.57,39.76c0-3.15.3-8.68.3-8.68H419.5s.31,5.53.31,8.68l0,22.67c0,3.15-.29,8.5-.29,8.5h10.37s-.28-5.35-.28-8.5l0-22.67Z" style="fill:#fff"/><path d="M369.06,64.76h-7.21c-.1-4-.14-7.87-.15-11.38l0-.55h0v-.09h12V47.11H361.71c0-6.07.14-10.05.14-10.05H376.7v-6c-10.37,0-25.37,0-25.37,0s.22,5.5.22,8.65V62.35c0,2.88-.18,7.77-.21,8.57h26.34l0-6.32s-5.19.17-8.65.17Z" style="fill:#fff"/><path d="M196.35,64.76h-7.21c-.1-4-.14-7.87-.16-11.38v-.55h0v-.09h12V47.11H189c0-6.07.14-10.05.14-10.05H204v-6c-10.38,0-25.37,0-25.37,0s.22,5.5.22,8.65V62.35c0,2.88-.18,7.77-.21,8.57H205l0-6.32s-5.19.17-8.65.17Z" style="fill:#fff"/><path d="M403,49.49l11.43-18.41h-7.92l-.06.18c-2.4,4.14-5.39,9.16-6.58,11l-.46.74-6.63-11.91h-11.9L392.32,51.7l-12,19.22h7.88C393.33,62.21,396,58.2,396,58.2l7.1,12.72h11.86L403,49.49Z" style="fill:#fff"/><path d="M461.89,65.51c-9.22,0-14.19-6.78-13.94-15.12.22-7.26,3.54-13.44,11.45-14,3-.2,5.51.32,9.76,1.46l-.43-6.23A36.25,36.25,0,0,0,460,30.31c-6.57-.25-12.51,1-17.25,5.39A21.09,21.09,0,0,0,436,50.88a20.15,20.15,0,0,0,7.29,15.77c4.95,4.18,10.26,5.13,16.57,5.13a34.74,34.74,0,0,0,10.59-1.37l-.59-6.11a25.19,25.19,0,0,1-7.95,1.21Z" style="fill:#fff"/><path d="M328.81,25.1h11.54l.32,2.67c2.58,26.61,4.16,43.18,4.16,43.18h-12l-1.19-16.49-1.11-14.74-10.18,31.2h-6.43s-3.22-11.09-3.81-12.63l-5.83-18.72S303.37,50,303,54.44c-.71,8.94-1.33,16.5-1.33,16.5h-9s3.67-37.27,3.95-39.54.72-6.3.72-6.3h11.79l9.76,26.84,9.86-26.84Z" style="fill:#fff"/><path d="M267.75,65.75a9.53,9.53,0,0,1-1,0,8.17,8.17,0,0,1-1,0,8.6,8.6,0,0,1-4.63-1.84,10,10,0,0,1-1.11-1.07c-1.93-2.18-3-5.9-3.23-8.85-.57-6.84.81-16.85,9.22-17.51l.63,0a.24.24,0,0,1,.1,0s.06,0,.09,0l.64,0c8.41.67,9.79,10.68,9.21,17.51-.24,2.95-1.19,6.58-3.23,8.85a10.65,10.65,0,0,1-1.11,1.07,8.65,8.65,0,0,1-4.63,1.84ZM287.9,49.28c0-.09,0-.19,0-.26a18.93,18.93,0,0,0-3.19-9.79c-3.67-5.77-10.13-8.88-17.88-8.77-7.78-.1-14.23,3-17.91,8.77A19.14,19.14,0,0,0,245.7,49c0,.08,0,.17,0,.26-1.06,12.66,6.32,21.42,18.9,22.43.75.05,1.48.07,2.22.07s1.45,0,2.21-.07c12.57-1,20-9.77,18.9-22.43Z" style="fill:#fff"/><path d="M146.76,51.42l5-14.84.3-.87,5.22,15.71Zm29.37,19.5c-.35-.82-2.49-5.87-4.05-9.95L158.6,25.1H148.12s-3,8.41-3.41,9.8l-9.84,27.81c-1.28,3.56-3.07,8.22-3.07,8.22h8.56s2.42-7.73,2.92-9.13l1.32-3.86h14.83l2,5.88c.43,1.1,2.18,7,2.21,7.1Z" style="fill:#fff"/><path d="M227.9,48.68c-1.54.8-5,.58-6.76.48l.13-11.39,1-.06a14.92,14.92,0,0,1,6.44.6c1.43.63,2.26,2,2.33,4.22.12,3.36-1.16,5.15-3.11,6.16Zm18.3,22.24c-2.48-3.56-3.39-5-5.3-7.63l-7.14-11.1a11.93,11.93,0,0,0,7.16-10.5A10.2,10.2,0,0,0,238,33.85a9.62,9.62,0,0,0-5.77-2.44c-1.91-.25-3.29-.26-4.44-.33H211s.2,5.5.2,8.66V62.26c0,3.16-.2,8.66-.2,8.66h10.35s-.3-5.5-.3-8.66l.08-7.22s2.25,0,3.84,0l6.54,12c.88,1.53,2.15,3.44,2.45,3.88Z" style="fill:#fff"/><path d="M293.81,91.53s18.13-14.81,63.89-14.81c34.49,0,55.16,11,95.49,11,36.28,0,60.49-12.47,60.49-12.47s-21.26,16.59-63.93,16.59-56.27-11.16-98.42-11.16-57.51,10.83-57.51,10.83Z" style="fill:#e12228"/></g></g></svg>