<svg xmlns="http://www.w3.org/2000/svg" viewBox="0 0 1236.27 210.6">
  <g data-name="Layer 2">
    <g data-name="Layer 1">
      <path d="M50.6 15.46c12.21 0 19.28 4.44 22.05 6.24l1.24-.55c.42-6 .56-7.35 1.25-12.34l-.56-1.11a69.47 69.47 0 0 0-25.37-4.44c-9.85 0-24.81 1.39-36.6 14.28C.55 30.71 0 47.48 0 54.28c0 30.92 17.88 51 48.25 51 14 0 22.74-4.29 26.21-6.1l.83-1c.28-5.27.42-7.2 1-13.73l-1-.55a42 42 0 0 1-25.51 8.5c-19.15 0-33.41-12.2-33.41-38.4 0-23.3 12.06-38.55 34.23-38.55M125.88 103.63c6.38-.27 7.49-.41 14-.56l.71-.68c-.71-9-.83-10.54-.83-27.73V60.93c0-5.82 0-13.45-1-17.33-2.92-10.81-12.9-14.28-23.15-14.28a71.39 71.39 0 0 0-24 4.58l-.84.84c-.15 2.91-.15 3.75-.42 10.12l1.11.69c5.82-2.5 12.05-5.27 21.06-5.27 6.95 0 10.13 2.63 11.52 5.13 1.24 2.22 1.24 4.85 1.24 8.6l-2.34.28c-25 2.91-40.49 8.87-40.49 27.45 0 13.72 9.7 23.16 23.56 23.16a29.61 29.61 0 0 0 19.4-7.08l-.14 5zm-15.53-10.12c-13.17 0-13.17-11.92-13.17-12.61 0-12.34 13-14.28 27-16.36l1.25-.28v23.15a21.58 21.58 0 0 1-15.11 6.1M189.36 29.87a14.41 14.41 0 0 0-3.87-.41c-11.79 0-15.26 8.87-16.92 13.31l.69-11.77-.83-.83c-5.83 1.11-9 1.8-14.28 2.77l-.84 1c.84 8 1.26 13.73 1.26 35.91 0 12.9-.15 22.47-.28 33l.68.83c6.66-.27 8.06-.41 14.56-.41l.7-1c-.55-7.76-1-15.94-1-31.62 0-14.41 0-20.51 5.69-24.53a10.31 10.31 0 0 1 5.82-1.8 14.32 14.32 0 0 1 5.55 1.25l1-.69c1-6.1 1.26-7.49 2.64-14.15zM196.84 103.63c6.53-.28 7.91-.41 14.56-.55l.83-.83c-.69-13.18-1.12-23.71-1.12-54.07 0-18.16 0-28.32 1-46.47l-.82-1c-6.93 1.52-8.32 1.8-15.12 2.91l-.7.83c1.39 17.74 1.39 30.11 1.39 49.25 0 26.61-.42 39.09-.69 48.94zM244.12 93.93a29.73 29.73 0 0 1-19.28-6.65l-1.39.4c-.27 5.56-.27 6.25-.82 11.65l.69 1.25 2.08.83a51.1 51.1 0 0 0 19 3.47c5 0 14.83-.42 22.18-6.66a20.66 20.66 0 0 0 7.76-16.36c0-14.7-12.62-19-18.17-20.8l-5-1.53c-8.6-2.63-14.28-4.44-14.28-10.4 0-4.29 3.46-7.2 7.63-8.31a22.56 22.56 0 0 1 6-.69 30.76 30.76 0 0 1 17.89 5.55l1.26-.56c.41-5.26.55-5.82 1.1-11l-.69-1a53.14 53.14 0 0 0-20-3.89c-15.53 0-28 7.08-28 21.35s12.48 18.3 18.16 20.1l4.44 1.53c8.46 2.77 14.43 4.85 14.43 11.23 0 4.3-4 10.4-15 10.4M315.64 29.32c-13.86 0-21.91 5.69-25.79 9.71-9.29 9.29-9.56 22.87-9.56 28.14 0 4.57.12 18.72 9.56 28.28 4.43 4.58 12.34 9.29 24.82 9.29 9.7 0 17.88-2.35 24-8.45a33.08 33.08 0 0 0 9-16.78 60.2 60.2 0 0 0 1.24-13.44c-.28-9.71-2.08-19.42-8.46-26.77-6.1-6.93-15.39-10-24.81-10m15 55.74c-4 7.62-10.68 9.29-15.81 9.29a18.58 18.58 0 0 1-8.17-1.79c-11-5.55-11.09-19.55-11.09-25.1 0-5.82.42-13.87 4.16-19.55a17.19 17.19 0 0 1 15.25-8c7.77 0 12.2 3.6 14.83 7.9 3.46 6.1 4 15.39 4 18.86.14 2.91 0 12.2-3.18 18.44M359.92 103.63c6.66-.41 7.64-.41 14.43-.56l.82-.82c-1-16.23-1.24-28.84-1.11-53 3.76-2.92 10.13-7.77 18.45-7.77 1.94 0 9.85 0 12.49 10.54.69 2.91.82 4.29.82 25.65 0 6.79 0 13.59-.13 20.38 0 1.53-.14 3.05-.14 4.58l1 1c6.38-.41 7.21-.41 13.88-.56l.82-.82c-.42-5.27-.55-11.51-1-27.73V58.3c-.14-8.6-.28-12.76-2.08-16.92a18.89 18.89 0 0 0-8-9 24.06 24.06 0 0 0-11.51-2.63c-12.2 0-20.79 6.1-24.4 8.6l.14-7.21-1-1c-6.52 1.25-7.63 1.52-14.57 2.77l-.83 1c.69 9.29 1.67 21.08 1.67 43.26 0 10.26-.28 17.75-.42 25.52zM891.6 3.9c-6.93.7-8.19.83-15.4 1.38l-1 .83c.14 2.77.28 5 .28 7.49 0 1.8 0 3.74-.14 5.55l.84.84c6.79-.7 8.31-.84 15.4-1.11l.82-1c-.14-6.11-.14-7.48 0-13.17zM613.16 60.77c0-5.82 0-13.45-1-17.33-2.88-10.82-12.86-14.28-23.16-14.28a71.59 71.59 0 0 0-24 4.58l-.83.83c-.13 2.91-.13 3.74-.42 10.12l1.11.7c5.82-2.5 12.07-5.27 21.07-5.27 6.95 0 10.12 2.63 11.51 5.12 1.26 2.22 1.26 4.86 1.26 8.6l-2.36.28C571.42 57 555.9 63 555.9 81.57c0 13.73 9.7 23.16 23.57 23.16a29.63 29.63 0 0 0 19.41-7.08l-.13 5 .55.83c6.39-.28 7.49-.41 14-.55l.7-.69c-.7-9-.83-10.54-.83-27.73zm-14.28 26.48a21.6 21.6 0 0 1-15.1 6.1c-13.18 0-13.18-11.92-13.18-12.62 0-12.33 13-14.28 27-16.36l1.24-.27zM666.41 30.82l-3.47-.14c-2.77 0-5.54-.14-7.75-.14-7.63 0-21.49.69-28.15 13.45a26.87 26.87 0 0 0-2.91 12.35c0 8.45 4 17.05 13.31 20.79C634 82.54 632.3 85 628 91.27l.28 1.66c2.63 1.25 3.6 1.67 6.51 2.91-5.4 4.3-12.33 10-12.33 20.1 0 11.79 10.67 21.77 31.33 21.77 22.18 0 32.3-12.76 32.3-24.68 0-15.11-13-19.13-16.92-20.38s-21.63-5.54-25.24-6.52l4.16-6.24a41.38 41.38 0 0 0 6.09.42c17.33 0 27.18-11.09 27.18-24 0-5.28-1.52-11.23-6.52-15.54l11.66.83.82-.83c.28-4.43.28-4.43.69-9.15l-.69-.83c-10 .15-13 .15-20.93 0m-21.63 68.8l10 2.64c8.73 2.35 16.9 4.44 16.9 13.59 0 6.52-5.4 12.62-16.77 12.62-14.15 0-18.31-8.6-18.31-13.73 0-6.24 3.34-10.26 8.18-15.11m8.34-28.42c-11.23 0-14.69-8.6-14.69-15.39 0-9.15 5.67-15.81 14.69-15.81 10.4 0 14 8.31 14.14 15.81.14 6.51-2.77 15.39-14.14 15.39M750.14 96.12a33 33 0 0 0 9-16.77 60.07 60.07 0 0 0 1.26-13.44c-.29-9.71-2.09-19.42-8.46-26.76-6.11-6.94-15.4-10-24.82-10-13.86 0-21.91 5.69-25.79 9.7-9.33 9.3-9.57 22.89-9.57 28.15 0 4.58.13 18.72 9.57 28.29 4.43 4.58 12.34 9.28 24.82 9.28 9.71 0 17.87-2.35 24-8.46M707 67.28c0-5.83.41-13.86 4.16-19.55a17.21 17.21 0 0 1 15.25-8c7.76 0 12.2 3.6 14.83 7.9 3.47 6.1 4 15.39 4 18.85.13 2.92 0 12.2-3.19 18.45-4 7.62-10.68 9.28-15.8 9.28a18.42 18.42 0 0 1-8.18-1.8C707.15 86.84 707 72.83 707 67.28M816.31 51.9c.68 2.9.82 4.3.82 25.65 0 6.79 0 13.59-.14 20.38 0 1.53-.14 3-.14 4.58l1 1c6.38-.41 7.21-.41 13.88-.55l.83-.83c-.42-5.27-.55-11.51-1-27.73V58.13c-.15-8.6-.28-12.75-2.08-16.92a18.91 18.91 0 0 0-8-9 24 24 0 0 0-11.51-2.63c-12.2 0-20.79 6.1-24.4 8.59l.14-7.21-1-1c-6.53 1.25-7.77 1.53-14.7 2.77l-.83 1c.69 9.28 1.66 21.07 1.66 43.26 0 10.26-.28 17.75-.41 25.52l.69 1c6.67-.41 7.77-.41 14.56-.55l.83-.83c-1-16.22-1.24-28.84-1.11-53 3.76-2.91 10.13-7.76 18.45-7.76 1.95 0 9.85 0 12.49 10.54M560 4.35c-5.1.26-9.55.34-15.4.37l-1 1c-1.66 10.86-11.35 55.48-16.1 77h-.14C522.5 61 513.52 16.07 511.88 5.29l-.81-1c-5.17.27-10.47.27-15.87.4l-.81 1c-1.65 10.78-10.7 55.29-15.49 77h-.07c-4.78-21.59-14.28-66.56-15.93-77.41l-.91-1c-4.12.29-9.95.36-15.72.43l-.72 1c7.73 26.81 20.55 83.82 22.82 96.82l1 1c5-.38 10.22-.59 15.61-.67l1-1c2.1-9.73 10.06-46.66 17.25-76h.11c7.19 29.36 15 67 17.14 76.68l1 1c5.43-.37 9.95-.6 15.61-.67l1-1c2-12.47 14.26-66.7 22.81-96.55zM861.1.57c-6.94 1.53-8.32 1.8-15.12 2.92l-.7.83c1.39 17.74 1.39 30.11 1.39 49.25 0 26.62-.42 39.09-.7 48.94l.7 1c6.53-.28 7.91-.41 14.56-.55l.83-.83c-.69-13.18-1.11-23.71-1.11-54.07 0-18.17 0-28.32 1-46.48zM891 30c-6.93 1.53-9 1.81-15 2.78l-.69 1c1 8.17 1.39 13.17 1.39 39.65 0 15.39-.42 21.77-.84 29.12l.69 1c6.8-.41 7.91-.41 15.12-.55l.69-.83c-.54-9.43-.83-12.9-.83-38.68 0-17.89.42-25.38.83-32.59zM938.14 42.19l.69-.83c0-4.72.14-6.24.42-9.84l-.7-.83c-7.89.28-9.57.28-15.39.41 0-10.12.14-11.92.55-21.07l-1-.69c-6.39 1.94-7.91 2.36-14.15 3.88l-.68 1c.28 5.59.56 7.15.56 16.78-4.58.13-6.39 0-9.43 0l-.84.83c0 4.43 0 5.54-.27 10l.55.83c5-.13 5.14-.41 10-.41l-.28 30.64c0 16.35 0 19.69 2.49 23.71 4.29 7.21 13 7.21 16.35 7.21a38 38 0 0 0 10.41-1.25l.7-.83c.14-4 .14-5 .55-9.57l-1-.83a18.84 18.84 0 0 1-6.65 1.25c-6.93 0-8.19-3.2-8.19-13.32 0-1.94 0-9.84-.13-11.51l.27-25.8c7.34 0 8.17.14 15.12.28" fill="#344049"/>
      <path d="M1203.3 129.24c-36.08 11.7-86.21 29.44-98.91 33.33-14.87 4.55-14.4-6.61-17.79-22.3-3.26-15.15-17.26-15.38-38.84-8.33-22 7.19-63.08 22.89-80.37 27.57-13.14 3.56-18.91-5.85-20.05-9.47v43.22c0 14.66 14.23 14.66 22.17 12.41 24.87-7 62.12-22.23 79.26-27.05 24.55-6.9 34.9-9.11 38.06 19 1.19 10.75 6.54 15.26 18.21 11.81 24.88-7.38 72.88-25.65 98.94-33.65 16.83-5.16 29.87 3.07 31.45 11.6v-41.32c0-10.46-8.89-24.36-32.14-16.82" fill="#f26950"/>
      <path d="M976 59.31c0 14.21-.13 28.55-.28 42.76l1 .82 8.19-.14.82-.95c-.94-38.4-1.09-48.24-1.09-88.28 14.89 0 18 .14 28.15.55l.82-.68.54-6.83-.81-.68-19.55.41h-32.43l-14.07-.41-.95.68-.55 6.7.95.81 29-.54c.14 15.17.28 30.47.28 45.77M1032.26 40a10.5 10.5 0 0 1 5.75 1.78l1.09-.83 1.09-7.24-.95-1a16.77 16.77 0 0 0-6.15-1.37c-5.61 0-10.11 3.7-12.44 7.11a23.54 23.54 0 0 0-2.59 5.33l.13-10.79-.81-.82-8.07 1.24-.82.81c1.24 13.66 1.24 29.78 1.24 44.54 0 9.44-.14 14.08-.42 23.23l.82.82 8.21-.14.82-.82c-.27-9.7-.82-23.23-.82-33.35 0-13.25.82-20.35 5.46-25a11.84 11.84 0 0 1 8.46-3.55M1064.65 104.33c7 0 13.25-2.33 19.4-6.84l.13 4.79 1 .82 7.24-.42.82-.95a327 327 0 0 1-.82-35v-8.44c0-13.39 0-16.4-4-20.77-3.14-3.55-8.46-6.42-18.17-6.42-9 0-14.75 2.33-20.23 4.52l-.68 1-.4 6.42 1.08.54c6.16-3.15 10.4-5.19 19.41-5.19 9.57 0 12.57 4.65 13.4 6.28.95 2.18 1.09 5.33 1.22 9v1.78l-12 1.78c-7.65 1.23-17.34 2.88-23.5 8.33a22.05 22.05 0 0 0-7.11 16.53c0 13.67 9.57 22.28 23.24 22.28m-8.19-34.71c3.82-2.87 8.19-4 20.22-6.28l7.38-1.09v27.42c-4.37 3.7-9 7.38-17.9 7.38-11.21 0-16.13-8.34-16.13-15.44s5.33-11.2 6.44-12M1119.85 102.15l1.23.82 11.2-.28 1-.81 6.69-20.77 6.84-20.36 9.7-27.05-.82-1h-7.93l-1.22 1.09c-4 14.62-5.19 18.85-10.66 35.66L1127 97l-7.39-23.09c-8.32-26.1-9.15-29-12.29-40.71l-1.1-.69-8.61.55-.67 1.23 7.93 22.28zM1217.68 65.94c-.13-7-.28-16.4-6.42-24.45s-14.22-10.4-22.7-10.4c-20.22 0-32.1 15.31-32.1 36.76 0 20.63 12 36.34 34.29 36.34 11.75 0 17.76-3.42 23.5-6.7l.68-1.37.55-7.78-1.1-.68a32.88 32.88 0 0 1-22.95 9c-6 0-17.35-2.05-23.37-14.89-2.74-5.87-2.87-10.66-3-15h51.78zm-52.06-6.14c.55-3.28 1.5-9.43 6.15-14.9a21.51 21.51 0 0 1 16.53-7.1c3.4 0 11.2.13 16.8 8.75 3.15 4.92 3.29 9.29 3.56 13.25zM1235.58.82l-.82-.82-8.6 1.36-.82.82c1.22 17.49 1.35 17.5 1.35 58v41.94l.83.83 7.92-.14.83-.82c-1-23.37-1.1-46.73-1.1-70.23 0-13.39.14-15.86.41-30.89" fill="#344049"/>
    </g>
  </g>
</svg>