<?xml version="1.0" encoding="UTF-8" standalone="no"?>
<!DOCTYPE svg  PUBLIC '-//W3C//DTD SVG 1.1//EN'  'http://www.w3.org/Graphics/SVG/1.1/DTD/svg11.dtd'>
<svg version="1.1" xmlns="http://www.w3.org/2000/svg">
<defs>
<font id="AntennaCond-Medium" horiz-adv-x="656">
<font-face ascent="819" descent="-205" x-height="572" cap-height="759" panose-1="2 11 6 0 5 3 2 2 2 4" font-family="AntennaCond" units-per-em="1024" unicode-range="U+0020-00FE" underline-position="-246" font-weight="500" bbox="-36 -234 969 975" underline-thickness="0"/>
<missing-glyph/>
<glyph d="M0 0v1v-1z" glyph-name="space" unicode=" " horiz-adv-x="181"/>
<glyph d="M95 0v144h136v-144h-136zM112 222l1 1v-1l-10 537h125l-12 -537h-104z" glyph-name="exclam" unicode="!" horiz-adv-x="327"/>
<glyph d="M80 434l-5 325h118l-5 -325h-108zM276 434l1 1v-1l-6 325h118l-7 -325h-106z" glyph-name="quotedbl" unicode='&quot;' horiz-adv-x="463"/>
<glyph d="M98 0h-1l32 212h-83v106h100l16 108h-115v104h131l34 230h110l-35 -230h100l34 230h108l-35 -230h85v-104h-100l-16 -108h116v-106h-133l-32 -212h-108l32 212h-100l-32 -212h-108zM244 309l-1 1v-1h116l20 123h-117z" glyph-name="numbersign" unicode="#" horiz-adv-x="625"/>
<glyph d="M228 -94l-4 2v-1v94q-60 4 -110 22q-45 16 -83 43l54 86q31 -21 76 -38q51 -18 112 -19q69 0 98 29q29 28 27 81q0 35 -15 59q-14 23 -43 40q-27 15 -73 33q-55 20 -103 45q-45 23 -74 64q-28 40 -28 110q0 90 40 139q40 50 124 62v88h110v-86q44 -6 81 -18 q38 -13 66 -28l-52 -92q-24 13 -64 24q-36 10 -86 10q-61 0 -85 -26q-25 -26 -23 -70q0 -30 14 -50q13 -19 42 -36q24 -14 70 -32q51 -18 104 -46q47 -25 78 -68q29 -43 31 -115q2 -92 -39 -145t-135 -65v-96h-110z" glyph-name="dollar" unicode="$" horiz-adv-x="559"/>
<glyph d="M215 276q-61 0 -102 24q-42 25 -61 78q-21 54 -21 144t21 144q19 53 61 78q41 24 102 24q62 0 104 -24t63 -78t21 -144t-21 -144t-63 -78t-104 -24zM216 364q29 0 48 14t26 48q8 37 8 92t-8 92q-7 34 -26 48t-48 14t-48 -14t-26 -48q-8 -37 -8 -92t8 -92q7 -34 26 -48 t48 -14zM784 -7q-62 0 -103 24q-42 25 -61 78q-20 55 -20 144t20 144q19 53 61 78q41 24 103 24t103 -24q43 -24 62 -78q20 -55 20 -144t-20 -144q-19 -54 -62 -78q-41 -24 -103 -24zM784 80q29 0 48 14q18 14 27 48q8 37 8 92t-8 92q-9 34 -27 48q-19 14 -48 14 q-28 0 -47 -14t-26 -48q-8 -37 -8 -92t8 -92q7 -34 26 -48t47 -14zM278 0l-1 1v-1l338 759h108l-339 -759h-106z" glyph-name="percent" unicode="%" horiz-adv-x="1000"/>
<glyph d="M274 -7l1 2q-125 0 -184 54q-58 54 -57 160q0 53 20 95q19 39 53 70t73 54q-26 39 -43 82q-16 41 -16 90q0 85 44 129q43 43 130 43q84 0 126 -42t42 -129q0 -48 -18 -84q-18 -35 -48 -64q-31 -30 -64 -51l27 -32l29 -34l92 -108q18 45 29 111q13 76 19 134l102 -12 q-9 -85 -28 -176q-18 -80 -50 -143l123 -142h-142l-49 56q-36 -30 -89 -47q-51 -16 -122 -16zM274 90h1q48 0 84 12q38 13 62 34l-121 142l-32 36q-16 18 -30 36q-39 -30 -63 -62q-23 -32 -25 -77q-1 -31 8 -59q7 -28 35 -45t81 -17zM232 600l2 1v-1q0 -32 12 -63 q12 -29 32 -62q36 25 58 55q21 29 23 69q0 34 -14 54q-13 19 -50 19t-50 -19q-14 -19 -13 -53z" glyph-name="ampersand" unicode="&amp;" horiz-adv-x="700"/>
<glyph d="M80 434l1 1v-1l-5 325h118l-6 -325h-108z" glyph-name="quotesingle" unicode="&apos;" horiz-adv-x="267"/>
<glyph d="M260 -179l3 1v-1q-37 34 -80 106q-41 68 -66 163q-26 94 -28 221q2 119 28 213q25 96 66 167q41 72 80 109l85 -54q-34 -39 -65 -96q-32 -59 -54 -142q-22 -82 -22 -196q0 -116 22 -200q23 -87 54 -145q29 -54 62 -92z" glyph-name="parenleft" unicode="(" horiz-adv-x="424"/>
<glyph d="M164 -179l-1 -3v-1l-84 54q35 44 64 97q31 57 54 142q22 82 22 198q-2 119 -23 200q-22 86 -54 144q-31 58 -62 92l84 54q38 -35 80 -105q40 -67 66 -164q26 -96 27 -220q-1 -118 -27 -214q-25 -95 -66 -166q-42 -72 -80 -108z" glyph-name="parenright" unicode=")" horiz-adv-x="424"/>
<glyph d="M207 292l2 1v-1l11 164l-124 -89l-50 84l140 75l-140 76l49 82l125 -89l-11 165h92l-9 -167l124 92l50 -82l-142 -78l142 -76l-50 -82l-126 89l9 -164h-92z" glyph-name="asterisk" unicode="*" horiz-adv-x="509"/>
<glyph d="M242 121v1v-1v190h-158v100h158v188h108v-188h159v-100h-159v-190h-108z" glyph-name="plus" unicode="+" horiz-adv-x="594"/>
<glyph d="M83 -133h1v-1l-33 60q29 15 40 24q12 9 17 21q4 9 4 29h-62v146h136v-136q0 -34 -8 -60q-8 -25 -29 -43t-66 -40z" glyph-name="comma" unicode="," horiz-adv-x="236"/>
<glyph d="M36 276v1v-1v106h286v-106h-286z" glyph-name="hyphen" unicode="-" horiz-adv-x="359"/>
<glyph d="M50 0v1v-1v146h136v-146h-136z" glyph-name="period" unicode="." horiz-adv-x="236"/>
<glyph d="M116 0l-115 1v-1l343 759h116z" glyph-name="slash" unicode="/" horiz-adv-x="459"/>
<glyph d="M312 -8v2q-82 0 -132 24q-51 25 -77 73q-25 48 -36 120t-9 168q-2 95 9 167q11 73 36 122q24 47 76 74q50 25 133 25q81 0 131 -26q51 -26 76 -75t36 -122q10 -72 9 -166q2 -98 -9 -170t-36 -120q-25 -47 -76 -72q-49 -24 -131 -24zM312 98v1v-1q57 0 86 28t40 90 q11 64 11 163q0 97 -11 161q-12 60 -42 89q-29 28 -84 28q-57 0 -86 -28q-31 -29 -41 -89q-11 -64 -11 -161q0 -99 11 -163q10 -61 41 -90q29 -28 86 -28z" glyph-name="zero" unicode="0" horiz-adv-x="621"/>
<glyph d="M132 0h-1v-1v654h-108v106h224v-759h-115z" glyph-name="one" unicode="1" horiz-adv-x="334"/>
<glyph d="M32 0l-5 1v-1v92l176 207q38 43 76 94q28 37 42 65q13 28 18 51q4 21 4 50q1 52 -23 76t-84 24q-46 0 -82 -10q-42 -12 -69 -26l-50 96q43 23 92 35q51 13 128 13q110 0 158 -48t47 -144q0 -41 -6 -76q-8 -35 -25 -70q-18 -37 -52 -82q-32 -43 -88 -110l-114 -135h297 v-102h-440z" glyph-name="two" unicode="2" horiz-adv-x="521"/>
<glyph d="M238 -8l1 6v-1q-71 0 -120 12q-52 14 -92 37l52 94q33 -17 70 -28q34 -10 83 -10q73 -2 101 28q29 31 28 106q0 40 -10 66q-11 28 -39 41q-30 14 -87 14h-96v101h100q46 0 70 12t34 34q9 22 9 54q0 42 -12 64t-36 30q-26 8 -62 8q-41 0 -77 -10q-42 -12 -69 -26l-48 94 q39 22 93 36q56 14 120 14q67 0 113 -15t70 -55q24 -41 24 -113q0 -73 -18 -114q-17 -39 -59 -56q38 -11 56 -32q22 -23 29 -60q8 -42 8 -101q0 -86 -26 -136t-78 -72q-51 -22 -132 -22z" glyph-name="three" unicode="3" horiz-adv-x="521"/>
<glyph d="M34 165v1v-1v90l265 504h121l-264 -498h188l24 226h83v-226h98v-96h-98v-165h-108v165h-309z" glyph-name="four" unicode="4" horiz-adv-x="573"/>
<glyph d="M260 -8l1 -4v-1q-72 0 -130 14q-56 14 -100 38l52 94q36 -19 75 -29q42 -11 96 -11q45 -1 76 11t44 46q14 36 14 98q0 61 -14 94q-14 32 -42 44q-30 11 -68 11q-43 0 -70 -10q-31 -11 -48 -26l-89 26l20 371h390v-106h-293l-9 -182q21 14 54 23q37 8 84 8q70 0 113 -22 q44 -23 66 -77t22 -152q0 -107 -28 -162q-29 -56 -82 -77t-134 -19z" glyph-name="five" unicode="5" horiz-adv-x="543"/>
<glyph d="M307 -8l2 -2q-85 0 -135 22q-52 21 -77 63q-27 42 -34 101q-8 64 -8 138q-1 112 9 196q9 84 41 140q30 54 100 83q66 28 185 28h68v-106h-74q-67 0 -109 -14q-40 -13 -64 -40q-22 -25 -30 -62q-9 -42 -10 -82q23 29 65 42q45 14 109 14q85 0 129 -32q44 -31 60 -87 t15 -132q0 -90 -21 -150q-23 -61 -74 -90q-52 -30 -147 -30zM309 93l-2 1v-1q51 0 77 19q26 17 37 56q10 36 10 94q0 50 -11 86q-11 35 -37 51q-26 17 -73 17q-63 0 -100 -34t-39 -115q0 -58 11 -99q10 -37 41 -57q30 -18 86 -18z" glyph-name="six" unicode="6" horiz-adv-x="589"/>
<glyph d="M110 0v1v-1l222 654h-312v106h436v-92l-223 -668h-123z" glyph-name="seven" unicode="7" horiz-adv-x="472"/>
<glyph d="M296 -8l4 -1q-82 0 -131 18q-50 18 -76 50q-27 33 -34 71q-9 40 -9 84q0 46 6 87t28 70q22 30 68 46q-37 15 -53 39q-19 25 -23 56q-6 32 -6 69q-1 49 17 92q18 42 68 68t143 26q94 0 144 -26q49 -25 67 -68q18 -41 16 -92q0 -37 -6 -69t-24 -56q-19 -25 -52 -38 q48 -16 70 -46q22 -29 28 -70q6 -40 6 -87q0 -43 -9 -84q-9 -38 -35 -71q-26 -32 -76 -50q-49 -18 -131 -18zM296 92q54 0 83 17q27 16 38 48q10 29 10 72q0 41 -10 70q-11 30 -38 46q-28 16 -83 16t-83 -16q-27 -16 -38 -46q-10 -30 -9 -70q-2 -42 9 -72q11 -32 38 -48 q29 -17 83 -17zM296 458v1v-1q44 0 69 12q24 11 35 36q10 23 10 56q0 35 -10 56q-11 24 -35 35q-25 12 -69 12q-45 0 -70 -12q-24 -11 -35 -35q-10 -21 -10 -56q0 -33 10 -56q11 -25 35 -36q26 -12 70 -12z" glyph-name="eight" unicode="8" horiz-adv-x="591"/>
<glyph d="M130 0v102h76q88 0 133 24q44 24 61 68q16 44 18 105q-22 -29 -66 -42q-45 -14 -108 -14q-85 0 -129 32q-43 31 -60 88q-17 55 -15 132q-2 90 21 152q22 61 74 92t146 31q85 0 135 -22q52 -23 77 -63q26 -43 35 -102q8 -64 8 -137q1 -112 -9 -196q-11 -86 -43 -140 q-30 -54 -100 -83q-67 -27 -184 -27h-70zM278 338h1v-1q62 -2 100 35q39 37 40 116q0 58 -11 99q-11 38 -40 56q-30 18 -87 18q-50 0 -76 -19q-27 -17 -38 -56q-10 -36 -10 -95q0 -53 10 -86q10 -32 37 -50q28 -17 74 -17z" glyph-name="nine" unicode="9" horiz-adv-x="589"/>
<glyph d="M58 0v144h134v-144h-134zM58 429v1v-1v144h134v-144h-134z" glyph-name="colon" unicode=":" horiz-adv-x="252"/>
<glyph d="M58 429v144h134v-144h-134zM91 -133v-1l-32 60q29 15 40 24q13 10 18 21q4 9 4 29h-62v144h134v-134q0 -38 -7 -60q-8 -25 -29 -43t-66 -40z" glyph-name="semicolon" unicode=";" horiz-adv-x="252"/>
<glyph d="M470 100v1v-1l-381 214v82l381 214v-111l-263 -143l263 -144v-112z" glyph-name="less" unicode="&lt;" horiz-adv-x="593"/>
<glyph d="M86 196v106h423v-106h-423zM86 410v1v-1v106h423v-106h-423z" glyph-name="equal" unicode="=" horiz-adv-x="594"/>
<glyph d="M122 100v1v-1v110l263 144l-263 145v111l382 -214v-82z" glyph-name="greater" unicode="&gt;" horiz-adv-x="594"/>
<glyph d="M198 213v-3q0 43 3 73q1 30 12 54t30 48q21 26 54 56q25 22 45 46q18 22 25 39q8 21 8 43q0 27 -9 46q-9 20 -33 32t-69 12q-42 0 -84 -11q-43 -11 -69 -26l-51 98q40 20 96 33q53 13 126 13q83 0 128 -22q46 -22 64 -61q18 -41 18 -92q0 -48 -12 -81q-13 -35 -34 -59 q-27 -30 -51 -52q-23 -21 -48 -49q-19 -20 -26 -38q-9 -21 -10 -41q-2 -23 0 -58h-113zM186 0v1v-1v131h134v-131h-134z" glyph-name="question" unicode="?" horiz-adv-x="548"/>
<glyph d="M435 -169l2 2q-136 0 -221 46q-86 47 -126 149t-40 271q0 170 40 272q40 103 126 150t221 47q134 0 220 -47q85 -47 126 -150q40 -102 40 -272q1 -93 -11 -154q-12 -58 -44 -84t-92 -26q-57 0 -86 17q-27 17 -35 51q-18 -34 -57 -50q-38 -16 -106 -16q-77 2 -114 37 q-38 37 -50 96q-12 62 -11 131q-1 70 11 132q12 59 50 96q38 36 113 36q43 0 72 -6q27 -6 44 -18q15 -11 26 -30l18 50l76 -7v-348q0 -40 4 -60q4 -22 16 -32q11 -10 38 -10q26 -2 40 14t20 57q6 42 6 123q0 151 -34 238q-33 89 -103 126q-72 38 -179 37q-107 1 -179 -37 q-70 -37 -103 -126q-33 -88 -33 -238t33 -238q33 -89 103 -126q72 -38 179 -37q74 2 134 15q57 13 105 32l26 -60q-47 -21 -116 -37q-63 -16 -149 -16zM417 123l1 -1v-1q51 0 73 22q24 23 30 61q6 41 6 92q0 59 -7 94q-8 38 -30 57q-23 19 -72 19q-43 0 -66 -20 q-21 -20 -29 -59q-6 -37 -6 -90q0 -52 6 -91t28 -61t66 -22z" glyph-name="at" unicode="@" horiz-adv-x="869"/>
<glyph d="M18 0h1l234 764h126l234 -764h-122l-43 144h-270l-42 -144h-118zM208 252l-1 1v-1h211l-104 348z" glyph-name="A" unicode="A" horiz-adv-x="632"/>
<glyph d="M64 0l-2 -4v759h253q118 0 174 -47t56 -145q0 -71 -26 -112q-26 -42 -69 -55q53 -16 82 -60q28 -43 28 -127q0 -77 -28 -123q-29 -47 -82 -66q-54 -20 -127 -20h-259zM181 102l-2 -1h140q56 -2 88 24t32 93q0 46 -14 72q-13 25 -40 36q-26 10 -64 10h-140v-234zM181 442 v-1h132q55 -1 84 24q29 24 29 84t-29 84t-84 23h-132v-214z" glyph-name="B" unicode="B" horiz-adv-x="599"/>
<glyph d="M318 -8l1 -1v-1q-113 0 -175 47q-62 48 -86 134q-24 87 -23 205q0 88 12 159t44 123q31 51 90 80q57 28 148 28q63 0 109 -13q44 -12 82 -37l-64 -98q-22 14 -54 24q-31 9 -76 9q-66 0 -103 -28q-38 -29 -54 -88q-16 -58 -16 -158t16 -160q15 -62 53 -91t104 -29 q48 0 79 10q33 11 63 30l58 -91q-29 -19 -58 -30q-30 -12 -66 -18t-84 -6z" glyph-name="C" unicode="C" horiz-adv-x="548"/>
<glyph d="M64 0v759h221q120 0 187 -40q68 -39 96 -123t27 -216q1 -136 -27 -220q-29 -85 -96 -122q-68 -38 -189 -38h-219zM184 104l1 -1v-1h110q72 0 112 28q39 28 56 88q17 62 15 159q2 98 -15 158t-56 88q-41 27 -113 27h-110v-546z" glyph-name="D" unicode="D" horiz-adv-x="628"/>
<glyph d="M64 0v-1v-1v759h433v-109h-318v-204h302v-108h-302v-230h320v-106h-435z" glyph-name="E" unicode="E" horiz-adv-x="544"/>
<glyph d="M64 0v1v-1v759h434v-109h-315v-214h299v-108h-299v-328h-119z" glyph-name="F" unicode="F" horiz-adv-x="525"/>
<glyph d="M312 -8v-2v-1q-109 0 -171 44q-61 43 -85 130q-24 85 -24 212q0 137 29 224q29 86 94 126t176 40q69 0 118 -15q49 -13 86 -38l-62 -97q-25 16 -60 26q-36 12 -88 12q-57 1 -97 -23q-38 -22 -58 -83q-20 -62 -20 -170t16 -168q17 -62 54 -89q38 -27 102 -27q55 0 86 20 q30 20 41 67q12 48 12 130v24h-169v103h282v-108q2 -126 -21 -200q-23 -75 -80 -106q-59 -32 -161 -31z" glyph-name="G" unicode="G" horiz-adv-x="604"/>
<glyph d="M83 0v1v-1v759h118v-308h294v308h119v-759h-119v335h-294v-335h-118z" glyph-name="H" unicode="H" horiz-adv-x="660"/>
<glyph d="M72 0v1v-1v759h119v-759h-119z" glyph-name="I" unicode="I" horiz-adv-x="262"/>
<glyph d="M26 0v4v-1v106h72q55 0 77 22q23 23 21 69v560h119v-568q0 -72 -24 -114t-68 -60t-107 -18h-90z" glyph-name="J" unicode="J" horiz-adv-x="375"/>
<glyph d="M64 0l1 1v-1v759h118v-346l269 346h136l-230 -290l236 -469h-131l-186 372l-95 -126v-246h-118z" glyph-name="K" unicode="K" horiz-adv-x="616"/>
<glyph d="M64 0v-1v759h119v-652h305v-106h-424z" glyph-name="L" unicode="L" horiz-adv-x="504"/>
<glyph d="M64 0l2 1v-1v759h150l175 -555l176 555h150v-759h-117v538l-172 -538h-85l-173 538v-538h-106z" glyph-name="M" unicode="M" horiz-adv-x="780"/>
<glyph d="M64 0v1v-1v759h127l289 -522v522h114v-759h-110l-308 550v-550h-112z" glyph-name="N" unicode="N" horiz-adv-x="657"/>
<glyph d="M328 -8q-97 0 -157 30q-59 30 -89 84q-29 53 -40 124q-10 67 -10 149t10 149q11 71 40 124q30 54 89 84q59 31 157 31t156 -31q60 -30 90 -84q29 -53 40 -124q10 -70 9 -149q1 -79 -9 -149q-11 -71 -40 -124q-30 -54 -90 -84q-58 -30 -156 -30zM328 98v1v-1q78 0 116 36 t50 98q12 64 11 144q1 79 -11 143q-12 62 -50 98q-37 35 -116 37q-79 -2 -116 -37q-38 -36 -50 -98q-12 -64 -11 -143q-1 -80 11 -144q12 -62 50 -98t116 -36z" glyph-name="O" unicode="O"/>
<glyph d="M64 0v759h268q124 0 179 -60q56 -61 56 -176q1 -115 -55 -182q-55 -65 -182 -67h-150v-274h-116zM181 381v1v-1h148q62 -1 93 31q30 32 30 106t-30 105q-30 30 -93 30h-148v-272z" glyph-name="P" unicode="P" horiz-adv-x="598"/>
<glyph d="M430 -178l5 -2q-88 -1 -135 35q-46 36 -46 116v14q0 10 1 15q-94 18 -142 72q-47 54 -63 133t-15 174q0 82 10 149q11 71 40 124q30 54 89 84q59 31 157 31t156 -31q60 -30 90 -84q29 -53 40 -124q10 -70 9 -149q2 -75 -9 -141q-10 -65 -36 -118q-27 -53 -79 -84 q-54 -32 -136 -38v-4q0 -39 18 -56q17 -16 60 -16h68v-100h-82zM328 98v1v-1q78 0 116 36t50 98q12 64 11 144q1 79 -11 143q-12 62 -50 98q-37 35 -116 37q-79 -2 -116 -37q-38 -36 -50 -98q-12 -64 -11 -143q-1 -80 11 -144q12 -62 50 -98t116 -36z" glyph-name="Q" unicode="Q"/>
<glyph d="M432 0v-2l-124 280h-127v-280h-116v759h266q124 0 179 -58q56 -60 55 -172q0 -90 -33 -150q-35 -60 -107 -84l131 -293h-124zM181 386v1v-1h146q62 -1 91 31t29 103t-29 102q-28 30 -91 30h-146v-266z" glyph-name="R" unicode="R" horiz-adv-x="608"/>
<glyph d="M284 -8l-1 5v-1q-86 0 -152 17q-64 18 -107 46l60 91q26 -17 80 -35q49 -16 118 -18q70 0 102 26t32 76q0 40 -16 63q-17 24 -52 42q-34 17 -97 40q-69 26 -109 52q-44 29 -66 68q-22 40 -22 99q0 100 61 152q62 54 179 54q70 0 119 -12t91 -32l-52 -102q-29 14 -67 24 q-36 10 -90 10q-65 0 -95 -24t-30 -68q0 -33 12 -52t42 -36t81 -36q85 -33 131 -61q51 -31 73 -72q24 -42 24 -111q0 -97 -62 -151q-61 -54 -187 -54z" glyph-name="S" unicode="S" horiz-adv-x="566"/>
<glyph d="M226 0l1 1v-1v650h-210v109h540v-109h-211v-650h-120z" glyph-name="T" unicode="T" horiz-adv-x="571"/>
<glyph d="M328 -10l-2 1v-1q-103 0 -161 31q-59 30 -83 90q-26 60 -24 146v502h118v-492q0 -59 13 -95q12 -38 45 -57q33 -18 93 -18t93 18q33 17 47 56t14 96v492h114v-502q0 -86 -24 -146t-82 -90q-58 -31 -161 -31z" glyph-name="U" unicode="U" horiz-adv-x="654"/>
<glyph d="M250 -5v1v-1l-232 764h121l176 -590l173 590h120l-232 -764h-126z" glyph-name="V" unicode="V" horiz-adv-x="626"/>
<glyph d="M203 -5v1v-1l-178 764h121l123 -539l129 539h104l130 -539l122 539h113l-176 -764h-116l-128 524l-128 -524h-116z" glyph-name="W" unicode="W" horiz-adv-x="894"/>
<glyph d="M465 0v3v-1l-162 292l-152 -292h-128l221 398l-200 360h130l140 -254l132 254h128l-200 -362l221 -398h-130z" glyph-name="X" unicode="X" horiz-adv-x="620"/>
<glyph d="M242 0l1 1v-1v268l-238 490h126l172 -362l173 362h122l-238 -490v-268h-118z" glyph-name="Y" unicode="Y" horiz-adv-x="602"/>
<glyph d="M30 0h-1v-1v91l343 559h-328v109h470v-98l-342 -554h352v-106h-494z" glyph-name="Z" unicode="Z" horiz-adv-x="555"/>
<glyph d="M94 -162v1v-1v950h250v-100h-133v-754h136v-96h-253z" glyph-name="bracketleft" unicode="[" horiz-adv-x="420"/>
<glyph d="M343 0l-1 1v-1l-343 759h116l344 -759h-116z" glyph-name="backslash" unicode="\" horiz-adv-x="459"/>
<glyph d="M76 -162l-1 1v-1v96h134v754h-133v100h250v-950h-250z" glyph-name="bracketright" unicode="]" horiz-adv-x="420"/>
<glyph d="M77 601l-2 1v-1l114 173h108l114 -173h-94l-75 94l-74 -94h-91z" glyph-name="asciicircum" unicode="^" horiz-adv-x="487"/>
<glyph d="M-30 -136v1v-1v87h436v-87h-436z" glyph-name="underscore" unicode="_" horiz-adv-x="375"/>
<glyph d="M219 630v1v-1l-141 173h129l112 -173h-100z" glyph-name="grave" unicode="`" horiz-adv-x="487"/>
<glyph d="M204 -6l4 -2q-69 0 -106 22q-38 23 -54 62t-16 94q0 81 32 128q31 46 97 64t166 18h22q0 30 -8 54q-7 21 -28 32q-20 11 -56 11q-46 0 -82 -9q-35 -9 -61 -21l-47 93q33 19 84 31q50 12 116 12q76 0 118 -21q41 -19 58 -64q16 -42 16 -114v-232q-1 -30 6 -42 q8 -12 37 -10v-100h-16h-16q-43 -1 -71 10q-25 10 -34 40q-24 -31 -64 -43q-38 -13 -97 -13zM228 89v1v-1q34 0 60 12q26 10 43 40q16 28 16 80v70h-22q-64 0 -107 -8q-40 -7 -59 -31q-19 -22 -19 -67q0 -54 22 -75q22 -22 66 -21z" glyph-name="a" unicode="a" horiz-adv-x="534"/>
<glyph d="M56 3l-2 -1v784h114v-266q19 29 58 46q37 15 104 15q86 -2 125 -41q42 -40 54 -107q13 -63 11 -146q2 -79 -12 -147q-13 -65 -56 -106q-41 -39 -126 -41q-57 0 -86 7q-34 8 -50 20q-19 14 -33 31l-17 -55zM294 93l1 2v-1q47 0 72 23q24 23 32 65q8 45 8 100t-8 101 q-7 42 -32 67q-24 24 -73 24q-56 0 -83 -24q-27 -25 -34 -67q-8 -48 -7 -101q-1 -53 7 -100q7 -42 34 -65q27 -24 83 -24z" glyph-name="b" unicode="b" horiz-adv-x="554"/>
<glyph d="M260 -8l-3 -2v-1q-93 0 -142 36q-50 36 -68 102q-18 68 -17 158q-2 95 17 158q20 66 70 102q51 36 147 36q45 0 83 -8q31 -7 64 -22l-50 -100q-21 11 -42 17q-25 5 -48 5q-48 0 -74 -20q-28 -21 -38 -63q-10 -40 -10 -106t10 -106q11 -44 38 -64q26 -22 77 -22q29 0 56 8 q23 7 47 18l44 -88q-35 -18 -76 -29q-37 -9 -85 -9z" glyph-name="c" unicode="c" horiz-adv-x="439"/>
<glyph d="M223 -7l-2 3q-86 2 -125 41q-41 41 -53 107q-12 65 -10 147q-2 80 12 146q13 65 56 106q41 39 126 41q65 0 102 -14q34 -13 55 -40v258h114v-784l-92 -7l-9 58q-19 -29 -60 -46q-39 -16 -114 -16zM260 93h-1v-1q56 0 83 24t35 68q8 49 7 102q1 52 -7 99q-7 41 -35 66 q-27 24 -83 24q-47 0 -72 -23q-25 -25 -32 -66q-8 -45 -8 -100q0 -56 8 -102q7 -42 32 -67q24 -24 73 -24z" glyph-name="d" unicode="d" horiz-adv-x="554"/>
<glyph d="M262 -7v3q-96 0 -145 36q-50 36 -68 102q-18 64 -16 158q-1 87 19 156q19 65 70 102q51 36 143 36q76 0 118 -24q42 -22 60 -68q17 -43 22 -110q4 -53 2 -149h-324q1 -44 13 -79q12 -31 38 -48q25 -16 74 -16q56 0 89 10q37 11 58 23l44 -88q-35 -20 -82 -32t-115 -12z M262 482l3 1v-1q-45 0 -71 -17q-26 -18 -36 -51t-12 -81h219q0 46 -6 79q-6 34 -28 52q-21 18 -69 18z" glyph-name="e" unicode="e" horiz-adv-x="502"/>
<glyph d="M16 472l-2 1v-1v100h91v52q-1 77 41 121q40 43 135 43h41h30v-100h-60q-44 0 -58 -20q-14 -21 -13 -56v-40h132v-100h-132v-472h-114v472h-91z" glyph-name="f" unicode="f" horiz-adv-x="361"/>
<glyph d="M254 204l2 -3q-13 0 -37 2q-22 2 -34 4l-3 -12q-1 -4 -1 -12q0 -21 18 -28q19 -8 66 -8q88 0 141 -14q51 -13 71 -46t19 -86q0 -92 -59 -133q-59 -40 -180 -39q-84 0 -137 12q-52 12 -78 42q-25 29 -25 83q0 51 24 86q24 34 75 48q-16 12 -24 32q-8 21 -8 43q0 17 6 34 q3 12 16 32q-30 22 -46 59q-16 36 -16 91q0 103 54 150t156 45h19q14 0 21 -1l196 34v-90h-82q26 -18 42 -52q15 -33 15 -85q0 -70 -26 -111t-74 -59q-47 -18 -111 -18zM254 -84l1 -1q49 0 79 8q26 7 37 26q10 17 10 46q0 25 -10 38q-11 14 -37 20q-28 6 -80 6 q-70 0 -99 -18q-28 -18 -27 -55q0 -26 12 -42q10 -16 39 -22q27 -6 75 -6zM254 295v1v-1q49 0 74 23q24 22 24 71t-24 72q-23 22 -74 22t-74 -22q-24 -23 -24 -72t24 -71q25 -23 74 -23z" glyph-name="g" unicode="g" horiz-adv-x="525"/>
<glyph d="M56 0l-1 2v-1v788h114v-262q14 24 51 41q35 16 108 16q71 0 108 -26q36 -25 48 -73q12 -50 11 -110v-372h-114v346q0 41 -6 70q-6 28 -26 42t-62 14q-47 0 -73 -18q-26 -19 -35 -55q-9 -38 -9 -97v-305h-114z" glyph-name="h" unicode="h" horiz-adv-x="546"/>
<glyph d="M58 0v572h114v-572h-114zM58 636v1v-1v124h116v-124h-116z" glyph-name="i" unicode="i" horiz-adv-x="232"/>
<glyph d="M2 -162l3 -1v94h10q30 0 38 14q9 16 8 51v576h114v-580q0 -57 -13 -90q-13 -34 -47 -49q-35 -15 -95 -15h-18zM58 636v1v-1v124h116v-124h-116z" glyph-name="j" unicode="j" horiz-adv-x="232"/>
<glyph d="M56 0v-1v788h112v-480l183 266h124l-172 -242l184 -331h-122l-137 238l-60 -88v-150h-112z" glyph-name="k" unicode="k" horiz-adv-x="496"/>
<glyph d="M238 0l1 -2v-1h-14h-28q-50 0 -81 14t-44 45q-14 33 -14 87v644h114v-630q0 -23 4 -34q4 -12 18 -18q15 -5 44 -5v-100z" glyph-name="l" unicode="l" horiz-adv-x="273"/>
<glyph d="M56 0l-2 1v-1v565l91 8l9 -52q12 19 32 33q21 15 53 22q35 8 83 8q46 0 76 -8q27 -7 42 -22q14 -14 20 -33q18 30 59 47q42 17 118 17q71 0 106 -26q34 -25 45 -73q10 -44 8 -110v-372h-114v346q0 45 -4 70q-4 28 -24 42q-19 14 -60 14q-48 0 -72 -18q-25 -19 -32 -55 q-8 -42 -7 -96v-305h-114v346q1 36 -4 70q-4 28 -23 42q-20 14 -61 14q-48 0 -72 -18q-25 -18 -33 -56q-8 -40 -8 -95v-305h-112z" glyph-name="m" unicode="m" horiz-adv-x="842"/>
<glyph d="M56 0h-2v-1v565l91 8l9 -52q18 29 58 45q39 16 116 16q71 0 108 -26q36 -25 48 -73q12 -50 11 -110v-372h-114v346q0 41 -6 70q-6 28 -26 42t-62 14q-49 0 -75 -18q-27 -19 -34 -55q-8 -40 -8 -94v-305h-114z" glyph-name="n" unicode="n" horiz-adv-x="546"/>
<glyph d="M270 -8v-2q-95 0 -148 38q-51 37 -71 103q-19 66 -18 154q-2 90 17 153q18 67 70 104q53 38 150 38t150 -38q52 -37 70 -104q18 -68 17 -152q1 -86 -17 -154q-18 -66 -70 -103t-150 -37zM270 92v1v-1q55 0 80 24q27 25 34 67q8 49 7 99q1 52 -7 100q-7 42 -34 67 q-25 24 -80 24q-54 0 -80 -24q-27 -25 -34 -67q-8 -48 -7 -100q-1 -50 7 -99q7 -42 34 -67q26 -24 80 -24z" glyph-name="o" unicode="o" horiz-adv-x="539"/>
<glyph d="M56 -162l-2 -1v727l91 8l8 -54q19 28 62 45t116 17q86 -2 125 -41q42 -40 54 -107q13 -63 11 -146q1 -80 -12 -147q-13 -65 -56 -106q-41 -39 -126 -41q-66 0 -103 14q-35 13 -54 40v-208h-114zM294 93v2v-1q47 0 72 23q24 23 32 65q8 45 8 100t-8 101q-7 42 -32 67 q-24 24 -72 24q-56 0 -83 -24q-27 -25 -34 -67q-8 -48 -7 -101q-1 -53 7 -100q7 -42 34 -65q27 -24 83 -24z" glyph-name="p" unicode="p" horiz-adv-x="554"/>
<glyph d="M385 -162v213q-19 -29 -57 -42q-38 -15 -106 -15q-86 2 -125 41q-41 41 -53 107q-12 65 -10 147q-2 80 12 146q13 65 56 106q41 39 126 41q53 0 86 -6q35 -8 53 -19q19 -11 31 -30l16 52l85 -7v-734h-114zM260 93h-1v-1q56 0 83 24t35 68q8 49 7 102q1 52 -7 99 q-7 41 -35 66q-27 24 -83 24q-47 0 -72 -23q-25 -25 -32 -66q-8 -45 -8 -100q0 -56 8 -102q7 -42 32 -67q24 -24 73 -24z" glyph-name="q" unicode="q" horiz-adv-x="554"/>
<glyph d="M56 0v3v-1v565l90 8l10 -60q16 27 53 46q37 18 107 18v-108q-67 -1 -100 -28q-31 -25 -39 -68q-8 -45 -7 -91v-284h-114z" glyph-name="r" unicode="r" horiz-adv-x="324"/>
<glyph d="M215 -7l2 -1v-1q-60 0 -110 10t-91 30l44 89q28 -14 70 -25q39 -10 86 -10q42 0 64 16t22 50q0 21 -11 38q-10 16 -37 30q-32 17 -69 31q-53 21 -84 41q-34 22 -52 52q-17 32 -17 77q2 86 52 125q52 38 141 38q53 0 93 -8q35 -7 70 -22l-45 -96q-19 8 -54 17q-28 7 -68 7 q-44 0 -62 -15q-18 -17 -17 -44q-2 -29 23 -47q23 -17 84 -40q53 -19 87 -42q35 -23 53 -54q18 -33 18 -85q0 -81 -50 -122q-49 -39 -142 -39z" glyph-name="s" unicode="s" horiz-adv-x="431"/>
<glyph d="M16 472h1v-1v100h93l18 144l92 20v-164h134v-100h-134v-300q0 -22 5 -40q5 -17 18 -24q16 -8 45 -8h65v-100q-15 0 -25 -1h-30h-23q-69 0 -105 16q-37 16 -51 53t-14 93v312h-89z" glyph-name="t" unicode="t" horiz-adv-x="390"/>
<glyph d="M268 -8l2 1v-1q-88 0 -134 24q-47 24 -65 74q-18 49 -18 128v354h116v-347q-1 -42 5 -74q6 -30 28 -43q23 -14 69 -14q44 0 67 14q22 13 28 44q6 32 5 74v346h113v-354q1 -77 -17 -128q-16 -49 -64 -74q-47 -24 -135 -24z" glyph-name="u" unicode="u" horiz-adv-x="535"/>
<glyph d="M184 -4v1v-1l-178 576h120l123 -425l122 425h115l-180 -576h-122z" glyph-name="v" unicode="v" horiz-adv-x="492"/>
<glyph d="M162 -4l-1 1v-1l-150 576h116l94 -394l102 394h106l100 -390l95 390h110l-148 -576h-110l-102 383l-102 -383h-110z" glyph-name="w" unicode="w" horiz-adv-x="746"/>
<glyph d="M351 0h-1v-1l-116 203l-108 -203h-117l169 301l-154 272h124l100 -177l95 177h117l-155 -276l169 -296h-123z" glyph-name="x" unicode="x" horiz-adv-x="483"/>
<glyph d="M68 -162l2 -2v-1v94h56q21 0 32 8q10 7 15 26l10 35l-175 574h117l116 -410l116 410h112l-192 -632q-12 -40 -32 -64q-19 -22 -50 -30q-32 -8 -71 -8h-56z" glyph-name="y" unicode="y" horiz-adv-x="475"/>
<glyph d="M18 0l1 2v-1v78l244 394h-230v100h372v-79l-246 -400h255v-94h-396z" glyph-name="z" unicode="z" horiz-adv-x="432"/>
<glyph d="M290 -162l-1 4v-1q-87 0 -128 32q-41 31 -39 99q0 22 6 56l14 72l14 70q6 32 6 48q1 29 -23 40q-25 9 -82 8v98q56 -1 81 8q24 8 24 38q0 20 -6 51l-14 68q-13 63 -14 71q-6 34 -6 57q-2 68 39 100t128 32h89v-100h-56q-40 1 -60 -14t-20 -53q2 -31 11 -68q14 -65 19 -86 q10 -41 10 -76q0 -28 -12 -47q-12 -20 -40 -30q27 -10 40 -31q12 -20 12 -47q0 -36 -10 -80l-19 -87q-9 -37 -11 -66q0 -37 20 -54q19 -16 60 -16h56v-96h-88z" glyph-name="braceleft" unicode="{" horiz-adv-x="450"/>
<glyph d="M94 -162v1v-1v950h117v-950h-117z" glyph-name="bar" unicode="|" horiz-adv-x="304"/>
<glyph d="M72 -162l-1 -4v-1v96h56q41 0 60 16q20 17 20 54q-2 29 -11 66q-4 16 -11 47t-9 40q-10 44 -10 80q0 28 12 47q12 20 40 30q-28 10 -40 30q-12 19 -12 47q0 24 6 55q1 5 14 65l14 64q6 30 6 49q0 38 -20 53t-60 14h-56v100h90q87 0 127 -32t38 -100q0 -22 -6 -57 q-1 -8 -14 -71l-14 -68q-6 -32 -6 -51q0 -30 24 -39q27 -8 83 -7v-98q-55 1 -82 -7q-24 -9 -24 -41q0 -17 6 -48l14 -70l14 -72q6 -35 6 -56q1 -67 -38 -99q-41 -32 -128 -32h-88z" glyph-name="braceright" unicode="}" horiz-adv-x="450"/>
<glyph d="M128 398l1 -1v-1l-75 42q24 49 54 71q30 24 70 24q28 -2 47 -11q33 -17 39 -20q16 -9 34 -11q16 0 30 12t30 36l74 -43q-24 -48 -54 -72t-70 -24q-27 0 -47 10q-29 13 -40 20q-16 9 -34 11q-17 0 -30 -10q-15 -11 -29 -33z" glyph-name="asciitilde" unicode="~" horiz-adv-x="487"/>
<glyph d="M100 0h1l11 536h104l10 -536h-126zM96 614v1v-1v144h135v-144h-135z" glyph-name="exclamdown" unicode="¡" horiz-adv-x="327"/>
<glyph d="M208 -98l-4 -6v-1v98q-65 12 -102 50t-50 98q-14 62 -14 140q0 77 14 139q13 60 50 98t102 50v85h110v-81q30 -1 58 -8q31 -9 48 -17l-49 -98q-21 11 -42 17q-25 5 -49 5q-47 0 -75 -20q-26 -21 -37 -63q-10 -40 -10 -106t10 -106q11 -44 38 -64q26 -22 77 -22q30 0 57 8 q24 7 46 18l43 -86q-34 -16 -55 -22q-29 -9 -56 -10v-96h-110z" glyph-name="cent" unicode="¢" horiz-adv-x="460"/>
<glyph d="M368 -5l-2 1v-1q-46 0 -90 12t-83 32q-25 -22 -70 -30q-46 -8 -106 -8v102q51 0 76 6t36 23q10 17 10 52q0 30 -7 68q-2 10 -19 86h-94v94h74l-14 76q-5 40 -5 66q0 98 51 146q49 48 159 48q60 0 112 -11q54 -11 91 -32l-50 -93q-33 16 -73 23q-43 8 -79 8q-52 0 -75 -26 q-22 -25 -22 -74q0 -20 5 -58q4 -33 12 -73h160v-94h-142q9 -46 15 -85q6 -41 6 -68q0 -12 -2 -34q-2 -20 -4 -30q30 -13 55 -19q27 -7 61 -7t46 19q12 20 11 57v60h102v-64q0 -59 -14 -98q-14 -38 -45 -56q-32 -18 -86 -18z" glyph-name="sterling" unicode="£" horiz-adv-x="535"/>
<glyph d="M0 0v1v-1z" glyph-name="currency" unicode="¤" horiz-adv-x="181"/>
<glyph d="M58 228l-2 1v-1v94h158l-206 438h122l144 -328l144 328h120l-204 -438h160v-94h-162v-62h162v-94h-162v-70h-112v70h-162v94h162v62h-162z" glyph-name="yen" unicode="¥" horiz-adv-x="552"/>
<glyph d="M94 -162v394h117v-394h-117zM94 394v1v-1v394h117v-394h-117z" glyph-name="brokenbar" unicode="¦" horiz-adv-x="304"/>
<glyph d="M122 -7v1h-30q-16 0 -21 1v90h39q31 0 45 10q17 11 21 28q5 20 5 42v60q-68 7 -99 46q-31 37 -31 108q0 70 31 107q30 38 99 47v52q0 51 12 92q14 41 49 63q37 23 106 23h30h22v-96h-40q-31 0 -45 -10q-17 -11 -21 -28q-5 -20 -5 -42v-54q72 -9 104 -47t32 -108t-32 -108 q-32 -39 -102 -46v-52q0 -53 -13 -92q-13 -40 -49 -64q-38 -23 -107 -23zM238 299v1v-1q48 0 72 18t24 58q0 41 -24 59t-72 18t-72 -18q-23 -18 -23 -59q0 -40 23 -58q24 -18 72 -18z" glyph-name="section" unicode="§" horiz-adv-x="476"/>
<glyph d="M100 630v118h102v-118h-102zM286 630v1v-1v118h102v-118h-102z" glyph-name="dieresis" unicode="¨" horiz-adv-x="487"/>
<glyph d="M347 131l-3 4q-74 0 -114 30q-40 29 -55 86q-17 57 -15 135q-1 75 14 132q15 56 56 88q43 32 120 32q38 0 72 -8q30 -9 54 -23l-41 -64q-13 10 -36 16t-52 6q-62 1 -87 -43q-24 -44 -23 -139q0 -65 10 -104q11 -41 34 -60t68 -19q29 0 52 6q20 5 43 20l38 -60 q-29 -18 -58 -26q-30 -9 -77 -9zM341 -10q-119 0 -186 50t-92 138q-26 92 -25 202q-1 110 25 202q25 88 92 138q66 50 186 51q119 -1 187 -51t93 -138q26 -92 25 -202q1 -110 -25 -202q-25 -88 -93 -138t-187 -50zM341 36v1v-1q102 0 158 44q55 43 78 121q23 77 21 177 q2 101 -21 179q-23 79 -78 122t-158 45q-102 -2 -157 -45t-78 -122q-23 -78 -21 -179q-1 -100 21 -177q23 -78 78 -121q56 -44 157 -44z" glyph-name="copyright" unicode="©" horiz-adv-x="683"/>
<glyph d="M184 290v2q-74 0 -104 38t-29 104q0 66 26 101q25 35 79 49q52 12 134 12h16q0 43 -14 66q-14 21 -59 21q-38 0 -65 -7q-30 -8 -51 -18l-38 78q31 15 68 23q40 9 95 9q63 0 96 -16t47 -53t14 -93v-187q-1 -23 5 -33q6 -9 30 -9v-83h-15h-14q-42 -1 -62 11q-19 12 -27 45 q-19 -33 -50 -46q-33 -14 -82 -14zM64 138v84h344v-84h-344zM211 368h-1v-1q28 0 48 10q21 9 33 32t12 65v54h-16q-55 0 -86 -6q-34 -6 -47 -24q-15 -18 -15 -54q0 -42 18 -59q19 -17 54 -17z" glyph-name="ordfeminine" unicode="ª" horiz-adv-x="477"/>
<glyph d="M192 0l-125 286l125 287h102l-118 -287l118 -286h-102zM424 0v1v-1l-125 286l125 287h100l-117 -287l117 -286h-100z" glyph-name="guillemotleft" unicode="«" horiz-adv-x="614"/>
<glyph d="M129 123l1 2q-45 54 -68 118q-24 66 -24 140q0 75 24 139q23 64 68 118l2 -2l5 -5q-43 -53 -66 -116q-24 -65 -24 -136t24 -136q24 -64 66 -115l-6 -5zM234 216l3 -1q-26 34 -43 76q-16 41 -16 89q0 47 15 89q15 41 42 76l4 -4l4 -4q-27 -34 -40 -72q-15 -41 -15 -84 t14 -85q13 -38 40 -72l-4 -4zM270 249v5q-22 26 -34 60q-12 33 -12 71q0 37 12 71q12 35 34 61l4 -4l4 -4q-20 -25 -33 -58q-12 -31 -12 -68t12 -68q13 -33 33 -58l-4 -4zM324 296l-1 3q-14 18 -21 40q-8 22 -8 45t8 45t21 38l4 -4l4 -4q-12 -16 -19 -35q-6 -20 -6 -42 q0 -24 7 -42q8 -21 19 -36l-4 -4zM358 328v2q-7 10 -12 25q-4 12 -4 28t4 28q4 13 12 24l4 -4l4 -4q-6 -8 -11 -22q-4 -11 -4 -24t4 -24q6 -14 11 -21l-4 -4zM387 354v3q-4 6 -5 12q-2 8 -2 13t2 13q1 4 5 12l5 -3l2 -2l-4 -10q-2 -6 -2 -11t2 -11q1 -2 2.5 -5.5t1.5 -4.5 l-2 -2zM426 62v-1q-58 0 -112 20q-51 19 -93 58q1 1 3 4l4 3q42 -37 90 -56q52 -20 108 -20t107 20q48 19 90 56l4 -4l4 -4q-41 -37 -93 -56q-54 -20 -112 -20zM426 332h-1q-16 0 -28 9l4 3l2 2q6 -4 10 -5q8 -2 12 -2t12 2q5 1 10 6l2 -2l4 -5q-6 -4 -12 -6q-10 -2 -15 -2z M494 326v1l-4 4l-4 4q6 8 11 22q4 11 4 24q0 14 -4 25q-6 14 -11 21q1 1 4 3l4 3q8 -11 12 -24q4 -12 4 -28q0 -17 -4 -29q-5 -15 -12 -26zM299 276l-1 1q-17 23 -27 49q-9 26 -9 56q0 32 10 56q11 27 28 48l7 -8q-15 -18 -25 -44q-9 -26 -9 -53q0 -28 9 -52q9 -27 25 -45 l-4 -4zM426 -18l3 4q-73 0 -140 26q-65 25 -118 72l7 8q50 -46 114 -72q66 -26 136 -26q73 0 136 25q64 25 114 71q1 -1 3 -4l3 -4q-54 -49 -118 -74q-67 -26 -140 -26zM426 124h-1q-49 0 -90 16q-42 17 -76 46l8 8q29 -27 72 -44q39 -16 86 -16t86 16q41 17 71 44l4 -4 l4 -4q-30 -29 -74 -46q-41 -16 -90 -16zM426 174l-2 -2q-39 0 -72 13t-61 38l7 7q24 -21 58 -34q31 -12 68 -12q36 0 68 12t57 34l4 -4l4 -4q-25 -22 -59 -36q-34 -12 -72 -12zM426 214h-1q-31 0 -57 10q-27 11 -49 28l7 8q20 -16 45 -27q24 -10 53 -10t53 10q25 11 45 27 l4 -4l4 -4q-19 -17 -47 -28q-26 -10 -57 -10zM426 272h-1q-21 0 -37 6q-18 7 -31 18l7 8q11 -10 28 -16q16 -6 33 -6t32 6q16 6 27 16l4 -4l4 -4q-14 -12 -30 -18t-36 -6zM366 456l-3 1l-5 4q-2 2 -2 3q13 11 31 18q17 6 37 6q21 0 37 -6q18 -7 31 -18l-8 -8q-13 11 -27 17 q-15 6 -32 6t-32 -6q-14 -6 -27 -17zM584 565h1q-31 29 -72 45q-39 16 -86 16t-86 -16q-43 -17 -72 -44l-8 7q34 29 76 46q41 16 89 16q49 0 90 -16q42 -17 76 -46l-4 -4zM465 354l1 -3l-5 4l-2 2q0 1 1.5 4.5t2.5 5.5q2 6 2 11t-2 11l-4 10l6 5q4 -8 5 -12q2 -8 2 -13 t-2 -13q-1 -6 -5 -12zM479 341v-1l-4 4l-4 4q3 5 7 15q2 10 2 16t-2 16q-4 10 -7 15l8 8q6 -8 9 -18q3 -11 3 -20q0 -10 -3 -21t-9 -18zM510 314l1 -2l-4 4l-4 4q10 13 14 27q5 17 5 32t-5 32q-4 14 -14 27l7 7q9 -11 16 -31q6 -17 6 -35q0 -19 -6 -35q-6 -18 -16 -30z M553 276l-1 -2l-4 4l-4 4q16 18 25 45q9 24 9 52q0 29 -10 53q-10 26 -25 44l8 8q17 -21 28 -48q10 -24 10 -56q0 -30 -9 -56q-10 -26 -27 -48zM582 249v-4l-4 4l-4 4q20 25 33 58q12 32 12 68q0 37 -12 68q-13 33 -33 58l8 7q22 -26 34 -60t12 -72t-12 -71q-12 -34 -34 -60 zM618 216v1l-2 2l-6 6q28 32 41 72q14 42 14 85q0 42 -14 84q-13 40 -41 72l8 7q28 -32 43 -75q15 -42 15 -89t-15 -89t-43 -76zM664 175l1 -1l-4 4l-4 4q32 40 51 91q19 48 19 107t-19 107q-18 51 -52 90l8 7q35 -42 54 -94q20 -54 20 -110q0 -57 -20 -111q-19 -52 -54 -94 zM723 123v-1l-2 2l-6 5q42 51 66 115q24 65 24 136q0 72 -24 136q-23 63 -66 116l8 7q45 -54 68 -118q24 -66 24 -140t-24 -140q-23 -64 -68 -118zM188 174v-1q-37 45 -55 94q-19 51 -19 112q0 59 19 110q19 52 54 94l4 -4l4 -4q-34 -39 -52 -90q-18 -49 -18 -106t18 -108 t52 -90zM342 314v-1q-9 11 -16 31q-6 16 -6 36q0 18 6 35q7 20 16 31l4 -4l4 -4q-10 -13 -14 -27q-5 -17 -5 -32t5 -30q4 -14 14 -27zM372 341q-6 7 -9 18t-3 21t3 20t9 18l4 -4l4 -4q-4 -8 -6 -15q-2 -10 -2 -16t2 -16q2 -7 6 -15zM404 412h1l-5 6q6 4 12 6q10 2 15 2 t15 -2q6 -2 12 -6l-4 -4l-2 -2q-5 5 -10 6q-8 2 -12 2t-12 -2q-5 -1 -10 -6zM393 426l1 1l-7 7q6 6 18 11q9 4 22 4q12 0 21 -4q12 -5 18 -11l-4 -4l-4 -4q-8 6 -15 9q-7 4 -17 4t-18 -3q-10 -6 -15 -10zM380 440l-1 -1l-8 8q10 10 25 15t29 5q15 0 30 -5q13 -4 24 -15 l-5 -5l-2 -2q-9 8 -21 12q-11 4 -25 4t-25 -4q-12 -4 -21 -12zM302 528l1 -1l-7 8q26 24 60 36q33 13 72 13t72 -13q35 -14 59 -37l-3 -3l-3 -3q-24 21 -58 34q-31 12 -68 12t-68 -12q-32 -12 -57 -34zM426 246l-1 -1q-22 0 -46 8q-20 7 -39 22l7 8q17 -13 36 -21 q21 -8 42 -8t42 8q19 8 36 21l7 -7q-18 -15 -38 -22q-24 -8 -46 -8zM426 292l1 1q-15 0 -30 5q-14 5 -26 15l8 8q11 -8 22 -12q13 -5 25 -5q14 0 25 4t22 12l7 -8q-10 -10 -24 -15q-15 -5 -30 -5zM426 312h1q-13 0 -22 4q-12 5 -19 11l7 8q2 -2 16 -10q7 -4 17 -4t17 4 q10 6 15 10l7 -8q-6 -6 -18 -11q-9 -4 -21 -4zM349 475v-1l-7 8q19 15 39 22q24 8 46 8t46 -8q20 -7 39 -22l-7 -8q-19 15 -36 22q-21 8 -42 8q-24 0 -42 -7q-17 -7 -36 -22zM328 498h-2l-7 8q22 17 49 28q26 10 57 10t57 -10q28 -11 47 -28l-6 -8q-18 17 -44 28 q-24 10 -53 10t-53 -10q-26 -11 -45 -28zM624 612v1q-42 37 -90 56q-51 20 -108 20q-56 0 -108 -20q-48 -19 -90 -56l-8 7q41 37 94 58q54 20 112 20t112 -20q53 -21 94 -58zM176 670l-2 -1l-7 8q55 49 118 73q67 26 140 26t140 -26q65 -25 118 -72l-7 -8q-50 46 -114 72 q-66 26 -136 26t-136 -26q-64 -26 -114 -72zM528 297l1 -3v-1l-8 7q11 15 19 36q6 20 6 42q0 24 -7 42q-8 21 -19 36l8 8q14 -18 21 -39q8 -22 8 -45t-8 -45t-21 -38z" glyph-name="logicalnot" unicode="¬" horiz-adv-x="852"/>
<glyph d="M36 276v1v-1v106h286v-106h-286z" glyph-name="uni00AD" unicode="­" horiz-adv-x="359"/>
<glyph d="M341 -10q-119 0 -186 50t-92 138q-26 92 -25 202q-1 110 25 202q25 88 92 138q66 50 186 51q119 -1 187 -51t93 -138q26 -92 25 -202q1 -110 -25 -202q-25 -88 -93 -138t-187 -50zM341 36q102 0 158 44q55 43 78 121q23 77 21 177q2 101 -21 179q-23 79 -78 122t-158 45 q-102 -2 -157 -45t-78 -122q-23 -78 -21 -179q-1 -100 21 -177q23 -78 78 -121q56 -44 157 -44zM431 138h-2l-85 188h-78v-188h-74v486h169q57 0 88 -16q33 -17 46 -48q14 -33 14 -81q0 -60 -20 -98t-70 -50l87 -193h-75zM268 386v1v-1h93q42 0 60 20t18 67t-18 67t-60 20 h-93v-174z" glyph-name="registered" unicode="®" horiz-adv-x="683"/>
<glyph d="M77 630v1v-1v95h332v-95h-332z" glyph-name="macron" unicode="¯" horiz-adv-x="487"/>
<glyph d="M236 280q-78 2 -120 33q-41 31 -58 87q-16 56 -15 123q-1 67 15 123q17 56 58 87q42 31 120 33q79 -1 121 -33q41 -31 58 -87t15 -123q2 -67 -15 -123t-58 -87q-42 -32 -121 -33zM236 368v1v-1q42 0 65 20q21 18 29 54q8 37 8 79q0 41 -8 78q-8 36 -29 54q-23 20 -65 20 q-41 0 -64 -20q-22 -20 -29 -54q-8 -37 -8 -78q0 -42 8 -79q7 -34 29 -54q23 -20 64 -20z" glyph-name="degree" unicode="°" horiz-adv-x="474"/>
<glyph d="M0 0v1v-1z" glyph-name="plusminus" unicode="±" horiz-adv-x="0"/>
<glyph d="M50 280l-2 3v-1v66l112 131q52 65 57 71q18 26 24 42t6 34q0 33 -16 45q-17 12 -48 12q-28 0 -52 -6q-27 -7 -44 -16l-39 76q28 15 62 22q38 8 87 8q73 0 108 -32q34 -31 34 -95q0 -33 -8 -62q-7 -26 -32 -62q-24 -35 -70 -88l-60 -72h179v-76h-298z" glyph-name="twosuperior" unicode="²" horiz-adv-x="404"/>
<glyph d="M192 274l2 6v-1q-44 0 -82 8q-35 7 -64 24l39 71q23 -12 46 -18q24 -6 54 -6q45 -1 62 16t15 59q0 23 -6 36t-24 21q-18 6 -54 6h-66v78h66q42 0 56 14q16 14 14 40q0 36 -16 46t-51 9q-26 0 -50 -6q-26 -6 -46 -16l-37 72q27 14 65 23q42 8 82 8q48 0 78 -10 q32 -11 48 -35q17 -26 17 -74q0 -41 -10 -65q-11 -27 -38 -38q36 -12 48 -40t12 -81q0 -81 -40 -115q-41 -33 -120 -32z" glyph-name="threesuperior" unicode="³" horiz-adv-x="409"/>
<glyph d="M169 630v1v-1l112 173h128l-140 -173h-100z" glyph-name="acute" unicode="´" horiz-adv-x="487"/>
<glyph d="M56 -162l1 1v-1v734h114v-347q0 -44 6 -74t28 -43q23 -14 68 -14t68 14q22 13 28 44q6 30 6 74v346h112v-354q1 -76 -16 -128q-17 -51 -62 -74q-47 -24 -132 -24q-37 0 -66 9q-27 9 -41 27v-190h-114z" glyph-name="mu" unicode="µ" horiz-adv-x="538"/>
<glyph d="M190 0l2 2v289q-59 12 -94 42q-34 30 -48 78t-14 110q-2 78 21 131q23 55 76 80q54 27 150 27h205v-759h-112v280h-74v-280h-112zM280 381l1 2v-1h96v274h-96q-72 0 -102 -32q-31 -32 -29 -106q0 -74 30 -106q31 -32 100 -31z" glyph-name="paragraph" unicode="¶" horiz-adv-x="548"/>
<glyph d="M50 286v1v-1v148h136v-148h-136z" glyph-name="periodcentered" unicode="·" horiz-adv-x="236"/>
<glyph d="M256 -234l3 4v-1q-29 0 -58 6q-25 5 -52 17l26 56q19 -7 38 -12q16 -4 36 -4q32 0 45 11q12 11 11 33q0 26 -18 33q-19 8 -59 5l-24 18l15 76h66l-9 -52q32 2 54 -4q25 -6 38 -25q14 -20 14 -58q1 -52 -28 -78q-28 -25 -98 -25z" glyph-name="cedilla" unicode="¸" horiz-adv-x="487"/>
<glyph d="M114 280v1v-1v396h-70v84h166v-480h-96z" glyph-name="onesuperior" unicode="¹" horiz-adv-x="295"/>
<glyph d="M238 288h1q-79 2 -120 31q-41 30 -58 84q-15 54 -15 125q-1 70 15 124q15 53 57 85q42 30 120 30q81 0 122 -31q42 -30 57 -84q15 -56 14 -124q1 -70 -14 -126q-15 -54 -57 -84t-122 -30zM238 370q43 0 63 20q21 20 27 54t6 81q0 43 -6 78t-27 54q-20 20 -63 20 q-42 0 -62 -20q-21 -19 -27 -54q-6 -37 -5 -78q-1 -44 5 -81q6 -34 27 -54q20 -20 62 -20zM62 138v1v-1v84h352v-84h-352z" glyph-name="ordmasculine" unicode="º" horiz-adv-x="477"/>
<glyph d="M89 0l118 286l-118 286h102l125 -286l-125 -286h-102zM320 0v1v-1l116 286l-116 286h102l124 -286l-124 -286h-102z" glyph-name="guillemotright" unicode="»" horiz-adv-x="614"/>
<glyph d="M171 0l338 759h104l-338 -759h-104zM444 91v72l167 316h95l-166 -312h102l16 120h68v-120h62v-76h-62v-91h-86v91h-196zM121 280v1v-1v396h-70v84h166v-480h-96z" glyph-name="onequarter" unicode="¼" horiz-adv-x="824"/>
<glyph d="M171 0l338 759h104l-338 -759h-104zM121 280v396h-70v84h166v-480h-96zM520 0h-1v-1v66l112 130q42 50 58 71q18 26 24 42t6 34q0 33 -16 45q-17 12 -48 12q-28 0 -52 -6q-27 -7 -44 -16l-39 76q27 14 62 23q36 9 87 9q73 0 108 -32q34 -31 34 -94q0 -35 -9 -63 q-8 -27 -33 -62q-23 -32 -70 -86l-60 -72h178v-76h-297z" glyph-name="onehalf" unicode="½" horiz-adv-x="872"/>
<glyph d="M192 274l2 5q-44 0 -82 8q-35 7 -64 24l39 71q23 -12 46 -18q24 -6 54 -6q45 -1 62 16t15 59q0 23 -6 36t-24 21q-18 6 -54 6h-66v78h66q42 0 56 14q16 14 14 40q0 36 -16 46t-51 9q-26 0 -50 -6q-26 -6 -46 -16l-37 72q27 14 65 23q42 8 82 8q48 0 78 -10q32 -11 48 -35 q17 -26 17 -74q0 -41 -10 -65q-11 -27 -38 -38q36 -12 48 -40t12 -81q0 -81 -40 -115q-41 -33 -120 -32zM251 0h1l338 759h103l-338 -759h-104zM524 91v1v-1v72l168 316h96l-166 -312h102l16 120h68v-120h62v-76h-62v-91h-86v91h-198z" glyph-name="threequarters" unicode="¾" horiz-adv-x="904"/>
<glyph d="M280 -8l-1 -1q-81 0 -126 22q-46 23 -63 62q-18 41 -18 92q0 48 12 81q13 35 34 59q23 28 50 52q30 29 48 48q19 20 26 38q9 21 10 42q2 34 1 60h112q0 -33 -2 -73q-3 -31 -13 -54q-10 -24 -30 -48q-18 -22 -55 -56q-21 -19 -44 -46q-17 -20 -24 -39q-8 -21 -8 -43 q0 -28 9 -47q8 -20 32 -31q24 -12 68 -12q47 0 84 10q40 10 70 27l52 -97q-40 -20 -96 -33q-53 -13 -128 -13zM242 628v1v-1v132h134v-132h-134z" glyph-name="questiondown" unicode="¿" horiz-adv-x="562"/>
<glyph d="M290 801h1l-142 173h129l112 -173h-100zM18 0h1l234 764h126l234 -764h-122l-43 144h-270l-42 -144h-118zM208 252l-1 1v-1h211l-104 348z" glyph-name="Agrave" unicode="À" horiz-adv-x="632"/>
<glyph d="M240 801l112 173h128l-140 -173h-100zM18 0h1l234 764h126l234 -764h-122l-43 144h-270l-42 -144h-118zM208 252l-1 1v-1h211l-104 348z" glyph-name="Aacute" unicode="Á" horiz-adv-x="632"/>
<glyph d="M148 801h-2l114 173h108l114 -173h-94l-74 93l-75 -93h-91zM18 0h1l234 764h126l234 -764h-122l-43 144h-270l-42 -144h-118zM208 252l-1 1v-1h211l-104 348z" glyph-name="Acircumflex" unicode="Â" horiz-adv-x="632"/>
<glyph d="M198 796l2 -3l-74 42q24 48 54 72t70 24q28 -2 47 -11q33 -16 39 -20q17 -10 34 -10q16 0 30 12t30 36l74 -43q-24 -48 -54 -72t-70 -24q-28 2 -48 11q-29 13 -40 20q-17 10 -34 10q-16 0 -30 -11t-30 -33zM18 0h1l234 764h126l234 -764h-122l-43 144h-270l-42 -144h-118 zM208 252l-1 1v-1h211l-104 348z" glyph-name="Atilde" unicode="Ã" horiz-adv-x="632"/>
<glyph d="M170 801v118h102v-118h-102zM358 801v118h102v-118h-102zM18 0h1l234 764h126l234 -764h-122l-43 144h-270l-42 -144h-118zM208 252l-1 1v-1h211l-104 348z" glyph-name="Adieresis" unicode="Ä" horiz-adv-x="632"/>
<glyph d="M18 0l3 -1l223 727q-21 15 -32 44q-10 26 -10 61q0 54 26 91q26 35 88 37q59 -1 87 -37q26 -37 26 -91q0 -34 -10 -58q-11 -27 -30 -43l224 -730h-122l-43 144h-270l-42 -144h-118zM208 252h-1h211l-104 348zM314 764v1v-1q30 0 42 18t12 48q0 29 -12 49q-12 19 -42 19 t-42 -19q-12 -20 -12 -49q0 -30 12 -48t42 -18z" glyph-name="Aring" unicode="Å" horiz-adv-x="632"/>
<glyph d="M14 0v-2l364 759h492v-109h-318v-206h301v-106h-301v-230h320v-106h-436v148h-236l-70 -148h-116zM249 250v1v-1h188v391z" glyph-name="AE" unicode="Æ" horiz-adv-x="916"/>
<glyph d="M284 -234l3 3v-1q-29 0 -57 6q-25 5 -52 17l26 56q20 -7 39 -12q16 -4 36 -4q32 0 45 11q12 10 12 33q0 25 -18 33q-19 8 -59 5l-24 18l14 66q-84 13 -132 64q-48 49 -66 130q-19 77 -19 186q0 89 12 159q12 71 44 123q31 51 90 80q57 28 148 28q63 0 109 -13 q44 -12 82 -37l-64 -98q-23 13 -54 24q-31 9 -76 9q-66 0 -103 -28q-38 -29 -54 -88q-16 -58 -16 -158t16 -160q15 -62 53 -91t104 -29q48 0 79 10q33 10 63 30l58 -91q-29 -19 -58 -30q-30 -12 -66 -18t-84 -6h-5l-6 -37q32 2 54 -4q25 -6 38 -25q14 -20 14 -58 q1 -52 -28 -78q-28 -25 -98 -25z" glyph-name="Ccedilla" unicode="Ç" horiz-adv-x="548"/>
<glyph d="M247 801h1l-142 173h129l112 -173h-100zM64 0v-1v-1v759h433v-109h-318v-204h302v-108h-302v-230h320v-106h-435z" glyph-name="Egrave" unicode="È" horiz-adv-x="544"/>
<glyph d="M196 801l112 173h128l-140 -173h-100zM64 0v-1v-1v759h433v-109h-318v-204h302v-108h-302v-230h320v-106h-435z" glyph-name="Eacute" unicode="É" horiz-adv-x="544"/>
<glyph d="M104 801h-2l114 173h108l114 -173h-94l-74 93l-75 -93h-91zM64 0v-1v-1v759h433v-109h-318v-204h302v-108h-302v-230h320v-106h-435z" glyph-name="Ecircumflex" unicode="Ê" horiz-adv-x="544"/>
<glyph d="M127 801v118h102v-118h-102zM314 801v118h102v-118h-102zM64 0v-1v-1v759h433v-109h-318v-204h302v-108h-302v-230h320v-106h-435z" glyph-name="Edieresis" unicode="Ë" horiz-adv-x="544"/>
<glyph d="M87 801l-121 174h127l92 -174h-98zM72 0v1v-1v759h119v-759h-119z" glyph-name="Igrave" unicode="Ì" horiz-adv-x="262"/>
<glyph d="M76 801l93 174h126l-121 -174h-98zM72 0v1v-1v759h119v-759h-119z" glyph-name="Iacute" unicode="Í" horiz-adv-x="262"/>
<glyph d="M-34 801h-1l111 174h108l112 -174h-93l-73 94l-72 -94h-92zM72 0v1v-1v759h119v-759h-119z" glyph-name="Icircumflex" unicode="Î" horiz-adv-x="262"/>
<glyph d="M-12 801v118h102v-118h-102zM175 801v118h102v-118h-102zM72 0v1v-1v759h119v-759h-119z" glyph-name="Idieresis" unicode="Ï" horiz-adv-x="262"/>
<glyph d="M1 339v97h64v323h221q120 0 187 -40q67 -39 96 -123t27 -216q1 -136 -27 -220q-29 -85 -96 -122q-68 -38 -189 -38h-219v339h-64zM184 104h1v-1h110q72 0 112 28q39 28 56 88q17 61 15 159q2 98 -15 158t-56 88q-41 27 -113 27h-110v-214h120v-97h-120v-236z" glyph-name="Eth" unicode="Ð" horiz-adv-x="628"/>
<glyph d="M212 796l1 -3l-75 42q24 48 54 72t70 24q28 -2 47 -11q33 -16 39 -20q17 -10 34 -10q16 0 30 12t30 36l74 -43q-24 -48 -54 -72t-70 -24q-28 2 -47 11q-29 13 -40 20q-17 10 -34 10q-16 0 -30 -11q-15 -11 -29 -33zM64 0v1v-1v759h127l289 -522v522h114v-759h-110 l-308 550v-550h-112z" glyph-name="Ntilde" unicode="Ñ" horiz-adv-x="657"/>
<glyph d="M303 801l-141 173h129l112 -173h-100zM328 -8q-97 0 -157 30q-59 30 -89 84q-29 53 -40 124q-10 67 -10 149t10 149q11 71 40 124q30 54 89 84q59 31 157 31t156 -31q60 -30 90 -84q29 -53 40 -124q10 -70 9 -149q1 -79 -9 -149q-11 -71 -40 -124q-30 -54 -90 -84 q-58 -30 -156 -30zM328 98v1v-1q78 0 116 36t50 98q12 64 11 144q1 79 -11 143q-12 62 -50 98q-37 35 -116 37q-79 -2 -116 -37q-38 -36 -50 -98q-12 -64 -11 -143q-1 -80 11 -144q12 -62 50 -98t116 -36z" glyph-name="Ograve" unicode="Ò"/>
<glyph d="M253 801l112 173h128l-140 -173h-100zM328 -8q-97 0 -157 30q-59 30 -89 84q-29 53 -40 124q-10 67 -10 149t10 149q11 71 40 124q30 54 89 84q59 31 157 31t156 -31q60 -30 90 -84q29 -53 40 -124q10 -70 9 -149q1 -79 -9 -149q-11 -71 -40 -124q-30 -54 -90 -84 q-58 -30 -156 -30zM328 98v1v-1q78 0 116 36t50 98q12 64 11 144q1 79 -11 143q-12 62 -50 98q-37 35 -116 37q-79 -2 -116 -37q-38 -36 -50 -98q-12 -64 -11 -143q-1 -80 11 -144q12 -62 50 -98t116 -36z" glyph-name="Oacute" unicode="Ó"/>
<glyph d="M161 801h-2l114 173h108l114 -173h-94l-75 93l-74 -93h-91zM328 -8q-97 0 -157 30q-59 30 -89 84q-29 53 -40 124q-10 67 -10 149t10 149q11 71 40 124q30 54 89 84q59 31 157 31t156 -31q60 -30 90 -84q29 -53 40 -124q10 -70 9 -149q1 -79 -9 -149q-11 -71 -40 -124 q-30 -54 -90 -84q-58 -30 -156 -30zM328 98v1v-1q78 0 116 36t50 98q12 64 11 144q1 79 -11 143q-12 62 -50 98q-37 35 -116 37q-79 -2 -116 -37q-38 -36 -50 -98q-12 -64 -11 -143q-1 -80 11 -144q12 -62 50 -98t116 -36z" glyph-name="Ocircumflex" unicode="Ô"/>
<glyph d="M212 796l1 -3l-75 42q24 48 54 72t70 24q28 -2 47 -11q33 -16 39 -20q17 -10 34 -10q16 0 30 12t30 36l74 -43q-24 -48 -54 -72t-70 -24q-28 2 -47 11q-29 13 -40 20q-17 10 -34 10q-16 0 -30 -11q-15 -11 -29 -33zM328 -8q-97 0 -157 30q-59 30 -89 84q-29 53 -40 124 q-10 67 -10 149t10 149q11 71 40 124q30 54 89 84q59 31 157 31t156 -31q60 -30 90 -84q29 -53 40 -124q10 -70 9 -149q1 -79 -9 -149q-11 -71 -40 -124q-30 -54 -90 -84q-58 -30 -156 -30zM328 98v1v-1q78 0 116 36t50 98q12 64 11 144q1 79 -11 143q-12 62 -50 98 q-37 35 -116 37q-79 -2 -116 -37q-38 -36 -50 -98q-12 -64 -11 -143q-1 -80 11 -144q12 -62 50 -98t116 -36z" glyph-name="Otilde" unicode="Õ"/>
<glyph d="M184 801v118h102v-118h-102zM370 801v118h102v-118h-102zM328 -8q-97 0 -157 30q-59 30 -89 84q-29 53 -40 124q-10 67 -10 149t10 149q11 71 40 124q30 54 89 84q59 31 157 31t156 -31q60 -30 90 -84q29 -53 40 -124q10 -70 9 -149q1 -79 -9 -149q-11 -71 -40 -124 q-30 -54 -90 -84q-58 -30 -156 -30zM328 98v1v-1q78 0 116 36t50 98q12 64 11 144q1 79 -11 143q-12 62 -50 98q-37 35 -116 37q-79 -2 -116 -37q-38 -36 -50 -98q-12 -64 -11 -143q-1 -80 11 -144q12 -62 50 -98t116 -36z" glyph-name="Odieresis" unicode="Ö"/>
<glyph d="M169 161v1v-1l-70 72l127 128l-127 127l70 72l127 -127l128 127l70 -72l-128 -127l127 -127l-68 -72l-128 127z" glyph-name="multiply" unicode="×" horiz-adv-x="594"/>
<glyph d="M90 -42l-4 -2l42 90q-41 34 -64 86q-22 51 -30 113q-8 66 -8 131q0 82 10 149q11 71 40 124q30 54 89 84q59 31 157 31q35 0 60 -4q34 -6 51 -11l26 50h104l-43 -92q42 -34 64 -85t30 -113q8 -66 8 -131q1 -79 -9 -149q-11 -71 -40 -124q-30 -54 -90 -84 q-59 -30 -156 -30q-33 0 -57 4q-28 3 -50 9l-20 -46h-110zM328 92l1 -2q81 2 118 37q38 37 50 100q12 67 11 148q0 65 -8 124q-7 55 -32 95l-210 -494q13 -4 32 -6q24 -2 38 -2zM148 376v3v-1q0 -73 7 -125q8 -58 31 -94l206 492q-14 5 -30 6q-22 2 -34 2q-81 -2 -119 -37 q-38 -37 -50 -100q-12 -67 -11 -146z" glyph-name="Oslash" unicode="Ø"/>
<glyph d="M301 801l-142 173h130l112 -173h-100zM328 -10l-2 1v-1q-103 0 -161 31q-59 30 -83 90q-26 60 -24 146v502h118v-492q0 -59 13 -95q12 -38 45 -57q33 -18 93 -18t93 18q33 17 47 56t14 96v492h114v-502q0 -86 -24 -146t-82 -90q-58 -31 -161 -31z" glyph-name="Ugrave" unicode="Ù" horiz-adv-x="654"/>
<glyph d="M251 801h-1l112 173h128l-140 -173h-99zM328 -10l-2 1v-1q-103 0 -161 31q-59 30 -83 90q-26 60 -24 146v502h118v-492q0 -59 13 -95q12 -38 45 -57q33 -18 93 -18t93 18q33 17 47 56t14 96v492h114v-502q0 -86 -24 -146t-82 -90q-58 -31 -161 -31z" glyph-name="Uacute" unicode="Ú" horiz-adv-x="654"/>
<glyph d="M158 801h-1l114 173h108l114 -173h-94l-75 93l-74 -93h-92zM328 -10l-2 1v-1q-103 0 -161 31q-59 30 -83 90q-26 60 -24 146v502h118v-492q0 -59 13 -95q12 -38 45 -57q33 -18 93 -18t93 18q33 17 47 56t14 96v492h114v-502q0 -86 -24 -146t-82 -90q-58 -31 -161 -31z " glyph-name="Ucircumflex" unicode="Û" horiz-adv-x="654"/>
<glyph d="M181 801v118h102v-118h-102zM368 801v118h102v-118h-102zM328 -10l-2 1v-1q-103 0 -161 31q-59 30 -83 90q-26 60 -24 146v502h118v-492q0 -59 13 -95q12 -38 45 -57q33 -18 93 -18t93 18q33 17 47 56t14 96v492h114v-502q0 -86 -24 -146t-82 -90q-58 -31 -161 -31z" glyph-name="Udieresis" unicode="Ü" horiz-adv-x="654"/>
<glyph d="M226 801h-1l112 173h128l-140 -173h-99zM242 0l1 1v-1v268l-238 490h126l172 -362l173 362h122l-238 -490v-268h-118z" glyph-name="Yacute" unicode="Ý" horiz-adv-x="602"/>
<glyph d="M64 0l1 -3v759h116v-122h152q88 0 139 -27q51 -25 74 -78q22 -51 22 -130q0 -78 -22 -131q-23 -54 -74 -82q-52 -28 -142 -28h-150v-158h-116zM181 259v-1v-1h148q65 0 94 32q28 31 28 106q0 76 -28 107q-29 33 -94 31h-148v-274z" glyph-name="Thorn" unicode="Þ" horiz-adv-x="588"/>
<glyph d="M56 0v2v-1v587q0 62 21 109q23 47 70 72q49 26 129 26q114 1 164 -47q50 -49 49 -152q0 -78 -15 -122q-17 -45 -56 -61q44 -9 68 -33q23 -23 34 -65q10 -39 10 -100q0 -79 -23 -127t-79 -68q-56 -21 -150 -21h-45v104h45q55 0 84 13q31 14 42 41q12 29 12 74q0 43 -12 72 q-12 27 -42 39t-83 12h-22v97h22q51 -1 76 25q24 26 24 90t-24 92t-79 27q-56 0 -82 -26q-26 -28 -26 -83v-576h-112z" glyph-name="germandbls" unicode="ß" horiz-adv-x="561"/>
<glyph d="M242 630l-141 173h129l112 -173h-100zM204 -6l4 -2q-69 0 -106 22q-38 23 -54 62t-16 94q0 81 32 128q31 46 97 64t166 18h22q0 30 -8 54q-7 21 -28 32q-20 11 -56 11q-46 0 -82 -9q-35 -9 -61 -21l-47 93q33 19 84 31q50 12 116 12q76 0 118 -21q41 -19 58 -64 q16 -42 16 -114v-232q-1 -30 6 -42q8 -12 37 -10v-100h-16h-16q-43 -1 -71 10q-25 10 -34 40q-24 -31 -64 -43q-38 -13 -97 -13zM228 89v1v-1q34 0 60 12q26 10 43 40q16 28 16 80v70h-22q-64 0 -107 -8q-40 -7 -59 -31q-19 -22 -19 -67q0 -54 22 -75q22 -22 66 -21z" glyph-name="agrave" unicode="à" horiz-adv-x="534"/>
<glyph d="M192 630l112 173h128l-140 -173h-100zM204 -6l4 -2q-69 0 -106 22q-38 23 -54 62t-16 94q0 81 32 128q31 46 97 64t166 18h22q0 30 -8 54q-7 21 -28 32q-20 11 -56 11q-46 0 -82 -9q-35 -9 -61 -21l-47 93q33 19 84 31q50 12 116 12q76 0 118 -21q41 -19 58 -64 q16 -42 16 -114v-232q-1 -30 6 -42q8 -12 37 -10v-100h-16h-16q-43 -1 -71 10q-25 10 -34 40q-24 -31 -64 -43q-38 -13 -97 -13zM228 89v1v-1q34 0 60 12q26 10 43 40q16 28 16 80v70h-22q-64 0 -107 -8q-40 -7 -59 -31q-19 -22 -19 -67q0 -54 22 -75q22 -22 66 -21z" glyph-name="aacute" unicode="á" horiz-adv-x="534"/>
<glyph d="M100 630h-2l114 173h108l114 -173h-94l-75 93l-74 -93h-91zM204 -6l4 -2q-69 0 -106 22q-38 23 -54 62t-16 94q0 81 32 128q31 46 97 64t166 18h22q0 30 -8 54q-7 21 -28 32q-20 11 -56 11q-46 0 -82 -9q-35 -9 -61 -21l-47 93q33 19 84 31q50 12 116 12q76 0 118 -21 q41 -19 58 -64q16 -42 16 -114v-232q-1 -30 6 -42q8 -12 37 -10v-100h-16h-16q-43 -1 -71 10q-25 10 -34 40q-24 -31 -64 -43q-38 -13 -97 -13zM228 89v1v-1q34 0 60 12q26 10 43 40q16 28 16 80v70h-22q-64 0 -107 -8q-40 -7 -59 -31q-19 -22 -19 -67q0 -54 22 -75 q22 -22 66 -21z" glyph-name="acircumflex" unicode="â" horiz-adv-x="534"/>
<glyph d="M150 626l1 -3l-74 42q24 48 54 72t70 24q28 -2 47 -11q33 -16 39 -20q17 -10 34 -10t30 12t30 36l74 -43q-24 -48 -54 -72t-70 -24q-28 2 -48 11q-29 13 -40 20q-17 10 -34 10q-16 0 -30 -11q-15 -11 -29 -33zM204 -6l4 -2q-69 0 -106 22q-38 23 -54 62t-16 94 q0 81 32 128q31 46 97 64t166 18h22q0 30 -8 54q-7 21 -28 32q-20 11 -56 11q-46 0 -82 -9q-35 -9 -61 -21l-47 93q33 19 84 31q50 12 116 12q76 0 118 -21q41 -19 58 -64q16 -42 16 -114v-232q-1 -30 6 -42q8 -12 37 -10v-100h-16h-16q-43 -1 -71 10q-25 10 -34 40 q-24 -31 -64 -43q-38 -13 -97 -13zM228 89v1v-1q34 0 60 12q26 10 43 40q16 28 16 80v70h-22q-64 0 -107 -8q-40 -7 -59 -31q-19 -22 -19 -67q0 -54 22 -75q22 -22 66 -21z" glyph-name="atilde" unicode="ã" horiz-adv-x="534"/>
<glyph d="M122 630v118h102v-118h-102zM309 630v118h102v-118h-102zM204 -6l4 -2q-69 0 -106 22q-38 23 -54 62t-16 94q0 81 32 128q31 46 97 64t166 18h22q0 30 -8 54q-7 21 -28 32q-20 11 -56 11q-46 0 -82 -9q-35 -9 -61 -21l-47 93q33 19 84 31q50 12 116 12q76 0 118 -21 q41 -19 58 -64q16 -42 16 -114v-232q-1 -30 6 -42q8 -12 37 -10v-100h-16h-16q-43 -1 -71 10q-25 10 -34 40q-24 -31 -64 -43q-38 -13 -97 -13zM228 89v1v-1q34 0 60 12q26 10 43 40q16 28 16 80v70h-22q-64 0 -107 -8q-40 -7 -59 -31q-19 -22 -19 -67q0 -54 22 -75 q22 -22 66 -21z" glyph-name="adieresis" unicode="ä" horiz-adv-x="534"/>
<glyph d="M266 622q-63 2 -88 36q-26 35 -26 89t26 91q25 35 88 37q61 -1 88 -37q26 -37 26 -91t-26 -89q-27 -35 -88 -36zM266 680q30 0 42 18q12 20 12 49t-12 49q-12 19 -42 19t-42 -19q-12 -20 -12 -49t12 -49q12 -18 42 -18zM204 -6l4 -2q-69 0 -106 22q-38 23 -54 62t-16 94 q0 81 32 128q31 46 97 64t166 18h22q0 30 -8 54q-7 21 -28 32q-20 11 -56 11q-46 0 -82 -9q-35 -9 -61 -21l-47 93q33 19 84 31q50 12 116 12q76 0 118 -21q41 -19 58 -64q16 -42 16 -114v-232q-1 -30 6 -42q8 -12 37 -10v-100h-16h-16q-43 -1 -71 10q-25 10 -34 40 q-24 -31 -64 -43q-38 -13 -97 -13zM228 89v1v-1q34 0 60 12q26 10 43 40q16 28 16 80v70h-22q-64 0 -107 -8q-40 -7 -59 -31q-19 -22 -19 -67q0 -54 22 -75q22 -22 66 -21z" glyph-name="aring" unicode="å" horiz-adv-x="534"/>
<glyph d="M576 -7l2 3q-73 0 -116 22q-45 23 -68 61q-23 -43 -69 -62q-46 -20 -119 -20q-67 0 -104 22q-38 23 -54 62t-16 94q0 81 32 128q31 46 97 64t166 18h22q0 30 -8 54q-7 21 -28 32q-20 11 -56 11q-46 0 -82 -9q-35 -9 -61 -21l-47 93q33 19 84 31q50 12 116 12q59 0 98 -14 q37 -13 55 -42q27 27 65 40q40 14 94 14q77 0 121 -26q43 -27 61 -75q19 -49 20 -112q3 -57 1 -138h-324q1 -44 13 -79q10 -31 37 -48q25 -16 74 -16q55 0 88 10q37 11 59 23l44 -88q-36 -21 -82 -32q-48 -12 -115 -12zM228 89q34 0 60 12q26 10 43 40q16 28 16 80v70h-22 q-64 0 -107 -8q-40 -7 -59 -31q-19 -22 -19 -67q0 -54 22 -75q22 -22 66 -21zM576 482l3 1v-1q-46 0 -72 -17q-25 -18 -36 -51q-12 -36 -13 -81h222q0 47 -6 80q-6 35 -28 51q-22 18 -70 18z" glyph-name="ae" unicode="æ" horiz-adv-x="815"/>
<glyph d="M232 -234l-2 4v-1q-30 0 -58 6q-25 5 -52 17l26 56q19 -7 38 -12q16 -4 36 -4q33 0 46 11q12 11 12 33q0 26 -18 33q-19 8 -59 5l-24 18l14 66q-64 12 -99 50q-37 38 -50 98q-14 64 -13 140q-2 95 17 158q20 66 70 102q51 36 147 36q45 0 83 -8q31 -7 64 -22l-50 -100 q-21 11 -42 17q-25 5 -48 5q-48 0 -74 -20q-28 -21 -38 -63q-10 -40 -10 -106t10 -106q11 -44 38 -64q26 -22 77 -22q29 0 56 8q23 7 47 18l44 -88q-35 -18 -76 -29q-38 -9 -85 -9h-1l-6 -37q32 2 54 -4q25 -6 38 -25q14 -20 14 -58q0 -53 -28 -78t-98 -25z" glyph-name="ccedilla" unicode="ç" horiz-adv-x="439"/>
<glyph d="M226 630h1l-142 173h129l112 -173h-100zM262 -7v3q-96 0 -145 36q-50 36 -68 102q-18 64 -16 158q-1 87 19 156q19 65 70 102q51 36 143 36q76 0 118 -24q42 -22 60 -68q17 -43 22 -110q4 -53 2 -149h-324q1 -44 13 -79q12 -31 38 -48q25 -16 74 -16q56 0 89 10 q37 11 58 23l44 -88q-35 -20 -82 -32t-115 -12zM262 482l3 1v-1q-45 0 -71 -17q-26 -18 -36 -51t-12 -81h219q0 46 -6 79q-6 34 -28 52q-21 18 -69 18z" glyph-name="egrave" unicode="è" horiz-adv-x="502"/>
<glyph d="M175 630l112 173h128l-140 -173h-100zM262 -7v3q-96 0 -145 36q-50 36 -68 102q-18 64 -16 158q-1 87 19 156q19 65 70 102q51 36 143 36q76 0 118 -24q42 -22 60 -68q17 -43 22 -110q4 -53 2 -149h-324q1 -44 13 -79q12 -31 38 -48q25 -16 74 -16q56 0 89 10 q37 11 58 23l44 -88q-35 -20 -82 -32t-115 -12zM262 482l3 1v-1q-45 0 -71 -17q-26 -18 -36 -51t-12 -81h219q0 46 -6 79q-6 34 -28 52q-21 18 -69 18z" glyph-name="eacute" unicode="é" horiz-adv-x="502"/>
<glyph d="M83 630h-2l114 173h108l114 -173h-94l-74 93l-75 -93h-91zM262 -7v3q-96 0 -145 36q-50 36 -68 102q-18 64 -16 158q-1 87 19 156q19 65 70 102q51 36 143 36q76 0 118 -24q42 -22 60 -68q17 -43 22 -110q4 -53 2 -149h-324q1 -44 13 -79q12 -31 38 -48q25 -16 74 -16 q56 0 89 10q37 11 58 23l44 -88q-35 -20 -82 -32t-115 -12zM262 482l3 1v-1q-45 0 -71 -17q-26 -18 -36 -51t-12 -81h219q0 46 -6 79q-6 34 -28 52q-21 18 -69 18z" glyph-name="ecircumflex" unicode="ê" horiz-adv-x="502"/>
<glyph d="M106 630v118h102v-118h-102zM293 630v118h102v-118h-102zM262 -7v3q-96 0 -145 36q-50 36 -68 102q-18 64 -16 158q-1 87 19 156q19 65 70 102q51 36 143 36q76 0 118 -24q42 -22 60 -68q17 -43 22 -110q4 -53 2 -149h-324q1 -44 13 -79q12 -31 38 -48q25 -16 74 -16 q56 0 89 10q37 11 58 23l44 -88q-35 -20 -82 -32t-115 -12zM262 482l3 1v-1q-45 0 -71 -17q-26 -18 -36 -51t-12 -81h219q0 46 -6 79q-6 34 -28 52q-21 18 -69 18z" glyph-name="edieresis" unicode="ë" horiz-adv-x="502"/>
<glyph d="M74 630h-1l-101 173h126l74 -173h-98zM58 0v1v-1v572h114v-572h-114z" glyph-name="igrave" unicode="ì" horiz-adv-x="232"/>
<glyph d="M60 630l72 173h128l-102 -173h-98zM58 0v1v-1v572h114v-572h-114z" glyph-name="iacute" unicode="í" horiz-adv-x="232"/>
<glyph d="M-36 630h1l98 173h108l98 -173h-94l-60 93l-59 -93h-92zM58 0v1v-1v572h114v-572h-114z" glyph-name="icircumflex" unicode="î" horiz-adv-x="232"/>
<glyph d="M-12 630v118h92v-118h-92zM150 630v118h92v-118h-92zM58 0v1v-1v572h114v-572h-114z" glyph-name="idieresis" unicode="ï" horiz-adv-x="232"/>
<glyph d="M234 587v-1v82l68 16q-11 16 -26 33q-9 11 -28 27l87 54q24 -16 42 -37q24 -28 37 -50l98 24v-82l-60 -14q28 -69 41 -152q14 -87 14 -180q0 -64 -8 -126q-7 -56 -32 -99q-24 -43 -72 -65q-48 -24 -126 -24q-91 0 -144 36q-52 36 -73 100q-21 66 -20 150q-1 75 17 138 q17 61 63 99q45 36 129 38q48 0 84 -12q37 -12 56 -34q-7 28 -16 50q-14 36 -23 55zM270 92v1v-1q55 0 80 24q27 25 34 65q8 45 7 92q1 46 -7 91q-7 39 -34 64q-25 24 -80 24q-54 0 -80 -24q-27 -25 -34 -64q-8 -45 -7 -91q-1 -47 7 -92q7 -40 34 -65q26 -24 80 -24z" glyph-name="eth" unicode="ð" horiz-adv-x="540"/>
<glyph d="M156 626l2 -3l-74 42q24 48 54 72t70 24q28 -2 47 -11q33 -16 39 -20q17 -10 34 -10q16 0 30 12t30 36l74 -43q-24 -48 -54 -72t-70 -24q-28 2 -48 11q-29 13 -40 20q-17 10 -34 10q-16 0 -30 -11t-30 -33zM56 0h-2v-1v565l91 8l9 -52q18 29 58 45q39 16 116 16 q71 0 108 -26q36 -25 48 -73q12 -50 11 -110v-372h-114v346q0 41 -6 70q-6 28 -26 42t-62 14q-49 0 -75 -18q-27 -19 -34 -55q-8 -40 -8 -94v-305h-114z" glyph-name="ntilde" unicode="ñ" horiz-adv-x="546"/>
<glyph d="M242 630l-141 173h129l112 -173h-100zM270 -8v-2q-95 0 -148 38q-51 37 -71 103q-19 66 -18 154q-2 90 17 153q18 67 70 104q53 38 150 38t150 -38q52 -37 70 -104q18 -68 17 -152q1 -86 -17 -154q-18 -66 -70 -103t-150 -37zM270 92v1v-1q55 0 80 24q27 25 34 67 q8 49 7 99q1 52 -7 100q-7 42 -34 67q-25 24 -80 24q-54 0 -80 -24q-27 -25 -34 -67q-8 -48 -7 -100q-1 -50 7 -99q7 -42 34 -67q26 -24 80 -24z" glyph-name="ograve" unicode="ò" horiz-adv-x="539"/>
<glyph d="M192 630l112 173h128l-140 -173h-100zM270 -8v-2q-95 0 -148 38q-51 37 -71 103q-19 66 -18 154q-2 90 17 153q18 67 70 104q53 38 150 38t150 -38q52 -37 70 -104q18 -68 17 -152q1 -86 -17 -154q-18 -66 -70 -103t-150 -37zM270 92v1v-1q55 0 80 24q27 25 34 67 q8 49 7 99q1 52 -7 100q-7 42 -34 67q-25 24 -80 24q-54 0 -80 -24q-27 -25 -34 -67q-8 -48 -7 -100q-1 -50 7 -99q7 -42 34 -67q26 -24 80 -24z" glyph-name="oacute" unicode="ó" horiz-adv-x="539"/>
<glyph d="M100 630h-2l114 173h108l114 -173h-94l-75 93l-74 -93h-91zM270 -8v-2q-95 0 -148 38q-51 37 -71 103q-19 66 -18 154q-2 90 17 153q18 67 70 104q53 38 150 38t150 -38q52 -37 70 -104q18 -68 17 -152q1 -86 -17 -154q-18 -66 -70 -103t-150 -37zM270 92v1v-1 q55 0 80 24q27 25 34 67q8 49 7 99q1 52 -7 100q-7 42 -34 67q-25 24 -80 24q-54 0 -80 -24q-27 -25 -34 -67q-8 -48 -7 -100q-1 -50 7 -99q7 -42 34 -67q26 -24 80 -24z" glyph-name="ocircumflex" unicode="ô" horiz-adv-x="539"/>
<glyph d="M152 626l1 -3l-74 42q24 48 54 72t70 24q28 -2 47 -11q33 -16 39 -20q17 -10 34 -10t30 12t30 36l74 -43q-24 -48 -54 -72t-70 -24q-28 2 -48 11q-29 13 -40 20q-17 10 -34 10q-16 0 -30 -11q-15 -11 -29 -33zM270 -8v-2q-95 0 -148 38q-51 37 -71 103q-19 66 -18 154 q-2 90 17 153q18 67 70 104q53 38 150 38t150 -38q52 -37 70 -104q18 -68 17 -152q1 -86 -17 -154q-18 -66 -70 -103t-150 -37zM270 92v1v-1q55 0 80 24q27 25 34 67q8 49 7 99q1 52 -7 100q-7 42 -34 67q-25 24 -80 24q-54 0 -80 -24q-27 -25 -34 -67q-8 -48 -7 -100 q-1 -50 7 -99q7 -42 34 -67q26 -24 80 -24z" glyph-name="otilde" unicode="õ" horiz-adv-x="539"/>
<glyph d="M123 630v118h102v-118h-102zM310 630v118h102v-118h-102zM270 -8v-2q-95 0 -148 38q-51 37 -71 103q-19 66 -18 154q-2 90 17 153q18 67 70 104q53 38 150 38t150 -38q52 -37 70 -104q18 -68 17 -152q1 -86 -17 -154q-18 -66 -70 -103t-150 -37zM270 92v1v-1q55 0 80 24 q27 25 34 67q8 49 7 99q1 52 -7 100q-7 42 -34 67q-25 24 -80 24q-54 0 -80 -24q-27 -25 -34 -67q-8 -48 -7 -100q-1 -50 7 -99q7 -42 34 -67q26 -24 80 -24z" glyph-name="odieresis" unicode="ö" horiz-adv-x="539"/>
<glyph d="M238 118v110h119v-110h-119zM81 308v106h432v-106h-432zM238 492v1v-1v110h119v-110h-119z" glyph-name="divide" unicode="÷" horiz-adv-x="594"/>
<glyph d="M56 -44l2 -1l46 89q-39 38 -56 101q-15 63 -14 142q-2 90 17 153q18 67 70 104q53 38 150 38q27 0 49 -3t42 -9l24 46h102l-47 -91q39 -42 52 -101q14 -64 14 -137q1 -86 -17 -154q-18 -66 -70 -103t-150 -37q-18 0 -48 2q-28 4 -42 7l-24 -46h-100zM144 284q0 -43 4 -74 q5 -38 14 -60l154 322q-14 4 -22 5q-16 2 -26 2q-54 0 -81 -24q-27 -25 -36 -69q-8 -49 -7 -102zM270 89l2 2v-1q56 0 82 25q27 24 35 68q8 49 7 101q0 42 -4 71q-5 37 -14 59l-155 -318q14 -4 22 -5q14 -2 25 -2z" glyph-name="oslash" unicode="ø" horiz-adv-x="539"/>
<glyph d="M242 630l-141 173h129l112 -173h-100zM268 -8l2 1v-1q-88 0 -134 24q-47 24 -65 74q-18 49 -18 128v354h116v-347q-1 -42 5 -74q6 -30 28 -43q23 -14 69 -14q44 0 67 14q22 13 28 44q6 32 5 74v346h113v-354q1 -77 -17 -128q-16 -49 -64 -74q-47 -24 -135 -24z" glyph-name="ugrave" unicode="ù" horiz-adv-x="535"/>
<glyph d="M192 630l112 173h128l-140 -173h-100zM268 -8l2 1v-1q-88 0 -134 24q-47 24 -65 74q-18 49 -18 128v354h116v-347q-1 -42 5 -74q6 -30 28 -43q23 -14 69 -14q44 0 67 14q22 13 28 44q6 32 5 74v346h113v-354q1 -77 -17 -128q-16 -49 -64 -74q-47 -24 -135 -24z" glyph-name="uacute" unicode="ú" horiz-adv-x="535"/>
<glyph d="M100 630h-2l114 173h108l114 -173h-94l-75 93l-74 -93h-91zM268 -8l2 1v-1q-88 0 -134 24q-47 24 -65 74q-18 49 -18 128v354h116v-347q-1 -42 5 -74q6 -30 28 -43q23 -14 69 -14q44 0 67 14q22 13 28 44q6 32 5 74v346h113v-354q1 -77 -17 -128q-16 -49 -64 -74 q-47 -24 -135 -24z" glyph-name="ucircumflex" unicode="û" horiz-adv-x="535"/>
<glyph d="M122 630v118h102v-118h-102zM309 630v118h102v-118h-102zM268 -8l2 1v-1q-88 0 -134 24q-47 24 -65 74q-18 49 -18 128v354h116v-347q-1 -42 5 -74q6 -30 28 -43q23 -14 69 -14q44 0 67 14q22 13 28 44q6 32 5 74v346h113v-354q1 -77 -17 -128q-16 -49 -64 -74 q-47 -24 -135 -24z" glyph-name="udieresis" unicode="ü" horiz-adv-x="535"/>
<glyph d="M163 630h-1l112 173h128l-140 -173h-99zM68 -162l2 -2v-1v94h56q21 0 32 8q10 7 15 26l10 35l-175 574h117l116 -410l116 410h112l-192 -632q-12 -40 -32 -64q-19 -22 -50 -30q-32 -8 -71 -8h-56z" glyph-name="yacute" unicode="ý" horiz-adv-x="475"/>
<glyph d="M56 -162l-1 -2v950h114v-266q16 28 53 44q35 16 109 16q86 -2 125 -41q42 -40 54 -107q13 -63 11 -146q1 -80 -12 -147q-13 -65 -56 -106q-41 -39 -126 -41q-66 0 -103 14q-35 13 -54 40v-208h-114zM294 93v2v-1q47 0 72 23q24 23 32 65q8 45 8 100t-8 101q-7 42 -32 67 q-24 24 -72 24q-56 0 -83 -24q-27 -25 -34 -67q-8 -48 -7 -101q-1 -53 7 -100q7 -42 34 -65q27 -24 83 -24z" glyph-name="thorn" unicode="þ" horiz-adv-x="554"/>
</font>
</defs>
</svg>
