<svg id="Layer_1" data-name="Layer 1" xmlns="http://www.w3.org/2000/svg" viewBox="0 0 56.77 56.77"><title>direccion-general</title><path d="M17.65,6.12a39.27,39.27,0,0,0,21.47,0,2.05,2.05,0,0,1,2.41.94l3.92,6.81a2,2,0,0,1-.1,2.22,8.83,8.83,0,0,0-1.65,7.5A28.83,28.83,0,0,0,45,27.69a23.23,23.23,0,0,1,1.83,7c.53,9.15-10.72,13.56-17.82,16a2,2,0,0,1-1.34,0c-7.1-2.44-18.35-6.84-17.82-16a14.79,14.79,0,0,1,.31-2.26c1.32-6.1,5.49-10.19,1.2-16.29a2,2,0,0,1-.1-2.22l3.92-6.81A2.05,2.05,0,0,1,17.65,6.12Z" style="fill:#003a5d;fill-rule:evenodd"/><path d="M17.34,7.11a40.3,40.3,0,0,0,22.09,0,1,1,0,0,1,1.21.47l3.92,6.81a1,1,0,0,1,0,1.11,9.85,9.85,0,0,0-1.82,8.31,29.87,29.87,0,0,0,1.38,4.25,22.33,22.33,0,0,1,1.77,6.64,8.91,8.91,0,0,1-.62,3.84c-2.37,5.94-10.85,9.17-16.5,11.11a1,1,0,0,1-.67,0A67,67,0,0,1,21,46.86c-3.66-1.74-7.86-4.37-9.43-8.31a8.91,8.91,0,0,1-.62-3.84,13.66,13.66,0,0,1,.29-2.1,31.6,31.6,0,0,1,1.47-4.55,29.66,29.66,0,0,0,1.38-4.25,9.85,9.85,0,0,0-1.82-8.31,1,1,0,0,1,0-1.11l3.92-6.81A1,1,0,0,1,17.34,7.11Z" style="fill:#cd9700;fill-rule:evenodd"/><path d="M17,8.09a41.39,41.39,0,0,0,22.7,0l3.92,6.81c-5.54,7.9.76,13.24,1.15,19.86.44,7.6-9.61,11.58-16.42,13.91C21.58,46.34,11.53,42.36,12,34.77c.38-6.62,6.69-12,1.15-19.86Z" style="fill:#00416a;fill-rule:evenodd"/><path d="M40.47,11.24,42,13.73a98.72,98.72,0,0,0-10.15-.87v-1q4.21-.15,8.41-.65ZM24.91,12.87a101.19,101.19,0,0,0-10.17.89l1.56-2.53c2.8.34,5.8.56,8.61.65Z" style="fill:#cd9700;fill-rule:evenodd"/><path d="M10.91,19.3l-.85-1.22C7.11,20.5,3.77,21.46-.06,22.27L5,23.9,1.59,27a20.2,20.2,0,0,0,9.47-2.66,9.26,9.26,0,0,1,.29,2,30.08,30.08,0,0,1,34.08,0,9.37,9.37,0,0,1,.29-2A20.31,20.31,0,0,0,55.19,27L51.74,23.9l5.09-1.63c-3.83-.81-7.16-1.77-10.12-4.19l-.85,1.22A36.39,36.39,0,0,0,10.91,19.3Z" style="fill:#fff;fill-rule:evenodd"/><path d="M8,21.06a5.58,5.58,0,0,1,2.91,2.81,19,19,0,0,1-8,2.55L5.68,24,6,23.73l-.38-.12L1.72,22.37a22.83,22.83,0,0,0,7.48-3A6.46,6.46,0,0,1,8,21.06Zm3.8,4.33c9.59-6.48,23.59-6.49,33.2,0A5.28,5.28,0,0,1,47.88,21a36.41,36.41,0,0,0-39,0,5.28,5.28,0,0,1,2.89,4.36Zm35.78-6a22.84,22.84,0,0,0,7.48,3l-4.24,1.36,3,2.69a19,19,0,0,1-8-2.55,5.57,5.57,0,0,1,2.91-2.81A12.87,12.87,0,0,1,47.57,19.35Z" style="fill:#cd9700;fill-rule:evenodd"/><path d="M10.47,19.55c-.43.23-.85.48-1.25.72A14.3,14.3,0,0,0,10,18.9l.45.65Zm35.83,0,.45-.65a14.24,14.24,0,0,0,.8,1.37Q47,19.9,46.3,19.55Z" style="fill:#8b6b24;fill-rule:evenodd"/><polygon points="28.39 41.97 28.91 43.56 30.58 43.56 29.23 44.55 29.74 46.14 28.39 45.16 27.03 46.14 27.55 44.55 26.2 43.56 27.87 43.56 28.39 41.97" style="fill:#cd9700;fill-rule:evenodd"/><path d="M28.74,10.46H28a.22.22,0,0,0-.22.24V11H26.5a.21.21,0,0,0-.21.22V12H28V11.9a.1.1,0,0,1,.1-.1h.56a.1.1,0,0,1,.1.1V12h1.72v-.74a.21.21,0,0,0-.21-.22H29V10.7a.22.22,0,0,0-.22-.24Zm0,.57H28v-.39h.77V11Zm0,0" style="fill:#fff;fill-rule:evenodd"/><path d="M26.29,13.87a.21.21,0,0,0,.21.21h3.78a.21.21,0,0,0,.21-.21v-1.7H28.77v.28a.1.1,0,0,1-.1.1h-.56a.1.1,0,0,1-.1-.1v-.28H26.29Zm0,0" style="fill:#fff;fill-rule:evenodd"/><rect x="28.2" y="11.98" width="0.38" height="0.38" style="fill:#fff"/><path d="M14.06,22.63a.82.82,0,0,1-.47.57l-.78.38-1.36-2.76.78-.38a.82.82,0,0,1,.74,0c.3.13.5.5.75,1A2,2,0,0,1,14.06,22.63ZM12.72,21a.24.24,0,0,0-.26,0l-.22.11.87,1.77.22-.11a.24.24,0,0,0,.15-.22,2.67,2.67,0,0,0-.31-.8A2.61,2.61,0,0,0,12.72,21Z" style="fill:#fff"/><path d="M14.82,22.61l-1.22-2.82.56-.24,1.22,2.82Z" style="fill:#fff"/><path d="M17,21.74l-.77-1-.19.07.42,1.12-.58.21L14.8,19.27l.82-.31c.63-.23.92,0,1.13.58a.84.84,0,0,1,0,.88l.89,1.09Zm-1.18-2.25-.24.09.27.72.24-.09c.22-.08.16-.28.09-.45S16,19.4,15.81,19.48Z" style="fill:#fff"/><path d="M18,21.39l-.9-2.94L18.45,18l.16.53-.77.23.2.67.66-.2.16.53-.66.2.21.69.77-.23.16.53Z" style="fill:#fff"/><path d="M21.09,20.35a.89.89,0,0,1-1.25.21,2,2,0,0,1-.52-1.17,2,2,0,0,1-.07-1.28.9.9,0,0,1,1.21-.39,1,1,0,0,1,.43.6l-.6.14a.58.58,0,0,0-.1-.22.2.2,0,0,0-.23-.06.21.21,0,0,0-.17.17,2.82,2.82,0,0,0,.13.89,2.81,2.81,0,0,0,.29.85.21.21,0,0,0,.23.07.21.21,0,0,0,.17-.17.58.58,0,0,0,0-.24l.6-.14A1,1,0,0,1,21.09,20.35Z" style="fill:#fff"/><path d="M23.2,20a.9.9,0,0,1-1.26.13,2,2,0,0,1-.44-1.2,2,2,0,0,1,0-1.28.89.89,0,0,1,1.23-.31,1,1,0,0,1,.39.63l-.6.11a.58.58,0,0,0-.09-.23.2.2,0,0,0-.22-.08.21.21,0,0,0-.18.16,2.81,2.81,0,0,0,.07.9,2.81,2.81,0,0,0,.24.87.21.21,0,0,0,.23.08.21.21,0,0,0,.18-.16.59.59,0,0,0,0-.24l.6-.11A1,1,0,0,1,23.2,20Z" style="fill:#fff"/><path d="M23.94,20,23.56,17l.61-.08L24.55,20Z" style="fill:#fff"/><path d="M26.55,19.51a.89.89,0,0,1-1.35.1,2,2,0,0,1-.32-1.24A2,2,0,0,1,25,17.09a.89.89,0,0,1,1.35-.1,2,2,0,0,1,.32,1.24A2,2,0,0,1,26.55,19.51Zm-.76-2.95-.38,0,.28-.65.46,0Zm.13.83a.24.24,0,0,0-.41,0,2.82,2.82,0,0,0,0,.9,2.81,2.81,0,0,0,.15.89.24.24,0,0,0,.41,0,2.81,2.81,0,0,0,0-.9A2.81,2.81,0,0,0,25.93,17.38Z" style="fill:#fff"/><path d="M28.51,19.74l-.66-1.5v1.5h-.61l0-3.08h.54l.65,1.5v-1.5H29l0,3.08Z" style="fill:#fff"/><path d="M31.19,19.89a.81.81,0,0,1-.65-.37,2,2,0,0,1-.12-1.28A2,2,0,0,1,30.76,17a.81.81,0,0,1,.7-.25A.84.84,0,0,1,32,17a1,1,0,0,1,.21.71l-.61-.05c0-.13,0-.36-.22-.38a.21.21,0,0,0-.22.1,2.81,2.81,0,0,0-.16.89,2.81,2.81,0,0,0,0,.9.21.21,0,0,0,.2.14c.2,0,.27-.17.28-.34l0-.32-.25,0,0-.5.87.07-.07.78A.83.83,0,0,1,31.19,19.89Z" style="fill:#fff"/><path d="M32.52,20l.44-3,1.4.2-.08.55-.8-.11-.1.69.68.1-.08.55-.68-.1-.1.71.8.11-.08.55Z" style="fill:#fff"/><path d="M35.6,20.52l-.33-1.61L35,20.39l-.6-.13.63-3,.52.11.32,1.6.31-1.47.6.13-.63,3Z" style="fill:#fff"/><path d="M36.62,20.76l.82-3,1.37.38-.15.53-.78-.21-.18.67.67.18-.15.53-.67-.18-.19.7.78.21-.15.53Z" style="fill:#fff"/><path d="M39.54,21.65l0-1.25-.19-.07L39,21.46l-.58-.2,1-2.91.83.28c.63.22.7.61.51,1.16a.84.84,0,0,1-.59.65v1.41Zm.52-2.49-.25-.08-.25.73.25.08c.22.08.3-.12.36-.29S40.27,19.23,40.05,19.16Z" style="fill:#fff"/><path d="M41.75,22.52l.09-.48-.65-.27-.28.4-.59-.25,1.92-2.53.56.23-.46,3.15Zm.42-2.18-.66,1,.44.18Z" style="fill:#fff"/><path d="M42.64,22.92,44,20.16l.55.27-1.12,2.26.72.36-.24.5Z" style="fill:#fff"/><path d="M28.18,27.59a1.11,1.11,0,0,0,.44,0,1.46,1.46,0,0,0,.92-.64,3.72,3.72,0,0,0,.22-1.52,1.22,1.22,0,0,0-1.36-1,1.22,1.22,0,0,0-1.36,1A3.72,3.72,0,0,0,27.26,27,1.46,1.46,0,0,0,28.18,27.59Z" style="fill:#fff"/><path d="M32.32,38.1l-.57,2.43c-.1.43.17.64.6.74s.87.06,1-.37l.76-3.26A14.47,14.47,0,0,1,32.32,38.1Z" style="fill:#fff"/><path d="M18.32,29.18a1.58,1.58,0,0,0,.53,0,1.38,1.38,0,0,0,1-.51A4.6,4.6,0,0,0,20,26.94a1.27,1.27,0,0,0-1.41-1.07,1.27,1.27,0,0,0-1.41,1.07,3.87,3.87,0,0,0,.23,1.58A1.52,1.52,0,0,0,18.32,29.18Z" style="fill:#fff"/><path d="M24.45,38.09a14.38,14.38,0,0,1-1.76-.47l.76,3.28c.1.43.53.47,1,.37s.7-.3.6-.74Z" style="fill:#fff"/><path d="M37.93,29.18a1.58,1.58,0,0,0,.53,0,1.52,1.52,0,0,0,1-.67,3.86,3.86,0,0,0,.23-1.58,1.47,1.47,0,0,0-2.82,0A4.6,4.6,0,0,0,37,28.67,1.38,1.38,0,0,0,37.93,29.18Z" style="fill:#fff"/><path d="M33.19,28.27a1.54,1.54,0,0,0,.52,0,1.49,1.49,0,0,0,.93-.65,3.77,3.77,0,0,0,.23-1.54,1.43,1.43,0,0,0-2.76,0,4.48,4.48,0,0,0,.15,1.69A1.34,1.34,0,0,0,33.19,28.27Z" style="fill:#fff"/><path d="M41.23,30.85l-.68-.13a3.94,3.94,0,0,1,.11,1.2c-.05.69-.12,1.39-.21,2.08l-.09.68.13-2.88c0-1-.53-2.2-1.64-2.2h-.21l-.07.07c-.21.27-.42.54-.6.82s-.35.56-.51.85c0-.18,0-.37.06-.55s.07-.36.12-.54l.23-.42s0-.07,0-.07a2.33,2.33,0,0,1-.43-.06s-.06,0-.08,0-.14.4-.14.4c-.08.17-.15.34-.21.52s-.11.35-.16.53a5.22,5.22,0,0,1-.07-1,2.16,2.16,0,0,1,0-.22,3.55,3.55,0,0,0-.85,2.26l-.29-.2.07-1.22c0-1-.52-2.15-1.6-2.15h-.2l-.07.07c-.2.26-.41.53-.59.8s-.34.55-.5.83c0-.18,0-.36.06-.54s.07-.35.11-.53l.22-.41s0-.07,0-.07a2.27,2.27,0,0,1-.42-.06s-.06,0-.08,0-.13.39-.13.39c-.08.17-.15.34-.21.51s-.11.35-.15.52a5.1,5.1,0,0,1-.07-1,2.05,2.05,0,0,1,0-.22,2.11,2.11,0,0,0-.7,1.51v.07l-.24,0c0-.31,0-.62,0-.91a1.82,1.82,0,0,0-1.55-1.77l-.75,1.67-.09-1s.06-.35.07-.43a.06.06,0,0,0-.06-.06,4.34,4.34,0,0,1-.58,0,.06.06,0,0,0-.06.06c0,.08.07.43.07.43l-.09,1-.76-1.66a1.82,1.82,0,0,0-1.55,1.77l0,.91-.27,0v-.08a2.11,2.11,0,0,0-.7-1.51,2.05,2.05,0,0,1,0,.22,5.1,5.1,0,0,1-.07,1c0-.17-.1-.35-.15-.52s-.13-.34-.21-.51c0,0-.09-.31-.13-.39s-.06-.05-.08,0a2.27,2.27,0,0,1-.42.06s0,0,0,.07l.22.41c0,.17.08.35.11.53s0,.36.06.54c-.15-.28-.32-.56-.5-.83s-.39-.54-.59-.8l-.07-.07h-.2c-1.08,0-1.64,1.18-1.6,2.15l.07,1.25-.29.2A3.58,3.58,0,0,0,20,30a2.11,2.11,0,0,1,0,.22,5.22,5.22,0,0,1-.07,1c0-.18-.1-.36-.16-.53s-.13-.35-.21-.52c0,0-.1-.32-.14-.4s-.06-.06-.08,0a2.33,2.33,0,0,1-.43.06s0,0,0,.07l.23.42c0,.18.09.36.12.54s0,.37.06.55c-.16-.29-.32-.57-.51-.85s-.4-.55-.6-.82l-.07-.07h-.21c-1.11,0-1.68,1.21-1.64,2.2l.13,2.88L16.34,34c-.09-.68-.16-1.39-.21-2.08a3.94,3.94,0,0,1,.11-1.2l-.68.13c-.29.08-.38.29-.32.61.26,1.9.51,3.8.76,5.7a.43.43,0,0,0,.36.42L20,38.5l.6-.23h.06l.58,3.27c.09.5.56.61,1.07.52s.84-.33.75-.84l-.66-3.73c-1.93-.72-3.16-1.79-3.16-3a2.68,2.68,0,0,1,1.4-2.09A1.74,1.74,0,0,0,20,34.83c.61,1.1,2.66,2.13,5.38,2.56A19.13,19.13,0,0,0,34,36.75c2.37-.84,3.16-1.89,3-2.93a2.31,2.31,0,0,0-.88-1.39,2.69,2.69,0,0,1,1.41,2.1c0,1.19-1.24,2.26-3.19,3l-.66,3.72c-.09.5.25.75.75.84s1,0,1.07-.52l.58-3.27h.06l.6.23,3.65-.93a.43.43,0,0,0,.36-.42c.25-1.9.5-3.8.76-5.7C41.6,31.14,41.51,30.93,41.23,30.85Zm-6.14,2.06.47.3-1,.69H32.47l-1.65-1.16.19-.17.57-.51,2.33.1Zm-6.4-2.12a17.11,17.11,0,0,1,5.51.9l-.29.25-2.42-.1-2.8-.65Zm1.62,2.08L32,34l-1.64,1.16H26.46l-.82-.58L24.82,34l.82-.58.82-.58Zm-2.23-2.08v.39l-2.8.65-2.42.1-.29-.25A17.11,17.11,0,0,1,28.09,30.79Zm-5.23,1.37,2.33-.1.76.68L24.3,33.9H22.25l-1-.69ZM20,34a1.38,1.38,0,0,1,.17-.66l.57,0,1.06.72v1.29l-.83.19A2,2,0,0,1,20,34Zm5.88,3.09a11.86,11.86,0,0,1-4.59-1.38l.82-.19,2.8.65,1.34.72Zm.89-.31-1.3-.7.68-.46.34-.23h3.86l1,.69-1.3.7Zm4.18.31-.36-.2,1.34-.72,2.8-.65.82.19A11.86,11.86,0,0,1,30.92,37.1Zm5.7-3.74a1.38,1.38,0,0,1,.17.66,2,2,0,0,1-1,1.51L35,35.34V34l1.06-.72Z" style="fill:#fff"/><path d="M23.06,28.27a1.55,1.55,0,0,0,.52,0,1.34,1.34,0,0,0,.93-.5,4.48,4.48,0,0,0,.15-1.69,1.24,1.24,0,0,0-1.38-1,1.24,1.24,0,0,0-1.38,1,3.77,3.77,0,0,0,.23,1.54A1.49,1.49,0,0,0,23.06,28.27Z" style="fill:#fff"/></svg>