<svg id="Layer_1" data-name="Layer 1" xmlns="http://www.w3.org/2000/svg" viewBox="0 0 56.77 56.77"><title>finanzas</title><path d="M28.38,50.47l-1-1.34c-.14-.16-2.39-2.58-9.1-3.85-4.2-.8-7.34-2.82-9.08-5.83-1.93-3.35-2-7.82-.24-12.91a17.76,17.76,0,0,0,1.19-6.63,6.23,6.23,0,0,0-4-5.49h0l1.05-1.32L12.38,6.3l.71.08A148.68,148.68,0,0,0,28.41,7a148.68,148.68,0,0,0,15.31-.66l.71-.08,6.18,8.12h0a6.18,6.18,0,0,0-4,5.44,17.68,17.68,0,0,0,1.19,6.67c1.78,5.1,1.7,9.56-.24,12.91-1.74,3-4.88,5-9.08,5.83-6.73,1.28-9,3.71-9.1,3.86Z" style="fill:#292929"/><polygon points="19.94 20.93 20.23 21.82 21.18 21.82 20.41 22.38 20.7 23.28 19.94 22.72 19.18 23.28 19.47 22.38 18.7 21.82 19.65 21.82 19.94 20.93" style="fill:#fff"/><polygon points="36.84 20.93 37.13 21.82 38.07 21.82 37.31 22.38 37.6 23.28 36.84 22.72 36.07 23.28 36.36 22.38 35.6 21.82 36.54 21.82 36.84 20.93" style="fill:#fff"/><polygon points="28.39 20.22 28.68 21.12 29.62 21.12 28.86 21.67 29.15 22.57 28.39 22.02 27.62 22.57 27.91 21.67 27.15 21.12 28.09 21.12 28.39 20.22" style="fill:#fff"/><path d="M25.19,13.59h0L25,14.78l-.19,1.61.68,0-.22-1.59Z" style="fill:none"/><path d="M37.42,13.74h0L37.29,15l-.18,1.73.68.07L37.55,15Z" style="fill:none"/><path d="M15.5,13q0,.85,0,1.7h0q0-.73,0-1.46l1.15,0V11.59h0V13Z" style="fill:#3fae2a"/><path d="M15.49,16.68v3.79l-1.12.25V21l1.12-.25V16.93l1-.13V15.15h0v1.41Z" style="fill:#3fae2a"/><path d="M17.33,20.1v.24l1.13-.2,0-8.56h0l0,8.32Z" style="fill:#3fae2a"/><path d="M21.74,19.45q-.69-2.37-1.38-4.83h0l0,.3q.68,2.43,1.36,4.77l1.07-.11,0-8h0l0,7.77Z" style="fill:#3fae2a"/><path d="M19.26,19.78V20l1.13-.16,0-3.8v0l0,3.6Z" style="fill:#3fae2a"/><path d="M21.7,15.06v.17c0,.19,0,.38,0,.56l0,.09A7.87,7.87,0,0,1,21.7,15.06Z" style="fill:#3fae2a"/><path d="M25.76,17.83l-1.15.05-.21,1.34-1.09.08,0,.25,1.13-.09.21-1.34,1.15-.05L26,19.38l1.21,0,0-.24-1.17,0Z" style="fill:#3fae2a"/><path d="M25.19,13.35h0L25,14.54l-.22,1.86h0L25,14.78l.12-1.19h0l.13,1.18.22,1.59h0l-.25-1.84Z" style="fill:#3fae2a"/><path d="M30.08,14.82q0-1.63,0-3.25h0q0,1.75,0,3.5c0,.17,0,.34,0,.5l0,.1A7.54,7.54,0,0,1,30.08,14.82Z" style="fill:#3fae2a"/><path d="M27.65,19.33h1.14v-.24H27.65Z" style="fill:#3fae2a"/><path d="M28.74,14.4l0,.32,1.39,4.63,1.08,0v-.24l-1.08,0Z" style="fill:#3fae2a"/><path d="M33.55,17.57c.6-2,1.19-4,1.79-6h-.07c-.6,2-1.19,4-1.79,6Z" style="fill:#3fae2a"/><path d="M31.76,19.42q1.73.09,3.46.28v-.24q-1.69-.19-3.39-.28Z" style="fill:#3fae2a"/><path d="M32,12.79V11.57h0q0,.73,0,1.46l1.52,0,.07-.24Z" style="fill:#3fae2a"/><path d="M38,18.4l-1.14-.14-.2,1.37-1.09-.14,0,.24,1.12.14.2-1.37,1.14.14.22,1.46,1.2.21,0-.25-1.16-.2Z" style="fill:#3fae2a"/><path d="M37.42,13.5h0l-.12,1.26-.21,2h0L37.29,15l.12-1.26h0L37.55,15l.23,1.78h0l-.27-2Z" style="fill:#3fae2a"/><path d="M40.93,20.51a1.77,1.77,0,0,1-1-.64V18.45h0q0,.83,0,1.66a1.77,1.77,0,0,0,1,.64c1.05.23,1.63-.88,1.63-2.55,0,0,0-.08,0-.13C42.52,19.68,42,20.74,40.93,20.51Z" style="fill:#3fae2a"/><path d="M40.79,16.52a3.75,3.75,0,0,1-1.06-2.62s0,.09,0,.13a3.76,3.76,0,0,0,1.06,2.73,2.23,2.23,0,0,1,.65,1.16s0-.07,0-.11A2.1,2.1,0,0,0,40.79,16.52Z" style="fill:#3fae2a"/><path d="M41.4,12.82c-.32,0-.53.27-.56.75,0,0,0,.07,0,.11.06-.4.26-.63.55-.62a1.2,1.2,0,0,1,.82.62v-.24A1.2,1.2,0,0,0,41.4,12.82Z" style="fill:#3fae2a"/><path d="M16.65,12.75l-1.15,0q0,1,0,1.95h0q0-.85,0-1.7l1.15,0V11.35h0Z" style="fill:#292929"/><path d="M16.53,16.31l-1,.13v3.79l-1.12.25v.24l1.12-.25V16.68l1-.13V14.9h0Z" style="fill:#292929"/><path d="M18.46,19.66l-1.12.2v.24h0l1.12-.2,0-8.32v-.24h0Z" style="fill:#292929"/><path d="M21.77,16l0,0a6.89,6.89,0,0,1-.09-1.15V15s0,0,0,.07a7.87,7.87,0,0,0,0,.83Z" style="fill:#292929"/><path d="M20.39,19.37l-1.13.16v.24h0l1.13-.16,0-3.6v-.24Z" style="fill:#292929"/><path d="M22.82,19.1l-1.07.11q-.69-2.37-1.38-4.83l0,0v.22h0q.69,2.46,1.38,4.83l1.07-.11,0-7.77v-.24h0Z" style="fill:#292929"/><path d="M26,18.89l-.21-1.31-1.15.05L24.4,19l-1.09.08,0,.25h0l1.09-.08.21-1.34,1.15-.05L26,19.13l1.17,0h0l0-.24Z" style="fill:#292929"/><path d="M25.19,13.1h0L25,14.29l-.25,2.1h0L25,14.54l.12-1.19h0l.13,1.18.25,1.84h0l-.28-2.08Z" style="fill:#292929"/><path d="M30.15,18.86l-1.41-4.7,0,0,0,.22,1.41,4.7,1.08,0h0V18.9Z" style="fill:#292929"/><path d="M30.13,15.67l0,.11,0,0a6.58,6.58,0,0,1-.09-1.18q0-1.63,0-3.25h0v.24q0,1.63,0,3.25A7.54,7.54,0,0,0,30.13,15.67Z" style="fill:#292929"/><path d="M27.65,18.84v.24h1.14v-.24Z" style="fill:#292929"/><path d="M33.58,12.81l.07-.24-1.66,0V11.33h0v1.46Z" style="fill:#292929"/><path d="M31.83,18.93l-.07.24h.07q1.7.09,3.39.28h0v-.24Q33.53,19,31.83,18.93Z" style="fill:#292929"/><path d="M33.41,17.56h.07c.6-2,1.2-4,1.79-6l.07-.24h-.07C34.65,13.46,34,15.53,33.41,17.56Z" style="fill:#292929"/><path d="M38.24,19.62,38,18.16,36.88,18l-.2,1.37-1.09-.14,0,.24h0l1.09.14.2-1.37L38,18.4l.22,1.46,1.16.2h0l0-.25Z" style="fill:#292929"/><path d="M37.42,13.26h0l-.12,1.26-.23,2.21h0l.21-2,.12-1.26h0l.13,1.28.27,2h0l-.3-2.28Z" style="fill:#292929"/><path d="M42.55,17.83c0,1.61-.6,2.67-1.63,2.44a1.77,1.77,0,0,1-1-.64V18.21h0v1.66a1.77,1.77,0,0,0,1,.64c1,.23,1.6-.83,1.63-2.44,0,0,0-.08,0-.12S42.55,17.87,42.55,17.83Z" style="fill:#292929"/><path d="M41.4,12.58c-.35,0-.57.31-.57.86q0,.07,0,.14c0-.48.24-.76.56-.75a1.2,1.2,0,0,1,.82.62h0V13.2A1.2,1.2,0,0,0,41.4,12.58Z" style="fill:#292929"/><path d="M41.45,17.82s0-.08,0-.13a2,2,0,0,0-.67-1.41,3.75,3.75,0,0,1-1.06-2.62s0,.09,0,.13,0,.08,0,.11a3.75,3.75,0,0,0,1.06,2.62A2.1,2.1,0,0,1,41.45,17.82Z" style="fill:#292929"/><path d="M14.37,11.11v9.37l1.12-.25V16.44l1-.13V14.66l-1,.09h0q0-1,0-1.95l1.15,0V11.1Z" style="fill:#fff"/><path d="M17.36,11.1q0,4.38,0,8.76h0l1.12-.2,0-8.32V11.1Z" style="fill:#fff"/><path d="M21.72,11.09l0,3.65s0,0,0,.07A6.89,6.89,0,0,0,21.79,16l0,0,0-.1,0-.09c-.45-1.54-.89-3.1-1.33-4.7H19.3l0,8.44h0l1.13-.16,0-3.6v-.54l0-.31,0-.3V14.4l0,0q.69,2.46,1.38,4.83l1.07-.11,0-7.77v-.24Z" style="fill:#fff"/><path d="M25.82,11.08H24.63q-.68,3.94-1.36,8h0L24.4,19l.21-1.34,1.15-.05L26,18.89l1.17,0h0C26.73,16.27,26.28,13.69,25.82,11.08Zm-.26,5.28h0l-.68,0H24.8l.25-2.1.12-1.19h0l.13,1.18.28,2.08Z" style="fill:#fff"/><path d="M31.21,11.08H30.08v.24q0,1.63,0,3.25a6.58,6.58,0,0,0,.09,1.18l0,0,0-.11,0-.1-1.36-4.49H27.65v7.76h1.14q0-1.78,0-3.56V15l0-.24,0-.32,0-.22,0,0,1.41,4.7,1.08,0h0Z" style="fill:#fff"/><path d="M32,11.09v1.46l1.66,0-.07.24-.07.24c-.58,2-1.16,3.94-1.75,5.87h.07q1.7.09,3.39.28h0V17.7l-1.66-.13h-.14c.62-2,1.24-4.11,1.86-6.23l.07-.24Z" style="fill:#fff"/><path d="M38,11.1H36.85q-.65,4.16-1.29,8.16h0l1.09.14.2-1.37,1.14.14.22,1.46,1.16.2h0Q38.74,15.34,38,11.1Zm-.22,5.71h0l-.68-.07h-.05l.23-2.21.12-1.26h0l.13,1.28.3,2.28Z" style="fill:#fff"/><path d="M40,19.62a1.77,1.77,0,0,0,1,.64c1,.23,1.6-.83,1.63-2.44,0,0,0-.08,0-.12,0-2.41-1.52-2.76-1.7-4,0,0,0-.07,0-.11s0-.09,0-.14c0-.55.22-.87.57-.86a1.2,1.2,0,0,1,.82.62h0q0-.89,0-1.79a1.42,1.42,0,0,0-1-.46c-1,0-1.49,1.21-1.49,2.59,0,0,0,.08,0,.11a3.75,3.75,0,0,0,1.06,2.62,2,2,0,0,1,.67,1.41s0,.09,0,.13,0,.07,0,.11c-.06.46-.32.7-.63.64A1.49,1.49,0,0,1,40,18v1.66Z" style="fill:#fff"/><path d="M47,13.83l.25-.22-3.82-5-.2,0c-1.86.18-7,.6-14.85.6s-13-.42-14.85-.6l-.2,0-3.82,5,.25.22C11.46,15.31,13.89,19,11,27.24c-1.57,4.49-1.54,8.33.07,11.12a8.85,8.85,0,0,0,3.08,3.11l0,0,.48.28,0,0,.5.26h0l.54.24h0l.57.22h0a15.32,15.32,0,0,0,2.32.63c1.21.23,2.28.49,3.24.78l.65.2h0l.59.2.07,0,.55.2h0q.55.21,1,.42l0,0,.45.21,0,0,.84.42h0a12.91,12.91,0,0,1,1.9,1.23l.22.18.22-.18a12.9,12.9,0,0,1,1.9-1.23l.84-.42,0,0,.45-.21,0,0q.48-.21,1-.42h0l.55-.2.06,0,.59-.2h0l.65-.2h0c1-.28,2-.55,3.24-.78l.41-.09h0a15,15,0,0,0,1.91-.54h0l.57-.22h0l.54-.24h0l.5-.26,0,0,.48-.28,0,0a8.86,8.86,0,0,0,3.08-3.11c1.61-2.79,1.63-6.64.07-11.12C42.89,19,45.31,15.31,47,13.83ZM45.08,27.48c1.5,4.29,1.49,7.93,0,10.53a7.88,7.88,0,0,1-2,2.26V26.1a35,35,0,0,0-4.62-1.54V42.34l-.54.11c-1.14.22-2.17.47-3.11.73V23.81a41,41,0,0,0-4.62-.46V45a14.22,14.22,0,0,0-1.82,1.16A14.22,14.22,0,0,0,26.56,45V23.35a41,41,0,0,0-4.62.46V43.19c-.93-.27-2-.52-3.11-.73l-.54-.11V24.56a35,35,0,0,0-4.62,1.54V40.27a7.88,7.88,0,0,1-2-2.26c-1.5-2.61-1.51-6.25,0-10.53,2.87-8.24.6-12.23-1.21-14l3.18-4.19c2,.19,7.14.58,14.72.58s12.7-.39,14.72-.58l3.18,4.19C44.48,15.25,42.21,19.24,45.08,27.48Z" style="fill:#3fae2a"/><circle cx="28.39" cy="33.97" r="7.64" transform="translate(-13.65 20.09) rotate(-31.84)" style="fill:#3fae2a"/><circle cx="28.39" cy="33.97" r="7.35" style="fill:#292929"/><circle cx="28.39" cy="33.97" r="6.87" transform="translate(-11.82 52.49) rotate(-74.85)" style="fill:#e6e6e6"/><circle cx="28.39" cy="33.97" r="4.9" style="fill:#bcbdbf"/><circle cx="28.39" cy="33.97" r="4.72" style="fill:#292929"/><path d="M28.61,31v2a7.64,7.64,0,0,1,1.25.27,2.94,2.94,0,0,1,.81.4A1.66,1.66,0,0,1,31.42,35a1.72,1.72,0,0,1-.9,1.51,3.21,3.21,0,0,1-1,.38,8.75,8.75,0,0,1-.89.09v.7h-.15V37h-.55v.7h-.16V37L27.21,37l-.29-.05-.35-.1a2.57,2.57,0,0,1-1-.53,1,1,0,0,1-.34-.72.76.76,0,0,1,.12-.42.77.77,0,0,1,.35-.29,1.24,1.24,0,0,1,.51-.1,1.27,1.27,0,0,1,.53.11.89.89,0,0,1,.37.29.7.7,0,0,1,.13.41.65.65,0,0,1-.26.53,1,1,0,0,1-.66.21H26l0,0a2.39,2.39,0,0,0,.71.35,5.07,5.07,0,0,0,1,.17v-2.1a6.38,6.38,0,0,1-1.17-.32q-1.28-.53-1.28-1.57a1.6,1.6,0,0,1,.22-.81,2.13,2.13,0,0,1,.65-.68,2.74,2.74,0,0,1,.67-.33,5,5,0,0,1,.91-.18v-.27h.16v.26l.34,0h.21v-.25h.15v.26a5.76,5.76,0,0,1,1.19.2,2.07,2.07,0,0,1,.81.45.86.86,0,0,1,.28.63.66.66,0,0,1-.24.53,1,1,0,0,1-.65.2,1.06,1.06,0,0,1-.69-.23.69.69,0,0,1-.28-.55.62.62,0,0,1,.22-.49.84.84,0,0,1,.57-.19H30l0,0a3.38,3.38,0,0,0-.65-.23A3.72,3.72,0,0,0,28.61,31Zm-.85,1.81V31.06a2.13,2.13,0,0,0-1,.28.7.7,0,0,0-.35.61.65.65,0,0,0,.32.57A2.75,2.75,0,0,0,27.76,32.86Zm.7.13V31h-.13L28,31h-.11v1.84Zm-.55,1.79v2.09h.55v-2l-.19,0-.15,0-.13,0Zm.69.1v2a4,4,0,0,0,.85-.1q.94-.27.94-.9a.72.72,0,0,0-.44-.65,2.18,2.18,0,0,0-.51-.18Q29.15,34.94,28.61,34.87Z" style="fill:#bcbdbf"/><path d="M25.21,29.25l.21.27-.06,0-.08,0a.41.41,0,0,1-.16.28.44.44,0,0,1-.35.1.47.47,0,0,1-.31-.18.5.5,0,0,1-.11-.34.44.44,0,0,1,.18-.33.4.4,0,0,1,.29-.09l0-.08.06,0,.22.26-.06,0a.41.41,0,0,0-.21-.1.25.25,0,0,0-.18.06.2.2,0,0,0-.08.18.55.55,0,0,0,.13.27.89.89,0,0,0,.15.16.21.21,0,0,0,.15,0,.24.24,0,0,0,.14-.05.26.26,0,0,0,.1-.17.4.4,0,0,0,0-.24Z" style="fill:#424143"/><path d="M25.79,29v0a.22.22,0,0,0,0,.07,0,0,0,0,0,0,0l.07,0,0,.07-.27.13,0-.07q.08,0,.07-.2l-.06-.76.07,0,.57.51a.28.28,0,0,0,.12.08h.07l0,.07-.41.2,0-.07.06,0a0,0,0,0,0,0,0l0,0h0l-.05,0Zm0-.08.2-.1-.22-.2Z" style="fill:#424143"/><path d="M27,28.4l.05.21a.13.13,0,0,0,0,.08.12.12,0,0,0,.09,0h0l0,.07-.48.11,0-.07h0s.07,0,.08,0a.14.14,0,0,0,0-.09l-.13-.53a.13.13,0,0,0,0-.08.12.12,0,0,0-.09,0h0l0-.07.36-.09.08,0,.18,0h.12a.23.23,0,0,1,.1.06.22.22,0,0,1,.06.1.23.23,0,0,1-.13.26.73.73,0,0,1,.19.15.72.72,0,0,0,.15.12h.08l0,.07-.28.07-.2-.2-.1-.1-.05,0Zm0-.08.15,0a.12.12,0,0,0,0-.07.21.21,0,0,0,0-.11A.17.17,0,0,0,27.1,28a.25.25,0,0,0-.16,0h0Z" style="fill:#424143"/><path d="M28.82,28.3v.31H28v-.08h0a.12.12,0,0,0,.09,0,.14.14,0,0,0,0-.09v-.54a.13.13,0,0,0,0-.09.12.12,0,0,0-.09,0h0v-.08h.49v.08h0a.12.12,0,0,0-.09,0,.14.14,0,0,0,0,.09v.52a.28.28,0,0,0,0,.08l0,0h.1a.24.24,0,0,0,.18-.06.32.32,0,0,0,.08-.16Z" style="fill:#424143"/><path d="M29.14,28.63l.06-.31h.08a.38.38,0,0,0,.06.22.22.22,0,0,0,.13.09.13.13,0,0,0,.1,0,.11.11,0,0,0,0-.07.12.12,0,0,0,0-.07.27.27,0,0,0-.09-.09l-.19-.15a.28.28,0,0,1-.07-.11.27.27,0,0,1,.11-.31.28.28,0,0,1,.21,0,.28.28,0,0,1,.18.11l0-.06h.08l0,.27h-.07a.3.3,0,0,0,0-.16.17.17,0,0,0-.12-.08.12.12,0,0,0-.09,0,.1.1,0,0,0,0,.07.11.11,0,0,0,0,.07l0,.06.13.1.13.11a.27.27,0,0,1,.06.11.27.27,0,0,1,0,.13.26.26,0,0,1-.13.18.31.31,0,0,1-.23,0,.34.34,0,0,1-.13-.05.29.29,0,0,1-.09-.1l0,.07Z" style="fill:#424143"/><path d="M30.3,28.43a.47.47,0,0,1,.16-.19.43.43,0,0,1,.24-.09.58.58,0,0,1,.25,0,.51.51,0,0,1,.29.28.47.47,0,0,1,0,.37.45.45,0,0,1-.26.25.5.5,0,0,1-.4,0,.58.58,0,0,1-.24-.18.4.4,0,0,1-.09-.24A.55.55,0,0,1,30.3,28.43Zm.26.1a.61.61,0,0,0-.07.3.19.19,0,0,0,.12.15.2.2,0,0,0,.2,0,.55.55,0,0,0,.17-.25.6.6,0,0,0,.06-.29.21.21,0,0,0-.32-.14A.55.55,0,0,0,30.56,28.53Z" style="fill:#424143"/><path d="M31.91,29l-.26.33q-.06.08,0,.13a.15.15,0,0,0,.06.08l0,.06-.27-.21,0-.06.07,0h.06l.06-.06.28-.37a.12.12,0,0,0,0-.19l0-.06.25.19.06.75.2-.27q.09-.12,0-.2l0-.06.26.2,0,.06-.06,0h-.06l-.06.06L32,30,32,29.92Z" style="fill:#424143"/><path d="M23.91,38.5l.32-.69a.3.3,0,0,0,0-.12.11.11,0,0,0,0-.06l.05-.06.31.28,0,.06s-.07,0-.09,0l0,.05-.18.39.54-.31.08.07-.22.6.32-.21.05,0s0-.08,0-.12l0-.06.22.2-.05.06a.1.1,0,0,0-.07,0,.47.47,0,0,0-.17.08l-.58.37-.08-.07.23-.62-.56.32Z" style="fill:#424143"/><path d="M25.24,39.19l0,0,0,.05a0,0,0,0,0,0,.05l.06,0,0,.07-.27-.14,0-.07q.08,0,.2-.06l.59-.49.07,0-.09.76a.29.29,0,0,0,0,.15l0,.05,0,.07-.4-.22,0-.07.07,0,0,0a.11.11,0,0,0,0,0v-.09Zm.06-.05.2.11,0-.3Z" style="fill:#424143"/><path d="M26.75,39.72l0-.07.41.12,0,.07h-.07a.17.17,0,0,0,0,.08l-.05.18h0l-.23,0-.19,0a.44.44,0,0,1-.28-.23.46.46,0,0,1,0-.35.48.48,0,0,1,.23-.29.45.45,0,0,1,.36,0,.43.43,0,0,1,.25.18.28.28,0,0,0,.05-.08l.07,0-.08.31-.07,0a.28.28,0,0,0-.19-.3.21.21,0,0,0-.2,0,.53.53,0,0,0-.14.27,1,1,0,0,0,0,.22.21.21,0,0,0,0,.13.22.22,0,0,0,.12.08.22.22,0,0,0,.13,0s.07,0,.08-.11v0Q26.85,39.76,26.75,39.72Z" style="fill:#424143"/><path d="M27.59,39.8a.47.47,0,0,1,.08-.24.43.43,0,0,1,.2-.16.58.58,0,0,1,.26,0,.51.51,0,0,1,.37.16.47.47,0,0,1,.12.35.45.45,0,0,1-.16.32.5.5,0,0,1-.38.12.58.58,0,0,1-.28-.08.4.4,0,0,1-.17-.19A.55.55,0,0,1,27.59,39.8Zm.28,0a.62.62,0,0,0,0,.31.19.19,0,0,0,.16.1.2.2,0,0,0,.18-.08.55.55,0,0,0,.08-.3.6.6,0,0,0,0-.3.21.21,0,0,0-.35,0A.55.55,0,0,0,27.87,39.81Z" style="fill:#424143"/><path d="M29.19,39.61l.07.42q0,.1.06.12a.15.15,0,0,0,.1,0v.07l-.34.06v-.07l.07,0a.09.09,0,0,0,0-.06.32.32,0,0,0,0-.09l-.08-.46q0-.14-.15-.12v-.07l.31-.05.59.47-.06-.33q0-.15-.15-.13v-.07l.32-.05v.07l-.06,0a.1.1,0,0,0,0,.05.26.26,0,0,0,0,.09l.12.69h-.09Z" style="fill:#424143"/><path d="M31.2,39.39l.11.29-.78.31,0-.07h0s.07,0,.07-.06a.14.14,0,0,0,0-.09l-.2-.5a.13.13,0,0,0-.05-.07.12.12,0,0,0-.09,0h0l0-.07.46-.18,0,.07h0s-.07,0-.07.06a.14.14,0,0,0,0,.09l.19.49,0,.07,0,0,.1,0a.24.24,0,0,0,.14-.12.32.32,0,0,0,0-.18Z" style="fill:#424143"/><path d="M31.24,38.76l0-.06.41-.25,0,.06h0s-.06,0-.06.07a.14.14,0,0,0,0,.08l.28.46a.14.14,0,0,0,.06.06.12.12,0,0,0,.09,0h0l0,.06-.41.25,0-.06s.07,0,.07-.07a.12.12,0,0,0,0-.09l-.28-.46s0-.06-.07-.06A.14.14,0,0,0,31.24,38.76Z" style="fill:#424143"/><path d="M32.16,38.12l-.06.05a.26.26,0,0,0-.06.08.12.12,0,0,0,0,.08.28.28,0,0,0,.05.1l-.06.05-.18-.19.68-.62.18.19-.06.05a.27.27,0,0,0-.14-.06.18.18,0,0,0-.12.06l-.06.05.44.48a.14.14,0,0,0,.07.05.12.12,0,0,0,.08,0l0,0,.05.06-.37.34-.05-.06h0s.05-.06,0-.08a.14.14,0,0,0,0-.08Z" style="fill:#424143"/><path d="M34.32,30.51l-9.39,9.39a6.91,6.91,0,0,0,3.33.93l7-7A6.87,6.87,0,0,0,34.32,30.51Z" style="fill:#fff;opacity:0.35000000000000003"/><path d="M23.88,39.16a6.82,6.82,0,0,0,.68.52l9.53-9.53a6.9,6.9,0,0,0-.52-.68Z" style="fill:#fff;opacity:0.35000000000000003"/><circle cx="28.39" cy="33.97" r="4.49" style="fill:none;stroke:#bcbdbf;stroke-linecap:round;stroke-miterlimit:10;stroke-width:0.052751948572568px;stroke-dasharray:0.35196805000305176,0.35196805000305176"/><line x1="28.33" y1="26.72" x2="28.33" y2="26.98" style="fill:none;stroke:#6d6e71;stroke-miterlimit:10;stroke-width:0.176882516485067px"/><line x1="28" y1="26.73" x2="28.01" y2="26.99" style="fill:none;stroke:#6d6e71;stroke-miterlimit:10;stroke-width:0.176882516485067px"/><line x1="27.67" y1="26.76" x2="27.69" y2="27.01" style="fill:none;stroke:#6d6e71;stroke-miterlimit:10;stroke-width:0.176882516485067px"/><line x1="27.33" y1="26.8" x2="27.37" y2="27.05" style="fill:none;stroke:#6d6e71;stroke-miterlimit:10;stroke-width:0.176882516485067px"/><line x1="27" y1="26.85" x2="27.05" y2="27.1" style="fill:none;stroke:#6d6e71;stroke-miterlimit:10;stroke-width:0.176882516485067px"/><line x1="26.68" y1="26.93" x2="26.74" y2="27.17" style="fill:none;stroke:#6d6e71;stroke-miterlimit:10;stroke-width:0.176882516485067px"/><line x1="26.35" y1="27.01" x2="26.42" y2="27.26" style="fill:none;stroke:#6d6e71;stroke-miterlimit:10;stroke-width:0.176882516485067px"/><line x1="26.04" y1="27.11" x2="26.12" y2="27.35" style="fill:none;stroke:#6d6e71;stroke-miterlimit:10;stroke-width:0.176882516485067px"/><line x1="25.72" y1="27.23" x2="25.81" y2="27.47" style="fill:none;stroke:#6d6e71;stroke-miterlimit:10;stroke-width:0.176882516485067px"/><line x1="25.41" y1="27.36" x2="25.52" y2="27.59" style="fill:none;stroke:#6d6e71;stroke-miterlimit:10;stroke-width:0.176882516485067px"/><line x1="25.11" y1="27.5" x2="25.22" y2="27.73" style="fill:none;stroke:#6d6e71;stroke-miterlimit:10;stroke-width:0.176882516485067px"/><line x1="24.82" y1="27.66" x2="24.94" y2="27.88" style="fill:none;stroke:#6d6e71;stroke-miterlimit:10;stroke-width:0.176882516485067px"/><line x1="24.53" y1="27.83" x2="24.66" y2="28.05" style="fill:none;stroke:#6d6e71;stroke-miterlimit:10;stroke-width:0.176882516485067px"/><line x1="24.25" y1="28.02" x2="24.39" y2="28.23" style="fill:none;stroke:#6d6e71;stroke-miterlimit:10;stroke-width:0.176882516485067px"/><line x1="23.98" y1="28.22" x2="24.13" y2="28.42" style="fill:none;stroke:#6d6e71;stroke-miterlimit:10;stroke-width:0.176882516485067px"/><line x1="23.72" y1="28.43" x2="23.88" y2="28.62" style="fill:none;stroke:#6d6e71;stroke-miterlimit:10;stroke-width:0.176882516485067px"/><line x1="23.47" y1="28.65" x2="23.64" y2="28.84" style="fill:none;stroke:#6d6e71;stroke-miterlimit:10;stroke-width:0.176882516485067px"/><line x1="23.23" y1="28.88" x2="23.41" y2="29.06" style="fill:none;stroke:#6d6e71;stroke-miterlimit:10;stroke-width:0.176882516485067px"/><line x1="23" y1="29.12" x2="23.18" y2="29.3" style="fill:none;stroke:#6d6e71;stroke-miterlimit:10;stroke-width:0.176882516485067px"/><line x1="22.78" y1="29.38" x2="22.97" y2="29.54" style="fill:none;stroke:#6d6e71;stroke-miterlimit:10;stroke-width:0.176882516485067px"/><line x1="22.57" y1="29.64" x2="22.78" y2="29.8" style="fill:none;stroke:#6d6e71;stroke-miterlimit:10;stroke-width:0.176882516485067px"/><line x1="22.38" y1="29.92" x2="22.59" y2="30.06" style="fill:none;stroke:#6d6e71;stroke-miterlimit:10;stroke-width:0.176882516485067px"/><line x1="22.2" y1="30.2" x2="22.41" y2="30.33" style="fill:none;stroke:#6d6e71;stroke-miterlimit:10;stroke-width:0.176882516485067px"/><line x1="22.03" y1="30.49" x2="22.25" y2="30.61" style="fill:none;stroke:#6d6e71;stroke-miterlimit:10;stroke-width:0.176882516485067px"/><line x1="21.88" y1="30.78" x2="22.1" y2="30.9" style="fill:none;stroke:#6d6e71;stroke-miterlimit:10;stroke-width:0.176882516485067px"/><line x1="21.74" y1="31.09" x2="21.97" y2="31.19" style="fill:none;stroke:#6d6e71;stroke-miterlimit:10;stroke-width:0.176882516485067px"/><line x1="21.61" y1="31.4" x2="21.85" y2="31.49" style="fill:none;stroke:#6d6e71;stroke-miterlimit:10;stroke-width:0.176882516485067px"/><line x1="21.5" y1="31.71" x2="21.74" y2="31.79" style="fill:none;stroke:#6d6e71;stroke-miterlimit:10;stroke-width:0.176882516485067px"/><line x1="21.4" y1="32.03" x2="21.65" y2="32.1" style="fill:none;stroke:#6d6e71;stroke-miterlimit:10;stroke-width:0.176882516485067px"/><line x1="21.32" y1="32.36" x2="21.57" y2="32.42" style="fill:none;stroke:#6d6e71;stroke-miterlimit:10;stroke-width:0.176882516485067px"/><line x1="21.25" y1="32.69" x2="21.5" y2="32.73" style="fill:none;stroke:#6d6e71;stroke-miterlimit:10;stroke-width:0.176882516485067px"/><line x1="21.2" y1="33.02" x2="21.45" y2="33.05" style="fill:none;stroke:#6d6e71;stroke-miterlimit:10;stroke-width:0.176882516485067px"/><line x1="21.17" y1="33.35" x2="21.42" y2="33.37" style="fill:none;stroke:#6d6e71;stroke-miterlimit:10;stroke-width:0.176882516485067px"/><line x1="21.15" y1="33.68" x2="21.4" y2="33.7" style="fill:none;stroke:#6d6e71;stroke-miterlimit:10;stroke-width:0.176882516485067px"/><line x1="21.14" y1="34.02" x2="21.39" y2="34.02" style="fill:none;stroke:#6d6e71;stroke-miterlimit:10;stroke-width:0.176882516485067px"/><line x1="21.15" y1="34.35" x2="21.4" y2="34.34" style="fill:none;stroke:#6d6e71;stroke-miterlimit:10;stroke-width:0.176882516485067px"/><line x1="21.18" y1="34.69" x2="21.43" y2="34.66" style="fill:none;stroke:#6d6e71;stroke-miterlimit:10;stroke-width:0.176882516485067px"/><line x1="21.22" y1="35.02" x2="21.47" y2="34.98" style="fill:none;stroke:#6d6e71;stroke-miterlimit:10;stroke-width:0.176882516485067px"/><line x1="21.27" y1="35.35" x2="21.52" y2="35.3" style="fill:none;stroke:#6d6e71;stroke-miterlimit:10;stroke-width:0.176882516485067px"/><line x1="21.34" y1="35.68" x2="21.59" y2="35.62" style="fill:none;stroke:#6d6e71;stroke-miterlimit:10;stroke-width:0.176882516485067px"/><line x1="21.43" y1="36" x2="21.68" y2="35.93" style="fill:none;stroke:#6d6e71;stroke-miterlimit:10;stroke-width:0.176882516485067px"/><line x1="21.53" y1="36.32" x2="21.77" y2="36.24" style="fill:none;stroke:#6d6e71;stroke-miterlimit:10;stroke-width:0.176882516485067px"/><line x1="21.65" y1="36.63" x2="21.89" y2="36.54" style="fill:none;stroke:#6d6e71;stroke-miterlimit:10;stroke-width:0.176882516485067px"/><line x1="21.78" y1="36.94" x2="22.01" y2="36.84" style="fill:none;stroke:#6d6e71;stroke-miterlimit:10;stroke-width:0.176882516485067px"/><line x1="21.92" y1="37.24" x2="22.15" y2="37.13" style="fill:none;stroke:#6d6e71;stroke-miterlimit:10;stroke-width:0.176882516485067px"/><line x1="22.08" y1="37.54" x2="22.3" y2="37.42" style="fill:none;stroke:#6d6e71;stroke-miterlimit:10;stroke-width:0.176882516485067px"/><line x1="22.25" y1="37.83" x2="22.47" y2="37.69" style="fill:none;stroke:#6d6e71;stroke-miterlimit:10;stroke-width:0.176882516485067px"/><line x1="22.44" y1="38.11" x2="22.65" y2="37.96" style="fill:none;stroke:#6d6e71;stroke-miterlimit:10;stroke-width:0.176882516485067px"/><line x1="22.63" y1="38.38" x2="22.84" y2="38.22" style="fill:none;stroke:#6d6e71;stroke-miterlimit:10;stroke-width:0.176882516485067px"/><line x1="22.84" y1="38.64" x2="23.04" y2="38.47" style="fill:none;stroke:#6d6e71;stroke-miterlimit:10;stroke-width:0.176882516485067px"/><line x1="23.07" y1="38.89" x2="23.25" y2="38.72" style="fill:none;stroke:#6d6e71;stroke-miterlimit:10;stroke-width:0.176882516485067px"/><line x1="23.3" y1="39.13" x2="23.48" y2="38.95" style="fill:none;stroke:#6d6e71;stroke-miterlimit:10;stroke-width:0.176882516485067px"/><line x1="23.54" y1="39.36" x2="23.71" y2="39.17" style="fill:none;stroke:#6d6e71;stroke-miterlimit:10;stroke-width:0.176882516485067px"/><line x1="23.8" y1="39.58" x2="23.96" y2="39.38" style="fill:none;stroke:#6d6e71;stroke-miterlimit:10;stroke-width:0.176882516485067px"/><line x1="24.06" y1="39.78" x2="24.21" y2="39.58" style="fill:none;stroke:#6d6e71;stroke-miterlimit:10;stroke-width:0.176882516485067px"/><line x1="24.33" y1="39.98" x2="24.48" y2="39.77" style="fill:none;stroke:#6d6e71;stroke-miterlimit:10;stroke-width:0.176882516485067px"/><line x1="24.62" y1="40.16" x2="24.75" y2="39.94" style="fill:none;stroke:#6d6e71;stroke-miterlimit:10;stroke-width:0.176882516485067px"/><line x1="24.91" y1="40.32" x2="25.03" y2="40.1" style="fill:none;stroke:#6d6e71;stroke-miterlimit:10;stroke-width:0.176882516485067px"/><line x1="25.2" y1="40.48" x2="25.32" y2="40.25" style="fill:none;stroke:#6d6e71;stroke-miterlimit:10;stroke-width:0.176882516485067px"/><line x1="25.51" y1="40.62" x2="25.61" y2="40.39" style="fill:none;stroke:#6d6e71;stroke-miterlimit:10;stroke-width:0.176882516485067px"/><line x1="25.82" y1="40.74" x2="25.91" y2="40.51" style="fill:none;stroke:#6d6e71;stroke-miterlimit:10;stroke-width:0.176882516485067px"/><line x1="26.13" y1="40.86" x2="26.21" y2="40.61" style="fill:none;stroke:#6d6e71;stroke-miterlimit:10;stroke-width:0.176882516485067px"/><line x1="26.45" y1="40.95" x2="26.52" y2="40.71" style="fill:none;stroke:#6d6e71;stroke-miterlimit:10;stroke-width:0.176882516485067px"/><line x1="26.78" y1="41.03" x2="26.84" y2="40.79" style="fill:none;stroke:#6d6e71;stroke-miterlimit:10;stroke-width:0.176882516485067px"/><line x1="27.1" y1="41.1" x2="27.15" y2="40.85" style="fill:none;stroke:#6d6e71;stroke-miterlimit:10;stroke-width:0.176882516485067px"/><line x1="27.44" y1="41.15" x2="27.47" y2="40.9" style="fill:none;stroke:#6d6e71;stroke-miterlimit:10;stroke-width:0.176882516485067px"/><line x1="27.77" y1="41.19" x2="27.79" y2="40.94" style="fill:none;stroke:#6d6e71;stroke-miterlimit:10;stroke-width:0.176882516485067px"/><line x1="28.1" y1="41.21" x2="28.11" y2="40.96" style="fill:none;stroke:#6d6e71;stroke-miterlimit:10;stroke-width:0.176882516485067px"/><line x1="28.44" y1="41.21" x2="28.44" y2="40.96" style="fill:none;stroke:#6d6e71;stroke-miterlimit:10;stroke-width:0.176882516485067px"/><line x1="28.77" y1="41.2" x2="28.76" y2="40.95" style="fill:none;stroke:#6d6e71;stroke-miterlimit:10;stroke-width:0.176882516485067px"/><line x1="29.11" y1="41.18" x2="29.08" y2="40.93" style="fill:none;stroke:#6d6e71;stroke-miterlimit:10;stroke-width:0.176882516485067px"/><line x1="29.44" y1="41.14" x2="29.4" y2="40.89" style="fill:none;stroke:#6d6e71;stroke-miterlimit:10;stroke-width:0.176882516485067px"/><line x1="29.77" y1="41.08" x2="29.72" y2="40.83" style="fill:none;stroke:#6d6e71;stroke-miterlimit:10;stroke-width:0.176882516485067px"/><line x1="30.09" y1="41.01" x2="30.04" y2="40.76" style="fill:none;stroke:#6d6e71;stroke-miterlimit:10;stroke-width:0.176882516485067px"/><line x1="30.42" y1="40.92" x2="30.35" y2="40.68" style="fill:none;stroke:#6d6e71;stroke-miterlimit:10;stroke-width:0.176882516485067px"/><line x1="30.74" y1="40.82" x2="30.66" y2="40.58" style="fill:none;stroke:#6d6e71;stroke-miterlimit:10;stroke-width:0.176882516485067px"/><line x1="31.05" y1="40.71" x2="30.96" y2="40.47" style="fill:none;stroke:#6d6e71;stroke-miterlimit:10;stroke-width:0.176882516485067px"/><line x1="31.36" y1="40.58" x2="31.26" y2="40.34" style="fill:none;stroke:#6d6e71;stroke-miterlimit:10;stroke-width:0.176882516485067px"/><line x1="31.66" y1="40.43" x2="31.55" y2="40.21" style="fill:none;stroke:#6d6e71;stroke-miterlimit:10;stroke-width:0.176882516485067px"/><line x1="31.96" y1="40.27" x2="31.83" y2="40.05" style="fill:none;stroke:#6d6e71;stroke-miterlimit:10;stroke-width:0.176882516485067px"/><line x1="32.24" y1="40.1" x2="32.11" y2="39.89" style="fill:none;stroke:#6d6e71;stroke-miterlimit:10;stroke-width:0.176882516485067px"/><line x1="32.52" y1="39.92" x2="32.38" y2="39.71" style="fill:none;stroke:#6d6e71;stroke-miterlimit:10;stroke-width:0.176882516485067px"/><line x1="32.79" y1="39.72" x2="32.64" y2="39.52" style="fill:none;stroke:#6d6e71;stroke-miterlimit:10;stroke-width:0.176882516485067px"/><line x1="33.05" y1="39.51" x2="32.89" y2="39.32" style="fill:none;stroke:#6d6e71;stroke-miterlimit:10;stroke-width:0.176882516485067px"/><line x1="33.31" y1="39.29" x2="33.13" y2="39.1" style="fill:none;stroke:#6d6e71;stroke-miterlimit:10;stroke-width:0.176882516485067px"/><line x1="33.55" y1="39.06" x2="33.37" y2="38.88" style="fill:none;stroke:#6d6e71;stroke-miterlimit:10;stroke-width:0.176882516485067px"/><line x1="33.78" y1="38.81" x2="33.59" y2="38.64" style="fill:none;stroke:#6d6e71;stroke-miterlimit:10;stroke-width:0.176882516485067px"/><line x1="33.99" y1="38.56" x2="33.8" y2="38.4" style="fill:none;stroke:#6d6e71;stroke-miterlimit:10;stroke-width:0.176882516485067px"/><line x1="34.2" y1="38.3" x2="34" y2="38.14" style="fill:none;stroke:#6d6e71;stroke-miterlimit:10;stroke-width:0.176882516485067px"/><line x1="34.39" y1="38.02" x2="34.18" y2="37.88" style="fill:none;stroke:#6d6e71;stroke-miterlimit:10;stroke-width:0.176882516485067px"/><line x1="34.57" y1="37.74" x2="34.36" y2="37.61" style="fill:none;stroke:#6d6e71;stroke-miterlimit:10;stroke-width:0.176882516485067px"/><line x1="34.74" y1="37.45" x2="34.52" y2="37.33" style="fill:none;stroke:#6d6e71;stroke-miterlimit:10;stroke-width:0.176882516485067px"/><line x1="34.9" y1="37.15" x2="34.67" y2="37.04" style="fill:none;stroke:#6d6e71;stroke-miterlimit:10;stroke-width:0.176882516485067px"/><line x1="35.04" y1="36.85" x2="34.8" y2="36.75" style="fill:none;stroke:#6d6e71;stroke-miterlimit:10;stroke-width:0.176882516485067px"/><line x1="35.16" y1="36.54" x2="34.93" y2="36.45" style="fill:none;stroke:#6d6e71;stroke-miterlimit:10;stroke-width:0.176882516485067px"/><line x1="35.27" y1="36.22" x2="35.03" y2="36.14" style="fill:none;stroke:#6d6e71;stroke-miterlimit:10;stroke-width:0.176882516485067px"/><line x1="35.37" y1="35.9" x2="35.13" y2="35.83" style="fill:none;stroke:#6d6e71;stroke-miterlimit:10;stroke-width:0.176882516485067px"/><line x1="35.45" y1="35.58" x2="35.21" y2="35.52" style="fill:none;stroke:#6d6e71;stroke-miterlimit:10;stroke-width:0.176882516485067px"/><line x1="35.52" y1="35.25" x2="35.27" y2="35.2" style="fill:none;stroke:#6d6e71;stroke-miterlimit:10;stroke-width:0.176882516485067px"/><line x1="35.57" y1="34.92" x2="35.32" y2="34.89" style="fill:none;stroke:#6d6e71;stroke-miterlimit:10;stroke-width:0.176882516485067px"/><line x1="35.61" y1="34.59" x2="35.35" y2="34.56" style="fill:none;stroke:#6d6e71;stroke-miterlimit:10;stroke-width:0.176882516485067px"/><line x1="35.63" y1="34.25" x2="35.37" y2="34.24" style="fill:none;stroke:#6d6e71;stroke-miterlimit:10;stroke-width:0.176882516485067px"/><line x1="35.63" y1="33.92" x2="35.38" y2="33.92" style="fill:none;stroke:#6d6e71;stroke-miterlimit:10;stroke-width:0.176882516485067px"/><line x1="35.62" y1="33.58" x2="35.37" y2="33.6" style="fill:none;stroke:#6d6e71;stroke-miterlimit:10;stroke-width:0.176882516485067px"/><line x1="35.6" y1="33.25" x2="35.35" y2="33.27" style="fill:none;stroke:#6d6e71;stroke-miterlimit:10;stroke-width:0.176882516485067px"/><line x1="35.56" y1="32.92" x2="35.31" y2="32.95" style="fill:none;stroke:#6d6e71;stroke-miterlimit:10;stroke-width:0.176882516485067px"/><line x1="35.5" y1="32.59" x2="35.25" y2="32.64" style="fill:none;stroke:#6d6e71;stroke-miterlimit:10;stroke-width:0.176882516485067px"/><line x1="35.43" y1="32.26" x2="35.18" y2="32.32" style="fill:none;stroke:#6d6e71;stroke-miterlimit:10;stroke-width:0.176882516485067px"/><line x1="35.34" y1="31.94" x2="35.1" y2="32.01" style="fill:none;stroke:#6d6e71;stroke-miterlimit:10;stroke-width:0.176882516485067px"/><line x1="35.24" y1="31.62" x2="35" y2="31.7" style="fill:none;stroke:#6d6e71;stroke-miterlimit:10;stroke-width:0.176882516485067px"/><line x1="35.13" y1="31.3" x2="34.89" y2="31.4" style="fill:none;stroke:#6d6e71;stroke-miterlimit:10;stroke-width:0.176882516485067px"/><line x1="35" y1="31" x2="34.76" y2="31.1" style="fill:none;stroke:#6d6e71;stroke-miterlimit:10;stroke-width:0.176882516485067px"/><line x1="34.85" y1="30.69" x2="34.62" y2="30.81" style="fill:none;stroke:#6d6e71;stroke-miterlimit:10;stroke-width:0.176882516485067px"/><line x1="34.69" y1="30.4" x2="34.47" y2="30.52" style="fill:none;stroke:#6d6e71;stroke-miterlimit:10;stroke-width:0.176882516485067px"/><line x1="34.52" y1="30.11" x2="34.31" y2="30.25" style="fill:none;stroke:#6d6e71;stroke-miterlimit:10;stroke-width:0.176882516485067px"/><line x1="34.34" y1="29.83" x2="34.13" y2="29.98" style="fill:none;stroke:#6d6e71;stroke-miterlimit:10;stroke-width:0.176882516485067px"/><line x1="34.14" y1="29.56" x2="33.94" y2="29.72" style="fill:none;stroke:#6d6e71;stroke-miterlimit:10;stroke-width:0.176882516485067px"/><line x1="33.93" y1="29.3" x2="33.74" y2="29.46" style="fill:none;stroke:#6d6e71;stroke-miterlimit:10;stroke-width:0.176882516485067px"/><line x1="33.71" y1="29.05" x2="33.52" y2="29.22" style="fill:none;stroke:#6d6e71;stroke-miterlimit:10;stroke-width:0.176882516485067px"/><line x1="33.48" y1="28.81" x2="33.3" y2="28.99" style="fill:none;stroke:#6d6e71;stroke-miterlimit:10;stroke-width:0.176882516485067px"/><line x1="33.23" y1="28.58" x2="33.06" y2="28.77" style="fill:none;stroke:#6d6e71;stroke-miterlimit:10;stroke-width:0.176882516485067px"/><line x1="32.98" y1="28.36" x2="32.82" y2="28.56" style="fill:none;stroke:#6d6e71;stroke-miterlimit:10;stroke-width:0.176882516485067px"/><line x1="32.72" y1="28.16" x2="32.56" y2="28.36" style="fill:none;stroke:#6d6e71;stroke-miterlimit:10;stroke-width:0.176882516485067px"/><line x1="32.44" y1="27.96" x2="32.3" y2="28.17" style="fill:none;stroke:#6d6e71;stroke-miterlimit:10;stroke-width:0.176882516485067px"/><line x1="32.16" y1="27.78" x2="32.03" y2="28" style="fill:none;stroke:#6d6e71;stroke-miterlimit:10;stroke-width:0.176882516485067px"/><line x1="31.87" y1="27.61" x2="31.75" y2="27.84" style="fill:none;stroke:#6d6e71;stroke-miterlimit:10;stroke-width:0.176882516485067px"/><line x1="31.57" y1="27.46" x2="31.46" y2="27.69" style="fill:none;stroke:#6d6e71;stroke-miterlimit:10;stroke-width:0.176882516485067px"/><line x1="31.27" y1="27.32" x2="31.17" y2="27.55" style="fill:none;stroke:#6d6e71;stroke-miterlimit:10;stroke-width:0.176882516485067px"/><line x1="30.96" y1="27.19" x2="30.87" y2="27.43" style="fill:none;stroke:#6d6e71;stroke-miterlimit:10;stroke-width:0.176882516485067px"/><line x1="30.64" y1="27.08" x2="30.56" y2="27.32" style="fill:none;stroke:#6d6e71;stroke-miterlimit:10;stroke-width:0.176882516485067px"/><line x1="30.32" y1="26.99" x2="30.25" y2="27.23" style="fill:none;stroke:#6d6e71;stroke-miterlimit:10;stroke-width:0.176882516485067px"/><line x1="30" y1="26.9" x2="29.94" y2="27.15" style="fill:none;stroke:#6d6e71;stroke-miterlimit:10;stroke-width:0.176882516485067px"/><line x1="29.67" y1="26.84" x2="29.62" y2="27.09" style="fill:none;stroke:#6d6e71;stroke-miterlimit:10;stroke-width:0.176882516485067px"/><line x1="29.34" y1="26.78" x2="29.31" y2="27.04" style="fill:none;stroke:#6d6e71;stroke-miterlimit:10;stroke-width:0.176882516485067px"/><line x1="29.01" y1="26.75" x2="28.98" y2="27" style="fill:none;stroke:#6d6e71;stroke-miterlimit:10;stroke-width:0.176882516485067px"/><line x1="28.67" y1="26.73" x2="28.66" y2="26.98" style="fill:none;stroke:#6d6e71;stroke-miterlimit:10;stroke-width:0.176882516485067px"/></svg>