<svg id="Layer_1" data-name="Layer 1" xmlns="http://www.w3.org/2000/svg" viewBox="0 0 56.77 56.77"><title>implementacion</title><circle cx="28.39" cy="28.39" r="25.73" style="fill:#004987"/><circle cx="28.39" cy="28.39" r="24.88" style="fill:#fff"/><path d="M28.39,52.19a23.8,23.8,0,1,1,23.8-23.8A23.83,23.83,0,0,1,28.39,52.19Zm0-46.83a23,23,0,1,0,23,23A23.05,23.05,0,0,0,28.39,5.36Z" style="fill:#00953a"/><path d="M45.44,23,43,23.81h0a.25.25,0,0,0,.11.19,1.13,1.13,0,1,1-1.51.49.25.25,0,0,0,0-.22h0L39.27,25A11.4,11.4,0,0,1,35.22,37.5l1.44,2a.35.35,0,0,1,0,.39.59.59,0,0,1-.56.25.77.77,0,1,0,.64.89.59.59,0,0,1,.4-.45.35.35,0,0,1,.37.14l1.49,2A17.9,17.9,0,0,0,45.44,23Z" style="fill:#5e0d8b"/><path d="M28.77,13a1.13,1.13,0,1,1,0,1.59.25.25,0,0,0-.21-.05h0V17a11.39,11.39,0,0,1,10.6,7.7l2.33-.76a.35.35,0,0,1,.38.1.59.59,0,0,1,.06.6.77.77,0,1,0,1-.34.59.59,0,0,1-.31-.52.35.35,0,0,1,.25-.31l2.41-.78A17.88,17.88,0,0,0,28.56,10.52V13h0A.25.25,0,0,0,28.77,13Z" style="fill:#3bb44a"/><path d="M13.85,23.48a.25.25,0,0,0,0-.22,1.13,1.13,0,1,1,1.51.49.25.25,0,0,0-.11.19h0l2.33.76A11.39,11.39,0,0,1,28.21,17V14.54a.35.35,0,0,1,.22-.33.59.59,0,0,1,.59.13.77.77,0,1,0,0-1.1.59.59,0,0,1-.59.13.35.35,0,0,1-.22-.33V10.52A17.88,17.88,0,0,0,11.44,22.7l2.41.78Z" style="fill:#e2231a"/><path d="M37.26,40.9a.25.25,0,0,0-.14.17,1.13,1.13,0,1,1-.94-1.29.25.25,0,0,0,.2-.08h0l-1.44-2a11.39,11.39,0,0,1-13.1,0l-1.44,2a.35.35,0,0,1-.37.14.59.59,0,0,1-.4-.45.77.77,0,1,0-.64.89.59.59,0,0,1,.55.25.35.35,0,0,1,0,.39l-1.49,2a17.88,17.88,0,0,0,20.73,0l-1.49-2Z" style="fill:#ffc843"/><path d="M19.23,40.69a.25.25,0,0,0-.2-.08A1.13,1.13,0,1,1,20,39.32a.25.25,0,0,0,.14.17h0l1.44-2A11.4,11.4,0,0,1,17.5,25l-2.33-.76a.35.35,0,0,1-.25-.31.59.59,0,0,1,.3-.52.77.77,0,1,0-1-.34.59.59,0,0,1-.06.6.35.35,0,0,1-.38.1L11.33,23a17.9,17.9,0,0,0,6.41,19.71l1.49-2Z" style="fill:#0071ce"/><path d="M23.88,25.88,26,24.39,28,22.92v-3l-3.21-1a10.14,10.14,0,0,0-4.22,3L20.4,25.2Zm1.39,5.24-.77-2.31-.76-2.29-3.61-.71L18.28,28c0,.13,0,.27,0,.41a10.07,10.07,0,0,0,1.93,5.94l2.71.76Zm5.61.42H25.78l-2.36,4,2,2.53a10.17,10.17,0,0,0,6.11,0l1.68-2.62Zm2.05-5-.75,2.25-.77,2.34,2.21,3.72,3.45-1.29a10.07,10.07,0,0,0,1.43-5.19c0-.14,0-.28,0-.41l-2-2.39ZM28.7,23l2,1.43,2.13,1.51L36.14,25l-.22-3.35a10.13,10.13,0,0,0-4.23-2.81l-3,1.1Zm-.32-5.35a10.77,10.77,0,1,1-10.16,7.17h0A10.78,10.78,0,0,1,28.39,17.61Z" style="fill:#004987;fill-rule:evenodd"/><path d="M40.76,12.4l-2.08.16,1.58,1.06,2.08-.16L40.76,12.4Zm.11-.17-.64-2,1.58,1.06.64,2-1.58-1.06Zm1.84,1.83-2.08-.14L42,15.2l2.08.14-1.41-1.28Zm.14-.15-.35-2.06,1.41,1.28.35,2.06-1.41-1.28Zm1.59,2-2-.44L43.61,17l2,.44L44.44,16Zm.16-.13-.05-2.09,1.22,1.47q0,1,.05,2.09L44.6,15.83Zm1.32,2.23-2-.73,1,1.63,2,.73-1-1.63Zm.18-.11.25-2.07,1,1.63-.25,2.07-1-1.63Zm1,2.37-1.88-.92L46,21.11l1.88.92-.83-1.72Zm.19-.09.45-2,.83,1.72-.45,2-.83-1.72ZM48,22.72l-1.72-1.18.57,1.82,1.72,1.18L48,22.72Zm.2-.06.75-2,.57,1.82-.75,2-.57-1.82Zm.37,2.55L47,23.86l.38,1.87,1.6,1.35-.38-1.87Zm.2,0,.94-1.87.38,1.87L49.14,27l-.38-1.87Zm0,2.59-1.37-1.57.09,1.9,1.37,1.57-.09-1.9Zm.2,0L50.21,26l.09,1.9-1.21,1.7L49,27.75Zm-.28,2.56L47.52,28.6l-.1,1.9,1.21,1.71q0-1,.1-1.9Zm.2,0,1.38-1.57q0,1-.1,1.9l-1.38,1.57.1-1.9Zm-.61,2.52L47.38,31,47,32.84l.94,1.87.39-1.87Zm.2,0,1.6-1.35-.38,1.87-1.6,1.35.38-1.87ZM47.6,35.3l-.65-2-.66,1.79.65,2,.66-1.79Zm.19.07,1.78-1.09-.66,1.79-1.78,1.09.66-1.79Zm-1.23,2.26-.45-2-.83,1.72.45,2,.83-1.71Zm.18.09,1.88-.91-.83,1.72-1.88.91.83-1.72Zm-1.51,2.1-.15-2.08L44,39.32l.15,2.08,1.07-1.58Zm.17.12,2-.63-1.07,1.58-2,.63,1.07-1.58Zm-1.76,1.88,0-2.09L42.49,41.2l0,2.09,1.21-1.47Zm.16.13,2-.44L44.64,43l-2,.44L43.81,42Zm-2,1.65.35-2.06-1.41,1.28-.35,2.06,1.41-1.28Zm.14.15L44,43.61l-1.41,1.28L40.54,45l1.41-1.28Zm-2.19,1.39.64-2-1.58,1.06-.64,2,1.58-1.06Zm.11.17,2.08.16-1.58,1.06-2.08-.16,1.58-1.06Zm-1.26-33.6-1.4-1.65,2.1.5,1.4,1.65-2.1-.5ZM32.14,8.28A20.34,20.34,0,0,1,37,9.77l-.2.3a20,20,0,0,0-4.69-1.43V8.28Zm0,1.5a18.88,18.88,0,0,1,6.4,2.45l-.2.29a18.52,18.52,0,0,0-6.2-2.38V9.78Zm0-2.83a21.64,21.64,0,0,1,8,3l-.2.29a21.29,21.29,0,0,0-7.76-2.9V7Z" style="fill:#ffc843;fill-rule:evenodd"/><path d="M16,12.4l2.08.16-1.58,1.06-2.08-.16L16,12.4Zm-.11-.17.64-2L15,11.3l-.64,2,1.58-1.06Zm-1.84,1.83,2.08-.14L14.73,15.2l-2.08.14,1.41-1.28Zm-.14-.15.35-2.06-1.41,1.28-.35,2.06,1.41-1.28Zm-1.59,2,2-.44L13.16,17l-2,.44L12.34,16Zm-.16-.13q0-1,.05-2.09L11,15.2q0,1-.05,2.09l1.22-1.47Zm-1.32,2.23,2-.73-1,1.63-2,.73,1-1.63Zm-.17-.11-.25-2.07-1,1.63.25,2.07,1-1.63Zm-1,2.37,1.88-.92-.83,1.72L8.85,22l.83-1.72Zm-.18-.09-.45-2L8.22,19.9l.45,2,.83-1.72Zm-.71,2.49,1.72-1.18-.57,1.82L8.22,24.54l.57-1.82Zm-.2-.06-.75-2-.57,1.82.75,2,.57-1.82ZM8.22,25.2l1.6-1.35-.38,1.87-1.6,1.35.38-1.87Zm-.2,0L7.08,23.3,6.7,25.16,7.64,27,8,25.16Zm0,2.59,1.37-1.57-.09,1.9L7.88,29.66,8,27.76Zm-.2,0L6.56,26l-.09,1.9,1.21,1.7.09-1.9ZM8,30.31,9.26,28.6q.05,1,.1,1.9L8.15,32.21q-.05-1-.1-1.9Zm-.2,0L6.47,28.75q0,1,.1,1.9l1.38,1.57-.1-1.9Zm.61,2.52L9.39,31l.38,1.87-.94,1.87-.38-1.87Zm-.2,0-1.6-1.35L7,33.4l1.6,1.35-.38-1.87Zm.92,2.42.65-2,.66,1.79-.65,2L9.17,35.3ZM9,35.37,7.2,34.28l.66,1.79,1.78,1.09L9,35.37Zm1.23,2.26.45-2,.83,1.72-.45,2-.83-1.71Zm-.18.09-1.88-.91L9,38.52l1.88.91L10,37.72Zm1.51,2.1.15-2.08,1.07,1.58-.15,2.08-1.07-1.58Zm-.17.12-2-.63,1.07,1.58,2,.63-1.07-1.58Zm1.76,1.88,0-2.09,1.21,1.47q0,1,0,2.09l-1.21-1.47ZM13,42l-2-.44L12.14,43l2,.44L13,42Zm2,1.65-.35-2.06L16,42.82l.35,2.06L15,43.61Zm-.14.15-2.08-.14,1.41,1.28,2.08.14-1.41-1.28ZM17,45.14l-.64-2L18,44.22l.64,2L17,45.14Zm-.11.17-2.08.16,1.58,1.06,2.08-.16L16.9,45.31Zm1.26-33.6,1.4-1.65-2.1.5-1.4,1.65,2.1-.5Zm6.48-3.43a20.35,20.35,0,0,0-4.89,1.49l.2.3a20,20,0,0,1,4.69-1.43V8.28Zm0,1.5a18.87,18.87,0,0,0-6.4,2.45l.2.29a18.52,18.52,0,0,1,6.2-2.38V9.78Zm0-2.83a21.63,21.63,0,0,0-8,3l.2.29a21.28,21.28,0,0,1,7.76-2.9V7Z" style="fill:#ffc843;fill-rule:evenodd"/><path d="M18.25,47.58a.45.45,0,0,0,.24-.21l1-1.94a.42.42,0,0,0,0-.32l.68.35a.44.44,0,0,0-.24.22l-1,1.94a.42.42,0,0,0,0,.32Z" style="fill:#5e0d8b"/><path d="M22.23,46.32a.42.42,0,0,0-.23.23l-.84,2a.48.48,0,0,0,0,.32l-.7-.29a.39.39,0,0,0,.22-.23l.62-1.5-1.12,1.41-.09,0,.25-1.77L19.73,48a.41.41,0,0,0,0,.32l-.55-.23a.39.39,0,0,0,.22-.23l.84-2a.4.4,0,0,0,0-.32l.66.27L20.76,47l.78-1Z" style="fill:#5e0d8b"/><path d="M22.3,48.4l-.15.48a.41.41,0,0,0,0,.32L21.46,49a.43.43,0,0,0,.2-.25l.63-2.09a.41.41,0,0,0,0-.32l.51.15c.67.2.91.46.66,1.29A.84.84,0,0,1,22.3,48.4Zm.08-.26c.33.08.47-.25.58-.64s.08-.61-.18-.69Z" style="fill:#5e0d8b"/><path d="M24.52,49.79l-1.3-.28a.4.4,0,0,0,.18-.27l.47-2.13a.39.39,0,0,0,0-.32l.74.16a.4.4,0,0,0-.18.27l-.46,2.13a.76.76,0,0,0,.8-.42Z" style="fill:#5e0d8b"/><path d="M25.83,50A.29.29,0,0,0,26,49.7l0-.5-.45-.06-.15.5a.32.32,0,0,0,0,.28l-.61-.08a.57.57,0,0,0,.17-.26l.68-2.12a.47.47,0,0,0,0-.31l.87.11a.5.5,0,0,0-.08.3l.1,2.2a.48.48,0,0,0,.12.32Zm.11-1.1,0-1.23-.34,1.18Z" style="fill:#5e0d8b"/><path d="M28.71,47.39a.38.38,0,0,0-.14.3l-.08,2a1.4,1.4,0,0,0,0,.46l-.53,0c-.17-.57-.34-1.15-.51-1.72l-.05,1.39a.38.38,0,0,0,.12.31l-.69,0a.37.37,0,0,0,.14-.29l.09-2.18a.39.39,0,0,0-.11-.31l.69,0L28,48.43l.12.48,0-1.24a.41.41,0,0,0-.11-.31Z" style="fill:#5e0d8b"/><path d="M29.92,49.82a.4.4,0,0,0,.13.29l-.75,0a.42.42,0,0,0,.1-.3l-.1-2.16a.67.67,0,0,0-.48.44l0-.73,1.52-.07,0,.73a.67.67,0,0,0-.52-.39Z" style="fill:#5e0d8b"/><path d="M31.51,50a.29.29,0,0,0,.06-.31l-.14-.48-.45.06,0,.52a.32.32,0,0,0,.11.26l-.61.08a.57.57,0,0,0,.1-.29l.12-2.23a.47.47,0,0,0-.08-.3l.87-.11a.5.5,0,0,0,0,.31l.65,2.11a.48.48,0,0,0,.19.28Zm-.17-1.09L31,47.69l0,1.23Z" style="fill:#5e0d8b"/><path d="M33.83,49.58c-.15-.15-.25.06-.52.12-.74.16-1-.65-1.12-1.25S32,47,32.68,46.9c.31-.07.42,0,.56-.11l.19.9c-.25-.45-.39-.51-.58-.47s-.25.56-.13,1.14.3,1,.53,1,.35-.27.36-.71Z" style="fill:#5e0d8b"/><path d="M34.13,49.46a.45.45,0,0,0,0-.32L33.58,47a.43.43,0,0,0-.2-.26l.74-.2a.44.44,0,0,0,0,.32l.58,2.1a.42.42,0,0,0,.19.26Z" style="fill:#5e0d8b"/><path d="M36.34,48.62a.71.71,0,0,1-.91.32,2.55,2.55,0,0,1-.83-2.36.73.73,0,0,1,.91-.32,2.55,2.55,0,0,1,.83,2.36Zm-1.26-2.89,0-.08.63-.22-.57.62-.35.12Zm.76,2.93c.21-.07.06-.64-.12-1.14s-.41-1-.62-1-.06.64.12,1.14S35.63,48.73,35.84,48.65Z" style="fill:#5e0d8b"/><path d="M37.43,45.26a.38.38,0,0,0,0,.33l.84,1.83a1.4,1.4,0,0,0,.24.39L38,48l-1.23-1.3L37.39,48a.38.38,0,0,0,.24.22l-.63.29a.37.37,0,0,0,0-.32l-.91-2a.39.39,0,0,0-.24-.22l.63-.29.78.81.33.38-.52-1.13a.41.41,0,0,0-.24-.22Z" style="fill:#5e0d8b"/></svg>