<svg id="Layer_1" data-name="Layer 1" xmlns="http://www.w3.org/2000/svg" viewBox="0 0 56.77 56.77"><title>it</title><path d="M51.6,40A49.61,49.61,0,0,0,5.17,40q1.91.4,3.71,1-.77,1.72-1.38,3.46a44.62,44.62,0,0,1,41.76,0q-.61-1.73-1.38-3.46Q49.69,40.45,51.6,40Z" style="fill:#ffc627"/><path d="M49.27,44.78a.33.33,0,0,1-.15,0,44.3,44.3,0,0,0-41.46,0,.33.33,0,0,1-.46-.4c.37-1.05.79-2.11,1.24-3.14-1.09-.32-2.21-.6-3.33-.84A.33.33,0,0,1,5,39.76a49.94,49.94,0,0,1,46.74,0,.33.33,0,0,1-.09.61c-1.12.24-2.24.52-3.33.84.45,1,.87,2.09,1.24,3.14a.33.33,0,0,1-.31.43ZM28.38,38.94a45,45,0,0,1,20.3,4.84c-.33-.89-.7-1.78-1.09-2.65a.33.33,0,0,1,.2-.44c.94-.29,1.89-.54,2.86-.77a49.29,49.29,0,0,0-44.54,0c1,.22,1.92.48,2.86.77a.33.33,0,0,1,.2.44c-.39.87-.75,1.76-1.09,2.65A44.58,44.58,0,0,1,26.27,39Q27.33,38.94,28.38,38.94Z" style="fill:#003b71"/><polygon points="10.65 40.57 13.37 39.37 11.8 37.47 10.65 40.57" style="fill:#970048"/><polygon points="46.21 40.57 43.49 39.37 45.06 37.47 46.21 40.57" style="fill:#970048"/><line x1="10.35" y1="40.45" x2="11.49" y2="37.57" style="fill:#ffd100"/><path d="M10.35,40.77l-.12,0a.33.33,0,0,1-.18-.42l1.14-2.88a.33.33,0,0,1,.61.24l-1.14,2.88A.33.33,0,0,1,10.35,40.77Z" style="fill:#003b71"/><line x1="46.42" y1="40.45" x2="45.29" y2="37.29" style="fill:#ffd100"/><rect x="45.53" y="37.19" width="0.65" height="3.36" transform="translate(-10.42 17.75) rotate(-19.71)" style="fill:#003b71"/><path d="M50.27,18a1.91,1.91,0,0,0-1.56-1.75A30.88,30.88,0,0,1,33.64,8.79C33,8.22,32.4,7.62,31.82,7S30.5,5.52,29.9,4.75l-.05-.07a1.85,1.85,0,0,0-2.93,0l0,.06C26.27,5.52,25.63,6.28,25,7s-1.19,1.22-1.82,1.79A30.88,30.88,0,0,1,8.06,16.28,1.91,1.91,0,0,0,6.5,18c-.06.85-.09,1.64-.09,2.42a35,35,0,0,0,1,8.51c.18.7.38,1.4.59,2.09A34.77,34.77,0,0,0,23.24,50.28c.62.37,1.26.73,1.89,1.06s1.36.68,2.05,1h0l.42.18.6.26a.37.37,0,0,0,.29,0l.6-.26.42-.18h0c.69-.31,1.38-.64,2.05-1s1.28-.69,1.89-1.06A34.76,34.76,0,0,0,48.73,31c.22-.69.42-1.39.59-2.09a35,35,0,0,0,1-8.46C50.36,19.67,50.33,18.88,50.27,18Z" style="fill:#003b71"/><path d="M33,49.44A33.79,33.79,0,0,0,47.8,30.71c.21-.67.41-1.35.57-2a34,34,0,0,0,1-8.23c0-.76,0-1.53-.08-2.35a.94.94,0,0,0-.76-.86A31.86,31.86,0,0,1,33,9.51c-.65-.59-1.28-1.21-1.87-1.84s-1.36-1.53-2-2.32l-.05-.07a.87.87,0,0,0-1.38,0l-.05.07c-.62.8-1.28,1.58-2,2.32s-1.23,1.26-1.87,1.84A31.86,31.86,0,0,1,8.24,17.24a.94.94,0,0,0-.76.86c-.06.83-.08,1.6-.08,2.35a34,34,0,0,0,1,8.27c.17.68.36,1.36.58,2A33.79,33.79,0,0,0,23.75,49.44c.6.36,1.22.71,1.84,1s1.32.66,2,1h0l.41.18.37.16.37-.16.41-.18h0c.67-.3,1.34-.62,2-1S32.43,49.8,33,49.44Z" style="fill:#003b71"/><path d="M49.9,18.06h0a1.54,1.54,0,0,0-1.25-1.41A31.26,31.26,0,0,1,33.39,9.07c-.64-.58-1.26-1.19-1.84-1.81S30.21,5.76,29.61,5l-.05-.07a1.48,1.48,0,0,0-2.34,0L27.17,5c-.6.78-1.26,1.55-1.94,2.28S24,8.49,23.39,9.07A31.26,31.26,0,0,1,8.13,16.65a1.54,1.54,0,0,0-1.25,1.41c-.06.84-.09,1.62-.09,2.39a34.63,34.63,0,0,0,1,8.42c.17.69.37,1.39.59,2.06a34.39,34.39,0,0,0,15,19c.61.37,1.24.72,1.87,1.05s1.34.67,2,1h0l.42.18.6.26.6-.26.42-.18h0c.68-.3,1.37-.63,2-1s1.26-.68,1.87-1.05a34.39,34.39,0,0,0,15-19.07c.22-.68.41-1.38.58-2.07a34.62,34.62,0,0,0,1-8.37C50,19.68,50,18.9,49.9,18.06ZM29.16,51.45l-.41.18-.37.16L28,51.62l-.41-.18h0c-.67-.3-1.35-.62-2-1s-1.24-.67-1.84-1A33.79,33.79,0,0,1,9,30.75c-.21-.66-.41-1.35-.58-2a34,34,0,0,1-1-8.27c0-.76,0-1.53.08-2.35a.94.94,0,0,1,.76-.86A31.86,31.86,0,0,0,23.79,9.52c.65-.59,1.28-1.21,1.87-1.84s1.36-1.53,2-2.32l.05-.07a.87.87,0,0,1,1.38,0l.05.07c.62.8,1.28,1.58,2,2.32S32.33,8.93,33,9.51a31.86,31.86,0,0,0,15.56,7.73.94.94,0,0,1,.76.86c.06.83.08,1.6.08,2.35a34,34,0,0,1-1,8.23c-.17.68-.36,1.36-.57,2A33.79,33.79,0,0,1,33,49.44c-.6.36-1.22.71-1.84,1s-1.32.66-2,1Z" style="fill:#ffd100"/><path d="M33.18,47.05a.29.29,0,0,1-.29-.29V35.61a.29.29,0,0,1,.08-.2l1.62-1.62a.29.29,0,0,1,.4,0l1.62,1.62a.29.29,0,0,1,.08.2v3.24a.29.29,0,0,1-.12.23,1.31,1.31,0,1,0,1.52,0,.29.29,0,0,1-.12-.23V35l-2.08-2.08a.29.29,0,0,1,0-.4l2.71-2.71V27.89a.29.29,0,0,1,.18-.26l.11,0a.28.28,0,0,1,.2.08l2.62,2.62a.29.29,0,0,1,.08.2v.86a.29.29,0,0,1-.12.23,1.31,1.31,0,1,0,1.52,0,.29.29,0,0,1-.12-.23V29.86l-4.39-4.39a.29.29,0,0,1-.08-.2V21L33,15.38a.29.29,0,0,1-.08-.2V12.54a.29.29,0,0,1,.46-.22,33.92,33.92,0,0,0,13.88,6.59.29.29,0,0,1,.22.27c0,.44,0,.85,0,1.28a32.19,32.19,0,0,1-.62,6.28.29.29,0,0,1-.2.22h-.08a.29.29,0,0,1-.2-.08L43.56,24a.29.29,0,0,1-.08-.2V21.68a.29.29,0,0,1,.12-.23,1.31,1.31,0,1,0-1.52,0,.29.29,0,0,1,.12.23V24.5l4.1,4.1a.29.29,0,0,1,.07.28A31.92,31.92,0,0,1,33.34,47,.29.29,0,0,1,33.18,47.05Z" style="fill:#27a8e0"/><path d="M43.76,21.68a1.6,1.6,0,1,0-1.86,0v2.94l4.19,4.19a31.63,31.63,0,0,1-12.91,18V35.61L34.8,34l1.62,1.62v3.24a1.6,1.6,0,1,0,1.86,0v-4l-2.16-2.16,2.79-2.79v-2l2.62,2.62v.86a1.6,1.6,0,1,0,1.86,0V29.74l-4.48-4.48V20.91l-5.73-5.73V12.54a34,34,0,0,0,14,6.65c0,.43,0,.85,0,1.26a31.82,31.82,0,0,1-.61,6.23l-2.83-2.83Z" style="fill:#970048"/><path d="M23.59,47.05a.29.29,0,0,1-.16,0,31.92,31.92,0,0,1-13-18.08.29.29,0,0,1,.07-.28l4.09-4.09V21.73a.29.29,0,0,1,.12-.23,1.31,1.31,0,1,0-1.52,0,.29.29,0,0,1,.12.23V23.9a.29.29,0,0,1-.08.2l-2.82,2.82a.29.29,0,0,1-.2.08h-.08a.29.29,0,0,1-.2-.22,32.19,32.19,0,0,1-.63-6.33c0-.42,0-.84,0-1.28a.29.29,0,0,1,.22-.27,33.92,33.92,0,0,0,13.88-6.59.29.29,0,0,1,.46.22v2.69a.29.29,0,0,1-.08.2l-5.64,5.64v4.23a.29.29,0,0,1-.08.2l-4.39,4.4v1.51a.29.29,0,0,1-.12.23,1.31,1.31,0,1,0,1.52,0,.29.29,0,0,1-.12-.23v-.86a.29.29,0,0,1,.08-.2l2.62-2.62a.28.28,0,0,1,.2-.08l.11,0a.29.29,0,0,1,.18.26v1.87l2.71,2.71a.29.29,0,0,1,0,.4L18.78,35V38.9a.29.29,0,0,1-.12.23,1.31,1.31,0,1,0,1.52,0,.29.29,0,0,1-.12-.23V35.66a.29.29,0,0,1,.08-.2l1.62-1.62a.29.29,0,0,1,.4,0l1.62,1.62a.29.29,0,0,1,.08.2V46.76a.29.29,0,0,1-.29.29Z" style="fill:#27a8e0"/><path d="M10.69,28.85l4.18-4.18V21.73a1.6,1.6,0,1,0-1.86,0V23.9l-2.82,2.82a31.82,31.82,0,0,1-.62-6.27c0-.41,0-.83,0-1.26a34,34,0,0,0,14-6.65v2.69L17.86,21v4.35l-4.48,4.48v1.63a1.6,1.6,0,1,0,1.86,0v-.86l2.62-2.62v2l2.79,2.79-2.16,2.16v4a1.6,1.6,0,1,0,1.86,0V35.66L22,34l1.62,1.62V46.76A31.63,31.63,0,0,1,10.69,28.85Z" style="fill:#970048"/><path d="M29.32,49.27A.29.29,0,0,1,29,49V46.06a.29.29,0,0,1,.12-.23,1.31,1.31,0,1,0-1.52,0,.29.29,0,0,1,.12.23V49a.29.29,0,0,1-.29.29l-.12,0c-.68-.33-1.37-.69-2-1.07a.29.29,0,0,1-.14-.25V35l-5.64-5.64a.29.29,0,0,1-.08-.2V21.73a.29.29,0,0,1,.08-.2l5.64-5.64V11a.29.29,0,0,1,.09-.21c.69-.64,1.36-1.31,2-2a.29.29,0,0,1,.21-.09l.1,0a.29.29,0,0,1,.18.27v2.71a.29.29,0,0,1-.12.23,1.31,1.31,0,1,0,1.52,0,.29.29,0,0,1-.12-.23V8.94a.29.29,0,0,1,.18-.27l.1,0a.29.29,0,0,1,.21.09c.63.69,1.3,1.36,2,2a.29.29,0,0,1,.09.21v4.88l5.64,5.64a.29.29,0,0,1,.08.2v7.43a.29.29,0,0,1-.08.2L31.61,35v13a.29.29,0,0,1-.14.25c-.66.38-1.34.74-2,1.07Z" style="fill:#27a8e0"/><path d="M29.32,49V46.06a1.6,1.6,0,1,0-1.86,0V49q-1-.5-2-1.06v-13l-5.73-5.73V21.73L25.45,16V11q1-1,2-2v2.71a1.6,1.6,0,1,0,1.86,0V8.94q1,1.05,2,2v5l5.73,5.73v7.43l-5.73,5.73V47.92Q30.35,48.48,29.32,49Z" style="fill:#970048"/><path d="M35,29.29a7.55,7.55,0,0,0,.81-5.49.25.25,0,0,0,0,0,7.6,7.6,0,0,0-.39-1.19l0-.1a7.63,7.63,0,0,0-.68-1.24v0q-.2-.29-.42-.56l0,0c-.15-.18-.3-.36-.47-.52h0a7.64,7.64,0,0,0-10.83,0h0c-.17.17-.32.34-.47.53l0,0q-.23.27-.42.57h0a7.62,7.62,0,0,0-.68,1.25l0,.1a7.6,7.6,0,0,0-.39,1.19.26.26,0,0,0,0,0,7.55,7.55,0,0,0,.81,5.48l0,0,0,0a7.68,7.68,0,0,0,4.46,3.49h0l.56.14h.08l.6.09.18,0c.23,0,.46,0,.7,0s.46,0,.7,0l.18,0,.59-.09.09,0,.56-.14h0A7.68,7.68,0,0,0,35,29.36l0,0Z" style="fill:#fff"/><path d="M34.7,28.85l-.7-.42V25.58L34.9,24l.48.06a7.12,7.12,0,0,1-.68,4.78Z" style="fill:#970048"/><polygon points="29.79 31.64 26.99 31.64 25.88 30.09 26.46 29.08 26.75 28.57 30.02 28.57 30.89 30.09 29.79 31.64" style="fill:#970048"/><polygon points="26.75 28.07 26.06 26.79 25.36 25.51 26.06 24.24 26.75 22.96 30.02 22.96 31.41 25.51 30.02 28.07 26.75 28.07" style="fill:#970048"/><polygon points="33.6 25.26 31.86 25.26 30.46 22.69 30.62 22.32 31.1 21.19 33.08 21.41 34.07 23.07 34.47 23.73 33.6 25.26" style="fill:#970048"/><path d="M33.08,20.9,31,20.67l-2.38-1.43v-.86a7.11,7.11,0,0,1,4.68,2Z" style="fill:#970048"/><path d="M28.13,19.24l-2.38,1.43-2.06.23-.24-.54a7.11,7.11,0,0,1,4.68-2Z" style="fill:#970048"/><polygon points="23.69 21.41 25.68 21.19 26.32 22.69 24.92 25.26 23.18 25.26 22.3 23.73 23.69 21.41" style="fill:#970048"/><path d="M21.39,24.07l.48-.06.9,1.58v2.85l-.7.42a7.12,7.12,0,0,1-.68-4.78Z" style="fill:#970048"/><path d="M22.33,29.29l.7-.42L25.4,30.3l1.14,1.6-.31.43A7.17,7.17,0,0,1,22.33,29.29Z" style="fill:#970048"/><path d="M30.54,32.33l-.31-.43,1.14-1.59,2.37-1.43.7.42A7.17,7.17,0,0,1,30.54,32.33Z" style="fill:#970048"/><path d="M46.42,40.45a38.55,38.55,0,0,0-36.07,0l2.46,4.64a33.3,33.3,0,0,1,31.16,0Z" style="fill:#ffd100"/><path d="M44,45.41a.32.32,0,0,1-.15,0,32.94,32.94,0,0,0-30.86,0,.33.33,0,0,1-.44-.14L10.06,40.6a.33.33,0,0,1,.14-.44,38.84,38.84,0,0,1,36.38,0,.33.33,0,0,1,.14.44l-2.46,4.64A.33.33,0,0,1,44,45.41ZM28.39,40.89a33.6,33.6,0,0,1,15.44,3.76L46,40.58a38.18,38.18,0,0,0-35.19,0l2.15,4.07A33.6,33.6,0,0,1,28.39,40.89Z" style="fill:#003b71"/><path d="M12.13,41.17a.08.08,0,0,1,0-.11l.66-.34a.4.4,0,0,1,.54.17l.76,1.45a.4.4,0,0,1-.17.54l-.66.34a.08.08,0,0,1-.11,0Zm1.18,1.59a.1.1,0,0,0,.13,0l.37-.2a.1.1,0,0,0,0-.13L13.09,41A.1.1,0,0,0,13,41l-.37.2a.1.1,0,0,0,0,.13Z" style="fill:#970048"/><path d="M14.46,40a.08.08,0,0,1,.11,0l.06.13a.08.08,0,0,1,0,.11l-.64.28a.1.1,0,0,0,0,.13l.2.45a.1.1,0,0,0,.12.05l.48-.21a.08.08,0,0,1,.11,0l.06.13a.08.08,0,0,1,0,.11l-.48.21a.09.09,0,0,0,0,.12l.26.6a.09.09,0,0,0,.12.05l.65-.28a.08.08,0,0,1,.11,0l.06.13a.08.08,0,0,1,0,.11l-.64.28a.4.4,0,0,1-.53-.21l-.66-1.5a.4.4,0,0,1,.2-.53Z" style="fill:#970048"/><path d="M15.93,40.06a.08.08,0,0,1-.1,0l0-.12a.09.09,0,0,0-.12-.06l-.41.15a.09.09,0,0,0-.06.12l.17.46a.09.09,0,0,0,.12.06l.41-.15a.4.4,0,0,1,.51.23l.23.62a.4.4,0,0,1-.23.51L16,42a.4.4,0,0,1-.51-.24l0-.12a.08.08,0,0,1,0-.1l.14-.05a.08.08,0,0,1,.1,0l0,.12a.1.1,0,0,0,.12.06l.41-.15a.1.1,0,0,0,.06-.12l-.23-.62a.1.1,0,0,0-.12-.06l-.41.15a.4.4,0,0,1-.51-.23l-.17-.46a.4.4,0,0,1,.23-.51l.41-.15a.4.4,0,0,1,.51.24l0,.12a.08.08,0,0,1,0,.1Z" style="fill:#970048"/><path d="M17,39.11l.4.21a.3.3,0,0,1,.14.17l.53,1.7a.08.08,0,0,1-.05.1l-.14,0a.08.08,0,0,1-.1-.05l-.22-.71a.09.09,0,0,0-.12-.06l-.41.13a.09.09,0,0,0-.06.12l.22.7a.08.08,0,0,1-.05.1l-.14,0a.08.08,0,0,1-.1-.05l-.53-1.7a.31.31,0,0,1,0-.22l.22-.4a.28.28,0,0,1,.17-.13A.31.31,0,0,1,17,39.11Zm-.17,1.19a.1.1,0,0,0,.12.06l.41-.13a.09.09,0,0,0,.06-.11l-.15-.48a.13.13,0,0,0-.05-.08l-.24-.13a.1.1,0,0,0-.09,0,.12.12,0,0,0-.07.06l-.13.24a.13.13,0,0,0,0,.09Z" style="fill:#970048"/><path d="M18.39,40.25a.09.09,0,0,0-.07.11l.19.71a.08.08,0,0,1-.06.1l-.14,0a.08.08,0,0,1-.1-.06l-.49-1.89a.4.4,0,0,1,.28-.49l.41-.11a.4.4,0,0,1,.48.29l.18.7A.41.41,0,0,1,19,40a0,0,0,0,0,0,0l.12.07a.3.3,0,0,1,.14.18l.14.53a.08.08,0,0,1-.06.1l-.14,0a.08.08,0,0,1-.1-.06l-.13-.5a.12.12,0,0,0,0-.08l-.24-.14a.09.09,0,0,0-.08,0Zm-.19-.36a.09.09,0,0,0,.11.06l.41-.11a.1.1,0,0,0,.07-.11L18.6,39a.1.1,0,0,0-.11-.07l-.41.11a.09.09,0,0,0-.07.11Z" style="fill:#970048"/><path d="M19.76,39.91a.09.09,0,0,0-.07.11l.16.72a.08.08,0,0,1-.06.1l-.14,0a.08.08,0,0,1-.1-.06l-.41-1.91a.4.4,0,0,1,.3-.47l.41-.09a.4.4,0,0,1,.47.31l.15.71a.41.41,0,0,1-.11.37,0,0,0,0,0,0,0l.12.08a.3.3,0,0,1,.13.18l.11.53a.08.08,0,0,1-.06.1l-.14,0a.08.08,0,0,1-.1-.06l-.11-.5a.12.12,0,0,0,0-.08l-.23-.15a.09.09,0,0,0-.07,0Zm-.17-.36a.09.09,0,0,0,.11.07l.41-.09a.1.1,0,0,0,.07-.11L20,38.71a.1.1,0,0,0-.11-.07l-.41.09a.09.09,0,0,0-.07.11Z" style="fill:#970048"/><path d="M22,40a.4.4,0,0,1-.32.46l-.42.07a.4.4,0,0,1-.46-.33l-.28-1.61a.4.4,0,0,1,.33-.46l.42-.07a.4.4,0,0,1,.46.32Zm-.91.16a.09.09,0,0,0,.11.08l.43-.07a.09.09,0,0,0,.08-.11l-.28-1.62a.09.09,0,0,0-.11-.08l-.42.07a.1.1,0,0,0-.08.11Z" style="fill:#970048"/><path d="M23.1,39.72a.08.08,0,0,1,.07-.09l.14,0a.08.08,0,0,1,.09.07l.06.44a.08.08,0,0,1-.07.09l-1,.14a.08.08,0,0,1-.09-.07L22,38a.08.08,0,0,1,.07-.09l.14,0a.08.08,0,0,1,.09.07l.26,1.94a.1.1,0,0,0,.11.08L23,40a.09.09,0,0,0,.08-.1Z" style="fill:#970048"/><path d="M24.43,39.58a.08.08,0,0,1,.07-.09h.14a.08.08,0,0,1,.09.07l0,.45a.08.08,0,0,1-.07.09l-1.05.11a.08.08,0,0,1-.09-.07l-.23-2.26a.08.08,0,0,1,.07-.09h.14a.08.08,0,0,1,.09.07l.2,1.95a.1.1,0,0,0,.1.08l.42,0a.09.09,0,0,0,.08-.1Z" style="fill:#970048"/><path d="M26.06,39.58a.4.4,0,0,1-.37.43l-.43,0a.4.4,0,0,1-.43-.37L24.72,38a.4.4,0,0,1,.37-.42l.43,0a.4.4,0,0,1,.43.37Zm-.93.07a.09.09,0,0,0,.1.09l.43,0a.09.09,0,0,0,.09-.1L25.64,38a.09.09,0,0,0-.1-.09l-.43,0A.1.1,0,0,0,25,38Z" style="fill:#970048"/><path d="M27.17,38.11a.08.08,0,0,1-.08-.08V37.9a.09.09,0,0,0-.1-.09l-.43,0a.09.09,0,0,0-.09.1l0,.49a.09.09,0,0,0,.1.09l.43,0a.4.4,0,0,1,.41.38l0,.66a.4.4,0,0,1-.38.41l-.44,0a.4.4,0,0,1-.41-.39v-.13a.08.08,0,0,1,.08-.08h.15a.08.08,0,0,1,.08.08v.13a.1.1,0,0,0,.1.09l.43,0a.1.1,0,0,0,.09-.1l0-.66a.1.1,0,0,0-.1-.09l-.44,0a.4.4,0,0,1-.41-.38l0-.49a.4.4,0,0,1,.38-.41l.44,0a.4.4,0,0,1,.41.39V38a.08.08,0,0,1-.08.08Z" style="fill:#970048"/><path d="M28.69,39.52a.1.1,0,0,0,.09.1.08.08,0,0,1,.08.08v.14a.08.08,0,0,1-.08.08h-.49a.08.08,0,0,1-.08-.08V39.7a.08.08,0,0,1,.08-.08.1.1,0,0,0,.09-.1V37.89a.1.1,0,0,0-.09-.1.08.08,0,0,1-.08-.08v-.14a.08.08,0,0,1,.08-.08h.49a.08.08,0,0,1,.08.08v.14a.08.08,0,0,1-.08.08.1.1,0,0,0-.09.1Z" style="fill:#970048"/><path d="M29.35,39.85a.08.08,0,0,1-.08.08h-.14a.08.08,0,0,1-.08-.08l.07-2.27a.08.08,0,0,1,.08-.08l.74,0a.4.4,0,0,1,.39.41l-.06,2a.08.08,0,0,1-.08.08H30a.08.08,0,0,1-.08-.08l.06-2a.09.09,0,0,0-.09-.1H29.5a.09.09,0,0,0-.1.09Z" style="fill:#970048"/><path d="M30.51,40a.08.08,0,0,1-.07-.08l.12-1.95a.4.4,0,0,1,.42-.37l.74,0a.08.08,0,0,1,.07.08v.14a.08.08,0,0,1-.08.07l-.74,0a.1.1,0,0,0-.1.09l0,.49a.1.1,0,0,0,.08.1l.56,0a.08.08,0,0,1,.07.08v.14a.08.08,0,0,1-.08.07l-.56,0a.09.09,0,0,0-.1.09l-.06,1a.08.08,0,0,1-.08.07Z" style="fill:#970048"/><path d="M33,39.77a.4.4,0,0,1-.44.36l-.43,0a.4.4,0,0,1-.36-.44L31.92,38a.4.4,0,0,1,.44-.36l.43,0a.4.4,0,0,1,.36.43Zm-.92-.08a.09.09,0,0,0,.08.1l.43,0a.09.09,0,0,0,.1-.08l.16-1.63a.09.09,0,0,0-.08-.1l-.43,0a.1.1,0,0,0-.11.08Z" style="fill:#970048"/><path d="M33.61,39.33a.09.09,0,0,0-.11.08l-.1.73a.08.08,0,0,1-.09.07l-.14,0a.08.08,0,0,1-.07-.09l.25-1.94a.4.4,0,0,1,.44-.35l.42.06a.4.4,0,0,1,.34.45l-.09.72a.41.41,0,0,1-.23.31,0,0,0,0,0,0,0l.09.11a.3.3,0,0,1,.06.21l-.07.54a.08.08,0,0,1-.09.07l-.14,0a.08.08,0,0,1-.07-.09l.07-.51a.12.12,0,0,0,0-.09l-.17-.22a.09.09,0,0,0-.06,0Zm0-.4a.09.09,0,0,0,.08.1l.42.05a.1.1,0,0,0,.11-.08l.09-.72a.1.1,0,0,0-.08-.11l-.42-.05a.09.09,0,0,0-.11.08Z" style="fill:#970048"/><path d="M35.24,38.33a.09.09,0,0,0-.11.08l-.34,1.92a.08.08,0,0,1-.09.07l-.14,0a.08.08,0,0,1-.07-.1l.34-1.92a.4.4,0,0,1,.46-.32l.27,0a.39.39,0,0,1,.22.12h0a.39.39,0,0,1,.24,0l.27,0a.4.4,0,0,1,.32.46l-.34,1.92a.08.08,0,0,1-.1.07l-.14,0a.08.08,0,0,1-.06-.1l.34-1.92a.09.09,0,0,0-.08-.11l-.27,0a.09.09,0,0,0-.11.08l-.34,1.92a.08.08,0,0,1-.09.07l-.14,0a.08.08,0,0,1-.06-.1l.34-1.92a.1.1,0,0,0-.08-.11Z" style="fill:#970048"/><path d="M37.77,38.57,38,39a.3.3,0,0,1,0,.22l-.4,1.74a.08.08,0,0,1-.1.06l-.14,0a.08.08,0,0,1-.06-.1l.16-.72a.09.09,0,0,0-.07-.11l-.42-.1a.09.09,0,0,0-.11.07l-.16.72a.08.08,0,0,1-.1.06l-.14,0a.08.08,0,0,1-.06-.1l.4-1.74a.31.31,0,0,1,.13-.18l.39-.24a.28.28,0,0,1,.21,0A.31.31,0,0,1,37.77,38.57Zm-.75.94a.1.1,0,0,0,.07.11l.42.1a.1.1,0,0,0,.11-.07l.11-.49a.13.13,0,0,0,0-.09l-.15-.23a.1.1,0,0,0-.07-.06.12.12,0,0,0-.1,0l-.24.15a.13.13,0,0,0,0,.08Z" style="fill:#970048"/><path d="M38.38,41.11a.08.08,0,0,1-.1.06l-.14,0a.08.08,0,0,1-.06-.1l.51-1.89a.1.1,0,0,0-.07-.12L38.26,39a.08.08,0,0,1-.06-.1l0-.14a.08.08,0,0,1,.1-.06l1,.28a.08.08,0,0,1,.06.1l0,.14a.08.08,0,0,1-.1.06L39,39.16a.09.09,0,0,0-.11.07Z" style="fill:#970048"/><path d="M39.47,41.1a.1.1,0,0,0,.06.12.08.08,0,0,1,.06.1l0,.14a.08.08,0,0,1-.1.05L39,41.36a.08.08,0,0,1-.06-.1l0-.14a.08.08,0,0,1,.1-.05.1.1,0,0,0,.12-.07l.48-1.56a.1.1,0,0,0-.06-.12.08.08,0,0,1-.06-.1l0-.14a.08.08,0,0,1,.1-.05l.46.14a.08.08,0,0,1,.06.1l0,.14a.08.08,0,0,1-.1.05.1.1,0,0,0-.12.07Z" style="fill:#970048"/><path d="M40.73,41.39a.08.08,0,0,1,.1,0l.13,0a.08.08,0,0,1,.05.1l0,.12a.4.4,0,0,1-.51.24l-.41-.14a.4.4,0,0,1-.24-.51l.55-1.54a.4.4,0,0,1,.51-.24l.41.14a.4.4,0,0,1,.24.51l0,.12a.08.08,0,0,1-.11,0l-.13,0a.08.08,0,0,1,0-.1l0-.12a.1.1,0,0,0-.06-.12l-.41-.14a.1.1,0,0,0-.12.06L40.1,41.3a.09.09,0,0,0,0,.12l.42.15a.1.1,0,0,0,.12-.06Z" style="fill:#970048"/><path d="M42.24,42.15a.4.4,0,0,1-.52.21l-.4-.17a.4.4,0,0,1-.21-.52l.64-1.51a.4.4,0,0,1,.52-.21l.4.17a.4.4,0,0,1,.21.52Zm-.86-.36a.09.09,0,0,0,.05.12l.4.17A.09.09,0,0,0,42,42l.64-1.51a.09.09,0,0,0,0-.12l-.4-.17a.1.1,0,0,0-.13,0Z" style="fill:#970048"/><path d="M43.91,41.38a.08.08,0,0,1,0-.11l.06-.12a.09.09,0,0,0,0-.13l-.39-.2a.09.09,0,0,0-.13,0l-.22.44a.09.09,0,0,0,0,.13l.39.2a.4.4,0,0,1,.18.53l-.29.59a.4.4,0,0,1-.53.18l-.39-.2a.4.4,0,0,1-.17-.54l.06-.12a.08.08,0,0,1,.11,0l.13.07a.08.08,0,0,1,0,.11l-.06.12a.1.1,0,0,0,0,.13l.39.2a.1.1,0,0,0,.13,0l.29-.59a.1.1,0,0,0,0-.13l-.39-.2a.4.4,0,0,1-.18-.53l.22-.44a.4.4,0,0,1,.53-.18l.39.2a.4.4,0,0,1,.17.54l-.06.11a.08.08,0,0,1-.11,0Z" style="fill:#970048"/><path d="M37.74,38.36a.08.08,0,0,1,0-.14L38,38a.08.08,0,1,1,.08.13l-.35.21Z" style="fill:#970048"/></svg>