<svg id="Layer_1" data-name="Layer 1" xmlns="http://www.w3.org/2000/svg" viewBox="0 0 56.77 56.77"><title>marketing</title><circle cx="28.39" cy="28.39" r="24.43" style="fill:#245d38"/><circle cx="28.39" cy="28.39" r="23.92" style="fill:#c4d600"/><circle cx="28.39" cy="28.39" r="23.11" style="fill:#245d38"/><path d="M13.63,12.52l.75-.59,1.39.51L15.59,11l.75-.59,2,2.55-.7.56L16.49,12l.14,1.51h0l-1.43-.48,1.15,1.46-.69.55Z" style="fill:#fff"/><path d="M18.25,9.28,19,8.89l2.71,2.3-.86.44-.47-.41-1.12.57.05.62-.85.43Zm1.6,1.42L19.11,10l.09,1Z" style="fill:#fff"/><path d="M21,8l1.48-.43a1.42,1.42,0,0,1,1.12,0,1,1,0,0,1,.49.65h0a1,1,0,0,1-.36,1.15l1.06.87-1,.29-.9-.76-.38.11.28.95-.87.25Zm1.87,1.08c.29-.09.42-.28.36-.51h0c-.07-.25-.29-.32-.58-.23l-.57.16.22.75Z" style="fill:#fff"/><path d="M24.66,7.07l.9-.1.14,1.31,1-1.43,1.06-.11L26.65,8.26,28.12,10,27,10.08,26.1,9l-.29.4.09.84-.9.1Z" style="fill:#fff"/><path d="M28.45,6.76l2.61.16,0,.77-1.72-.1,0,.49,1.56.09,0,.71-1.56-.09,0,.51,1.74.1,0,.77L28.25,10Z" style="fill:#fff"/><path d="M32.53,8l-1-.21L31.75,7l2.78.63-.17.77-1-.21-.54,2.4-.88-.2Z" style="fill:#fff"/><path d="M35.2,7.89l.85.3L35,11.25l-.85-.3Z" style="fill:#fff"/><path d="M36.94,8.49l.75.39.4,2.14.79-1.53.79.41-1.49,2.89-.7-.36-.42-2.22-.82,1.58-.79-.41Z" style="fill:#fff"/><path d="M39.45,11.69h0a1.69,1.69,0,0,1,2.42-.25,1.9,1.9,0,0,1,.75,1.19l-.81.17a1.15,1.15,0,0,0-.43-.73.85.85,0,0,0-1.2.19h0a.86.86,0,0,0,.14,1.25.92.92,0,0,0,.49.22l.24-.31-.5-.4.41-.52,1.18.92-.9,1.15a2.2,2.2,0,0,1-1.42-.48A1.67,1.67,0,0,1,39.45,11.69Z" style="fill:#fff"/><circle cx="28.39" cy="28.39" r="17.1" style="fill:#fff"/><circle cx="28.39" cy="28.39" r="16.22" style="fill:#00953a"/><polygon points="36.48 44.09 37.8 45.38 39.44 44.53 38.61 46.19 39.93 47.49 38.1 47.21 37.27 48.86 36.97 47.04 35.14 46.76 36.78 45.91 36.48 44.09" style="fill:#fff"/><polygon points="41.08 40.67 42.74 41.49 44.02 40.16 43.76 41.99 45.42 42.8 43.6 43.12 43.34 44.95 42.48 43.32 40.65 43.64 41.94 42.31 41.08 40.67" style="fill:#fff"/><polygon points="44.34 35.98 46.17 36.22 46.97 34.55 47.31 36.37 49.14 36.61 47.52 37.49 47.85 39.31 46.51 38.04 44.88 38.92 45.68 37.25 44.34 35.98" style="fill:#fff"/><polygon points="45.94 30.49 47.76 30.13 47.98 28.3 48.88 29.91 50.7 29.56 49.44 30.91 50.33 32.53 48.66 31.75 47.4 33.1 47.62 31.27 45.94 30.49" style="fill:#fff"/><polygon points="45.77 24.83 47.38 23.91 47.01 22.1 48.37 23.35 49.98 22.44 49.22 24.12 50.58 25.37 48.74 25.16 47.98 26.85 47.61 25.03 45.77 24.83" style="fill:#fff"/><polygon points="20.29 44.09 18.97 45.38 17.33 44.53 18.16 46.19 16.84 47.49 18.67 47.21 19.5 48.86 19.8 47.04 21.63 46.76 19.99 45.91 20.29 44.09" style="fill:#fff"/><polygon points="15.7 40.67 14.04 41.49 12.75 40.16 13.01 41.99 11.35 42.8 13.17 43.12 13.43 44.95 14.3 43.32 16.12 43.64 14.83 42.31 15.7 40.67" style="fill:#fff"/><polygon points="12.43 35.98 10.6 36.22 9.8 34.55 9.46 36.37 7.63 36.61 9.26 37.49 8.92 39.31 10.26 38.04 11.89 38.92 11.09 37.25 12.43 35.98" style="fill:#fff"/><polygon points="10.83 30.49 9.02 30.13 8.79 28.3 7.89 29.91 6.08 29.56 7.34 30.91 6.44 32.53 8.12 31.75 9.38 33.1 9.15 31.27 10.83 30.49" style="fill:#fff"/><polygon points="11.06 24.77 9.45 23.86 9.82 22.05 8.46 23.29 6.85 22.38 7.61 24.07 6.25 25.31 8.09 25.11 8.85 26.79 9.22 24.98 11.06 24.77" style="fill:#fff"/><path d="M41.84,15.77a67.15,67.15,0,0,0-26.91,0v12A23.89,23.89,0,0,0,28.39,49.22h0A23.89,23.89,0,0,0,41.84,27.73v-12Z" style="fill:#c4d600"/><path d="M28.39,47.18a21,21,0,0,0,8.44-7.78A21.53,21.53,0,0,0,40,28.13V17.59a57.6,57.6,0,0,0-23.23,0V28.13a21.53,21.53,0,0,0,3.18,11.27A21,21,0,0,0,28.39,47.18Z" style="fill:#245d38"/><path d="M40.32,17.12a58.14,58.14,0,0,0-23.87,0l-.21,0v11A22.06,22.06,0,0,0,19.5,39.69a21.48,21.48,0,0,0,8.77,8l.12.06.12-.06a21.48,21.48,0,0,0,8.77-8,22.06,22.06,0,0,0,3.25-11.55v-11Zm-23.55,11V17.59a57.6,57.6,0,0,1,23.23,0V28.13a21.53,21.53,0,0,1-3.18,11.27,21,21,0,0,1-8.44,7.78,21,21,0,0,1-8.44-7.78A21.53,21.53,0,0,1,16.77,28.13Z" style="fill:#fff"/><path d="M25.62,40.63c-.72,0-.72-1.33,0-1.33h4.76c.72,0,.72,1.33,0,1.33Z" style="fill:#c4d600"/><path d="M25.9,41.11h4.15A2.59,2.59,0,0,1,28,42.49,2.86,2.86,0,0,1,25.9,41.11Z" style="fill:#c4d600"/><path d="M24.74,38.81a.67.67,0,1,1,0-1.33h6.52a.67.67,0,1,1,0,1.33Z" style="fill:#c4d600"/><path d="M23.83,37v-3.9L36.06,20.86l-.49-.49,3-1-1,3-.56-.56-2.44,2.44c1.28,2.84.29,5.27-2.34,9.32V37H30.09a.62.62,0,1,1,0-1.24h.83V33.14c2.92-4.43,3.26-6.14,2.63-8l-8.46,8.46v2.17h1A.62.62,0,1,1,26,37,16.77,16.77,0,0,1,23.83,37Z" style="fill:#c4d600"/><path d="M22.37,31.28c1-1-.32.3,8.94-8.76L30.78,22l3-1-1,3-.52-.52c-6.64,6.43-4.6,4.42-9.14,9C22.77,31.92,22.65,31.73,22.37,31.28Z" style="fill:#c4d600"/><path d="M20.68,26.83a8.9,8.9,0,0,0,1.24,3.64l5.81-5.84.57.57,1-3-3,1,.48.48-4.56,4.59c-1.64-4.3,3.3-8.54,8-6.6l.95-.93C26.42,18.43,20.68,21.74,20.68,26.83Z" style="fill:#c4d600"/></svg>