<svg id="Layer_1" data-name="Layer 1" xmlns="http://www.w3.org/2000/svg" viewBox="0 0 56.77 56.77"><title>meeting-events</title><circle cx="28.39" cy="28.39" r="24.22" style="fill:#007cba"/><circle cx="28.39" cy="28.39" r="23.54" style="fill:#211645"/><circle cx="28.39" cy="28.39" r="18.07" style="fill:#007cba"/><circle cx="28.39" cy="28.39" r="17.36" style="fill:#ffda64"/><path d="M10.37,22.18,7.23,20.87l.45-1.08L9.57,20,8.1,18.79l.45-1.08L11.69,19l-.34.82-1.76-.74,1.54,1.26-.22.53-2-.2,1.76.74-.31.74h0Z" style="fill:#f1f1f1"/><path d="M12,18.5,9.21,16.61l1.25-1.88.69.46-.76,1.14.37.25.73-1.09.67.45L11.44,17l.43.28.76-1.14.67.45L12,18.5h0Z" style="fill:#f1f1f1"/><path d="M13.67,16.16l-2.51-2.31,1.53-1.66.61.57-.93,1,.33.3.89-1,.59.55-.89,1,.38.35.93-1,.59.55-1.53,1.66h0Z" style="fill:#f1f1f1"/><path d="M16.16,13.69l-1.6-2-.7.56-.52-.65,2.12-1.68.52.65-.7.55,1.6,2-.72.57h0Z" style="fill:#f1f1f1"/><path d="M18,12.32,16.24,9.41,17,8.94l1.78,2.91-.78.48h0Z" style="fill:#f1f1f1"/><path d="M19.39,11.47,18,8.34,18.89,8,20.38,9l-.64-1.45.8-.35,1.37,3.12-.76.34L19.47,9.5l.71,1.62-.79.35h0Z" style="fill:#f1f1f1"/><path d="M23.75,9.9a1.21,1.21,0,0,1-1.2-.2A2.22,2.22,0,0,1,22,8.54a2,2,0,0,1,0-1.36,1.48,1.48,0,0,1,1.08-.71,2,2,0,0,1,1.09,0l-.29.85a1.22,1.22,0,0,0-.63,0,.52.52,0,0,0-.39.25,1.16,1.16,0,0,0,0,.77,1.56,1.56,0,0,0,.3.72.47.47,0,0,0,.47.08A.39.39,0,0,0,24,8.91a.72.72,0,0,0,0-.39l0-.06-.57.14-.18-.71,1.38-.34.15.61a1.71,1.71,0,0,1,0,1.16,1.35,1.35,0,0,1-1,.58h0Z" style="fill:#f1f1f1"/><path d="M26.73,9.41a2.47,2.47,0,0,1-1.44-.21l.4-.73a1.7,1.7,0,0,0,.94.17A.67.67,0,0,0,27,8.55.19.19,0,0,0,27,8.37a.21.21,0,0,0-.15-.21,3.94,3.94,0,0,0-.56-.1,1.42,1.42,0,0,1-.76-.3.9.9,0,0,1-.29-.64c0-.73.36-1.13,1.19-1.19h.66a2.12,2.12,0,0,1,.5.13l-.33.79a1.69,1.69,0,0,0-.73-.09c-.29,0-.42.09-.4.25a.17.17,0,0,0,.12.17,2,2,0,0,0,.38.08,2,2,0,0,1,.93.3.93.93,0,0,1,.32.72.94.94,0,0,1-.24.77,1.46,1.46,0,0,1-1,.36h0Z" style="fill:#f1f1f1"/><path d="M29.7,9.13a.86.86,0,0,1-.24-.83.94.94,0,0,1,.26-.58,1.27,1.27,0,0,1,.5-.27,1.27,1.27,0,0,1-.11-.67.88.88,0,0,1,.38-.67A1.11,1.11,0,0,1,31.25,6a1,1,0,0,1,.67.3.94.94,0,0,1,.15.75.87.87,0,0,1-.24.52,1.37,1.37,0,0,1-.45.28l.12.15.24.34a3.67,3.67,0,0,0,.3-.88l.72.18A3.52,3.52,0,0,1,32.19,9l.52.72-1.08-.15-.1-.13a2.13,2.13,0,0,1-.91,0A1.73,1.73,0,0,1,29.7,9.13Zm1.37-.35-.32-.44-.17-.25a.4.4,0,0,0-.26.29.33.33,0,0,0,0,.23c0,.07.16.12.37.15ZM30.95,6.9a.73.73,0,0,0,.06.36.42.42,0,0,0,.29-.31c0-.13,0-.2-.15-.21s-.19,0-.2.16h0Z" style="fill:#f1f1f1"/><path d="M34.06,10.11l1.19-3.19,2.12.79-.29.78L35.79,8l-.15.42,1.23.46-.28.76-1.23-.46-.18.48,1.28.48-.28.76-2.12-.79h0Z" style="fill:#f1f1f1"/><path d="M37.43,11.56l.78-3.5.82.47-.52,2.15,1.57-1.55.8.46-2.61,2.46-.85-.49h0Z" style="fill:#f1f1f1"/><path d="M39.55,12.83l2.15-2.65,1.75,1.42-.53.65-1.06-.86-.28.35,1,.83-.51.63-1-.83-.32.4,1.06.86-.51.63-1.75-1.42h0Z" style="fill:#f1f1f1"/><path d="M41.74,14.64l2.56-2.25.63.72-.57,1.74,1.19-1,.58.65-2.56,2.25L43,16.09l.63-2-1.33,1.17-.57-.65h0Z" style="fill:#f1f1f1"/><path d="M44.28,17.82l2.2-1.34L46,15.71l.71-.43,1.41,2.31-.71.43L47,17.26l-2.2,1.34-.48-.79h0Z" style="fill:#f1f1f1"/><path d="M45.8,20.86a2.47,2.47,0,0,1-.22-1.43l.82.17a1.7,1.7,0,0,0,.11,1,.67.67,0,0,0,.19.3.19.19,0,0,0,.2,0,.21.21,0,0,0,.16-.2,4,4,0,0,0-.06-.57,1.42,1.42,0,0,1,.06-.81.9.9,0,0,1,.53-.46c.69-.25,1.19,0,1.48.79l.19.63a2.13,2.13,0,0,1,0,.51l-.86-.08a1.68,1.68,0,0,0-.13-.73c-.09-.28-.21-.38-.35-.31a.17.17,0,0,0-.13.17,2,2,0,0,0,0,.39,2,2,0,0,1,0,1,1.14,1.14,0,0,1-1.4.52,1.46,1.46,0,0,1-.63-.81h0Z" style="fill:#f1f1f1"/><path d="M11.06,42.93l2.55-2.27,1.5,1.69-.62.56-.9-1-.39.35.86,1-.6.54-.86-1-.93.83-.6-.68h0Z" style="fill:#f1f1f1"/><path d="M13.54,44.88a2.19,2.19,0,0,1,.54-1.12,2.2,2.2,0,0,1,1-.78,1.34,1.34,0,0,1,1.29.35A1.33,1.33,0,0,1,17,44.5a2.2,2.2,0,0,1-.55,1.12,2.19,2.19,0,0,1-1,.78,1.33,1.33,0,0,1-1.28-.34A1.34,1.34,0,0,1,13.54,44.88Zm1.13.55a.47.47,0,0,0,.52.1,2.26,2.26,0,0,0,.82-1A.47.47,0,0,0,15.8,44a.48.48,0,0,0-.52-.11,2.36,2.36,0,0,0-.82,1,.48.48,0,0,0,.22.49h0Z" style="fill:#f1f1f1"/><path d="M16.37,47a2.87,2.87,0,0,1,1.16-2.13,1.34,1.34,0,0,1,1.33.12c.53.31.81.66.81,1a2.87,2.87,0,0,1-1.16,2.13,1.33,1.33,0,0,1-1.32-.12C16.66,47.75,16.39,47.4,16.37,47Zm1.21.35a.47.47,0,0,0,.53,0,2.25,2.25,0,0,0,.63-1.16.47.47,0,0,0-.29-.44.48.48,0,0,0-.53,0,2.36,2.36,0,0,0-.63,1.16c0,.17.09.32.3.44h0Z" style="fill:#f1f1f1"/><path d="M19.86,49.25l.88-2.42-.84-.3.28-.79,2.54.92-.28.79-.84-.3-.88,2.42-.87-.31h0Z" style="fill:#f1f1f1"/><path d="M22.21,50l.7-3.33,1.33.28a1.34,1.34,0,0,1,.83.43.8.8,0,0,1,.12.67c-.09.38-.26.6-.51.65.27.16.36.46.26.89-.15.63-.6.86-1.37.69Zm1-.52.47.1c.19,0,.31-.05.35-.26s0-.33-.22-.37l-.47-.1Zm.27-1.27.42.09a.27.27,0,0,0,.34-.27c.06-.18,0-.3-.21-.35l-.42-.09-.13.62h0Z" style="fill:#f1f1f1"/><path d="M26.6,47.31l1,.06.86,3.49-.94-.06-.09-.41-1-.06-.14.4-.91-.06Zm0,2.25.62,0-.24-1-.38,1h0Z" style="fill:#f1f1f1"/><path d="M29.1,50.82l-.23-3.4.9-.06L30,50l1.28-.09.06.81-2.18.15h0Z" style="fill:#f1f1f1"/><path d="M31.92,50.57l-.63-3.35.89-.17.48,2.55,1.26-.24.15.79-2.15.41h0Z" style="fill:#f1f1f1"/><path d="M36.94,49.28a1.31,1.31,0,0,1-1.23,0A2.13,2.13,0,0,1,35,48.16a2.1,2.1,0,0,1-.16-1.28c.09-.37.41-.67,1-.89a1.78,1.78,0,0,1,1-.1l-.19.88a1,1,0,0,0-.54.06.48.48,0,0,0-.34.29,1.23,1.23,0,0,0,.12.75,1.29,1.29,0,0,0,.39.64.48.48,0,0,0,.46,0,1,1,0,0,0,.46-.36l.67.51a1.73,1.73,0,0,1-.36.36l-.54.27h0Z" style="fill:#f1f1f1"/><path d="M38.59,48.55l-1.62-3,.8-.43L39,47.41l1.13-.61.38.71-1.92,1h0Z" style="fill:#f1f1f1"/><path d="M42.22,46.38a1.47,1.47,0,0,1-1.06.38,1.32,1.32,0,0,1-.83-.58L39,44.45l.73-.55L41,45.56a.7.7,0,0,0,.34.29.46.46,0,0,0,.39-.14.47.47,0,0,0,.23-.33.71.71,0,0,0-.19-.41l-1.25-1.66.71-.54,1.31,1.73a1.32,1.32,0,0,1,.34,1,1.48,1.48,0,0,1-.66.92h0Z" style="fill:#f1f1f1"/><path d="M44,44.88l-2.51-2.31.92-1a1.35,1.35,0,0,1,.8-.49.8.8,0,0,1,.64.24c.28.27.38.53.3.78.28-.15.58-.08.9.23q.7.67-.1,1.53Zm-.88-2,.29-.32a.27.27,0,0,0-.06-.43.24.24,0,0,0-.41,0l-.29.32.47.43h0Zm1,.88.33-.35a.27.27,0,0,0,0-.43.27.27,0,0,0-.43,0l-.32.35Z" style="fill:#f1f1f1"/><path d="M15.79,29.34h4.53c-.28.18-.35.5,0,.8a28.07,28.07,0,0,0,3.31,2.36c.5.19,3.17.87,3.69,2.45.23,2.79,2.39,5.07,3.3,5.91l4.41-2-.35-.68c0-1.19.43-1.59.41-2.76,0-.08,0-.15,0-.22h0a4.21,4.21,0,0,0-.1-.58,13.78,13.78,0,0,1,1.64-4.41.91.91,0,0,0,.05-.76l-.05-.11H41v-.92H15.79Zm7.87,0a.41.41,0,0,0-.12.68l1.08.61a9.46,9.46,0,0,0,1.33.7,14,14,0,0,1,1.61.13,3.69,3.69,0,0,0-1.12-.83,13.78,13.78,0,0,0-1.54-1.28h1.52c-.13.13-.16.34,0,.66l.5.68a4.32,4.32,0,0,1,.92.82,7.85,7.85,0,0,1,1.81.56l.07,0a3.58,3.58,0,0,0-.74-.9,13.27,13.27,0,0,0-1.16-1.66.83.83,0,0,0-.26-.19h1c-.1.12-.12.31,0,.6,0,0,.27.48.61,1.12h0A3.9,3.9,0,0,1,30,32.2a6.75,6.75,0,0,0,1.58.42,3.67,3.67,0,0,0-.69-1.17,13.38,13.38,0,0,0-.93-1.8,1,1,0,0,0-.4-.32H36a7.64,7.64,0,0,0-2.09,2.38c-.15.59-1.63,1.17-1.64,1.17-3-.25-2.56-1.28-6.32-1.38-.49-.09-2.78-1.67-4.28-2.18h2Z" style="fill:#211645"/><path d="M36.18,40l-.49-1.07L30,41.54l.49,1.07ZM30.8,41.55a.24.24,0,1,1-.12.32A.24.24,0,0,1,30.8,41.55Z" style="fill:#211645"/><path d="M17.65,25.7l4.66.91H34.55l4.36-1.22,1,1.22h2.29A14.05,14.05,0,0,0,29.52,15.05a1.44,1.44,0,1,0-2.23,0,14.06,14.06,0,0,0-12.12,9.29h0a14,14,0,0,0-.6,2.26h2.3ZM28.82,18l3.89-1.43a13.2,13.2,0,0,1,5.51,3.66l.29,4.36-4.29,1.21-2.77-2L28.82,22Zm-10.54,2.6a13.21,13.21,0,0,1,5.5-3.91L28,18v4l-2.7,1.92-2.72,1.94L18,24.9Z" style="fill:#211645"/><path d="M43,26.85H13.77a.24.24,0,0,0-.13.44l1.4.9H41.77l1.4-.9A.24.24,0,0,0,43,26.85Z" style="fill:#211645"/><path d="M30.1,43l1.22,2.53a17.26,17.26,0,0,0,6.75-2.7L36.68,40Z" style="fill:#211645"/><polygon points="48.71 23.18 49.46 24.68 51.12 24.43 49.93 25.61 50.68 27.1 49.19 26.33 48 27.51 48.27 25.86 46.78 25.09 48.44 24.84 48.71 23.18" style="fill:#ffda64;fill-rule:evenodd"/><polygon points="49.33 29.48 49.61 31.14 51.26 31.39 49.77 32.16 50.05 33.81 48.86 32.63 47.37 33.4 48.12 31.91 46.93 30.73 48.58 30.98 49.33 29.48" style="fill:#ffda64;fill-rule:evenodd"/><polygon points="48.05 35.69 47.82 37.34 49.33 38.08 47.68 38.37 47.44 40.03 46.66 38.55 45.01 38.84 46.17 37.63 45.38 36.16 46.89 36.89 48.05 35.69" style="fill:#ffda64;fill-rule:evenodd"/><polygon points="8.07 23.18 7.31 24.68 5.66 24.43 6.85 25.61 6.1 27.1 7.58 26.33 8.77 27.51 8.5 25.86 9.99 25.09 8.34 24.84 8.07 23.18" style="fill:#ffda64;fill-rule:evenodd"/><polygon points="7.44 29.48 7.17 31.14 5.51 31.39 7 32.16 6.73 33.81 7.92 32.63 9.4 33.4 8.65 31.91 9.85 30.73 8.19 30.98 7.44 29.48" style="fill:#ffda64;fill-rule:evenodd"/><polygon points="8.72 35.69 8.95 37.34 7.45 38.08 9.1 38.37 9.33 40.03 10.12 38.55 11.77 38.84 10.6 37.63 11.39 36.16 9.88 36.89 8.72 35.69" style="fill:#ffda64;fill-rule:evenodd"/></svg>