<svg id="Layer_1" data-name="Layer 1" xmlns="http://www.w3.org/2000/svg" viewBox="0 0 56.77 56.77"><title>portada</title><path d="M10.13,14.49a.94.94,0,0,1-.38-.09.91.91,0,0,1-.5-.71,2,2,0,0,1,0-.73,4.09,4.09,0,0,1,.14-.48l.11-.27v0c0-.08.08-.18.13-.27l.17-.31.19-.31,0,0,.12-.18.13-.18.29-.38a12.62,12.62,0,0,1,1.65-1.69.17.17,0,0,1,.25.23l-.07.12a3.44,3.44,0,0,0-.19.37l-.11.29-.06.17-.05.18c0,.12-.07.26-.1.42s-.05.32-.07.48a2.74,2.74,0,0,1-.12.55,4.85,4.85,0,0,1-.21.56l-.12.27-.08.16-.05.1-.21.39-.07.12-.14.24-.13.22-.22.36-.12.2-.09.13a.17.17,0,0,1-.14.08Z" style="fill:#fff"/><path d="M9.39,17.23A.93.93,0,0,1,8.83,17a.92.92,0,0,1-.27-.31.17.17,0,0,1,0-.16l.05-.09.16-.26,0,0L8.9,16,9,15.85c.09-.12.2-.26.34-.42l.2-.22L9.8,15l.23-.2.12-.1.13-.09.25-.17.26-.14.27-.11.27-.07c.37-.07.65-.12.87-.18l.34-.09.14,0,.13,0,.32-.12h0l.1,0,.08,0a.17.17,0,0,1,.12.3c-.38.38-.72.73-1,1l-.35.36-.08.09-.46.46-.24.24-.23.21a3.56,3.56,0,0,1-1.41.91,1.2,1.2,0,0,1-.31,0Z" style="fill:#fff"/><path d="M7.38,19.49H7.23a1,1,0,0,1-.73-.57l-.07-.16c0-.06,0-.12-.05-.18a2.71,2.71,0,0,1-.07-.43,4.49,4.49,0,0,1,0-.54c0-.1,0-.21,0-.32s0-.22.06-.35.05-.24.08-.38l.12-.42c.1-.31.21-.63.34-.94L7,15.08l.06-.13.12-.26.1-.21,0-.06.15-.28.16-.29.08-.15.09-.15.19-.3.2-.31a.17.17,0,0,1,.14-.08l.08,0a.17.17,0,0,1,.08.22s0,.05,0,.15l0,.19c0,.07,0,.16,0,.26a5.41,5.41,0,0,0,0,1.73,2.54,2.54,0,0,1,0,.3c0,.1,0,.21,0,.31s0,.2,0,.32,0,.21,0,.32l0,.16,0,.16c0,.11,0,.21-.06.32l-.06.31-.07.3-.07.29L8,18.48l-.12.44-.08.3,0,.11a.17.17,0,0,1-.11.12.94.94,0,0,1-.28,0Z" style="fill:#fff"/><path d="M7.44,22.56a1,1,0,0,1-.31-.05,1,1,0,0,1-.27-.14l-.11-.09a.17.17,0,0,1,0-.16l0-.14c0-.07,0-.18.08-.3s.09-.29.15-.46l.1-.27.06-.14.06-.14.14-.29.16-.29L7.56,20l.09-.14.19-.27a2.82,2.82,0,0,1,.95-.82,12.4,12.4,0,0,0,1.43-.81l.19-.14.13-.1.09-.08a.17.17,0,0,1,.28.21l-.15.27-.16.31,0,.07-.1.19-.09.17-.45.86c-.28.54-.51,1-.73,1.34-.1.17-.2.33-.3.47v0c-.09.13-.18.25-.29.39a2.92,2.92,0,0,1-.28.29,1.85,1.85,0,0,1-.27.21,1.22,1.22,0,0,1-.51.18Z" style="fill:#fff"/><path d="M6.11,25.57a1,1,0,0,1-.76-.35l-.12-.14-.11-.17a2.85,2.85,0,0,1-.21-.42,4.44,4.44,0,0,1-.18-.56,6,6,0,0,1-.13-.72,9.28,9.28,0,0,1,0-2l0-.3v-.16l0-.16.05-.33L4.77,20l0-.19,0-.13v-.05l.09-.36v0c.06-.24.13-.48.21-.74a.17.17,0,0,1,.17-.12h0a.17.17,0,0,1,.14.18s0,.06,0,.17a4,4,0,0,0,0,.5A5.84,5.84,0,0,0,6.12,21a3.27,3.27,0,0,1,.24.62c0,.1.06.22.09.34l0,.1v.06l0,.18c.07.41.13.88.17,1.38,0,.11,0,.21,0,.32v.29l0,.5,0,.34v.12a.17.17,0,0,1-.07.15,1.05,1.05,0,0,1-.42.17Z" style="fill:#fff"/><path d="M7.23,28.71a1.05,1.05,0,0,1-.46-.1.17.17,0,0,1-.09-.13s0,0,0-.14,0-.21,0-.35v-.25c0-.09,0-.18,0-.28s0-.17,0-.26v-.1c0-.09,0-.18,0-.28A6,6,0,0,1,7,25.43q.06-.17.13-.33l.07-.16.08-.15a3,3,0,0,1,.18-.28,2.16,2.16,0,0,1,.22-.24l.21-.2L8,23.87l.26-.27.08-.08.26-.29h0L8.86,23l0-.06L9,22.77l.1-.15.05-.08,0,0a.17.17,0,0,1,.15-.09H9.4a.17.17,0,0,1,.11.2c-.08.4-.15.8-.22,1.19l-.05.32-.12.71c-.1.59-.19,1.15-.29,1.61a4.22,4.22,0,0,1-.71,1.8,1.13,1.13,0,0,1-.89.46Z" style="fill:#fff"/><path d="M6.95,32.26l-.23,0-.16,0-.16-.07a2.43,2.43,0,0,1-.72-.58l-.19-.23L5.29,31l-.1-.15-.1-.17-.2-.37a10.11,10.11,0,0,1-.72-2c0-.07,0-.15-.05-.23l0-.17L4,27.63v-.07c0-.21-.07-.43-.1-.67l0-.19c0-.07,0-.13,0-.2l0-.41c0-.11,0-.22,0-.34v-.09c0-.14,0-.29,0-.45A.17.17,0,0,1,4,25.05H4a.17.17,0,0,1,.17.13s0,.06.05.18a4.62,4.62,0,0,0,.22.51,6.23,6.23,0,0,0,1.23,1.65,3.82,3.82,0,0,1,.46.55l.2.32.19.33c.25.45.47.93.66,1.35l.07.16.07.15.13.3.21.5.14.34,0,.12a.17.17,0,0,1,0,.16,1.12,1.12,0,0,1-.36.33,1,1,0,0,1-.45.13Z" style="fill:#fff"/><path d="M9.2,35.06H9.11A.18.18,0,0,1,9,35l-.07-.13-.15-.33v0c-.07-.15-.14-.34-.21-.53l-.05-.16-.05-.16c0-.12-.07-.23-.1-.35a6.13,6.13,0,0,1-.21-1.52,3.19,3.19,0,0,1,.29-1.42,16.16,16.16,0,0,0,.78-1.76l.09-.26.06-.19c0-.09,0-.14,0-.14a.17.17,0,0,1,.17-.15h0a.17.17,0,0,1,.17.15c.1.79.22,1.47.33,2.07l.06.32c.11.63.22,1.23.28,1.73a4.6,4.6,0,0,1,0,2.07,1.22,1.22,0,0,1-.72.8A1.16,1.16,0,0,1,9.2,35.06Z" style="fill:#fff"/><path d="M10.24,38.77H10.1a2.63,2.63,0,0,1-1-.31,4.72,4.72,0,0,1-.59-.37l-.33-.25-.17-.14-.17-.16a10.53,10.53,0,0,1-1.52-1.82,13.51,13.51,0,0,1-.79-1.34,15.49,15.49,0,0,1-.74-1.68.17.17,0,0,1,.08-.21l.08,0a.17.17,0,0,1,.14.08l.12.16.17.2.25.25c.09.08.2.19.33.29l.2.16.22.16.25.16.27.16.3.16.16.08.16.07a4.22,4.22,0,0,1,.67.39,8.07,8.07,0,0,1,.65.51c.43.37.85.77,1.19,1.12l.16.16.1.1.25.25.11.11.11.11.19.2.28.29.1.1a.17.17,0,0,1,0,.16,1.21,1.21,0,0,1-.23.47,1.13,1.13,0,0,1-.92.42Z" style="fill:#fff"/><path d="M14,40.63a.17.17,0,0,1-.11,0l-.12-.1-.06-.05-.07-.07-.17-.16-.1-.1L13.24,40,13,39.76l-.24-.28-.06-.07-.09-.12-.09-.12a6.6,6.6,0,0,1-.83-1.45,3.38,3.38,0,0,1-.27-1.54,19.55,19.55,0,0,0,.12-2.08q0-.16,0-.3c0-.06,0-.11,0-.16V33.6c0-.1,0-.15,0-.15a.17.17,0,0,1,.11-.2h.06a.17.17,0,0,1,.15.09c.21.4.43.79.68,1.21l.55.91.07.11c.38.62.71,1.15,1,1.61a9,9,0,0,1,.58,1.19l.08.25c0,.08,0,.16.06.23a2.52,2.52,0,0,1,.06.41,1.31,1.31,0,0,1-.39,1.09,1.19,1.19,0,0,1-.47.27Z" style="fill:#fff"/><path d="M15.82,44h-.31a6.38,6.38,0,0,1-1.66-.4,11.2,11.2,0,0,1-2.29-1.2,15,15,0,0,1-1.35-1A16.37,16.37,0,0,1,8.77,40,.17.17,0,0,1,9,39.72l.19.12a5.2,5.2,0,0,0,.6.29,6.64,6.64,0,0,0,1,.32l.16,0,.16,0,.34.05.36,0,.38,0a6.25,6.25,0,0,1,1.69.36l.43.15.42.16.41.16.07,0,.33.13,1.31.54.15.07.24.1.14.06a.17.17,0,0,1,.1.12,1.32,1.32,0,0,1,0,.56,1.17,1.17,0,0,1-.26.48,1.25,1.25,0,0,1-.26.22,1.52,1.52,0,0,1-.36.17,2.37,2.37,0,0,1-.47.09Z" style="fill:#fff"/><path d="M46.64,14.49a.17.17,0,0,1-.14-.08l-.09-.14-.12-.2-.22-.36-.13-.22-.14-.23-.07-.13-.21-.39-.05-.11-.08-.16-.13-.28a4.85,4.85,0,0,1-.21-.55,2.75,2.75,0,0,1-.12-.55c0-.16,0-.32-.07-.48s-.07-.3-.1-.42L44.72,10l-.06-.17-.11-.29a3.47,3.47,0,0,0-.19-.37l-.07-.12a.17.17,0,0,1,.14-.27.17.17,0,0,1,.11,0,12.64,12.64,0,0,1,1.65,1.69l.29.38.13.18.12.18,0,0,.18.29.17.31c0,.09.09.18.13.27v0l.11.27a4.11,4.11,0,0,1,.14.48,2,2,0,0,1,0,.73.91.91,0,0,1-.5.71.94.94,0,0,1-.38.09Z" style="fill:#fff"/><path d="M47.39,17.23a1.21,1.21,0,0,1-.31,0,3.57,3.57,0,0,1-1.41-.91l-.23-.21-.24-.24-.46-.46-.08-.09-.35-.36c-.3-.31-.64-.67-1-1a.17.17,0,0,1,.12-.3l.08,0,.1,0h0l.32.12.13,0,.15,0,.33.09c.23.06.51.11.88.18l.27.07.27.11.27.14.25.16.13.09.12.1L47,15l.22.22.2.22c.14.16.25.3.34.42l.14.19.09.14,0,0,.16.26.06.1a.17.17,0,0,1,0,.16.93.93,0,0,1-.83.49Z" style="fill:#fff"/><path d="M49.4,19.49a.94.94,0,0,1-.28,0,.17.17,0,0,1-.11-.12l0-.11-.08-.3-.12-.45-.07-.27-.07-.28-.07-.3-.06-.32c0-.1,0-.21-.06-.32l0-.16,0-.16c0-.11,0-.22,0-.33s0-.21,0-.32,0-.21,0-.31a2.48,2.48,0,0,1,0-.3,5.41,5.41,0,0,0,0-1.73c0-.1,0-.19,0-.26l0-.19,0-.15a.17.17,0,0,1,.08-.22l.08,0a.17.17,0,0,1,.14.08l.2.31.19.3.09.15.09.15.16.28.15.28,0,.06.1.21.12.26.06.13.05.13c.13.31.24.62.34.93l.12.41c0,.14.06.26.08.38s0,.25.06.35,0,.22,0,.31a4.49,4.49,0,0,1,0,.54,2.71,2.71,0,0,1-.07.43c0,.06,0,.12-.05.18l-.07.16a1,1,0,0,1-.73.57Z" style="fill:#fff"/><path d="M49.34,22.56h-.1a1.22,1.22,0,0,1-.51-.18,1.86,1.86,0,0,1-.27-.21,3,3,0,0,1-.28-.29c-.11-.14-.21-.26-.29-.39v0c-.09-.14-.2-.29-.3-.47-.21-.35-.45-.79-.73-1.33l-.45-.86-.12-.24-.06-.12,0-.07L46,18.06l-.14-.26a.17.17,0,0,1,.28-.21l.09.08.13.1.19.14a12.43,12.43,0,0,0,1.43.81,2.82,2.82,0,0,1,.94.82l.19.27.09.14.08.14.16.29.14.29.06.14.06.14.1.27c.06.17.11.32.15.46s.06.23.08.3l0,.13a.17.17,0,0,1,0,.16l-.11.09a1,1,0,0,1-.27.14,1,1,0,0,1-.31.05Z" style="fill:#fff"/><path d="M50.67,25.57H50.5a1.06,1.06,0,0,1-.42-.17.17.17,0,0,1-.07-.15v-.12l0-.34,0-.5V24c0-.1,0-.21,0-.32,0-.5.1-1,.17-1.38l0-.18V22l0-.1c0-.12.05-.23.09-.34a3.25,3.25,0,0,1,.24-.62,5.85,5.85,0,0,0,.59-1.79,4.07,4.07,0,0,0,0-.5c0-.11,0-.17,0-.17a.17.17,0,0,1,.14-.18h0a.17.17,0,0,1,.16.12c.08.25.15.5.21.74v0l.09.37v0l0,.13,0,.17.06.34.05.33,0,.16v.16l0,.3a9.3,9.3,0,0,1,0,2,6.05,6.05,0,0,1-.13.72,4.46,4.46,0,0,1-.18.56,2.85,2.85,0,0,1-.21.42l-.11.17-.12.14a1,1,0,0,1-.76.35Z" style="fill:#fff"/><path d="M49.54,28.71a1.13,1.13,0,0,1-.89-.46,4.22,4.22,0,0,1-.7-1.8c-.1-.46-.2-1-.29-1.61l-.12-.7-.06-.33c-.07-.4-.14-.79-.22-1.19a.17.17,0,0,1,.11-.2h.06a.17.17,0,0,1,.15.09v0l.06.09.1.15.11.15,0,.06.21.25v0l.25.28.07.07.27.28.19.19.21.2a2.15,2.15,0,0,1,.22.24,2.94,2.94,0,0,1,.18.28l.08.15.08.16c0,.11.09.22.13.33a6,6,0,0,1,.3,1.4c0,.09,0,.18,0,.27v.1c0,.09,0,.18,0,.27s0,.19,0,.28V28c0,.15,0,.27,0,.35s0,.14,0,.14a.17.17,0,0,1-.09.13,1.05,1.05,0,0,1-.46.1Z" style="fill:#fff"/><path d="M49.82,32.26h-.06a1,1,0,0,1-.45-.13A1.12,1.12,0,0,1,49,31.8a.17.17,0,0,1,0-.16l0-.12.14-.34.21-.5.13-.29.07-.16.07-.16c.19-.42.41-.9.66-1.35l.19-.33.2-.31a3.82,3.82,0,0,1,.46-.55,6.23,6.23,0,0,0,1.23-1.65,4.59,4.59,0,0,0,.22-.51c0-.11.06-.18.06-.18a.17.17,0,0,1,.17-.13h0a.17.17,0,0,1,.15.17c0,.14,0,.3,0,.45v.09c0,.11,0,.22,0,.33l0,.41c0,.07,0,.13,0,.2l0,.19c0,.23-.07.45-.1.67v.06c0,.09,0,.18-.05.27l0,.16-.05.24a10.09,10.09,0,0,1-.71,2l-.2.37-.1.17-.1.16-.19.28-.19.23a2.43,2.43,0,0,1-.71.58l-.16.07-.16,0-.23,0Z" style="fill:#fff"/><path d="M47.58,35.06a1.17,1.17,0,0,1-.41-.08,1.22,1.22,0,0,1-.72-.8,4.61,4.61,0,0,1,0-2.07c.06-.5.17-1.1.28-1.73l.06-.32c.11-.6.23-1.29.33-2.07a.17.17,0,0,1,.17-.15h0a.17.17,0,0,1,.17.15s0,0,0,.14l.06.19.09.26a16.16,16.16,0,0,0,.78,1.76,3.19,3.19,0,0,1,.29,1.43,6.14,6.14,0,0,1-.21,1.53c0,.12-.07.24-.1.34l-.05.16-.05.16c-.07.19-.14.38-.21.53s-.12.27-.16.35L47.8,35a.18.18,0,0,1-.13.09Z" style="fill:#fff"/><path d="M46.53,38.77a1.13,1.13,0,0,1-.92-.42,1.21,1.21,0,0,1-.23-.47.17.17,0,0,1,0-.16l.1-.11.28-.29.19-.19.11-.11.11-.11.25-.25.1-.1.16-.16c.35-.34.76-.75,1.19-1.12a8.08,8.08,0,0,1,.64-.5,4.24,4.24,0,0,1,.67-.39l.16-.07.16-.08.3-.16.27-.16.25-.16.22-.16.2-.16c.13-.1.24-.21.33-.29l.25-.25.17-.2.12-.16a.17.17,0,0,1,.14-.08l.08,0a.17.17,0,0,1,.08.22,15.45,15.45,0,0,1-.74,1.68,13.51,13.51,0,0,1-.79,1.34,10.52,10.52,0,0,1-1.52,1.82l-.17.16-.17.15-.33.25a4.71,4.71,0,0,1-.59.37,2.62,2.62,0,0,1-.95.31Z" style="fill:#fff"/><path d="M42.79,40.63h0a1.19,1.19,0,0,1-.47-.28,1.31,1.31,0,0,1-.39-1.09,2.56,2.56,0,0,1,.06-.42c0-.07,0-.15.06-.23l.08-.25a9,9,0,0,1,.58-1.19c.25-.45.58-1,1-1.6l.07-.12.55-.91c.24-.42.47-.82.68-1.21a.17.17,0,0,1,.15-.09h.06a.17.17,0,0,1,.11.2s0,.05,0,.16v0s0,.1,0,.16,0,.18,0,.29a19.61,19.61,0,0,0,.12,2.08,3.38,3.38,0,0,1-.27,1.54,6.59,6.59,0,0,1-.83,1.45l-.12.16-.06.08-.06.08-.23.28-.23.24-.1.11-.1.1-.17.16-.07.07-.06.06-.12.1A.17.17,0,0,1,42.79,40.63Z" style="fill:#fff"/><path d="M29.19,51c-.88,0-1.39-.57-1.52-1.69-.25-2.19-.86-2.63-1.78-2.63a10.56,10.56,0,0,0-2.52.52c-.92.26-2.36.78-3.89,1.34-1.83.66-3.91,1.42-5.52,1.87a3.64,3.64,0,0,1-1,.14,1.67,1.67,0,0,1-1.89-1.78V43.63a.17.17,0,0,1,.15-.17h0a.17.17,0,0,1,.17.12A1.65,1.65,0,0,0,13,44.68a2.37,2.37,0,0,0,.62-.09c1.07-.29,2.89-.93,5-1.68a6.26,6.26,0,0,1-.85-.71c-.09-.09-.2-.2-.3-.33s-.18-.23-.26-.35a3.51,3.51,0,0,1-.21-.36,2.48,2.48,0,0,1-.15-.38c-.27-.88-.53-1.61-.74-2.12l0-.1L16,38.37l-.1-.2L15.8,38a.17.17,0,0,1,.26-.23c.36.3.74.6,1.17.92l1,.75.89.63.2.15.19.14.16.12.2.15a9.42,9.42,0,0,1,1.08.93,3.78,3.78,0,0,1,.33.38l.89-.31a6.82,6.82,0,0,1-.35-.93A23.2,23.2,0,0,1,15.56,34l-.43.19a1.33,1.33,0,0,1-1.28-.12c-.43-.29-.86-.61-1.27-.95a1.32,1.32,0,0,1-.48-1V19.71a1.32,1.32,0,0,1,.51-1c.36-.28.74-.55,1.12-.8a1.32,1.32,0,0,1,.72-.21h.1V13.47a.17.17,0,0,1,.17-.17H42.05a.17.17,0,0,1,.17.17v4.17l.55-.26a1.33,1.33,0,0,1,1.28.07,1.32,1.32,0,0,1,.62,1.12V23a1.33,1.33,0,0,1-1.07,1.3l-1.38.25V29.3a1.32,1.32,0,0,1,.52,1.06v2.32A1.33,1.33,0,0,1,41.42,34h-.19a23.1,23.1,0,0,1-6.29,6.73A6.8,6.8,0,0,1,32.84,44L35,43.21a1.28,1.28,0,0,1,0-.16,1.45,1.45,0,0,1,.05-.33,1.75,1.75,0,0,1,.06-.18l.08-.18a2.54,2.54,0,0,1,.24-.38,3.71,3.71,0,0,1,.35-.41,9.43,9.43,0,0,1,1.08-.93l.19-.15.16-.12.19-.14.2-.14.89-.63,1-.76c.43-.32.81-.62,1.17-.92A.17.17,0,0,1,41,38l-.08.15-.1.2-.08.19,0,.11c-.21.51-.47,1.24-.74,2.12a2.47,2.47,0,0,1-.15.38,3.45,3.45,0,0,1-.21.36l-.15.21,2.2-.73a4.92,4.92,0,0,1,1.5-.26,3.25,3.25,0,0,1,.51,0,4.78,4.78,0,0,1,.95-.14l.38,0,.36,0,.34-.05.16,0,.15,0a6.64,6.64,0,0,0,1-.32,5.23,5.23,0,0,0,.6-.29l.19-.12A.17.17,0,0,1,48,40a16.38,16.38,0,0,1-1.44,1.41c-.35.3-.7.58-1.08.85a2.53,2.53,0,0,1,.18.93v4.91a.17.17,0,0,1-.16.17h0a.17.17,0,0,1-.17-.14A2.25,2.25,0,0,0,43,46.67a4,4,0,0,0-1.17.18c-1.48.46-3.61,1.21-5.67,1.93-2.23.79-4.54,1.61-6.08,2.06A3.09,3.09,0,0,1,29.19,51Z" style="fill:#fff"/><path d="M24.65,12.8a.17.17,0,0,1-.17-.15s-.51-3.13-2-3.86a.17.17,0,0,1-.06-.25.79.79,0,0,1,.64-.3l.18,0a.76.76,0,0,1,.48.26c.15-.51.42-.62.62-.62a.88.88,0,0,1,.48.17,1,1,0,0,1,.47.88.81.81,0,0,1-.31.63.69.69,0,0,1-.31.08h-.14a.72.72,0,0,0,.61.74h0c.42,0,.45-.84.45-.85a.17.17,0,0,1,.14-.17l.28,0h0a.17.17,0,0,1,.16.11,1.23,1.23,0,0,0,1.1.78h0a.48.48,0,0,0,.46-.31,1.49,1.49,0,0,0-.14-1.24,1.27,1.27,0,0,0-1-.41,2.9,2.9,0,0,0-.81.13h0a.17.17,0,0,1-.17-.17A1.28,1.28,0,0,1,26.44,7a1.4,1.4,0,0,1,.49-.09,1.2,1.2,0,0,1,.42.08,1.29,1.29,0,0,1,.19-.8,1,1,0,0,1,1.69,0,1.29,1.29,0,0,1,.19.8,1.2,1.2,0,0,1,.42-.08,1.4,1.4,0,0,1,.49.09,1.28,1.28,0,0,1,.75,1.19.17.17,0,0,1-.17.17h0A2.9,2.9,0,0,0,30,8.25a1.27,1.27,0,0,0-1,.41,1.49,1.49,0,0,0-.14,1.24.48.48,0,0,0,.46.31h0a1.25,1.25,0,0,0,1.1-.78.17.17,0,0,1,.16-.11h0l.28,0a.17.17,0,0,1,.14.17s0,.85.45.85h0a.72.72,0,0,0,.61-.74h-.14a.69.69,0,0,1-.31-.08A.81.81,0,0,1,31.47,9a1,1,0,0,1,.47-.88.88.88,0,0,1,.48-.17c.21,0,.48.11.62.62a.76.76,0,0,1,.48-.26l.18,0a.79.79,0,0,1,.64.3.17.17,0,0,1-.06.25c-1.46.73-2,3.83-2,3.86a.17.17,0,0,1-.17.15Z" style="fill:#fff"/><path d="M19.82,12.25l-.09,0-.81-.43-.81.43-.09,0h0a.2.2,0,0,1-.2-.23l.16-.9-.66-.64a.2.2,0,0,1,.11-.34l.91-.13.41-.82a.2.2,0,0,1,.36,0l.41.82.91.13a.2.2,0,0,1,.11.34l-.66.64L20,12a.2.2,0,0,1-.2.23Z" style="fill:#fff"/><path d="M38.77,12.25l-.09,0-.81-.43-.81.43-.09,0h0a.2.2,0,0,1-.2-.23l.16-.9-.66-.64a.2.2,0,0,1,.11-.34l.91-.13.41-.82a.2.2,0,0,1,.36,0l.41.82.91.13a.2.2,0,0,1,.11.34l-.66.64L39,12a.2.2,0,0,1-.2.23Z" style="fill:#fff"/><path d="M10.13,14.32a.75.75,0,0,1-.31-.07.72.72,0,0,1-.4-.58,1.82,1.82,0,0,1,0-.66,3.9,3.9,0,0,1,.13-.45l.11-.26c0-.09.08-.19.13-.28L10,11.7l.2-.33.11-.17.13-.18.28-.37A12.38,12.38,0,0,1,12.35,9l-.08.13a3.62,3.62,0,0,0-.2.39l-.12.3-.06.17-.06.19c0,.13-.07.27-.1.43s-.05.32-.07.49a2.58,2.58,0,0,1-.11.52,4.7,4.7,0,0,1-.2.54l-.12.27-.13.26c-.09.18-.18.34-.27.5l-.13.23-.13.22-.22.36-.15.24Z" style="fill:#333f48"/><path d="M8.71,16.66a.76.76,0,0,0,.22.25.81.81,0,0,0,.72.11A3.41,3.41,0,0,0,11,16.15l.22-.21.24-.23.54-.55c.39-.4.83-.87,1.37-1.41l-.12.06-.36.14-.13,0-.15,0-.34.09c-.25.06-.54.12-.89.18l-.25.06-.25.1-.25.13-.24.16-.12.09-.12.09-.23.2-.21.21-.2.21c-.12.14-.24.28-.34.41L9,16.14l-.11.17-.16.25Z" style="fill:#333f48"/><path d="M7.6,19.28a.82.82,0,0,1-.35,0,.78.78,0,0,1-.6-.48l-.06-.14,0-.16a2.53,2.53,0,0,1-.06-.4,4.26,4.26,0,0,1,0-.52q0-.14,0-.3c0-.11,0-.22.05-.34s0-.24.08-.37l.11-.41c.09-.28.19-.59.33-.92l.05-.13L7.21,15l.12-.26.13-.27.14-.28.16-.28.08-.15.09-.15.19-.3.2-.31s0,.05-.05.16l0,.2c0,.08,0,.17,0,.27a5.6,5.6,0,0,0,0,1.78,2.35,2.35,0,0,1,0,.28c0,.1,0,.2,0,.3s0,.2,0,.31,0,.21,0,.31l0,.16,0,.16c0,.11,0,.21-.06.32L8,17.59l-.07.3-.07.28-.06.26-.12.44-.08.3Z" style="fill:#333f48"/><path d="M6.87,22.16l.08.07a.86.86,0,0,0,.23.12.8.8,0,0,0,.34,0A1,1,0,0,0,8,22.23,1.67,1.67,0,0,0,8.21,22a2.77,2.77,0,0,0,.26-.27c.09-.11.19-.23.28-.37s.2-.3.31-.48c.22-.36.45-.8.72-1.33l.45-.86.13-.24.06-.12.07-.12.14-.26.15-.26-.11.09-.14.11-.2.14a12.63,12.63,0,0,1-1.45.82,2.67,2.67,0,0,0-.88.77l-.19.26L7.71,20l-.08.14-.15.28-.13.28-.06.14L7.22,21l-.1.26c-.06.17-.11.32-.14.45S6.91,22,6.9,22Z" style="fill:#333f48"/><path d="M6.6,25.24a.89.89,0,0,1-.35.14.84.84,0,0,1-.78-.29L5.36,25l-.1-.15a2.66,2.66,0,0,1-.2-.4,4.31,4.31,0,0,1-.17-.54,5.85,5.85,0,0,1-.12-.7,9.05,9.05,0,0,1,0-1.94l0-.3,0-.15,0-.16.05-.32L4.94,20l0-.17,0-.18.09-.36c.07-.24.13-.5.22-.76,0,0,0,.06,0,.18a4.16,4.16,0,0,0,0,.53A6,6,0,0,0,6,21.07a3.1,3.1,0,0,1,.22.59c0,.11.06.21.08.32l0,.17,0,.17c.08.46.13.93.16,1.36,0,.11,0,.21,0,.32s0,.2,0,.29l0,.5,0,.33Z" style="fill:#333f48"/><path d="M6.85,28.45a.89.89,0,0,0,.38.08,1,1,0,0,0,.76-.4,4.08,4.08,0,0,0,.67-1.73c.1-.44.19-1,.29-1.6.05-.32.11-.66.17-1s.14-.77.22-1.2l0,0-.06.1-.11.15L9,23.08l-.22.26-.27.31L8.17,24,8,24.19l-.21.21a2,2,0,0,0-.2.22,2.8,2.8,0,0,0-.17.26L7.32,25l-.07.15c0,.1-.09.21-.13.32a5.89,5.89,0,0,0-.29,1.35c0,.11,0,.22,0,.32s0,.21,0,.3,0,.19,0,.27V28c0,.15,0,.27,0,.35S6.85,28.45,6.85,28.45Z" style="fill:#333f48"/><path d="M7.68,31.7a1,1,0,0,1-.3.27.85.85,0,0,1-.38.11.92.92,0,0,1-.24,0l-.14,0L6.47,32a2.24,2.24,0,0,1-.66-.54l-.18-.22-.19-.27-.1-.15-.09-.16-.19-.36a9.85,9.85,0,0,1-.7-2c0-.1,0-.21-.07-.32s0-.22-.07-.34-.08-.47-.11-.72l0-.19c0-.06,0-.13,0-.2l0-.4c0-.14,0-.28,0-.42s0-.29,0-.44,0,.07.06.19a4.72,4.72,0,0,0,.23.53,6.41,6.41,0,0,0,1.27,1.7,3.71,3.71,0,0,1,.44.52l.2.3.19.32c.25.44.46.91.66,1.34l.07.16.07.15.13.29.21.5.14.34,0,.09Z" style="fill:#333f48"/><path d="M9.13,34.88a1,1,0,0,0,.42-.06,1.05,1.05,0,0,0,.62-.69,4.46,4.46,0,0,0,0-2c-.06-.48-.16-1-.28-1.72s-.26-1.47-.39-2.4c0,0,0,.06,0,.16l-.06.19-.09.27a16.6,16.6,0,0,1-.79,1.78,3,3,0,0,0-.27,1.35,6,6,0,0,0,.21,1.48c0,.12.06.23.1.34l.05.16.05.15c.07.2.14.37.2.52l.16.34Z" style="fill:#333f48"/><path d="M11.23,37.85a1,1,0,0,1-.2.4,1,1,0,0,1-.92.35,2.44,2.44,0,0,1-.89-.29A4.6,4.6,0,0,1,8.66,38l-.32-.25-.17-.14L8,37.41a10.28,10.28,0,0,1-1.49-1.79,13.39,13.39,0,0,1-.78-1.32A15.4,15.4,0,0,1,5,32.64l.13.18.17.2.26.26c.1.09.21.2.34.3l.2.16.23.17.25.17.28.17.3.16.16.08.17.08a4.1,4.1,0,0,1,.64.37,7.91,7.91,0,0,1,.63.49c.42.36.82.75,1.18,1.11l.26.26.24.25.11.12.11.11.19.2.27.28Z" style="fill:#333f48"/><path d="M14,40.46a1,1,0,0,0,.39-.23,1.15,1.15,0,0,0,.34-1,2.36,2.36,0,0,0-.06-.39q0-.11-.06-.22l-.08-.24a8.79,8.79,0,0,0-.56-1.17c-.25-.45-.58-1-1-1.61l-.62-1c-.22-.37-.45-.78-.68-1.22,0,0,0,.06,0,.18s0,.13,0,.22,0,.19,0,.3a19.4,19.4,0,0,1-.12,2.09,3.23,3.23,0,0,0,.26,1.46,6.44,6.44,0,0,0,.8,1.41l.12.15.06.08.06.07.23.27.22.24.1.11.1.09.17.16.07.07.06.05Z" style="fill:#333f48"/><path d="M17.33,42.54a1.14,1.14,0,0,1,0,.48,1,1,0,0,1-.22.41,1.08,1.08,0,0,1-.22.19,1.35,1.35,0,0,1-.32.15,2.19,2.19,0,0,1-.44.09,3.49,3.49,0,0,1-.57,0,6.15,6.15,0,0,1-1.61-.39,11,11,0,0,1-2.25-1.19,14.74,14.74,0,0,1-1.34-1A16.13,16.13,0,0,1,8.9,39.86l.21.13a5.33,5.33,0,0,0,.62.3,6.85,6.85,0,0,0,1,.33l.16,0,.16,0,.35.06.37,0,.39,0a6.19,6.19,0,0,1,1.64.35l.42.15.42.16.41.16.4.16,1.31.54.39.17Z" style="fill:#333f48"/><path d="M21.2,43.94a1.14,1.14,0,0,0,.37-.88,1.28,1.28,0,0,0,0-.29l-.05-.16-.07-.17a2.35,2.35,0,0,0-.23-.36,3.61,3.61,0,0,0-.34-.39,9.36,9.36,0,0,0-1.06-.91l-.35-.26-.19-.14-.2-.14-.89-.63-1-.76c-.37-.28-.76-.58-1.17-.92l.09.17.1.21.13.3c.19.46.44,1.15.75,2.14a2.28,2.28,0,0,0,.14.35,3.29,3.29,0,0,0,.2.34c.08.11.16.22.25.33s.19.21.29.32a6.73,6.73,0,0,0,1.41,1.06,8.85,8.85,0,0,0,1.32.62l.24.08.18.06.12,0Z" style="fill:#333f48"/><path d="M46.64,14.32a.75.75,0,0,0,.31-.07.72.72,0,0,0,.4-.58,1.82,1.82,0,0,0,0-.66,3.9,3.9,0,0,0-.13-.45l-.11-.26c0-.09-.08-.19-.13-.28l-.17-.31-.2-.33-.11-.17L46.33,11l-.28-.37A12.38,12.38,0,0,0,44.42,9l.08.13a3.62,3.62,0,0,1,.2.39l.12.3.06.17.06.19c0,.13.07.27.1.43s.05.32.07.49a2.58,2.58,0,0,0,.11.52,4.7,4.7,0,0,0,.2.54l.12.27.13.26c.09.18.18.34.27.5l.13.23.13.22.22.36.15.24Z" style="fill:#333f48"/><path d="M48.06,16.66a.76.76,0,0,1-.22.25.81.81,0,0,1-.72.11,3.41,3.41,0,0,1-1.33-.87l-.22-.21-.24-.23-.54-.55c-.39-.4-.83-.87-1.37-1.41l.12.06.36.14L44,14l.15,0,.34.09c.25.06.54.12.89.18l.25.06.25.1.25.13.24.16.12.09.12.09.23.2.21.21.2.21c.12.14.24.28.34.41l.14.19.11.17.16.25Z" style="fill:#333f48"/><path d="M49.17,19.28a.82.82,0,0,0,.35,0,.78.78,0,0,0,.6-.48l.06-.14,0-.16a2.53,2.53,0,0,0,.06-.4,4.26,4.26,0,0,0,0-.52q0-.14,0-.3c0-.11,0-.22-.05-.34s0-.24-.08-.37L50,16.19c-.09-.28-.19-.59-.33-.92l-.05-.13L49.56,15l-.12-.26-.13-.27-.14-.28L49,13.93l-.08-.15-.09-.15-.19-.3-.2-.31s0,.05.05.16l0,.2c0,.08,0,.17,0,.27a5.6,5.6,0,0,1,0,1.78,2.35,2.35,0,0,0,0,.28c0,.1,0,.2,0,.3s0,.2,0,.31,0,.21,0,.31l0,.16,0,.16c0,.11,0,.21.06.32l.06.31.07.3.07.28.06.26.12.44.08.3Z" style="fill:#333f48"/><path d="M49.9,22.16l-.08.07a.86.86,0,0,1-.23.12.8.8,0,0,1-.34,0,1,1,0,0,1-.44-.16,1.67,1.67,0,0,1-.25-.19,2.77,2.77,0,0,1-.26-.27c-.09-.11-.19-.23-.28-.37s-.2-.3-.31-.48c-.22-.36-.45-.8-.72-1.33l-.45-.86-.13-.24-.06-.12-.07-.12L46.15,18,46,17.72l.11.09.14.11.2.14a12.63,12.63,0,0,0,1.45.82,2.67,2.67,0,0,1,.88.77l.19.26.09.14.08.14.15.28.13.28.06.14.05.14.1.26c.06.17.11.32.14.45s.06.24.08.31Z" style="fill:#333f48"/><path d="M50.18,25.24a.89.89,0,0,0,.35.14.84.84,0,0,0,.78-.29l.11-.12.1-.15a2.66,2.66,0,0,0,.2-.4,4.31,4.31,0,0,0,.17-.54,5.85,5.85,0,0,0,.12-.7,9.05,9.05,0,0,0,0-1.94l0-.3,0-.15,0-.16-.05-.32L51.83,20l0-.17,0-.18-.09-.36c-.07-.24-.13-.5-.22-.76,0,0,0,.06,0,.18a4.16,4.16,0,0,1,0,.53,6,6,0,0,1-.6,1.85,3.1,3.1,0,0,0-.22.59c0,.11-.06.21-.08.32l0,.17,0,.17c-.08.46-.13.93-.16,1.36,0,.11,0,.21,0,.32s0,.2,0,.29l0,.5,0,.33Z" style="fill:#333f48"/><path d="M49.92,28.45a.89.89,0,0,1-.38.08,1,1,0,0,1-.76-.4,4.08,4.08,0,0,1-.67-1.73c-.1-.44-.19-1-.29-1.6-.05-.32-.11-.66-.17-1s-.14-.77-.22-1.2l0,0,.06.1.11.15.16.21.22.26.27.31.34.35.19.19.21.21a2,2,0,0,1,.2.22,2.8,2.8,0,0,1,.17.26l.08.14.07.15c0,.1.09.21.13.32a5.89,5.89,0,0,1,.29,1.35c0,.11,0,.22,0,.32s0,.21,0,.3,0,.19,0,.27V28c0,.15,0,.27,0,.35S49.92,28.45,49.92,28.45Z" style="fill:#333f48"/><path d="M49.1,31.7a1,1,0,0,0,.3.27.85.85,0,0,0,.38.11.92.92,0,0,0,.24,0l.14,0L50.3,32a2.24,2.24,0,0,0,.66-.54l.18-.22.19-.27.1-.15.09-.16.19-.36a9.85,9.85,0,0,0,.7-2c0-.1,0-.21.07-.32s0-.22.07-.34.08-.47.11-.72l0-.19c0-.06,0-.13,0-.2l0-.4c0-.14,0-.28,0-.42s0-.29,0-.44,0,.07-.06.19a4.72,4.72,0,0,1-.23.53,6.41,6.41,0,0,1-1.27,1.7,3.71,3.71,0,0,0-.44.52l-.2.3-.19.32c-.25.44-.46.91-.66,1.34l-.07.16-.07.15-.13.29-.21.5-.14.34,0,.09Z" style="fill:#333f48"/><path d="M47.65,34.88a1,1,0,0,1-.42-.06,1.05,1.05,0,0,1-.62-.69,4.46,4.46,0,0,1,0-2c.06-.48.16-1,.28-1.72s.26-1.47.39-2.4c0,0,0,.06,0,.16l.06.19.09.27a16.6,16.6,0,0,0,.79,1.78,3,3,0,0,1,.27,1.35,6,6,0,0,1-.21,1.48c0,.12-.06.23-.1.34l-.05.16-.05.15c-.07.2-.14.37-.2.52l-.16.34Z" style="fill:#333f48"/><path d="M45.54,37.85a1,1,0,0,0,.2.4,1,1,0,0,0,.92.35,2.44,2.44,0,0,0,.89-.29,4.6,4.6,0,0,0,.57-.36l.32-.25.17-.14.17-.16a10.28,10.28,0,0,0,1.49-1.79A13.39,13.39,0,0,0,51,34.3a15.4,15.4,0,0,0,.74-1.66l-.13.18-.17.2-.26.26c-.1.09-.21.2-.34.3l-.2.16-.23.17-.25.17-.28.17-.3.16-.16.08-.17.08a4.1,4.1,0,0,0-.64.37,7.91,7.91,0,0,0-.63.49c-.42.36-.82.75-1.18,1.11l-.26.26-.24.25-.11.12-.11.11-.19.2-.27.28Z" style="fill:#333f48"/><path d="M42.79,40.46a1,1,0,0,1-.39-.23,1.15,1.15,0,0,1-.34-1,2.36,2.36,0,0,1,.06-.39q0-.11.06-.22l.08-.24a8.79,8.79,0,0,1,.56-1.17c.25-.45.58-1,1-1.61l.62-1c.22-.37.45-.78.68-1.22,0,0,0,.06,0,.18s0,.13,0,.22,0,.19,0,.3a19.4,19.4,0,0,0,.12,2.09,3.23,3.23,0,0,1-.26,1.46,6.44,6.44,0,0,1-.8,1.41l-.12.15-.06.08-.06.07-.23.27-.22.24-.1.11-.1.09-.17.16-.07.07-.06.05Z" style="fill:#333f48"/><path d="M39.44,42.54a1.14,1.14,0,0,0,0,.48,1,1,0,0,0,.22.41,1.08,1.08,0,0,0,.22.19,1.35,1.35,0,0,0,.32.15,2.19,2.19,0,0,0,.44.09,3.49,3.49,0,0,0,.57,0,6.15,6.15,0,0,0,1.61-.39,11,11,0,0,0,2.25-1.19,14.74,14.74,0,0,0,1.34-1,16.13,16.13,0,0,0,1.42-1.39l-.21.13a5.33,5.33,0,0,1-.62.3,6.85,6.85,0,0,1-1,.33l-.16,0-.16,0-.35.06-.37,0-.39,0a6.19,6.19,0,0,0-1.64.35l-.42.15-.42.16-.41.16-.4.16L40,42.31l-.39.17Z" style="fill:#333f48"/><path d="M35.57,43.94a1.14,1.14,0,0,1-.37-.88,1.28,1.28,0,0,1,0-.29l.05-.16.07-.17a2.35,2.35,0,0,1,.23-.36,3.61,3.61,0,0,1,.34-.39A9.36,9.36,0,0,1,37,40.78l.35-.26.19-.14.2-.14.89-.63,1-.76c.37-.28.76-.58,1.17-.92l-.09.17-.1.21-.13.3c-.19.46-.44,1.15-.75,2.14a2.28,2.28,0,0,1-.14.35,3.29,3.29,0,0,1-.2.34c-.08.11-.16.22-.25.33s-.19.21-.29.32a6.73,6.73,0,0,1-1.41,1.06,8.85,8.85,0,0,1-1.32.62l-.24.08-.18.06-.12,0Z" style="fill:#333f48"/><path d="M33.55,8.43c-.45.08-.46.39-.46.39a.22.22,0,0,1-.2-.19c0-.19-.22-.84-.86-.41a.78.78,0,0,0-.17,1.21.56.56,0,0,0,.55,0s.09,1.07-.76,1.16c-.66.07-.68-1-.68-1l-.29,0a1.41,1.41,0,0,1-1.31.89c-1,0-.77-1.47-.45-1.83a1.8,1.8,0,0,1,2-.33,1.12,1.12,0,0,0-.64-1,1,1,0,0,0-1.05.13s-.09,0,0-.21a.88.88,0,1,0-1.68,0c.09.21,0,.21,0,.21a1,1,0,0,0-1.05-.13,1.12,1.12,0,0,0-.64,1,1.8,1.8,0,0,1,2,.33c.31.36.51,1.8-.45,1.83a1.41,1.41,0,0,1-1.31-.89l-.29,0s0,1.08-.68,1c-.86-.09-.76-1.16-.76-1.16a.56.56,0,0,0,.55,0,.78.78,0,0,0-.17-1.21c-.64-.43-.81.22-.86.41a.22.22,0,0,1-.2.19s0-.31-.46-.39a.64.64,0,0,0-.65.21c1.56.78,2.07,4,2.07,4h7.47s.51-3.21,2.07-4A.64.64,0,0,0,33.55,8.43Z" style="fill:#333f48"/><path d="M28.39,13.77H15V30.51c0,6.68,13.36,14,13.36,14s13.36-7.29,13.36-14V13.77Z" style="fill:#fff"/><path d="M28.39,43.55c-3.84-2.17-12.55-8.13-12.55-13V14.58h25.1V30.51C40.94,35.42,32.23,41.38,28.39,43.55Z" style="fill:#f1694f"/><path d="M28.39,44.82l-.15-.08c-.55-.3-13.52-7.45-13.52-14.24v-17H42.05v17c0,6.78-13,13.94-13.52,14.24ZM15.33,14.07V30.51c0,6.06,11.62,12.81,13.06,13.62,1.44-.81,13.06-7.57,13.06-13.62V14.07Z" style="fill:#f1694f"/><path d="M40.41,31.22l-.5-.07-.5-.06-.83-.1a103.42,103.42,0,0,0-22.67.35c.88,4.73,8.85,10.16,12.47,12.21C32,41.49,40,36,40.86,31.28Z" style="fill:#333f48"/><path d="M28.39,31.65a7.18,7.18,0,0,0-7.18,7.18c0,.09,0,.17,0,.26A53,53,0,0,0,28.38,44a53,53,0,0,0,7.18-4.95c0-.08,0-.16,0-.25A7.18,7.18,0,0,0,28.39,31.65Z" style="fill:#fff"/><path d="M20,33.11l.38.78h0l.86.13a0,0,0,0,1,0,0l-.62.61a0,0,0,0,0,0,0l.15.86a0,0,0,0,1,0,0l-.77-.4h0l-.77.4a0,0,0,0,1,0,0l.15-.86a0,0,0,0,0,0,0l-.62-.61a0,0,0,0,1,0,0l.86-.13h0l.38-.78A0,0,0,0,1,20,33.11Z" style="fill:#fff"/><path d="M36.81,33.11l.38.78h0l.86.13a0,0,0,0,1,0,0l-.62.61a0,0,0,0,0,0,0l.15.86a0,0,0,0,1,0,0l-.77-.4h0l-.77.4a0,0,0,0,1,0,0l.15-.86a0,0,0,0,0,0,0l-.62-.61a0,0,0,0,1,0,0l.86-.13h0l.38-.78A0,0,0,0,1,36.81,33.11Z" style="fill:#fff"/><path d="M18,18.05l-.41,0v-.58l.41,0c0,.16.14.25.27.25s.15,0,.15-.11a.13.13,0,0,0-.05-.11,1.23,1.23,0,0,0-.23-.13,2.32,2.32,0,0,1-.32-.19.6.6,0,0,1-.17-.19.5.5,0,0,1-.07-.26.48.48,0,0,1,.16-.39.58.58,0,0,1,.4-.14.61.61,0,0,1,.4.14v-.11H19v.53h-.4a.28.28,0,0,0-.26-.22q-.13,0-.13.11a.1.1,0,0,0,0,.08l.23.13.36.21.09.09.08.12a.6.6,0,0,1,.07.29.5.5,0,0,1-.17.39.55.55,0,0,1-.43.14.75.75,0,0,1-.43-.17S18,18,18,18.05Z" style="fill:#fff"/><path d="M21.51,18.23l-1.72-.08V17.7h.14v-1h-.14v-.45l1.72,0q0,.31,0,.63H21v-.16h-.41V17H21v.39h-.36v.32H21v-.16h.47Z" style="fill:#fff"/><path d="M24,18.31l-1.72-.05v-.47h.16v-1h-.16v-.47h1v.48h-.17v1h.43v-.32H24Z" style="fill:#fff"/><path d="M26.42,18.35l-1.72,0v-.49h.14q0-.53,0-1.06H24.7V16.3h1.72V17h-.47v-.16h-.41v.31h.36v.42h-.36v.33h.41v-.16h.47Z" style="fill:#fff"/><path d="M28.66,17.46l.47.19a1,1,0,0,1-.27.54.82.82,0,0,1-.6.21.93.93,0,0,1-.77-.31,1.16,1.16,0,0,1-.25-.75,1.19,1.19,0,0,1,.25-.76.77.77,0,0,1,.64-.31.75.75,0,0,1,.52.18V16.3h.43q0,.38,0,.75h-.45a.46.46,0,0,0-.12-.22.27.27,0,0,0-.19-.08q-.29,0-.29.58t.3.58Q28.59,17.91,28.66,17.46Z" style="fill:#fff"/><path d="M31.32,17.44l.47.18a1,1,0,0,1-.27.54.83.83,0,0,1-.6.22.91.91,0,0,1-.77-.3,1.14,1.14,0,0,1-.25-.75,1.19,1.19,0,0,1,.25-.76.78.78,0,0,1,.64-.31.75.75,0,0,1,.52.18V16.3h.43q0,.37,0,.74h-.45a.44.44,0,0,0-.12-.22.27.27,0,0,0-.19-.08q-.29,0-.29.57t.3.57Q31.25,17.89,31.32,17.44Z" style="fill:#fff"/><path d="M33.56,18.29l-1,0v-.48h.17q0-.53,0-1.05h-.17v-.48h1v.48h-.16q0,.52,0,1h.16Z" style="fill:#fff"/><path d="M34.31,17.27a1.12,1.12,0,0,1,.11-.48,1,1,0,0,1,.34-.39l.17-.09.19-.05.21,0a.94.94,0,0,1,.75.3,1.06,1.06,0,0,1,.2.32,1,1,0,0,1,.07.37,1,1,0,0,1-.27.71,1,1,0,0,1-.74.33A.94.94,0,0,1,34.6,18,1,1,0,0,1,34.31,17.27Zm1.09-1.11h-.31l.24-.51h.6Zm-.3,1.1a1.09,1.09,0,0,0,.06.44.18.18,0,0,0,.18.11.2.2,0,0,0,.18-.12,1.7,1.7,0,0,0,0-.88.18.18,0,0,0-.18-.11.19.19,0,0,0-.18.11A1.11,1.11,0,0,0,35.1,17.25Z" style="fill:#fff"/><path d="M37.84,18.11l-.74,0q0-.23,0-.45h.16q0-.49,0-1H37.1q0-.23,0-.45H38l.66.95v-.52h-.15v-.44h.73v.43H39q0,.7,0,1.4l-.59,0L37.68,17v.66h.16Z" style="fill:#fff"/><path d="M18.94,9.25l.44.89h0l1,.14a0,0,0,0,1,0,0l-.71.69a0,0,0,0,0,0,0l.17,1a0,0,0,0,1,0,0l-.88-.46h0l-.88.46a0,0,0,0,1,0,0l.17-1a0,0,0,0,0,0,0l-.71-.69a0,0,0,0,1,0,0l1-.14h0l.44-.89A0,0,0,0,1,18.94,9.25Z" style="fill:#f1694f"/><path d="M37.88,9.25l.44.89h0l1,.14a0,0,0,0,1,0,0l-.71.69a0,0,0,0,0,0,0l.17,1a0,0,0,0,1,0,0l-.88-.46h0l-.88.46a0,0,0,0,1,0,0l.17-1a0,0,0,0,0,0,0l-.71-.69a0,0,0,0,1,0,0l1-.14h0l.44-.89A0,0,0,0,1,37.88,9.25Z" style="fill:#f1694f"/><path d="M44,17.6a1.15,1.15,0,0,0-1.11-.06,34.06,34.06,0,0,1-7.94,2.67,1.15,1.15,0,0,0-.33.12,1.15,1.15,0,0,0-.48,0,32.62,32.62,0,0,1-3.73.45,1.15,1.15,0,0,0-1.08,1.15v1h-2v-1a1.15,1.15,0,0,0-1.08-1.15,32.65,32.65,0,0,1-3.86-.49,1.15,1.15,0,0,0-.95.25l-.09.09-.47-.47a1.15,1.15,0,0,0-.54-.32,33.92,33.92,0,0,1-5.41-1.89,1.15,1.15,0,0,0-1.1.09c-.38.25-.75.51-1.11.79a1.15,1.15,0,0,0-.45.91V32.13a1.15,1.15,0,0,0,.42.89c.4.33.83.65,1.25.94a1.15,1.15,0,0,0,1.11.1,33.89,33.89,0,0,1,5.27-1.83,1.15,1.15,0,0,0,.55-.32c.36-.38.73-.74,1.12-1.1a1.15,1.15,0,0,0,.37-.85v-2.5a1.15,1.15,0,0,0-1.23-1.15c-.85.06-1.71.12-2.55.2a1.15,1.15,0,0,0-1.05,1.15v1l-.55.12V23.34l.57.12v.18a1.15,1.15,0,0,0,1,1.14c.84.11,1.69.21,2.54.29a1.15,1.15,0,0,0,.89-.29l.12-.13c.41,1.91.84,3.85,1.32,5.89a1.15,1.15,0,0,0,1.12.89h.13c.74-.09,1.49-.15,2.24-.18a1.15,1.15,0,0,0,1-.74l.33-.88.33.87a1.15,1.15,0,0,0,1,.74c.74,0,1.5.08,2.24.17a1.15,1.15,0,0,0,1.25-.89c.44-1.93.84-3.77,1.22-5.56h0a1.15,1.15,0,0,0,.88.3l1.64-.15v3.2A1.15,1.15,0,0,0,36,29.41v1.82a1.15,1.15,0,0,0,.85,1.11A33.88,33.88,0,0,1,41,33.74a1.15,1.15,0,0,0,1.59-1.07V30.35a1.15,1.15,0,0,0-.85-1.11h0V24.46l1.87-.34A1.15,1.15,0,0,0,44.5,23V18.57A1.15,1.15,0,0,0,44,17.6Zm-25.25,6V22.52q-1.45-.28-2.88-.64v8.35q1.42-.37,2.86-.65V27.66q1.25-.11,2.52-.19V30c-.39.36-.78.74-1.17,1.15A34.94,34.94,0,0,0,14.59,33c-.39-.27-.78-.56-1.17-.87V19.71q.51-.4,1-.73A35,35,0,0,0,20,20.93q.58.6,1.17,1.13v1.86Q20,23.8,18.71,23.64ZM32,30.26q-1.16-.13-2.32-.17c-.47-1.24-.94-2.45-1.41-3.67-.47,1.21-.94,2.43-1.41,3.68q-1.16.05-2.32.19C24,28,23.49,25.65,23,23.13L22.18,23V21.4a33.67,33.67,0,0,0,4,.51v1.48l-.65,0q.31,2,.62,3.9c.44-1.09.88-2.15,1.31-3.21h1.69c.48,1,1,2.1,1.44,3.18q.35-1.91.7-3.87l-.84,0V21.91a33.65,33.65,0,0,0,3.86-.46v1.64l-.76.08C33,25.65,32.53,28,32,30.26ZM43.35,23l-2,.36V21.76l-.79.2v8.17l.87.23v2.32a34.89,34.89,0,0,0-4.23-1.44V29.41l.84.16V22.51l-.81.15v1.25l-2.08.2V21.34a35.15,35.15,0,0,0,8.21-2.76Z" style="fill:#f1694f"/><path d="M21.64,22.48q-.59-.53-1.17-1.13a35,35,0,0,1-5.59-1.95q-.52.34-1,.73V32.55c.39.32.78.61,1.17.87a34.94,34.94,0,0,1,5.45-1.89c.39-.41.78-.79,1.17-1.15v-2.5q-1.27.08-2.52.19V30q-1.44.28-2.86.65V22.3q1.43.36,2.88.64v1.12q1.24.16,2.5.28Z" style="fill:#333f48"/><path d="M34.73,23.51V21.87a33.65,33.65,0,0,1-3.86.46v1.47l.84,0q-.35,2-.7,3.87c-.48-1.08-1-2.13-1.44-3.18H27.88c-.44,1.06-.88,2.12-1.31,3.21q-.31-1.93-.62-3.9l.65,0V22.33a33.67,33.67,0,0,1-4-.51v1.65l.79.09c.53,2.51,1.05,4.87,1.58,7.15q1.16-.13,2.32-.19c.47-1.25.94-2.46,1.41-3.68.47,1.21.94,2.43,1.41,3.67q1.16,0,2.32.17c.51-2.26,1-4.61,1.54-7.09Z" style="fill:#333f48"/><path d="M35.57,21.76v2.77l2.08-.2V23.08l.81-.15V30l-.84-.16v1.82a34.89,34.89,0,0,1,4.23,1.44V30.78L41,30.55V22.38l.79-.2v1.59l2-.36V19A35.15,35.15,0,0,1,35.57,21.76Z" style="fill:#333f48"/><path d="M21.43,22.27q-.59-.53-1.17-1.13a35,35,0,0,1-5.59-1.95q-.52.34-1,.73V32.34c.39.32.78.61,1.17.87a34.94,34.94,0,0,1,5.45-1.89c.39-.41.78-.79,1.17-1.15v-2.5q-1.27.08-2.52.19v1.92q-1.44.28-2.86.65V22.09q1.43.36,2.88.64v1.12q1.24.16,2.5.28Z" style="fill:#f1694f"/><path d="M34.52,23.3V21.66a33.65,33.65,0,0,1-3.86.46V23.6l.84,0q-.35,2-.7,3.87c-.48-1.08-1-2.13-1.44-3.18H27.67c-.44,1.06-.88,2.12-1.31,3.21q-.31-1.93-.62-3.9l.65,0V22.12a33.67,33.67,0,0,1-4-.51v1.65l.79.09c.53,2.51,1.05,4.87,1.58,7.15q1.16-.13,2.32-.19c.47-1.25.94-2.46,1.41-3.68.47,1.21.94,2.43,1.41,3.67q1.16,0,2.32.17c.51-2.26,1-4.61,1.54-7.09Z" style="fill:#f1694f"/><path d="M35.35,21.55v2.77l2.08-.2V22.87l.81-.15v7.06l-.84-.16v1.82a34.89,34.89,0,0,1,4.23,1.44V30.57l-.87-.23V22.17l.79-.2v1.59l2-.36V18.78A35.15,35.15,0,0,1,35.35,21.55Z" style="fill:#f1694f"/><path d="M21.22,22.06q-.59-.53-1.17-1.13A35,35,0,0,1,14.45,19q-.52.34-1,.73V32.13c.39.32.78.61,1.17.87A34.94,34.94,0,0,1,20,31.11c.39-.41.78-.79,1.17-1.15v-2.5q-1.27.08-2.52.19v1.92q-1.44.28-2.86.65V21.88q1.43.36,2.88.64v1.12q1.24.16,2.5.28Z" style="fill:#fff"/><path d="M34.31,23.09V21.45a33.65,33.65,0,0,1-3.86.46v1.47l.84,0q-.35,2-.7,3.87c-.48-1.08-1-2.13-1.44-3.18H27.45c-.44,1.06-.88,2.12-1.31,3.21q-.31-1.93-.62-3.9l.65,0V21.9a33.67,33.67,0,0,1-4-.51V23l.79.09c.53,2.51,1.05,4.87,1.58,7.15q1.16-.13,2.32-.19c.47-1.25.94-2.46,1.41-3.68.47,1.21.94,2.43,1.41,3.67q1.16,0,2.32.17c.51-2.26,1-4.61,1.54-7.09Z" style="fill:#fff"/><path d="M35.14,21.34v2.77l2.08-.2V22.66l.81-.15v7.06l-.84-.16v1.82a34.89,34.89,0,0,1,4.23,1.44V30.35l-.87-.23V22l.79-.2v1.59l2-.36V18.57A35.15,35.15,0,0,1,35.14,21.34Z" style="fill:#fff"/><path d="M29.93,45.12c1.51-.46,7.46-2.57,11.74-4,2.76-.89,3.82.75,3.82,2v4.91c-.19-1-1.74-2-3.73-1.38-3.09.95-8.79,3.12-11.75,4-1.39.41-2-.13-2.16-1.4-.37-3.34-1.6-3.08-4.52-2.26-2,.57-6.46,2.38-9.41,3.21-.94.27-2.63.27-2.63-1.47V43.63a1.85,1.85,0,0,0,2.38,1.12c2.05-.56,6.93-2.42,9.54-3.27s4.22-.81,4.61,1S28.17,45.66,29.93,45.12Z" style="fill:#f1694f;fill-rule:evenodd"/><circle cx="28.39" cy="38.78" r="6.66" style="fill:#292929"/><path d="M30.26,44.71,30,44.33l1-1.39,2.07-1.24.61.36A6.25,6.25,0,0,1,30.26,44.71Z" style="fill:#fff"/><path d="M34.06,37.45l.42.06a6.21,6.21,0,0,1-.59,4.17l-.61-.36V38.83Z" style="fill:#fff"/><polygon points="33.34 36.64 33.69 37.22 32.93 38.55 31.41 38.55 30.19 36.31 30.33 35.99 30.75 35.01 32.48 35.2 33.34 36.64" style="fill:#fff"/><path d="M28.61,32.56a6.2,6.2,0,0,1,4.08,1.72l-.21.47-1.79-.2-2.07-1.24Z" style="fill:#fff"/><polygon points="29.81 36.55 31.02 38.77 29.81 40.99 26.96 40.99 26.36 39.88 25.75 38.77 26.36 37.66 26.96 36.55 29.81 36.55" style="fill:#fff"/><path d="M28.16,32.56v.75l-2.07,1.24-1.79.2-.21-.47A6.2,6.2,0,0,1,28.16,32.56Z" style="fill:#fff"/><polygon points="24.3 35.2 26.02 35.01 26.58 36.31 25.36 38.55 23.85 38.55 23.09 37.22 24.3 35.2" style="fill:#fff"/><path d="M22.16,38.77a6.23,6.23,0,0,1,.13-1.26l.42-.06.79,1.38v2.48l-.61.36A6.18,6.18,0,0,1,22.16,38.77Z" style="fill:#fff"/><path d="M26.51,44.71a6.25,6.25,0,0,1-3.4-2.65l.61-.36,2.07,1.24,1,1.39Z" style="fill:#fff"/><polygon points="27.17 44.11 26.2 42.76 26.71 41.88 26.96 41.44 29.81 41.44 30.57 42.76 29.61 44.11 27.17 44.11" style="fill:#fff"/></svg>