<svg id="Layer_1" data-name="Layer 1" xmlns="http://www.w3.org/2000/svg" viewBox="0 0 56.77 56.77"><title>program-management</title><path d="M49.2,18.38c-.52-2.48-2.52-2.78-4.52-3.09s-4-.61-4.52-3.09L41,10.91l.88-1.29c.52,2.48,2.52,2.78,4.52,3.09s4,.61,4.52,3.09c-.6-1-1.73-1.32-3.07-1.28A5.42,5.42,0,0,1,49.2,18.38Z" style="fill:#eb2027"/><path d="M31.88,24.58a.27.27,0,0,1-.23-.43L42.73,7.93a.27.27,0,0,1,.45.31L32.11,24.46A.27.27,0,0,1,31.88,24.58Z" style="fill:#faaf41"/><polygon points="44.31 6.11 42.44 7.96 43.27 8.53 44.31 6.11" style="fill:#faaf41"/><circle cx="42.37" cy="8.95" r="0.5" transform="translate(11.09 38.9) rotate(-55.67)" style="fill:#faaf41"/><path d="M7.57,18.38c.52-2.48,2.52-2.78,4.52-3.09s4-.61,4.52-3.09l-.88-1.29-.88-1.29c-.52,2.48-2.52,2.78-4.52,3.09s-4,.61-4.52,3.09c.6-1,1.73-1.32,3.07-1.28A5.42,5.42,0,0,0,7.57,18.38Z" style="fill:#003764"/><path d="M24.89,24.58a.27.27,0,0,0,.23-.43L14,7.93a.27.27,0,0,0-.45.31L24.66,24.46A.27.27,0,0,0,24.89,24.58Z" style="fill:#faaf41"/><polygon points="12.46 6.11 14.33 7.96 13.51 8.53 12.46 6.11" style="fill:#faaf41"/><circle cx="14.4" cy="8.95" r="0.5" transform="translate(-2.54 9.68) rotate(-34.33)" style="fill:#faaf41"/><path d="M47.49,24.09v1.15a29.41,29.41,0,0,1-5.43,16.94,26.66,26.66,0,0,1-11.52,9.5c-.49.19-1,.35-1.49.51l-.57.17a.32.32,0,0,1-.19,0l-.57-.18c-.49-.15-1-.31-1.47-.5a26.65,26.65,0,0,1-11.53-9.5A29.41,29.41,0,0,1,9.29,25.24V24.09c0-.33.89-.68,1.18-.84a15.16,15.16,0,0,0,5.85-6.35l.55-1a.32.32,0,0,1,.29-.17H39.62c.33,0,.68.89.84,1.19a15.16,15.16,0,0,0,5.85,6.35l1,.55A.32.32,0,0,1,47.49,24.09Z" style="fill:#003764;fill-rule:evenodd"/><path d="M28.35,50.14h.07c.45-.14.9-.28,1.34-.45a24.57,24.57,0,0,0,10.55-8.74,27.27,27.27,0,0,0,5-15.71.11.11,0,0,0-.06-.11,17.22,17.22,0,0,1-6.71-7.21.11.11,0,0,0-.11-.06H18.31a.11.11,0,0,0-.11.06,17.22,17.22,0,0,1-6.71,7.21.11.11,0,0,0-.06.11,27.27,27.27,0,0,0,5,15.72A24.56,24.56,0,0,0,27,49.69c.43.17.88.31,1.32.45" style="fill:#fff;fill-rule:evenodd"/><path d="M44.38,25.61A18.15,18.15,0,0,1,38,18.7H18.8a18.15,18.15,0,0,1-6.41,6.91,26.34,26.34,0,0,0,4.87,14.67,23.61,23.61,0,0,0,10.12,8.39c.33.13.67.24,1,.35.34-.11.69-.22,1-.35a23.62,23.62,0,0,0,10.11-8.4,26.34,26.34,0,0,0,4.86-14.67" style="fill:#eb2027;fill-rule:evenodd"/><path d="M22,22.06v.55a.44.44,0,0,0,.13.33h-.82a.47.47,0,0,0,.13-.33V20.24a.44.44,0,0,0-.13-.33h.58c.77,0,1.09.19,1.09,1.14A.92.92,0,0,1,22,22.06Zm0-.29c.37,0,.4-.41.4-.85s-.11-.66-.4-.66Z" style="fill:#fff"/><path d="M24.35,21.7c.33.1.38.49.43.91a.54.54,0,0,0,.15.33h-.66c-.14-.31,0-1-.42-1.11v.78a.44.44,0,0,0,.13.33h-.82a.4.4,0,0,0,.13-.33V20.26a.53.53,0,0,0-.13-.35h.45c.93-.06,1.21.18,1.21.88A.88.88,0,0,1,24.35,21.7Zm-.08-.82c0-.24,0-.65-.41-.64v1.31C24.18,21.48,24.27,21.18,24.27,20.87Z" style="fill:#fff"/><path d="M26.55,22.79a.78.78,0,0,1-1.05,0,2,2,0,0,1-.36-1.36,2,2,0,0,1,.36-1.37.79.79,0,0,1,1.05,0,2,2,0,0,1,.36,1.37A2,2,0,0,1,26.55,22.79ZM26,22.64c.24,0,.29-.64.29-1.21s-.05-1.21-.29-1.21-.29.63-.29,1.21S25.78,22.64,26,22.64Z" style="fill:#fff"/><path d="M29,21.17a.33.33,0,0,0-.12.28V23c-.38-.19-.39,0-.87,0-.65,0-.78-.77-.79-1.52s.09-1.61.86-1.61c.36,0,.47.13.69,0v1c-.19-.56-.34-.69-.58-.66s-.38.52-.38,1.21.05,1.14.27,1.15.27-.06.27-.47v-.68a.38.38,0,0,0-.14-.28Z" style="fill:#fff"/><path d="M30.39,21.7c.33.1.38.49.43.91a.54.54,0,0,0,.15.33h-.66c-.14-.31,0-1-.42-1.11v.78a.44.44,0,0,0,.13.33h-.82a.4.4,0,0,0,.13-.33V20.26a.53.53,0,0,0-.13-.35h.45c.93-.06,1.21.18,1.21.88A.88.88,0,0,1,30.39,21.7Zm-.08-.82c0-.24,0-.65-.41-.64v1.31C30.23,21.48,30.31,21.18,30.31,20.87Z" style="fill:#fff"/><path d="M32.16,22.94a.32.32,0,0,0,.1-.33l-.09-.53h-.5l-.09.56a.34.34,0,0,0,.09.3H31a.62.62,0,0,0,.15-.3l.43-2.39a.51.51,0,0,0,0-.33h1a.55.55,0,0,0,0,.33l.42,2.36a.53.53,0,0,0,.17.33Zm0-1.2-.19-1.33-.2,1.33Z" style="fill:#fff"/><path d="M35.51,19.91a.46.46,0,0,0-.13.33v2.37a.52.52,0,0,0,.13.33h-.83a.42.42,0,0,0,.13-.33V20.85l-.53,1.88h-.1l-.48-1.88v1.76a.45.45,0,0,0,.13.33h-.64a.42.42,0,0,0,.13-.33V20.24a.43.43,0,0,0-.13-.33h.78l.37,1.28.39-1.28Z" style="fill:#fff"/><path d="M20.53,23.92a.46.46,0,0,0-.13.33v2.37a.52.52,0,0,0,.13.33H19.7a.42.42,0,0,0,.13-.33V24.86l-.53,1.88h-.1l-.48-1.88v1.76a.45.45,0,0,0,.13.33h-.64a.42.42,0,0,0,.13-.33V24.25a.43.43,0,0,0-.13-.33H19l.37,1.28.39-1.28Z" style="fill:#fff"/><path d="M21.81,27a.32.32,0,0,0,.1-.33l-.09-.53h-.5l-.09.56a.34.34,0,0,0,.09.3h-.67a.62.62,0,0,0,.15-.3l.43-2.39a.51.51,0,0,0,0-.33h1a.55.55,0,0,0,0,.33l.42,2.36a.53.53,0,0,0,.17.33Zm0-1.2-.19-1.33-.2,1.33Z" style="fill:#fff"/><path d="M24.7,23.92a.42.42,0,0,0-.14.33v2.2a1.53,1.53,0,0,0,.06.5H24c-.21-.61-.42-1.23-.63-1.85v1.52a.42.42,0,0,0,.14.33h-.75a.4.4,0,0,0,.14-.33V24.25a.43.43,0,0,0-.14-.33h.75l.4,1.16.15.52V24.25a.44.44,0,0,0-.14-.33Z" style="fill:#fff"/><path d="M26,27a.32.32,0,0,0,.1-.33L26,26.09h-.5l-.09.56a.34.34,0,0,0,.09.3h-.67a.62.62,0,0,0,.15-.3l.43-2.39a.51.51,0,0,0,0-.33h1a.55.55,0,0,0,0,.33l.42,2.36a.53.53,0,0,0,.17.33Zm0-1.2-.19-1.33-.2,1.33Z" style="fill:#fff"/><path d="M28.72,25.18a.33.33,0,0,0-.12.28V27c-.38-.19-.39,0-.87,0-.65,0-.78-.77-.79-1.52s.09-1.61.86-1.61c.36,0,.47.13.69,0v1c-.19-.56-.34-.69-.58-.66s-.38.52-.38,1.21.05,1.14.27,1.15.27-.06.27-.47v-.68a.38.38,0,0,0-.14-.28Z" style="fill:#fff"/><path d="M30.37,27H28.93a.38.38,0,0,0,.13-.33V24.25a.45.45,0,0,0-.13-.33h1.44v.7a.78.78,0,0,0-.75-.37v.84a.65.65,0,0,0,.55-.22v.77c-.09-.15-.25-.21-.55-.22v1.19a.84.84,0,0,0,.74-.6Z" style="fill:#fff"/><path d="M33,23.92a.46.46,0,0,0-.13.33v2.37A.52.52,0,0,0,33,27h-.83a.42.42,0,0,0,.13-.33V24.86l-.53,1.88h-.1l-.48-1.88v1.76a.45.45,0,0,0,.13.33h-.64a.42.42,0,0,0,.13-.33V24.25a.43.43,0,0,0-.13-.33h.78l.37,1.28.39-1.28Z" style="fill:#fff"/><path d="M34.61,27H33.18a.38.38,0,0,0,.13-.33V24.25a.45.45,0,0,0-.13-.33h1.44v.7a.78.78,0,0,0-.75-.37v.84a.65.65,0,0,0,.55-.22v.77c-.09-.15-.25-.21-.55-.22v1.19a.84.84,0,0,0,.74-.6Z" style="fill:#fff"/><path d="M36.77,23.92a.42.42,0,0,0-.14.33v2.2a1.53,1.53,0,0,0,.06.5h-.58c-.21-.61-.42-1.23-.63-1.85v1.52a.42.42,0,0,0,.14.33h-.75a.4.4,0,0,0,.14-.33V24.25a.43.43,0,0,0-.14-.33h.75l.4,1.16.15.52V24.25a.44.44,0,0,0-.14-.33Z" style="fill:#fff"/><path d="M38.11,26.63a.43.43,0,0,0,.13.33h-.82a.46.46,0,0,0,.13-.33V24.27a.72.72,0,0,0-.55.45v-.8h1.66v.8a.72.72,0,0,0-.55-.45Z" style="fill:#fff"/><polygon points="37.29 20.31 37.54 21.09 38.37 21.09 37.7 21.57 37.95 22.35 37.29 21.87 36.62 22.35 36.88 21.57 36.21 21.09 37.03 21.09 37.29 20.31" style="fill:#fff;fill-rule:evenodd"/><polygon points="19.48 20.31 19.74 21.09 20.56 21.09 19.9 21.57 20.15 22.35 19.48 21.87 18.82 22.35 19.07 21.57 18.41 21.09 19.23 21.09 19.48 20.31" style="fill:#fff;fill-rule:evenodd"/><path d="M36.85,11.73a3.59,3.59,0,0,1-.38,2.18l-.3,1.81H29.3a1,1,0,0,1-1.85,0H20.51l-.3-1.84h0a3.57,3.57,0,0,1-.33-2.09,2.3,2.3,0,0,1,1.49-1.93,3.48,3.48,0,0,1,.64-.1,1.89,1.89,0,0,1,1.53-1.14,5.67,5.67,0,0,1,1.36.09,2.14,2.14,0,0,1,.33-.62,3.57,3.57,0,0,1,2.81-1.3V6.16H27.7l-.22.25a1.23,1.23,0,0,1-.05-1.49l.21.22H28l-.1-.31-.21-.21a1.24,1.24,0,0,1,1.44,0l-.19.29v.19h.27l.14-.24a1.11,1.11,0,0,1,0,1.53l-.18-.25h-.45v.64a3.76,3.76,0,0,1,2.76,1.29,2.13,2.13,0,0,1,.35.55,5.65,5.65,0,0,1,1.3-.08A1.89,1.89,0,0,1,34.66,9.7a3.24,3.24,0,0,1,.7.1A2.3,2.3,0,0,1,36.85,11.73Zm-.66,2.15a3.37,3.37,0,0,0,.4-2.11A2,2,0,0,0,35.31,10a3.43,3.43,0,0,0-.53-.09l0,.14a3,3,0,0,1,.13.78.48.48,0,0,1-.06.95c0,.14,0,.27-.07.41a.57.57,0,0,1-.25,1.08h0c-.08.24-.15.43-.21.56Zm-1.59-2.94a3,3,0,0,0-.13-.73c-.25-.79-.82-1.32-1.3-1.31S32.24,8.94,32,9A3.35,3.35,0,0,1,32,9.3a.48.48,0,0,1,.08.85c0,.15,0,.3,0,.44A.57.57,0,0,1,32,11.67l-.06.39a.76.76,0,0,1-.31,1.44l-.1.38H34c0-.05.14-.31.26-.68a.57.57,0,0,1,.27-1c0-.14.05-.29.07-.43a.48.48,0,0,1,0-.81Zm-.55,4.27.35-.35-.35-.35-.35.35Zm-2.72.23.58-.58-.58-.58-.58.58Zm.31-4.85c0-.13,0-.27,0-.4a.48.48,0,0,1-.07-.83,2.74,2.74,0,0,0-.38-1.08,3.16,3.16,0,0,0-2.82-1.15,3.17,3.17,0,0,0-2.83,1.16,2.73,2.73,0,0,0-.38,1.06.48.48,0,0,1-.08.87c0,.12,0,.24,0,.36a.57.57,0,0,1,.07,1.07c0,.12,0,.24,0,.35h0a.76.76,0,0,1,.25,1.48c0,.18.07.33.1.42h1.95a1,1,0,0,1,1.74,0h1.91c0-.09.06-.25.11-.45A.76.76,0,0,1,31.52,12c0-.12,0-.25,0-.38a.57.57,0,0,1,.07-1Zm-2.48,4.28c0-.64-.34-1.16-.77-1.16s-.77.52-.77,1.16S28,16,28.39,16,29.16,15.5,29.16,14.86Zm-3.71.54.58-.58-.58-.58-.58.58Zm-2.73-1.51h2.49l-.1-.38a.76.76,0,0,1-.29-1.4c0-.14,0-.29-.06-.44a.57.57,0,0,1-.07-1.06c0-.14,0-.28,0-.43a.48.48,0,0,1,.09-.88c0-.08,0-.16.05-.24C24.55,9,24,9,23.54,9s-1.08.55-1.33,1.34a2.8,2.8,0,0,0-.12.61.48.48,0,0,1,0,.89c0,.13,0,.26.06.39h0a.57.57,0,0,1,.28,1.07C22.57,13.54,22.67,13.77,22.72,13.88Zm.05,1.29.35-.35-.35-.35-.35.35Zm-2.22-1.29h1.82c-.05-.14-.13-.33-.2-.56a.57.57,0,0,1-.28-1c0-.15-.06-.3-.08-.45a.48.48,0,0,1,0-.92,3,3,0,0,1,.13-.74l0-.13a3.72,3.72,0,0,0-.47.08,2,2,0,0,0-1.28,1.72A3.36,3.36,0,0,0,20.55,13.88Z" style="fill:#faaf41"/><path d="M36.59,11.77a3.37,3.37,0,0,1-.4,2.11H34.32c.05-.13.13-.33.21-.56h0a.57.57,0,0,0,.25-1.08c0-.13.05-.27.07-.41a.48.48,0,0,0,.06-.95,3,3,0,0,0-.13-.78l0-.14a3.43,3.43,0,0,1,.53.09A2,2,0,0,1,36.59,11.77Z" style="fill:#003764"/><path d="M34.48,10.2a3,3,0,0,1,.13.73.48.48,0,0,0,0,.81c0,.15,0,.29-.07.43a.57.57,0,0,0-.27,1c-.13.37-.24.63-.26.68H31.51l.1-.38a.76.76,0,0,0,.31-1.44l.06-.39a.57.57,0,0,0,.12-1.07c0-.15,0-.3,0-.44A.48.48,0,0,0,32,9.3,3.35,3.35,0,0,0,32,9c.29,0,.77-.07,1.22-.08S34.23,9.41,34.48,10.2Z" style="fill:#eb2027"/><rect x="33.8" y="14.6" width="0.5" height="0.5" transform="translate(-0.53 28.43) rotate(-45)" style="fill:#eb2027"/><rect x="30.93" y="14.45" width="0.82" height="0.82" transform="translate(-1.33 26.5) rotate(-44.98)" style="fill:#003764"/><path d="M31.64,10.18c0,.13,0,.26,0,.4a.57.57,0,0,0-.07,1c0,.13,0,.26,0,.38a.76.76,0,0,0-.26,1.44c0,.2-.08.35-.11.45H29.25a1,1,0,0,0-1.74,0H25.56c0-.09-.06-.23-.1-.42A.76.76,0,0,0,25.22,12h0c0-.12,0-.23,0-.35a.57.57,0,0,0-.07-1.07c0-.12,0-.24,0-.36a.48.48,0,0,0,.08-.87,2.73,2.73,0,0,1,.38-1.06,3.17,3.17,0,0,1,2.83-1.16A3.16,3.16,0,0,1,31.2,8.27a2.74,2.74,0,0,1,.38,1.08.48.48,0,0,0,.07.83Z" style="fill:#003764"/><ellipse cx="28.39" cy="14.86" rx="0.77" ry="1.16" style="fill:#eb2027"/><rect x="25.04" y="14.4" width="0.82" height="0.82" transform="translate(-3.02 22.33) rotate(-45)" style="fill:#003764"/><path d="M25.21,13.88H22.72c0-.11-.15-.34-.25-.64a.57.57,0,0,0-.28-1.07h0c0-.13,0-.26-.06-.39a.48.48,0,0,0,0-.89,2.8,2.8,0,0,1,.12-.61c.25-.79.85-1.35,1.33-1.34s1,.06,1.3.09c0,.08,0,.16-.05.24a.48.48,0,0,0-.09.88c0,.14,0,.28,0,.43a.57.57,0,0,0,.07,1.06c0,.15,0,.3.06.44a.76.76,0,0,0,.29,1.4Z" style="fill:#eb2027"/><rect x="22.52" y="14.56" width="0.5" height="0.5" transform="translate(-3.81 20.44) rotate(-45)" style="fill:#eb2027"/><path d="M22.37,13.88H20.55a3.36,3.36,0,0,1-.37-2.05,2,2,0,0,1,1.28-1.72,3.72,3.72,0,0,1,.47-.08l0,.13a3,3,0,0,0-.13.74.48.48,0,0,0,0,.92c0,.15,0,.3.08.45a.57.57,0,0,0,.28,1C22.24,13.55,22.31,13.74,22.37,13.88Z" style="fill:#003764"/><path d="M28.38,46a8.71,8.71,0,0,1-1-.06.79.79,0,0,1-.7-.84,1.54,1.54,0,0,0-.94-1.51,1.42,1.42,0,0,0-.55-.11A1.63,1.63,0,0,0,24,44a.8.8,0,0,1-1.09.09,8.69,8.69,0,0,1-1.39-1.4.8.8,0,0,1,.09-1.08A1.55,1.55,0,0,0,22,39.91a1.53,1.53,0,0,0-1.39-1h0a.89.89,0,0,1-.89-.71,8.76,8.76,0,0,1,0-2,.78.78,0,0,1,.79-.7h0A1.62,1.62,0,0,0,22,34.62a1.54,1.54,0,0,0-.39-1.73.8.8,0,0,1-.09-1.09A8.7,8.7,0,0,1,23,30.4a.8.8,0,0,1,1.08.09,1.63,1.63,0,0,0,1.18.49,1.42,1.42,0,0,0,.54-.1,1.55,1.55,0,0,0,1-1.48.8.8,0,0,1,.71-.82,8.73,8.73,0,0,1,2,0,.8.8,0,0,1,.7.84A1.54,1.54,0,0,0,31,30.93a1.43,1.43,0,0,0,.55.11,1.62,1.62,0,0,0,1.18-.5.8.8,0,0,1,1.09-.09,8.67,8.67,0,0,1,1.39,1.4.8.8,0,0,1-.09,1.08,1.53,1.53,0,0,0,1.05,2.67.88.88,0,0,1,.87.71,8.74,8.74,0,0,1,0,2,.8.8,0,0,1-.78.7h-.15a1.53,1.53,0,0,0-1,2.68.8.8,0,0,1,.09,1.09,8.73,8.73,0,0,1-1.42,1.4.8.8,0,0,1-1.08-.09,1.63,1.63,0,0,0-1.18-.5,1.43,1.43,0,0,0-.54.1,1.54,1.54,0,0,0-1,1.48.8.8,0,0,1-.71.82A8.73,8.73,0,0,1,28.38,46Z" style="fill:#fff;fill-rule:evenodd"/><path d="M36.76,36.35a.55.55,0,0,0-.54-.42,1.86,1.86,0,0,1-1.27-3.24.47.47,0,0,0,.05-.64,8.34,8.34,0,0,0-1.34-1.35.47.47,0,0,0-.64.05,1.94,1.94,0,0,1-2.1.47,1.87,1.87,0,0,1-1.14-1.83.47.47,0,0,0-.41-.49,8.41,8.41,0,0,0-1.9,0,.47.47,0,0,0-.42.48,1.88,1.88,0,0,1-1.15,1.8,2,2,0,0,1-2.09-.48.47.47,0,0,0-.64-.05A8.38,8.38,0,0,0,21.81,32a.47.47,0,0,0,.05.64,1.87,1.87,0,0,1,.47,2.1,2,2,0,0,1-1.83,1.14.46.46,0,0,0-.49.41,8.44,8.44,0,0,0,0,1.92.56.56,0,0,0,.55.41,1.85,1.85,0,0,1,1.73,1.15,1.87,1.87,0,0,1-.47,2.08.47.47,0,0,0-.05.63,8.37,8.37,0,0,0,1.33,1.35.47.47,0,0,0,.64-.05,1.94,1.94,0,0,1,2.1-.47A1.87,1.87,0,0,1,27,45.16a.47.47,0,0,0,.41.49,8.4,8.4,0,0,0,1.9,0,.47.47,0,0,0,.42-.48,1.87,1.87,0,0,1,1.15-1.8,2,2,0,0,1,2.09.47.47.47,0,0,0,.64.05A8.4,8.4,0,0,0,35,42.56a.47.47,0,0,0-.05-.64,1.87,1.87,0,0,1-.47-2.1,1.89,1.89,0,0,1,1.72-1.14h.1a.47.47,0,0,0,.49-.41,8.41,8.41,0,0,0,0-1.92ZM28.4,40.11" style="fill:#003764;fill-rule:evenodd"/><path d="M25.81,35.93,27,35.08l1.19-.84V32.49l-1.83-.55a5.79,5.79,0,0,0-2.41,1.71l-.12,1.88Z" style="fill:#fff;fill-rule:evenodd"/><path d="M26.61,38.92l-.44-1.32-.43-1.31-2.06-.4-1.06,1.24c0,.08,0,.15,0,.23a5.75,5.75,0,0,0,1.1,3.4l1.55.43Z" style="fill:#fff;fill-rule:evenodd"/><path d="M29.81,39.16H26.9l-1.35,2.27,1.12,1.45a5.81,5.81,0,0,0,3.49,0l1-1.5Z" style="fill:#fff;fill-rule:evenodd"/><path d="M31,36.32l-.43,1.29-.44,1.34,1.26,2.13,2-.74a5.75,5.75,0,0,0,.82-3c0-.08,0-.16,0-.24L33,35.75Z" style="fill:#fff;fill-rule:evenodd"/><path d="M28.57,34.26l1.15.82,1.21.86,1.88-.53-.13-1.91a5.79,5.79,0,0,0-2.42-1.6l-1.71.63Z" style="fill:#fff;fill-rule:evenodd"/></svg>