<svg id="Layer_1" data-name="Layer 1" xmlns="http://www.w3.org/2000/svg" viewBox="0 0 56.77 56.77"><title>recursos-humanos</title><path d="M39,37.77c-6.77,3.82-9.55,5.88-10.64,6.83-1.09-.94-3.85-3-10.65-6.83S11.81,31,13.21,26.11v0c.15-.53.31-1.07.46-1.63a29.6,29.6,0,0,0,.8-3.87,14.18,14.18,0,0,0-.76-6.66A8.79,8.79,0,0,0,19,7.14H37.79A8.79,8.79,0,0,0,43,13.91a14.17,14.17,0,0,0-.76,6.66,29.6,29.6,0,0,0,.8,3.87c.15.56.31,1.11.46,1.64v0C45,31,45.81,33.94,39,37.77Z" style="fill:#532d6d"/><path d="M43.56,26.11v0c-.15-.53-.31-1.08-.46-1.64a29.6,29.6,0,0,1-.8-3.87A14.17,14.17,0,0,1,43,13.91a8.79,8.79,0,0,1-5.26-6.77H19a8.79,8.79,0,0,1-5.26,6.77,14.18,14.18,0,0,1,.76,6.66,29.6,29.6,0,0,1-.8,3.87c-.15.56-.31,1.11-.46,1.63v0C11.81,31,11,33.94,17.74,37.77s9.56,5.89,10.65,6.83c1.1-1,3.87-3,10.64-6.83S45,31,43.56,26.11Z" style="fill:none"/><path d="M45,25.7c-.15-.53-.31-1.08-.46-1.64a28.17,28.17,0,0,1-.76-3.68,13,13,0,0,1,1-6.74L45,13l-.65-.2a7.31,7.31,0,0,1-5.17-6.57l0-.58H17.62l0,.58a7.31,7.31,0,0,1-5.17,6.57l-.65.2.26.63a13,13,0,0,1,1,6.74,28.17,28.17,0,0,1-.76,3.68c-.15.57-.31,1.11-.46,1.64-1.44,5-2.57,9,5.22,13.35a84.67,84.67,0,0,1,9.75,6.13,8.29,8.29,0,0,1,1.64,1.7h0a7.08,7.08,0,0,1,1.5-1.62,82.55,82.55,0,0,1,9.86-6.21C47.55,34.66,46.42,30.71,45,25.7Zm-5.7,12.5c-7.11,4-9.77,6.05-10.72,6.92l-.17.15-.17-.15c-.94-.85-3.59-2.89-10.73-6.92S11.36,30.74,12.73,26v0c.15-.53.31-1.07.46-1.62a29.14,29.14,0,0,0,.79-3.8,13.75,13.75,0,0,0-.82-6.64l-.09-.23.23-.09a8.29,8.29,0,0,0,5.2-6.68l0-.22H38.23l0,.22a8.29,8.29,0,0,0,5.2,6.68l.23.09-.09.23a13.74,13.74,0,0,0-.82,6.64,29.12,29.12,0,0,0,.79,3.8c.15.56.31,1.11.46,1.63v0C45.41,30.74,46.4,34.19,39.28,38.21Z" style="fill:#ff6b00"/><path d="M44,26v0c-.15-.53-.31-1.07-.46-1.63a29.12,29.12,0,0,1-.79-3.8,13.74,13.74,0,0,1,.82-6.64l.09-.23-.23-.09a8.29,8.29,0,0,1-5.2-6.68l0-.22H18.54l0,.22a8.29,8.29,0,0,1-5.2,6.68l-.23.09.09.23A13.75,13.75,0,0,1,14,20.51a29.14,29.14,0,0,1-.79,3.8c-.15.56-.3,1.1-.46,1.62v0c-1.37,4.77-2.36,8.21,4.76,12.23s9.78,6.06,10.73,6.92l.17.15.17-.15c1-.86,3.61-2.9,10.72-6.92S45.41,30.74,44,26Zm-5,11.8c-6.77,3.82-9.55,5.88-10.64,6.83-1.09-.94-3.85-3-10.65-6.83S11.81,31,13.21,26.11v0c.15-.53.31-1.07.46-1.63a29.6,29.6,0,0,0,.8-3.87,14.18,14.18,0,0,0-.76-6.66A8.79,8.79,0,0,0,19,7.14H37.79A8.79,8.79,0,0,0,43,13.91a14.17,14.17,0,0,0-.76,6.66,29.6,29.6,0,0,0,.8,3.87c.15.56.31,1.11.46,1.64v0C45,31,45.81,33.94,39,37.77Z" style="fill:#f7f8f9"/><path d="M36.5,44.53q-.35.9-.78,1.81a21.52,21.52,0,0,0,2.86-1A1.92,1.92,0,0,0,39.69,44q.23-.94.38-1.85a19.22,19.22,0,0,1-2.43,1.19A2,2,0,0,0,36.5,44.53Z" style="fill:#ffc843"/><path d="M37.5,47.76q-.86-.48-1.68-1a21.88,21.88,0,0,0,2.9-1,2.17,2.17,0,0,1,1.68-.07q.87.35,1.77.63a23.5,23.5,0,0,1-2.87,1.54A2,2,0,0,1,37.5,47.76Z" style="fill:#ffc843"/><path d="M40.43,42.74q-.16.93-.4,1.87a21.18,21.18,0,0,0,2.48-1.55,2,2,0,0,0,.8-1.44q.05-.94,0-1.85a19.47,19.47,0,0,1-2.07,1.64A2,2,0,0,0,40.43,42.74Z" style="fill:#ffc843"/><path d="M41.93,45.61Q41,45.32,40.19,45a21.52,21.52,0,0,0,2.51-1.58A2.06,2.06,0,0,1,44.26,43q.87.16,1.76.24a23.62,23.62,0,0,1-2.42,2A1.89,1.89,0,0,1,41.93,45.61Z" style="fill:#ffc843"/><path d="M43.79,40.23q0,.92-.05,1.87a21.6,21.6,0,0,0,2.06-2,2,2,0,0,0,.51-1.55q-.11-.91-.27-1.78a20.13,20.13,0,0,1-1.68,2A2.09,2.09,0,0,0,43.79,40.23Z" style="fill:#ffc843"/><path d="M45.68,42.66q-.88-.09-1.74-.26a22,22,0,0,0,2.09-2,2,2,0,0,1,1.39-.71q.85,0,1.7-.13A24.21,24.21,0,0,1,47.19,42,1.83,1.83,0,0,1,45.68,42.66Z" style="fill:#ffc843"/><path d="M46.52,37.14q.16.88.26,1.81a22.26,22.26,0,0,0,1.61-2.34,2.06,2.06,0,0,0,.23-1.6q-.25-.86-.55-1.66a20.71,20.71,0,0,1-1.25,2.28A2.16,2.16,0,0,0,46.52,37.14Z" style="fill:#ffc843"/><path d="M48.71,39.08q-.84.09-1.68.11a22.59,22.59,0,0,0,1.63-2.37,2,2,0,0,1,1.19-1q.79-.2,1.57-.48A24.71,24.71,0,0,1,50,38.12,1.84,1.84,0,0,1,48.71,39.08Z" style="fill:#ffc843"/><path d="M48.59,33.58q.29.82.54,1.69a22.66,22.66,0,0,0,1.13-2.6,2.11,2.11,0,0,0-.05-1.6q-.38-.78-.79-1.51a20.89,20.89,0,0,1-.79,2.48A2.22,2.22,0,0,0,48.59,33.58Z" style="fill:#ffc843"/><path d="M51,35q-.77.26-1.56.45a23,23,0,0,0,1.13-2.64,2.12,2.12,0,0,1,1-1.19q.71-.36,1.39-.79a24.74,24.74,0,0,1-.85,3A1.88,1.88,0,0,1,51,35Z" style="fill:#ffc843"/><path d="M49.94,29.69q.41.74.79,1.53a22.56,22.56,0,0,0,.61-2.77A2.18,2.18,0,0,0,51,26.9q-.49-.69-1-1.31a20.61,20.61,0,0,1-.3,2.6A2.3,2.3,0,0,0,49.94,29.69Z" style="fill:#ffc843"/><path d="M52.39,30.58q-.68.42-1.38.76a22.86,22.86,0,0,0,.61-2.81,2.25,2.25,0,0,1,.68-1.37q.59-.5,1.14-1.06a24.23,24.23,0,0,1-.26,3.08A1.94,1.94,0,0,1,52.39,30.58Z" style="fill:#ffc843"/><path d="M50.52,25.6q.51.64,1,1.34a22,22,0,0,0,.06-2.85,2.26,2.26,0,0,0-.6-1.47q-.58-.58-1.17-1.1A20.1,20.1,0,0,1,50,24.17,2.4,2.4,0,0,0,50.52,25.6Z" style="fill:#ffc843"/><path d="M52.94,26q-.55.55-1.14,1a22.32,22.32,0,0,0,.05-2.88,2.43,2.43,0,0,1,.36-1.49A15.15,15.15,0,0,0,53,21.34a23.44,23.44,0,0,1,.37,3.1A2,2,0,0,1,52.94,26Z" style="fill:#ffc843"/><path d="M50.27,21.43q.6.53,1.18,1.12a21.42,21.42,0,0,0-.52-2.84,2.4,2.4,0,0,0-.86-1.35q-.65-.46-1.31-.86a19.79,19.79,0,0,1,.78,2.6A2.56,2.56,0,0,0,50.27,21.43Z" style="fill:#ffc843"/><path d="M52.56,21.29a14.84,14.84,0,0,1-.84,1.26,21.68,21.68,0,0,0-.54-2.87,2.71,2.71,0,0,1,0-1.56,14.32,14.32,0,0,0,.46-1.45,22.89,22.89,0,0,1,1,3A2.18,2.18,0,0,1,52.56,21.29Z" style="fill:#ffc843"/><path d="M49.16,17.32q.66.41,1.33.88a21.24,21.24,0,0,0-1.14-2.74,2.62,2.62,0,0,0-1.12-1.19q-.71-.34-1.42-.62a20.2,20.2,0,0,1,1.37,2.47A2.8,2.8,0,0,0,49.16,17.32Z" style="fill:#ffc843"/><path d="M51.2,16.72a14,14,0,0,1-.47,1.43,21.49,21.49,0,0,0-1.16-2.77,3.21,3.21,0,0,1-.39-1.57,13.94,13.94,0,0,0,0-1.55,23.19,23.19,0,0,1,1.71,2.83A2.42,2.42,0,0,1,51.2,16.72Z" style="fill:#ffc843"/><path d="M47.12,13.4q.71.29,1.44.64a22.06,22.06,0,0,0-1.79-2.55,3,3,0,0,0-1.37-1q-.75-.21-1.49-.38a21.85,21.85,0,0,1,2,2.27A3.17,3.17,0,0,0,47.12,13.4Z" style="fill:#ffc843"/><path d="M48.81,12.4a13.66,13.66,0,0,1,0,1.53,22.3,22.3,0,0,0-1.82-2.58,4.11,4.11,0,0,1-.83-1.52,14.6,14.6,0,0,0-.46-1.58,25,25,0,0,1,2.43,2.54A2.84,2.84,0,0,1,48.81,12.4Z" style="fill:#ffc843"/><path d="M20.27,44.53q.35.9.78,1.81a21.52,21.52,0,0,1-2.86-1A1.92,1.92,0,0,1,17.09,44q-.23-.94-.38-1.85a19.22,19.22,0,0,0,2.43,1.19A2,2,0,0,1,20.27,44.53Z" style="fill:#ffc843"/><path d="M19.27,47.76q.86-.48,1.68-1a21.88,21.88,0,0,1-2.9-1,2.17,2.17,0,0,0-1.68-.07q-.87.35-1.77.63a23.5,23.5,0,0,0,2.87,1.54A2,2,0,0,0,19.27,47.76Z" style="fill:#ffc843"/><path d="M16.35,42.74q.16.93.4,1.87a21.18,21.18,0,0,1-2.48-1.55,2,2,0,0,1-.8-1.44q-.05-.94,0-1.85a19.47,19.47,0,0,0,2.07,1.64A2,2,0,0,1,16.35,42.74Z" style="fill:#ffc843"/><path d="M14.85,45.61q.89-.29,1.74-.65a21.52,21.52,0,0,1-2.51-1.58A2.06,2.06,0,0,0,12.52,43q-.87.16-1.76.24a23.62,23.62,0,0,0,2.42,2A1.89,1.89,0,0,0,14.85,45.61Z" style="fill:#ffc843"/><path d="M13,40.23q0,.92.05,1.87a21.6,21.6,0,0,1-2.06-2,2,2,0,0,1-.51-1.55q.11-.91.27-1.78a20.13,20.13,0,0,0,1.68,2A2.09,2.09,0,0,1,13,40.23Z" style="fill:#ffc843"/><path d="M11.09,42.66q.88-.09,1.74-.26a22,22,0,0,1-2.09-2,2,2,0,0,0-1.39-.71q-.85,0-1.7-.13A24.21,24.21,0,0,0,9.58,42,1.83,1.83,0,0,0,11.09,42.66Z" style="fill:#ffc843"/><path d="M10.25,37.14q-.16.88-.26,1.81a22.26,22.26,0,0,1-1.61-2.34A2.06,2.06,0,0,1,8.15,35q.25-.86.55-1.66a20.71,20.71,0,0,0,1.25,2.28A2.16,2.16,0,0,1,10.25,37.14Z" style="fill:#ffc843"/><path d="M8.06,39.08q.84.09,1.68.11a22.59,22.59,0,0,1-1.63-2.37,2,2,0,0,0-1.19-1q-.79-.2-1.57-.48a24.71,24.71,0,0,0,1.4,2.76A1.84,1.84,0,0,0,8.06,39.08Z" style="fill:#ffc843"/><path d="M8.18,33.58q-.29.82-.54,1.69a22.66,22.66,0,0,1-1.13-2.6,2.11,2.11,0,0,1,.05-1.6q.38-.78.79-1.51a20.89,20.89,0,0,0,.79,2.48A2.22,2.22,0,0,1,8.18,33.58Z" style="fill:#ffc843"/><path d="M5.81,35q.77.26,1.56.45a23,23,0,0,1-1.13-2.64,2.12,2.12,0,0,0-1-1.19q-.71-.36-1.39-.79a24.75,24.75,0,0,0,.85,3A1.88,1.88,0,0,0,5.81,35Z" style="fill:#ffc843"/><path d="M6.84,29.69q-.41.74-.79,1.53a22.56,22.56,0,0,1-.61-2.77,2.18,2.18,0,0,1,.33-1.56q.49-.69,1-1.31a20.61,20.61,0,0,0,.3,2.6A2.3,2.3,0,0,1,6.84,29.69Z" style="fill:#ffc843"/><path d="M4.39,30.58q.68.42,1.38.76a22.87,22.87,0,0,1-.61-2.81,2.25,2.25,0,0,0-.68-1.37q-.59-.5-1.14-1.06a24.23,24.23,0,0,0,.26,3.08A1.94,1.94,0,0,0,4.39,30.58Z" style="fill:#ffc843"/><path d="M6.26,25.6q-.51.64-1,1.34a22,22,0,0,1-.06-2.85,2.26,2.26,0,0,1,.6-1.47Q6.37,22,7,21.53a20.1,20.1,0,0,0-.23,2.64A2.4,2.4,0,0,1,6.26,25.6Z" style="fill:#ffc843"/><path d="M3.84,26q.55.55,1.14,1a22.31,22.31,0,0,1-.05-2.88,2.43,2.43,0,0,0-.36-1.49,15.16,15.16,0,0,1-.83-1.29,23.45,23.45,0,0,0-.37,3.1A2,2,0,0,0,3.84,26Z" style="fill:#ffc843"/><path d="M6.5,21.43q-.6.53-1.18,1.12a21.42,21.42,0,0,1,.52-2.84,2.4,2.4,0,0,1,.86-1.35q.65-.46,1.31-.86a19.79,19.79,0,0,0-.78,2.6A2.56,2.56,0,0,1,6.5,21.43Z" style="fill:#ffc843"/><path d="M4.22,21.29a14.84,14.84,0,0,0,.84,1.26,21.68,21.68,0,0,1,.54-2.87,2.72,2.72,0,0,0,0-1.56,14.33,14.33,0,0,1-.46-1.45,22.9,22.9,0,0,0-1,3A2.18,2.18,0,0,0,4.22,21.29Z" style="fill:#ffc843"/><path d="M7.62,17.32q-.66.41-1.33.88a21.24,21.24,0,0,1,1.14-2.74,2.62,2.62,0,0,1,1.12-1.19q.71-.34,1.42-.62a20.2,20.2,0,0,0-1.37,2.47A2.8,2.8,0,0,1,7.62,17.32Z" style="fill:#ffc843"/><path d="M5.58,16.72A14,14,0,0,0,6,18.15a21.48,21.48,0,0,1,1.16-2.77,3.21,3.21,0,0,0,.39-1.57,14,14,0,0,1,0-1.55,23.2,23.2,0,0,0-1.71,2.83A2.42,2.42,0,0,0,5.58,16.72Z" style="fill:#ffc843"/><path d="M9.65,13.4q-.71.29-1.44.64A22.06,22.06,0,0,1,10,11.49a3,3,0,0,1,1.37-1q.75-.21,1.49-.38a21.85,21.85,0,0,0-2,2.27A3.17,3.17,0,0,1,9.65,13.4Z" style="fill:#ffc843"/><path d="M8,12.4a13.65,13.65,0,0,0,0,1.53,22.3,22.3,0,0,1,1.82-2.58,4.11,4.11,0,0,0,.83-1.52,14.6,14.6,0,0,1,.46-1.58,25,25,0,0,0-2.43,2.54A2.84,2.84,0,0,0,8,12.4Z" style="fill:#ffc843"/><path d="M35.54,48.06a.39.39,0,0,0-.51-.5l-2.7,1.13a.11.11,0,1,1-.09-.2l3.09-1.42a.25.25,0,0,0,.14-.17.39.39,0,0,0-.52-.48l-3,1.36a.13.13,0,0,1-.17-.06.12.12,0,0,1,0-.15l2.59-1.33a.38.38,0,0,0-.35-.67l-3.68,1.9a.23.23,0,0,1-.25-.38l1.17-.93a.39.39,0,0,0,.11-.49.38.38,0,0,0-.57-.11l-1.31,1a5.55,5.55,0,0,0-1.12,1.18l0,.07,0-.07a5.54,5.54,0,0,0-1.12-1.19l-1.3-1a.39.39,0,0,0-.5,0,.38.38,0,0,0,0,.58l1.18.94a.23.23,0,0,1-.25.38l-3.68-1.9a.38.38,0,0,0-.35.67l2.59,1.33a.12.12,0,0,1,0,.15.13.13,0,0,1-.17.06l-3-1.36a.39.39,0,0,0-.52.48.25.25,0,0,0,.14.17l3.09,1.42a.11.11,0,1,1-.09.2l-2.7-1.13a.39.39,0,0,0-.51.5.25.25,0,0,0,.15.17l2.79,1.17a.14.14,0,0,1-.11.26l-1.57-.54c-.2-.07-.41,0-.48.17s.07.32.26.39l2.86,1.08a4,4,0,0,0,2.82.17,1.4,1.4,0,0,1,.83,0,4,4,0,0,0,2.81-.16h0l2.86-1.08c.2-.07.32-.2.26-.39s-.28-.24-.48-.17l-1.57.54a.14.14,0,0,1-.11-.26l2.79-1.17A.25.25,0,0,0,35.54,48.06Z" style="fill:#532d6d"/><path d="M29.62,21.28a7.36,7.36,0,0,0-3.91.4c-.81-1.23-1.45-2.49-4-1.87a.13.13,0,0,1-.09-.24,3.67,3.67,0,0,1,3.53-.1c.62.35,2.1,2,4.18-.14C29.52,19.16,29.62,20.13,29.62,21.28Z" style="fill:#fff"/><circle cx="27.42" cy="19.1" r="1.1" transform="translate(2.49 41.35) rotate(-76.62)" style="fill:#fff"/><path d="M25.13,21.93a7.39,7.39,0,0,0-2.93,2.62c-1.38-.52-2.64-1.17-4.32.82a.13.13,0,0,1-.21-.14,3.67,3.67,0,0,1,2.79-2.16c.71-.08,2.85.36,3.3-2.57C23.8,20.28,24.45,21,25.13,21.93Z" style="fill:#fff"/><circle cx="22.06" cy="21.47" r="1.1" transform="translate(-6.56 10.13) rotate(-22.61)" style="fill:#fff"/><path d="M21,28.52c0,.14,0,.28,0,.43-1.42.39-2.82.61-3,3.21a.13.13,0,0,1-.25,0,3.67,3.67,0,0,1,1-3.39c.52-.48,2.52-1.39,1.16-4-.1-.2.85,0,1.95.35A7.3,7.3,0,0,0,21,28.52Z" style="fill:#fff"/><circle cx="19.13" cy="26.53" r="1.1" transform="translate(-13.48 29.04) rotate(-58.6)" style="fill:#fff"/><path d="M22.15,37.53a.13.13,0,0,1-.2.16,3.67,3.67,0,0,1-1.19-3.32c.14-.7,1.22-2.6-1.43-3.94-.2-.1.69-.5,1.78-.86a7.3,7.3,0,0,0,1.59,3.59C21.79,34.32,20.78,35.32,22.15,37.53Z" style="fill:#fff"/><circle cx="19.73" cy="32.35" r="1.1" transform="translate(-2.53 1.69) rotate(-4.6)" style="fill:#fff"/><path d="M28.64,39.48a.13.13,0,0,1-.07.25,3.67,3.67,0,0,1-2.92-2c-.3-.65-.54-2.82-3.47-2.35-.22,0,.27-.81.94-1.74a7.32,7.32,0,0,0,3.39,2C26.46,37.09,26.23,38.5,28.64,39.48Z" style="fill:#fff"/><circle cx="23.63" cy="36.71" r="1.1" transform="translate(-18.2 24.21) rotate(-40.59)" style="fill:#fff"/><path d="M35,37.24a.13.13,0,0,1,.09.24,3.67,3.67,0,0,1-3.53.1c-.62-.35-2.1-2-4.18.14-.16.16-.26-.81-.27-2a7.34,7.34,0,0,0,3.91-.4C31.87,36.59,32.51,37.86,35,37.24Z" style="fill:#fff"/><circle cx="29.36" cy="37.94" r="1.1" transform="translate(-14.36 57.69) rotate(-76.59)" style="fill:#fff"/><path d="M38.89,31.67a.13.13,0,0,1,.21.14A3.67,3.67,0,0,1,36.31,34c-.71.09-2.85-.36-3.3,2.57,0,.22-.69-.5-1.37-1.43a7.37,7.37,0,0,0,2.93-2.62C35.95,33,37.21,33.66,38.89,31.67Z" style="fill:#fff"/><circle cx="34.71" cy="35.57" r="1.1" transform="translate(-11 16.05) rotate(-22.58)" style="fill:#fff"/><path d="M38,28.27c-.52.48-2.52,1.39-1.16,4,.1.2-.85,0-1.95-.35a7.31,7.31,0,0,0,.84-3.42c0-.14,0-.28,0-.42,1.42-.39,2.83-.61,3-3.2a.13.13,0,0,1,.25,0A3.67,3.67,0,0,1,38,28.27Z" style="fill:#fff"/><circle cx="37.65" cy="30.51" r="1.1" transform="translate(-8.02 46.72) rotate(-58.57)" style="fill:#fff"/><path d="M35.66,27.46a7.3,7.3,0,0,0-1.58-3.6c.92-1.15,1.93-2.15.56-4.36a.13.13,0,0,1,.2-.16A3.67,3.67,0,0,1,36,22.67c-.14.7-1.22,2.6,1.43,3.94C37.64,26.71,36.75,27.1,35.66,27.46Z" style="fill:#fff"/><circle cx="37.05" cy="24.69" r="1.1" transform="matrix(1, -0.08, 0.08, 1, -1.85, 3.03)" style="fill:#fff"/><path d="M33.65,23.39a7.31,7.31,0,0,0-3.39-2c.07-1.47.29-2.87-2.12-3.85a.13.13,0,0,1,.07-.25,3.67,3.67,0,0,1,2.92,2c.3.65.54,2.82,3.47,2.35C34.81,21.62,34.32,22.46,33.65,23.39Z" style="fill:#fff"/><circle cx="33.15" cy="20.33" r="1.1" transform="translate(-5.26 26.44) rotate(-40.56)" style="fill:#fff"/><path d="M21.65,11.74h-.59l-.38-.61h-.3v.6h-.54V9.54h.49a2.62,2.62,0,0,1,.52,0,1.06,1.06,0,0,1,.37.14.63.63,0,0,1,.23.25.85.85,0,0,1,.08.38.75.75,0,0,1-.09.38.67.67,0,0,1-.26.25Zm-1.16-1.06a.67.67,0,0,0,.39-.08.32.32,0,0,0,0-.48.67.67,0,0,0-.39-.08h-.11v.64Z" style="fill:#ff6b00"/><path d="M22.09,9.54h1.48V10h-.94v.35h.75v.48h-.75v.39h.94v.47H22.09Z" style="fill:#ff6b00"/><path d="M24.63,11.71a1,1,0,0,1-.34-.22,1.05,1.05,0,0,1-.23-.36,1.39,1.39,0,0,1,0-1,1.05,1.05,0,0,1,.23-.36,1,1,0,0,1,.34-.22A1.11,1.11,0,0,1,25,9.5a1.34,1.34,0,0,1,.31,0l.19.06-.14.49-.16,0-.16,0a.58.58,0,0,0-.24,0,.47.47,0,0,0-.17.13.59.59,0,0,0-.11.2,1,1,0,0,0,0,.52.6.6,0,0,0,.1.2.46.46,0,0,0,.17.13.55.55,0,0,0,.23,0l.19,0,.14,0,.15.44-.21.07a1.11,1.11,0,0,1-.29,0A1.13,1.13,0,0,1,24.63,11.71Z" style="fill:#ff6b00"/><path d="M26.26,11.55a.94.94,0,0,1-.25-.71V9.54h.54v1.25a.68.68,0,0,0,.09.39.34.34,0,0,0,.3.13.36.36,0,0,0,.31-.13.65.65,0,0,0,.09-.39V9.54h.52v1.3a1.19,1.19,0,0,1-.06.41.76.76,0,0,1-.48.48,1.15,1.15,0,0,1-.39.06A.94.94,0,0,1,26.26,11.55Z" style="fill:#ff6b00"/><path d="M30.25,11.74h-.59l-.38-.61H29v.6h-.54V9.54h.49a2.62,2.62,0,0,1,.52,0,1.06,1.06,0,0,1,.37.14A.63.63,0,0,1,30,10a.85.85,0,0,1,.08.38.75.75,0,0,1-.09.38.67.67,0,0,1-.26.25Zm-1.16-1.06a.67.67,0,0,0,.39-.08.32.32,0,0,0,0-.48.67.67,0,0,0-.39-.08H29v.64Z" style="fill:#ff6b00"/><path d="M30.9,11.72a1.72,1.72,0,0,1-.33-.11l.16-.46.13,0,.17,0,.2,0h.23a.66.66,0,0,0,.24,0,.13.13,0,0,0,.09-.13.12.12,0,0,0,0-.08L31.67,11l-.13-.05-.15-.05-.26-.09a1.07,1.07,0,0,1-.24-.13.63.63,0,0,1-.17-.2.58.58,0,0,1-.07-.29.63.63,0,0,1,.07-.31.54.54,0,0,1,.19-.2.84.84,0,0,1,.28-.11,1.85,1.85,0,0,1,.35,0,2,2,0,0,1,.44,0l.25.07-.15.47L31.8,10l-.32,0a.66.66,0,0,0-.2,0,.11.11,0,0,0-.09.11.12.12,0,0,0,0,.08l.09.06.13.05.15.05.27.1a1,1,0,0,1,.24.13.63.63,0,0,1,.17.2.57.57,0,0,1,.07.29.72.72,0,0,1,0,.27.49.49,0,0,1-.16.21.82.82,0,0,1-.3.14,1.82,1.82,0,0,1-.45,0A2.06,2.06,0,0,1,30.9,11.72Z" style="fill:#ff6b00"/><path d="M33.35,11.71a1,1,0,0,1-.34-.23,1.07,1.07,0,0,1-.23-.36,1.39,1.39,0,0,1,0-.94A1.07,1.07,0,0,1,33,9.81a1,1,0,0,1,.34-.23,1.08,1.08,0,0,1,.82,0,1,1,0,0,1,.34.23,1.07,1.07,0,0,1,.23.36,1.39,1.39,0,0,1,0,.94,1.07,1.07,0,0,1-.23.36,1,1,0,0,1-.34.23,1.08,1.08,0,0,1-.82,0Zm.61-.44a.47.47,0,0,0,.16-.13.59.59,0,0,0,.11-.2,1,1,0,0,0,0-.55.59.59,0,0,0-.11-.2.47.47,0,0,0-.16-.13.49.49,0,0,0-.4,0,.47.47,0,0,0-.16.13.59.59,0,0,0-.11.2,1,1,0,0,0,0,.55.59.59,0,0,0,.11.2.47.47,0,0,0,.16.13.49.49,0,0,0,.4,0Z" style="fill:#ff6b00"/><path d="M35.5,11.72a1.72,1.72,0,0,1-.33-.11l.16-.46.13,0,.17,0,.2,0h.23a.66.66,0,0,0,.24,0,.13.13,0,0,0,.09-.13.12.12,0,0,0,0-.08L36.27,11l-.13-.05L36,10.88l-.26-.09a1.07,1.07,0,0,1-.24-.13.63.63,0,0,1-.17-.2.58.58,0,0,1-.07-.29.63.63,0,0,1,.07-.31.54.54,0,0,1,.19-.2.84.84,0,0,1,.28-.11,1.85,1.85,0,0,1,.35,0,2,2,0,0,1,.44,0l.25.07-.15.47L36.4,10l-.32,0a.66.66,0,0,0-.2,0,.11.11,0,0,0-.09.11.12.12,0,0,0,0,.08l.09.06.13.05.15.05.27.1a1,1,0,0,1,.24.13.63.63,0,0,1,.17.2.57.57,0,0,1,.07.29.72.72,0,0,1,0,.27.49.49,0,0,1-.16.21.82.82,0,0,1-.3.14,1.82,1.82,0,0,1-.45,0A2.06,2.06,0,0,1,35.5,11.72Z" style="fill:#ff6b00"/><path d="M20.08,12.4h.54v.83h.8V12.4H22v2.2h-.54v-.87h-.8v.87h-.54Z" style="fill:#ff6b00"/><path d="M22.77,14.4a.94.94,0,0,1-.25-.71V12.4h.54v1.25a.68.68,0,0,0,.09.39.34.34,0,0,0,.3.13.36.36,0,0,0,.31-.13.65.65,0,0,0,.09-.39V12.4h.52v1.3a1.19,1.19,0,0,1-.06.41.76.76,0,0,1-.48.48,1.15,1.15,0,0,1-.39.06A.94.94,0,0,1,22.77,14.4Z" style="fill:#ff6b00"/><path d="M25,12.37h.2l.83,1.27.83-1.27h.2l.16,2.23H26.7l-.06-1-.53.81H26l-.53-.81-.06,1h-.51Z" style="fill:#ff6b00"/><path d="M28.1,14.6h-.53l1-2.22h.2l1,2.22h-.57L29,14.32h-.83Zm.52-1.24-.22.54h.46Z" style="fill:#ff6b00"/><path d="M30.63,13.47V14.6h-.52V12.38h.21l1.14,1.11V12.4H32v2.21h-.17Z" style="fill:#ff6b00"/><path d="M33.12,14.56a1,1,0,0,1-.34-.23,1.07,1.07,0,0,1-.23-.36,1.39,1.39,0,0,1,0-.94,1.07,1.07,0,0,1,.23-.36,1,1,0,0,1,.34-.23,1.08,1.08,0,0,1,.82,0,1,1,0,0,1,.34.23,1.07,1.07,0,0,1,.23.36,1.39,1.39,0,0,1,0,.94,1.07,1.07,0,0,1-.23.36,1,1,0,0,1-.34.23,1.08,1.08,0,0,1-.82,0Zm.61-.44a.47.47,0,0,0,.16-.13.59.59,0,0,0,.11-.2,1,1,0,0,0,0-.55.59.59,0,0,0-.11-.2.47.47,0,0,0-.16-.13.49.49,0,0,0-.4,0,.47.47,0,0,0-.16.13.59.59,0,0,0-.11.2,1,1,0,0,0,0,.55.58.58,0,0,0,.11.2.47.47,0,0,0,.16.13.49.49,0,0,0,.4,0Z" style="fill:#ff6b00"/><path d="M35.27,14.57a1.73,1.73,0,0,1-.33-.11L35.1,14l.13,0,.17,0,.2,0h.23a.66.66,0,0,0,.24,0,.13.13,0,0,0,.09-.13.12.12,0,0,0,0-.08L36,13.84l-.13-.05-.15-.05-.26-.09a1.07,1.07,0,0,1-.24-.13.63.63,0,0,1-.17-.2A.58.58,0,0,1,35,13a.63.63,0,0,1,.07-.31.54.54,0,0,1,.19-.2.84.84,0,0,1,.28-.11,1.85,1.85,0,0,1,.35,0,2,2,0,0,1,.44,0l.25.07-.15.47-.27-.07-.32,0a.66.66,0,0,0-.2,0,.11.11,0,0,0-.09.11.12.12,0,0,0,0,.08l.09.06.13.05.15.05.27.1a1,1,0,0,1,.24.13.63.63,0,0,1,.17.2.57.57,0,0,1,.07.29.72.72,0,0,1,0,.27.49.49,0,0,1-.16.21.82.82,0,0,1-.3.14,1.81,1.81,0,0,1-.45,0A2.07,2.07,0,0,1,35.27,14.57Z" style="fill:#ff6b00"/><path d="M21.65,11.66h-.59l-.38-.61h-.3v.6h-.54V9.47h.49a2.62,2.62,0,0,1,.52,0,1.06,1.06,0,0,1,.37.14.63.63,0,0,1,.23.25.85.85,0,0,1,.08.38.75.75,0,0,1-.09.38.67.67,0,0,1-.26.25Zm-1.16-1.06a.67.67,0,0,0,.39-.08.32.32,0,0,0,0-.48.67.67,0,0,0-.39-.08h-.11v.64Z" style="fill:#532d6d"/><path d="M22.09,9.47h1.48V10h-.94v.35h.75v.48h-.75v.39h.94v.47H22.09Z" style="fill:#532d6d"/><path d="M24.63,11.63a1,1,0,0,1-.34-.22,1.05,1.05,0,0,1-.23-.36,1.39,1.39,0,0,1,0-1,1.05,1.05,0,0,1,.23-.36,1,1,0,0,1,.34-.22A1.11,1.11,0,0,1,25,9.43a1.34,1.34,0,0,1,.31,0l.19.06L25.4,10l-.16,0-.16,0a.58.58,0,0,0-.24,0,.47.47,0,0,0-.17.13.59.59,0,0,0-.11.2,1,1,0,0,0,0,.52.6.6,0,0,0,.1.2.46.46,0,0,0,.17.13.55.55,0,0,0,.23,0l.19,0,.14,0,.15.44-.21.07a1.11,1.11,0,0,1-.29,0A1.13,1.13,0,0,1,24.63,11.63Z" style="fill:#532d6d"/><path d="M26.26,11.47a.94.94,0,0,1-.25-.71V9.47h.54v1.25a.68.68,0,0,0,.09.39.34.34,0,0,0,.3.13.36.36,0,0,0,.31-.13.65.65,0,0,0,.09-.39V9.47h.52v1.3a1.19,1.19,0,0,1-.06.41.76.76,0,0,1-.48.48,1.15,1.15,0,0,1-.39.06A.94.94,0,0,1,26.26,11.47Z" style="fill:#532d6d"/><path d="M30.25,11.66h-.59l-.38-.61H29v.6h-.54V9.47h.49a2.62,2.62,0,0,1,.52,0,1.06,1.06,0,0,1,.37.14.63.63,0,0,1,.23.25.85.85,0,0,1,.08.38.75.75,0,0,1-.09.38.67.67,0,0,1-.26.25Zm-1.16-1.06a.67.67,0,0,0,.39-.08.32.32,0,0,0,0-.48.67.67,0,0,0-.39-.08H29v.64Z" style="fill:#532d6d"/><path d="M30.9,11.64a1.72,1.72,0,0,1-.33-.11l.16-.46.13,0,.17,0,.2,0h.23a.66.66,0,0,0,.24,0,.13.13,0,0,0,.09-.13.12.12,0,0,0,0-.08l-.09-.06-.13-.05-.15-.05-.26-.09a1.07,1.07,0,0,1-.24-.13.63.63,0,0,1-.17-.2.58.58,0,0,1-.07-.29.63.63,0,0,1,.07-.31.54.54,0,0,1,.19-.2.84.84,0,0,1,.28-.11,1.85,1.85,0,0,1,.35,0,2,2,0,0,1,.44,0l.25.07-.15.47L31.8,10l-.32,0a.66.66,0,0,0-.2,0,.11.11,0,0,0-.09.11.12.12,0,0,0,0,.08l.09.06.13.05.15.05.27.1a1,1,0,0,1,.24.13.63.63,0,0,1,.17.2.57.57,0,0,1,.07.29.72.72,0,0,1,0,.27.49.49,0,0,1-.16.21.82.82,0,0,1-.3.14,1.82,1.82,0,0,1-.45,0A2.06,2.06,0,0,1,30.9,11.64Z" style="fill:#532d6d"/><path d="M33.35,11.63A1,1,0,0,1,33,11.4a1.07,1.07,0,0,1-.23-.36,1.39,1.39,0,0,1,0-.94A1.07,1.07,0,0,1,33,9.74a1,1,0,0,1,.34-.23,1.08,1.08,0,0,1,.82,0,1,1,0,0,1,.34.23,1.07,1.07,0,0,1,.23.36,1.39,1.39,0,0,1,0,.94,1.07,1.07,0,0,1-.23.36,1,1,0,0,1-.34.23,1.08,1.08,0,0,1-.82,0Zm.61-.44a.47.47,0,0,0,.16-.13.59.59,0,0,0,.11-.2,1,1,0,0,0,0-.55.59.59,0,0,0-.11-.2A.47.47,0,0,0,34,10a.49.49,0,0,0-.4,0,.47.47,0,0,0-.16.13.59.59,0,0,0-.11.2,1,1,0,0,0,0,.55.59.59,0,0,0,.11.2.47.47,0,0,0,.16.13.49.49,0,0,0,.4,0Z" style="fill:#532d6d"/><path d="M35.5,11.64a1.72,1.72,0,0,1-.33-.11l.16-.46.13,0,.17,0,.2,0h.23a.66.66,0,0,0,.24,0,.13.13,0,0,0,.09-.13.12.12,0,0,0,0-.08l-.09-.06-.13-.05L36,10.8l-.26-.09a1.07,1.07,0,0,1-.24-.13.63.63,0,0,1-.17-.2.58.58,0,0,1-.07-.29.63.63,0,0,1,.07-.31.54.54,0,0,1,.19-.2.84.84,0,0,1,.28-.11,1.85,1.85,0,0,1,.35,0,2,2,0,0,1,.44,0l.25.07-.15.47L36.4,10l-.32,0a.66.66,0,0,0-.2,0,.11.11,0,0,0-.09.11.12.12,0,0,0,0,.08l.09.06.13.05.15.05.27.1a1,1,0,0,1,.24.13.63.63,0,0,1,.17.2.57.57,0,0,1,.07.29.72.72,0,0,1,0,.27.49.49,0,0,1-.16.21.82.82,0,0,1-.3.14,1.82,1.82,0,0,1-.45,0A2.06,2.06,0,0,1,35.5,11.64Z" style="fill:#532d6d"/><path d="M20.08,12.32h.54v.83h.8v-.83H22v2.2h-.54v-.87h-.8v.87h-.54Z" style="fill:#532d6d"/><path d="M22.77,14.32a.94.94,0,0,1-.25-.71v-1.3h.54v1.25a.68.68,0,0,0,.09.39.34.34,0,0,0,.3.13.36.36,0,0,0,.31-.13.65.65,0,0,0,.09-.39V12.32h.52v1.3a1.19,1.19,0,0,1-.06.41.76.76,0,0,1-.48.48,1.15,1.15,0,0,1-.39.06A.94.94,0,0,1,22.77,14.32Z" style="fill:#532d6d"/><path d="M25,12.29h.2l.83,1.27.83-1.27h.2l.16,2.23H26.7l-.06-1-.53.81H26l-.53-.81-.06,1h-.51Z" style="fill:#532d6d"/><path d="M28.1,14.52h-.53l1-2.22h.2l1,2.22h-.57L29,14.24h-.83Zm.52-1.24-.22.54h.46Z" style="fill:#532d6d"/><path d="M30.63,13.39v1.13h-.52V12.3h.21l1.14,1.11V12.32H32v2.21h-.17Z" style="fill:#532d6d"/><path d="M33.12,14.48a1,1,0,0,1-.34-.23,1.07,1.07,0,0,1-.23-.36,1.39,1.39,0,0,1,0-.94,1.07,1.07,0,0,1,.23-.36,1,1,0,0,1,.34-.23,1.08,1.08,0,0,1,.82,0,1,1,0,0,1,.34.23,1.07,1.07,0,0,1,.23.36,1.39,1.39,0,0,1,0,.94,1.07,1.07,0,0,1-.23.36,1,1,0,0,1-.34.23,1.08,1.08,0,0,1-.82,0Zm.61-.44a.47.47,0,0,0,.16-.13.59.59,0,0,0,.11-.2,1,1,0,0,0,0-.55.59.59,0,0,0-.11-.2.47.47,0,0,0-.16-.13.49.49,0,0,0-.4,0,.47.47,0,0,0-.16.13.59.59,0,0,0-.11.2,1,1,0,0,0,0,.55.58.58,0,0,0,.11.2.47.47,0,0,0,.16.13.49.49,0,0,0,.4,0Z" style="fill:#532d6d"/><path d="M35.27,14.49a1.73,1.73,0,0,1-.33-.11l.16-.46.13,0,.17,0,.2,0h.23a.66.66,0,0,0,.24,0,.13.13,0,0,0,.09-.13.12.12,0,0,0,0-.08L36,13.76l-.13-.05-.15-.05-.26-.09a1.07,1.07,0,0,1-.24-.13.63.63,0,0,1-.17-.2.58.58,0,0,1-.07-.29.63.63,0,0,1,.07-.31.54.54,0,0,1,.19-.2.84.84,0,0,1,.28-.11,1.85,1.85,0,0,1,.35,0,2,2,0,0,1,.44,0l.25.07-.15.47-.27-.07-.32,0a.66.66,0,0,0-.2,0,.11.11,0,0,0-.09.11.12.12,0,0,0,0,.08l.09.06.13.05.15.05.27.1a1,1,0,0,1,.24.13.63.63,0,0,1,.17.2.57.57,0,0,1,.07.29.72.72,0,0,1,0,.27.49.49,0,0,1-.16.21.82.82,0,0,1-.3.14,1.81,1.81,0,0,1-.45,0A2.07,2.07,0,0,1,35.27,14.49Z" style="fill:#532d6d"/><path d="M21.65,11.56h-.59L20.68,11h-.3v.6h-.54V9.36h.49a2.62,2.62,0,0,1,.52,0,1.06,1.06,0,0,1,.37.14.63.63,0,0,1,.23.25.85.85,0,0,1,.08.38.75.75,0,0,1-.09.38.67.67,0,0,1-.26.25ZM20.49,10.5a.67.67,0,0,0,.39-.08.32.32,0,0,0,0-.48.67.67,0,0,0-.39-.08h-.11v.64Z" style="fill:#fff"/><path d="M22.09,9.36h1.48v.51h-.94v.35h.75v.48h-.75v.39h.94v.47H22.09Z" style="fill:#fff"/><path d="M24.63,11.52a1,1,0,0,1-.34-.22,1.05,1.05,0,0,1-.23-.36,1.39,1.39,0,0,1,0-1,1.05,1.05,0,0,1,.23-.36,1,1,0,0,1,.34-.22A1.11,1.11,0,0,1,25,9.32a1.34,1.34,0,0,1,.31,0l.19.06-.14.49-.16,0-.16,0a.58.58,0,0,0-.24,0,.47.47,0,0,0-.17.13.59.59,0,0,0-.11.2,1,1,0,0,0,0,.52.6.6,0,0,0,.1.2.46.46,0,0,0,.17.13.55.55,0,0,0,.23,0l.19,0,.14,0,.15.44-.21.07a1.11,1.11,0,0,1-.29,0A1.13,1.13,0,0,1,24.63,11.52Z" style="fill:#fff"/><path d="M26.26,11.36a.94.94,0,0,1-.25-.71V9.36h.54v1.25a.68.68,0,0,0,.09.39.34.34,0,0,0,.3.13.36.36,0,0,0,.31-.13.65.65,0,0,0,.09-.39V9.36h.52v1.3a1.19,1.19,0,0,1-.06.41.76.76,0,0,1-.48.48,1.15,1.15,0,0,1-.39.06A.94.94,0,0,1,26.26,11.36Z" style="fill:#fff"/><path d="M30.25,11.56h-.59L29.27,11H29v.6h-.54V9.36h.49a2.62,2.62,0,0,1,.52,0,1.06,1.06,0,0,1,.37.14A.63.63,0,0,1,30,9.8a.85.85,0,0,1,.08.38.75.75,0,0,1-.09.38.67.67,0,0,1-.26.25ZM29.09,10.5a.67.67,0,0,0,.39-.08.32.32,0,0,0,0-.48.67.67,0,0,0-.39-.08H29v.64Z" style="fill:#fff"/><path d="M30.9,11.53a1.72,1.72,0,0,1-.33-.11l.16-.46.13,0,.17,0,.2,0h.23a.66.66,0,0,0,.24,0,.13.13,0,0,0,.09-.13.12.12,0,0,0,0-.08l-.09-.06-.13-.05-.15-.05-.26-.09a1.07,1.07,0,0,1-.24-.13.63.63,0,0,1-.17-.2.58.58,0,0,1-.07-.29.63.63,0,0,1,.07-.31.54.54,0,0,1,.19-.2.84.84,0,0,1,.28-.11,1.85,1.85,0,0,1,.35,0,2,2,0,0,1,.44,0l.25.07-.15.47-.27-.07-.32,0a.66.66,0,0,0-.2,0,.11.11,0,0,0-.09.11.12.12,0,0,0,0,.08l.09.06.13.05.15.05.27.1a1,1,0,0,1,.24.13.63.63,0,0,1,.17.2.57.57,0,0,1,.07.29.72.72,0,0,1,0,.27.49.49,0,0,1-.16.21.82.82,0,0,1-.3.14,1.82,1.82,0,0,1-.45,0A2.06,2.06,0,0,1,30.9,11.53Z" style="fill:#fff"/><path d="M33.35,11.52a1,1,0,0,1-.34-.23,1.07,1.07,0,0,1-.23-.36,1.39,1.39,0,0,1,0-.94A1.07,1.07,0,0,1,33,9.63a1,1,0,0,1,.34-.23,1.08,1.08,0,0,1,.82,0,1,1,0,0,1,.34.23,1.07,1.07,0,0,1,.23.36,1.39,1.39,0,0,1,0,.94,1.07,1.07,0,0,1-.23.36,1,1,0,0,1-.34.23,1.08,1.08,0,0,1-.82,0Zm.61-.44a.47.47,0,0,0,.16-.13.59.59,0,0,0,.11-.2,1,1,0,0,0,0-.55.59.59,0,0,0-.11-.2A.47.47,0,0,0,34,9.87a.49.49,0,0,0-.4,0,.47.47,0,0,0-.16.13.59.59,0,0,0-.11.2,1,1,0,0,0,0,.55.59.59,0,0,0,.11.2.47.47,0,0,0,.16.13.49.49,0,0,0,.4,0Z" style="fill:#fff"/><path d="M35.5,11.53a1.72,1.72,0,0,1-.33-.11l.16-.46.13,0,.17,0,.2,0h.23a.66.66,0,0,0,.24,0,.13.13,0,0,0,.09-.13.12.12,0,0,0,0-.08l-.09-.06-.13-.05L36,10.69l-.26-.09a1.07,1.07,0,0,1-.24-.13.63.63,0,0,1-.17-.2.58.58,0,0,1-.07-.29.63.63,0,0,1,.07-.31.54.54,0,0,1,.19-.2.84.84,0,0,1,.28-.11,1.85,1.85,0,0,1,.35,0,2,2,0,0,1,.44,0l.25.07-.15.47-.27-.07-.32,0a.66.66,0,0,0-.2,0,.11.11,0,0,0-.09.11.12.12,0,0,0,0,.08l.09.06.13.05.15.05.27.1a1,1,0,0,1,.24.13.63.63,0,0,1,.17.2.57.57,0,0,1,.07.29.72.72,0,0,1,0,.27.49.49,0,0,1-.16.21.82.82,0,0,1-.3.14,1.82,1.82,0,0,1-.45,0A2.06,2.06,0,0,1,35.5,11.53Z" style="fill:#fff"/><path d="M20.08,12.21h.54V13h.8v-.83H22v2.2h-.54v-.87h-.8v.87h-.54Z" style="fill:#fff"/><path d="M22.77,14.22a.94.94,0,0,1-.25-.71v-1.3h.54v1.25a.68.68,0,0,0,.09.39.34.34,0,0,0,.3.13.36.36,0,0,0,.31-.13.65.65,0,0,0,.09-.39V12.21h.52v1.3a1.19,1.19,0,0,1-.06.41.76.76,0,0,1-.48.48,1.15,1.15,0,0,1-.39.06A.94.94,0,0,1,22.77,14.22Z" style="fill:#fff"/><path d="M25,12.19h.2l.83,1.27.83-1.27h.2l.16,2.23H26.7l-.06-1-.53.81H26l-.53-.81-.06,1h-.51Z" style="fill:#fff"/><path d="M28.1,14.41h-.53l1-2.22h.2l1,2.22h-.57L29,14.14h-.83Zm.52-1.24-.22.54h.46Z" style="fill:#fff"/><path d="M30.63,13.28v1.13h-.52V12.2h.21l1.14,1.11V12.21H32v2.21h-.17Z" style="fill:#fff"/><path d="M33.12,14.37a1,1,0,0,1-.34-.23,1.07,1.07,0,0,1-.23-.36,1.39,1.39,0,0,1,0-.94,1.07,1.07,0,0,1,.23-.36,1,1,0,0,1,.34-.23,1.08,1.08,0,0,1,.82,0,1,1,0,0,1,.34.23,1.07,1.07,0,0,1,.23.36,1.39,1.39,0,0,1,0,.94,1.07,1.07,0,0,1-.23.36,1,1,0,0,1-.34.23,1.08,1.08,0,0,1-.82,0Zm.61-.44a.47.47,0,0,0,.16-.13.59.59,0,0,0,.11-.2,1,1,0,0,0,0-.55.59.59,0,0,0-.11-.2.47.47,0,0,0-.16-.13.49.49,0,0,0-.4,0,.47.47,0,0,0-.16.13.59.59,0,0,0-.11.2,1,1,0,0,0,0,.55.58.58,0,0,0,.11.2.47.47,0,0,0,.16.13.49.49,0,0,0,.4,0Z" style="fill:#fff"/><path d="M35.27,14.39a1.73,1.73,0,0,1-.33-.11l.16-.46.13,0,.17,0,.2,0h.23a.66.66,0,0,0,.24,0,.13.13,0,0,0,.09-.13.12.12,0,0,0,0-.08L36,13.65l-.13-.05-.15-.05-.26-.09a1.07,1.07,0,0,1-.24-.13.63.63,0,0,1-.17-.2.58.58,0,0,1-.07-.29.63.63,0,0,1,.07-.31.54.54,0,0,1,.19-.2.84.84,0,0,1,.28-.11,1.85,1.85,0,0,1,.35,0,2,2,0,0,1,.44,0l.25.07-.15.47-.27-.07-.32,0a.66.66,0,0,0-.2,0,.11.11,0,0,0-.09.11.12.12,0,0,0,0,.08l.09.06.13.05.15.05.27.1a1,1,0,0,1,.24.13.63.63,0,0,1,.17.2.57.57,0,0,1,.07.29.72.72,0,0,1,0,.27.49.49,0,0,1-.16.21.82.82,0,0,1-.3.14,1.81,1.81,0,0,1-.45,0A2.07,2.07,0,0,1,35.27,14.39Z" style="fill:#fff"/><path d="M25.54,26.94,26.86,26l1.31-.93V23.14l-2-.6a6.4,6.4,0,0,0-2.67,1.89l-.14,2.08Zm.88,3.31-.48-1.46-.48-1.45-2.28-.45L22,28.26c0,.09,0,.17,0,.26a6.36,6.36,0,0,0,1.22,3.75l1.71.48Zm3.54.27H26.74L25.25,33l1.23,1.6a6.42,6.42,0,0,0,3.86,0l1.06-1.65Zm1.29-3.15-.47,1.42-.49,1.48,1.4,2.35,2.18-.82a6.36,6.36,0,0,0,.91-3.28c0-.09,0-.17,0-.26l-1.29-1.51Zm-2.67-2.28,1.27.91,1.34,1,2.08-.58-.14-2.12a6.4,6.4,0,0,0-2.67-1.77l-1.88.69Zm-.2-3.38A6.8,6.8,0,1,1,22,26.24h0A6.81,6.81,0,0,1,28.39,21.71Z" style="fill:#ff6b00;fill-rule:evenodd"/></svg>