<svg xmlns="http://www.w3.org/2000/svg" viewBox="0 0 33.14 47.92"><title>supplier-management</title><g id="Layer_2" data-name="Layer 2"><g id="Layer_1-2" data-name="Layer 1"><path d="M11,8.94h0A41.84,41.84,0,0,1,22,8.94h0a9.08,9.08,0,0,1,3.13-4.77,2.65,2.65,0,0,0-2.5,1.09A1.16,1.16,0,0,0,21,5.51s1.41,0,.94.93a.74.74,0,0,1-1.31,0,2,2,0,0,1-.11-1.64.5.5,0,1,0-.36-.11c-.27.36-1.26,1.5-2.44.81a1.51,1.51,0,0,1-.73-1.84.71.71,0,0,0,.66.24.72.72,0,0,0-.13-1.43.72.72,0,0,0-.27.05,1.41,1.41,0,0,0,.07-.43A4.27,4.27,0,0,0,16.49,0a4.27,4.27,0,0,0-.79,2.1,1.39,1.39,0,0,0,.07.43.72.72,0,0,0-.53,0A.71.71,0,0,0,14.8,3,.72.72,0,0,0,16,3.66a1.51,1.51,0,0,1-.73,1.84c-1.18.69-2.17-.46-2.44-.81a.5.5,0,1,0-.36.11,2,2,0,0,1-.11,1.64.74.74,0,0,1-1.31,0c-.47-.93.94-.93.94-.93a1.16,1.16,0,0,0-1.63-.24A2.65,2.65,0,0,0,7.9,4.17,9.08,9.08,0,0,1,11,8.94Z" style="fill:#ffc843"/><path d="M24.84,37.94c.37-.51.73-1,1.07-1.56a24.19,24.19,0,0,0,3.34-8.76l-1.63.32-1.13-6.17,3.11-.62v-.88a70.82,70.82,0,0,0-26,0v.88l4,1.18-1.9,6.06L3.94,27.9a24.19,24.19,0,0,0,3.29,8.48c.34.55.71,1.08,1.1,1.6l8.3-3.74ZM26.3,21.83l1.15,6.25-4.27.8-.1-.57,0-.19v0l-1-5.39Zm-9.39.84h0a7.6,7.6,0,0,1,1.86.27l.88.17a9.57,9.57,0,0,0,2,0l.23,0,.92,5a1.43,1.43,0,0,1-.7-.34c-.22-.18-.54-.5-.91-.86s-.95-.93-1.41-1.33l-.18-.15c-.67-.58-1.51-1.3-2-1.26a.45.45,0,0,0-.33.16,3,3,0,0,1-1.8,1.25,1.53,1.53,0,0,1-1.17-.27.2.2,0,0,1-.06-.08,8.37,8.37,0,0,0,.7-.8l.74-.89C16.29,22.83,16.57,22.76,16.91,22.67Zm-11,5.71,1.87-6,4.18,1.22L10,29.67Zm4.52.74L12,24.21a2.83,2.83,0,0,0,.5,0,3.89,3.89,0,0,0,1.31-.34,12,12,0,0,1,2-.7l-.21.23-.74.89a9,9,0,0,1-.67.78.19.19,0,0,0-.05.23,1.46,1.46,0,0,0,1.43.46,3.19,3.19,0,0,0,1.92-1.32.26.26,0,0,1,.19-.09c.46,0,1.29.69,1.91,1.22l.18.15c.46.39,1,.88,1.4,1.32l.66.63a6.56,6.56,0,0,1,.77.91.83.83,0,0,1,0,.79.78.78,0,0,1-.73.42,3.36,3.36,0,0,1-1.4-.76c-.4-.35-.88-.72-.88-.72a.1.1,0,0,0-.12.15s.4.36.88.72l.18.16.34.3c.64.54,1,.9.75,1.4a1.06,1.06,0,0,1-.75.57l-.16,0a18.2,18.2,0,0,1-2.4-1.72h0a.1.1,0,1,0-.12.15s1.13.9,1.71,1.5a.54.54,0,0,1,.15.6.88.88,0,0,1-.7.52h-.11a5.29,5.29,0,0,1-1.39-.75l-.32-.22-.22-.15h0l-.24-.24a.68.68,0,0,0-1,0l-.1.1a.68.68,0,0,0-.16-.71l-.24-.24a.68.68,0,0,0-1,0l-.09.09a.68.68,0,0,0-.13-.77L14,29.49a.67.67,0,0,0-.73-.16.68.68,0,0,0-.07-.87L13,28.21a.68.68,0,0,0-1,0l-1.11,1.09a.67.67,0,0,0-.1.13Zm.89,1.25-.24-.24a.49.49,0,0,1,0-.7l1.11-1.09a.49.49,0,0,1,.7,0l.24.24a.49.49,0,0,1,0,.7L12,30.38A.51.51,0,0,1,11.3,30.37Zm1,1.27-.24-.24a.49.49,0,0,1,0-.7l1.11-1.09a.49.49,0,0,1,.7,0l.24.24a.49.49,0,0,1,0,.7L13,31.65A.51.51,0,0,1,12.35,31.65Zm1.43.93-.24-.24a.49.49,0,0,1,0-.7l1.11-1.09a.49.49,0,0,1,.7,0l.24.24a.49.49,0,0,1,0,.7l-1.11,1.09A.51.51,0,0,1,13.77,32.58Zm1.46.86L15,33.19a.49.49,0,0,1,0-.7l1.11-1.09a.49.49,0,0,1,.7,0l.24.24a.49.49,0,0,1,0,.7l-1.11,1.09A.51.51,0,0,1,15.24,33.44Zm1.94-.95a.68.68,0,0,0,.19-.61l.28.19c.45.31.74.56.77.82a.65.65,0,0,1-.2.49.55.55,0,0,1-.4.24,3,3,0,0,1-1.29-.49Z" style="fill:#f1f1f2"/><path d="M23.44,39.66l-6.81-3.08L9.73,39.7A24.18,24.18,0,0,0,16.57,45,24.18,24.18,0,0,0,23.44,39.66Zm-7.2,4-.23,0h0l-.21-.05h0a2.89,2.89,0,0,1-1.68-1.32h0v0a2.84,2.84,0,0,1-.3-2.07h0a2.87,2.87,0,0,1,.15-.45l0,0a2.87,2.87,0,0,1,.26-.47h0l.16-.21h0l.18-.2h0a2.88,2.88,0,0,1,4.08,0h0l.18.2h0l.16.21h0a2.87,2.87,0,0,1,.26.47l0,0a2.86,2.86,0,0,1,.15.45h0a2.84,2.84,0,0,1-.31,2.07v0h0a2.89,2.89,0,0,1-1.68,1.32h0l-.21.05h0l-.22,0h-.66Z" style="fill:#ec1c24"/><path d="M18.68,41.89l.26.16a2.68,2.68,0,0,0,.26-1.8l-.18,0-.34.59Z" style="fill:#ec1c24"/><path d="M18.34,39.05l.09-.2a2.68,2.68,0,0,0-1.76-.75v.33l.9.54Z" style="fill:#ec1c24"/><polygon points="17.59 39.16 17.41 39.59 17.35 39.73 17.88 40.69 18.53 40.69 18.86 40.12 18.71 39.87 18.34 39.24 17.59 39.16" style="fill:#ec1c24"/><path d="M17.69,42.59l-.43.6.12.16a2.7,2.7,0,0,0,1.47-1.14l-.26-.16Z" style="fill:#ec1c24"/><path d="M14.55,42.05l-.26.16a2.7,2.7,0,0,0,1.47,1.14l.12-.16-.43-.6Z" style="fill:#ec1c24"/><polygon points="17.51 42.51 17.19 41.94 15.95 41.94 15.84 42.13 15.63 42.51 16.04 43.1 17.1 43.1 17.51 42.51" style="fill:#ec1c24"/><path d="M14.46,40.81l-.34-.59-.18,0a2.68,2.68,0,0,0,.26,1.8l.26-.16Z" style="fill:#ec1c24"/><polygon points="15.69 40.31 15.43 40.79 15.69 41.27 15.95 41.75 17.19 41.75 17.71 40.79 17.19 39.83 15.95 39.83 15.69 40.31" style="fill:#ec1c24"/><path d="M15.58,39l.9-.54V38.1a2.68,2.68,0,0,0-1.76.75l.09.2Z" style="fill:#ec1c24"/><polygon points="15.26 40.69 15.79 39.73 15.55 39.16 14.8 39.24 14.28 40.12 14.61 40.69 15.26 40.69" style="fill:#ec1c24"/><path d="M14.17,12.51h.25a.21.21,0,0,0,.2-.22.21.21,0,0,0-.22-.21h-.25c-.06,0-.07,0-.07.08v.27C14.11,12.5,14.13,12.52,14.17,12.51Z" style="fill:#ec1c24"/><path d="M22.37,12.81l.26,0a.17.17,0,0,0,.1,0,.38.38,0,0,0,.16-.26.22.22,0,0,0-.21-.25l-.26,0c-.07,0-.08,0-.09.08l0,.38S22.3,12.81,22.37,12.81Z" style="fill:#ec1c24"/><path d="M9.93,15.86l-.11-.38s0,0,0,0l0,.39,0,.39s0,0,0,0l.26,0s0,0,0-.05Z" style="fill:#ec1c24"/><path d="M16,12.48h.25a.21.21,0,0,0,.21-.21.21.21,0,0,0-.21-.22H16c-.06,0-.07,0-.07.08v.27C16,12.46,16,12.48,16,12.48Z" style="fill:#ec1c24"/><path d="M29.59,18.59V11.88a70.58,70.58,0,0,0-26,0v6.71A72.42,72.42,0,0,1,29.59,18.59ZM18.35,16.77c0,.06,0,.09-.08.09l-1.33,0a.08.08,0,0,1-.09-.09l0-2.15a.08.08,0,0,1,.09-.09l1.3,0s.08,0,.07.08v.31c0,.06,0,.09-.08.09H17.5c-.08,0-.09,0-.09.07v.26c0,.07,0,.09.09.1h.63c.06,0,.08,0,.08.09v.3c0,.06,0,.09-.08.09h-.64c-.07,0-.08,0-.08.08v.31c0,.07,0,.08.11.08h.77s.08,0,.07.09Zm4.39-1.62c0,.06,0,.09-.08.08l-.76-.06c-.08,0-.09,0-.1.06l0,.26c0,.07,0,.1.09.1l.62,0c.06,0,.08,0,.07.1l0,.3c0,.06,0,.09-.09.08l-.64,0c-.07,0-.08,0-.09.07l0,.3c0,.07,0,.08.1.09l.77.06s.07,0,.07.09l0,.3c0,.06,0,.09-.08.08L21.22,17a.08.08,0,0,1-.08-.1l.16-2.15a.08.08,0,0,1,.1-.08l1.29.1s.07,0,.07.09Zm2.3.23,0-.3c0-.06,0-.09.09-.08l1.44.18c.05,0,.07,0,.06.1l0,.3c0,.06,0,.09-.08.08l-.39,0c-.07,0-.09,0-.09.06l-.22,1.69c0,.06,0,.07-.1.06l-.35,0c-.05,0-.09,0-.08-.09l.22-1.69s0-.07-.07-.08l-.35,0C25,15.48,25,15.44,25,15.38Zm-1.44-.46.57,1.19h0s0,0,0,0L24.3,15c0-.06,0-.08.1-.07l.33,0c.05,0,.09,0,.09.09l-.22,2.16c0,.06,0,.08-.1.07l-.24,0c-.06,0-.1,0-.13-.08L23.55,16s0,0,0,0l-.11,1.1c0,.06,0,.07-.1.06l-.33,0c-.06,0-.09,0-.09-.08l.22-2.17c0-.06,0-.08.1-.07l.24,0A.13.13,0,0,1,23.6,14.93Zm-1.78-3.09c0-.06,0-.09.09-.08l.83.07a.67.67,0,0,1,.68.76.94.94,0,0,1-.36.64s0,0,0,.09l.3.82s0,.09-.07.08l-.38,0c-.12,0-.14-.06-.16-.11l-.25-.74a0,0,0,0,0,0,0h-.16s0,0,0,0l-.06.71c0,.06,0,.07-.1.07l-.35,0c-.06,0-.09,0-.09-.08ZM20,11.73a.08.08,0,0,1,.1-.09l1.3.07s.07,0,.07.09l0,.31c0,.06,0,.09-.08.09l-.76,0c-.08,0-.09,0-.09.07v.26c0,.07,0,.1.09.1l.63,0c.06,0,.08,0,.07.09l0,.3c0,.06,0,.09-.08.09l-.64,0c-.07,0-.08,0-.09.07l0,.31c0,.07,0,.08.1.09l.77,0s.07,0,.07.09l0,.31c0,.06,0,.09-.08.09L20,14a.08.08,0,0,1-.09-.1Zm-1,0c0-.06,0-.08.09-.08h.35s.09,0,.09.08l-.08,2.18c0,.06,0,.07-.09.07h-.35c-.06,0-.09,0-.09-.08Zm.07,2.87c.05,0,.11,0,.14.09s.19.53.28.77l.2.59s0,0,0,0l.25-.56.35-.74a.15.15,0,0,1,.15-.07h.29c.06,0,.1,0,.09.09l-.09,2.16c0,.06,0,.08-.1.08h-.34c-.05,0-.09,0-.09-.07l0-.95h0l-.16.38-.21.48c0,.05-.05.08-.11.07h-.2c-.06,0-.09,0-.13-.07l-.16-.5-.12-.39h0l0,.94c0,.06,0,.07-.1.06H18.7c-.06,0-.09,0-.09-.09l.09-2.16s0-.08.1-.08Zm-1.8-2.91c0-.06,0-.07.09-.07h.35c.05,0,.09,0,.09.07l0,1.69c0,.06,0,.09.07.09l.81,0s.07,0,.07.08v.31c0,.06,0,.09-.07.09l-1.33,0a.08.08,0,0,1-.09-.09Zm-1.81-.07h.76a.7.7,0,1,1,0,1.39H16S16,13,16,13v.81c0,.06,0,.08-.09.08h-.35c-.06,0-.09,0-.09-.08V11.65C15.42,11.59,15.46,11.57,15.52,11.57Zm-1.88.05.76,0a.7.7,0,1,1,0,1.39h-.25s-.06,0-.06.06l0,.81c0,.06,0,.08-.09.08H13.7c-.06,0-.09,0-.1-.08l-.07-2.17C13.54,11.65,13.57,11.62,13.63,11.62Zm-2.06.11.35,0c.05,0,.09,0,.1.07l.09,1.55a.26.26,0,0,0,.3.23.27.27,0,0,0,.28-.26l-.09-1.55c0-.06,0-.07.09-.08l.35,0c.06,0,.1,0,.1.07l.09,1.55a.75.75,0,0,1-.79.77.75.75,0,0,1-.87-.68l-.09-1.55C11.48,11.75,11.51,11.73,11.57,11.73Zm-1.25.07a1.23,1.23,0,0,1,.68.11c.06,0,.08,0,0,.15l-.09.23a.09.09,0,0,1-.13.06,1.29,1.29,0,0,0-.45-.08c-.13,0-.26.07-.24.23s.25.21.36.24c.32.08.77.18.81.66a.73.73,0,0,1-.76.78A1.26,1.26,0,0,1,9.7,14c-.07-.05-.09-.08,0-.17l.13-.22c.06-.08.1-.06.16,0a1.08,1.08,0,0,0,.54.15c.26,0,.28-.14.27-.22s-.22-.23-.58-.32a.65.65,0,0,1-.58-.6A.72.72,0,0,1,10.32,11.8ZM8.81,17.26l-.33,0c-.05,0-.09,0-.1-.06l-.12-.94h0c0,.13-.07.27-.1.4L8,17.21c0,.06,0,.08-.1.09l-.2,0c-.06,0-.09,0-.14,0l-.24-.47-.19-.37h0l.11.93c0,.06,0,.07-.09.08l-.34,0c-.06,0-.1,0-.1-.07l-.26-2.15s0-.09.08-.09l.32,0c.05,0,.1,0,.15.06l.4.71.29.55s0,0,0,0l.15-.6.22-.79a.15.15,0,0,1,.13-.1l.29,0c.06,0,.1,0,.11.07l.26,2.15C8.9,17.22,8.87,17.25,8.81,17.26Zm2-.18-.38,0a.09.09,0,0,1-.1-.06l-.08-.26c0-.07,0-.08-.09-.08l-.45,0c-.06,0-.06,0-.07.09l0,.28a.09.09,0,0,1-.09.08l-.38,0c-.1,0-.09,0-.08-.09l.34-2.21a.09.09,0,0,1,.09-.07l.53,0s.08,0,.1.06L10.87,17S10.89,17.06,10.8,17.07Zm1.86-.12-.24,0c-.06,0-.1,0-.14-.05l-.77-1.07s0,0,0,0l.07,1.1c0,.06,0,.07-.09.08l-.33,0c-.06,0-.1,0-.1-.07l-.14-2.17c0-.06,0-.08.09-.09l.24,0a.13.13,0,0,1,.15.07l.75,1.08h0s0,0,0,0l-.07-1.11c0-.06,0-.08.09-.09l.33,0c.05,0,.1,0,.1.07l.14,2.16C12.75,16.91,12.71,16.94,12.65,16.95Zm2-.08h-.38a.09.09,0,0,1-.1-.06l-.07-.27c0-.07,0-.09-.08-.08l-.45,0c-.06,0-.06,0-.08.08l0,.28a.09.09,0,0,1-.09.07H13c-.1,0-.09,0-.08-.09l.46-2.19a.09.09,0,0,1,.09-.07l.54,0s.08,0,.1.06l.64,2.15S14.76,16.86,14.67,16.86Zm1,0a.72.72,0,0,1-.82-.67v-1a.71.71,0,0,1,.77-.69.82.82,0,0,1,.8.39.08.08,0,0,1,0,.11l-.27.19c-.06,0-.09,0-.13,0a.4.4,0,0,0-.34-.17.26.26,0,0,0-.27.23v1c0,.13.13.21.28.21a.26.26,0,0,0,.28-.26V16A0,0,0,0,0,16,16h-.13c-.06,0-.08,0-.08-.07v-.3c0-.06,0-.08.08-.08h.62c.06,0,.1,0,.1.08v.59C16.54,16.63,16.17,16.87,15.72,16.87Z" style="fill:#ec1c24"/><path d="M13.87,15.6l-.09-.39s0,0,0,0l-.06.39-.06.39s0,0,0,0h.26s0,0,0-.05Z" style="fill:#ec1c24"/><path d="M16.28,11.56h-.76c-.06,0-.09,0-.09.08v2.17c0,.06,0,.08.09.08h.35c.06,0,.09,0,.09-.08V13S16,13,16,13h.25a.7.7,0,1,0,0-1.39Zm0,.91H16s-.07,0-.07-.08v-.27S16,12,16,12h.25a.22.22,0,0,1,0,.43Z" style="fill:#fff"/><path d="M16.83,43.66h.07l.22,0h0l.21-.05h0a2.89,2.89,0,0,0,1.68-1.32h0v0a2.84,2.84,0,0,0,.31-2.07h0a2.86,2.86,0,0,0-.15-.45l0,0a2.87,2.87,0,0,0-.26-.47h0L18.8,39h0l-.18-.2h0a2.88,2.88,0,0,0-4.08,0h0l-.18.2h0l-.16.21h0a2.87,2.87,0,0,0-.26.47l0,0a2.87,2.87,0,0,0-.15.45h0a2.84,2.84,0,0,0,.3,2.07v0h0a2.89,2.89,0,0,0,1.68,1.32h0l.21.05h0l.23,0h.59Zm.55-.3-.12-.16.43-.6.89-.54.26.16A2.7,2.7,0,0,1,17.38,43.35ZM19,40.22l.18,0a2.68,2.68,0,0,1-.26,1.8l-.26-.16V40.81Zm-.31-.35.15.25-.33.58h-.66l-.53-1,.06-.14.18-.42.75.08Zm-2-1.77a2.68,2.68,0,0,1,1.76.75l-.09.2L17.56,39l-.9-.54Zm.52,1.73.52,1-.52,1H16l-.26-.48-.26-.48.26-.48.26-.48Zm-.71-1.73v.33l-.9.54-.77.09-.09-.2A2.68,2.68,0,0,1,16.47,38.1ZM14.8,39.24l.75-.08.24.56-.53,1h-.66l-.33-.58Zm-.92,1.54a2.69,2.69,0,0,1,.06-.54l.18,0,.34.59v1.07l-.26.16A2.67,2.67,0,0,1,13.88,40.79Zm1.88,2.57a2.7,2.7,0,0,1-1.47-1.14l.26-.16.89.54.43.6ZM16,43.1l-.42-.58.22-.38.11-.19h1.23l.33.57-.42.58Z" style="fill:#fff"/><path d="M8.52,14.94l-.29,0a.15.15,0,0,0-.13.1l-.22.79-.15.6s0,0,0,0l-.29-.55L7,15.21c0-.08-.1-.07-.15-.06l-.32,0c-.06,0-.09,0-.08.09l.26,2.15c0,.06,0,.08.1.07l.34,0c.06,0,.09,0,.09-.08l-.11-.93h0l.19.37.24.47c0,.06.08.06.14,0l.2,0c.06,0,.08,0,.1-.09l.13-.51c0-.13.07-.27.1-.4h0l.12.94c0,.06,0,.06.1.06l.33,0c.06,0,.09,0,.09-.09L8.63,15C8.62,15,8.58,14.93,8.52,14.94Z" style="fill:#fff"/><path d="M10.12,14.86c0-.06-.06-.06-.1-.06l-.53,0a.09.09,0,0,0-.09.07l-.34,2.21s0,.1.08.09l.38,0a.09.09,0,0,0,.09-.08l0-.28s0-.08.07-.09l.45,0s.07,0,.09.08l.08.26a.09.09,0,0,0,.1.06l.38,0c.09,0,.08-.07.07-.1ZM10,16.27l-.26,0s0,0,0,0l0-.39,0-.39s0,0,0,0l.11.38.11.36S10,16.27,10,16.27Z" style="fill:#fff"/><path d="M12.5,14.62l-.33,0c-.06,0-.09,0-.09.09l.07,1.11s0,0,0,0h0l-.75-1.08a.13.13,0,0,0-.15-.07l-.24,0c-.06,0-.09,0-.09.09L11,17c0,.06,0,.07.1.07l.33,0c.06,0,.1,0,.09-.08l-.07-1.1s0,0,0,0l.77,1.07c0,.07.08.06.14.05l.24,0c.06,0,.09,0,.09-.09l-.14-2.16C12.6,14.63,12.56,14.62,12.5,14.62Z" style="fill:#fff"/><path d="M14.11,14.62c0-.06-.06-.06-.1-.06l-.54,0a.09.09,0,0,0-.09.07l-.46,2.19s0,.1.08.09h.38a.09.09,0,0,0,.09-.07l0-.28s0-.08.08-.08l.45,0s.06,0,.08.08l.07.27a.09.09,0,0,0,.1.06h.38c.09,0,.08-.07.08-.1ZM13.94,16h-.26s0,0,0,0l.06-.39.06-.39s0,0,0,0l.09.39L14,16S14,16,13.94,16Z" style="fill:#fff"/><path d="M16.43,15.49h-.62c-.06,0-.08,0-.08.08v.3c0,.06,0,.08.08.07H16A0,0,0,0,1,16,16v.12a.26.26,0,0,1-.28.26c-.15,0-.28-.08-.28-.21v-1a.26.26,0,0,1,.27-.23.4.4,0,0,1,.34.17s.06.07.13,0l.27-.19a.08.08,0,0,0,0-.11.82.82,0,0,0-.8-.39.71.71,0,0,0-.77.69v1a.72.72,0,0,0,.82.67c.45,0,.82-.24.81-.71v-.59C16.53,15.51,16.49,15.49,16.43,15.49Z" style="fill:#fff"/><path d="M18.28,16.38H17.5c-.08,0-.11,0-.11-.08V16c0-.05,0-.08.08-.08h.64c.06,0,.08,0,.08-.09v-.3c0-.06,0-.09-.08-.09H17.5c-.08,0-.09,0-.09-.1v-.26s0-.07.09-.07h.76c.05,0,.08,0,.08-.09v-.31c0-.06,0-.08-.07-.08l-1.3,0a.08.08,0,0,0-.09.09l0,2.15a.08.08,0,0,0,.09.09l1.33,0c.05,0,.08,0,.08-.09v-.31C18.35,16.41,18.32,16.38,18.28,16.38Z" style="fill:#fff"/><path d="M18.7,14.62l-.09,2.16c0,.06,0,.08.09.09H19c.06,0,.09,0,.1-.06l0-.94h0l.12.39.16.5c0,.07.06.07.13.07h.2c.06,0,.08,0,.11-.07l.21-.48.16-.38h0l0,.95c0,.06,0,.07.09.07h.34c.06,0,.1,0,.1-.08l.09-2.16c0-.05,0-.08-.09-.09h-.29a.15.15,0,0,0-.15.07l-.35.74-.25.56s0,0,0,0l-.2-.59c-.09-.23-.19-.53-.28-.77s-.09-.08-.14-.09H18.8C18.74,14.54,18.7,14.57,18.7,14.62Z" style="fill:#fff"/><path d="M22.69,14.76l-1.29-.1a.08.08,0,0,0-.1.08l-.16,2.15a.08.08,0,0,0,.08.1l1.32.1c.05,0,.08,0,.08-.08l0-.3c0-.06,0-.09-.07-.09l-.77-.06c-.08,0-.11,0-.1-.09l0-.3c0-.05,0-.08.09-.07l.64,0c.06,0,.08,0,.09-.08l0-.3c0-.06,0-.09-.07-.1l-.62,0c-.08,0-.09,0-.09-.1l0-.26s0-.07.1-.06l.76.06c.05,0,.08,0,.08-.08l0-.3C22.76,14.79,22.73,14.76,22.69,14.76Z" style="fill:#fff"/><path d="M23.12,14.88,22.91,17c0,.06,0,.07.09.08l.33,0c.06,0,.1,0,.1-.06l.11-1.1s0,0,0,0l.58,1.18c0,.07.07.07.13.08l.24,0c.06,0,.1,0,.1-.07L24.82,15c0-.06,0-.08-.09-.09l-.33,0c-.06,0-.1,0-.1.07l-.11,1.11s0,0,0,0h0l-.57-1.19a.13.13,0,0,0-.13-.09l-.24,0C23.17,14.8,23.13,14.83,23.12,14.88Z" style="fill:#fff"/><path d="M25.11,15.48l.35,0c.07,0,.08,0,.07.08l-.22,1.69c0,.06,0,.08.08.09l.35,0c.06,0,.1,0,.1-.06l.22-1.69s0-.07.09-.06l.39,0c.06,0,.08,0,.08-.08l0-.3c0-.06,0-.09-.06-.1L25.17,15c-.06,0-.08,0-.09.08l0,.3C25,15.44,25,15.48,25.11,15.48Z" style="fill:#fff"/><path d="M10.18,13.15c.36.09.57.16.58.32s0,.2-.27.22a1.08,1.08,0,0,1-.54-.15c-.06,0-.1-.06-.16,0l-.13.22c-.05.08,0,.12,0,.17a1.26,1.26,0,0,0,.84.21.73.73,0,0,0,.76-.78c0-.48-.48-.58-.81-.66-.12,0-.35-.08-.36-.24s.11-.22.24-.23a1.29,1.29,0,0,1,.45.08.09.09,0,0,0,.13-.06l.09-.23c0-.1,0-.12,0-.15a1.23,1.23,0,0,0-.68-.11.72.72,0,0,0-.72.76A.65.65,0,0,0,10.18,13.15Z" style="fill:#fff"/><path d="M12.44,14a.75.75,0,0,0,.79-.77l-.09-1.55c0-.06,0-.07-.1-.07l-.35,0c-.06,0-.09,0-.09.08l.09,1.55a.27.27,0,0,1-.28.26.26.26,0,0,1-.3-.23L12,11.78c0-.06,0-.07-.1-.07l-.35,0c-.06,0-.09,0-.09.08l.09,1.55A.75.75,0,0,0,12.44,14Z" style="fill:#fff"/><path d="M13.7,14h.35c.06,0,.09,0,.09-.08l0-.81s0-.06.06-.06h.25a.7.7,0,1,0,0-1.39l-.76,0c-.06,0-.09,0-.09.08l.07,2.17C13.61,13.93,13.64,14,13.7,14Zm.46-1.87h.25a.21.21,0,0,1,.22.21.21.21,0,0,1-.2.22h-.25s-.07,0-.07-.08v-.27S14.1,12.09,14.16,12.08Z" style="fill:#fff"/><path d="M17.37,13.9l1.33,0c.05,0,.07,0,.07-.09v-.31c0-.06,0-.08-.07-.08l-.81,0c-.07,0-.07,0-.07-.09l0-1.69c0-.06,0-.07-.09-.07h-.35c-.06,0-.09,0-.09.07l0,2.17A.08.08,0,0,0,17.37,13.9Z" style="fill:#fff"/><path d="M19.06,13.94h.35c.06,0,.09,0,.09-.07l.08-2.18c0-.06,0-.08-.09-.08h-.35c-.06,0-.09,0-.09.08L19,13.86C19,13.92,19,13.94,19.06,13.94Z" style="fill:#fff"/><path d="M20,14,21.3,14c.05,0,.08,0,.08-.09l0-.31c0-.06,0-.09-.07-.09l-.77,0c-.08,0-.11,0-.1-.09l0-.31c0-.05,0-.08.09-.07l.64,0c.06,0,.08,0,.08-.09l0-.3c0-.06,0-.09-.07-.09l-.63,0c-.08,0-.09,0-.09-.1v-.26s0-.07.09-.07l.76,0c.05,0,.08,0,.08-.09l0-.31c0-.06,0-.08-.07-.09l-1.3-.07a.08.08,0,0,0-.1.09l-.12,2.15A.08.08,0,0,0,20,14Z" style="fill:#fff"/><path d="M21.74,14.08l.35,0c.06,0,.1,0,.1-.07l.06-.71s0,0,0,0h.16a0,0,0,0,1,0,0l.25.74c0,.05,0,.1.16.11l.38,0c.07,0,.09,0,.07-.08l-.3-.82s0-.06,0-.09a.94.94,0,0,0,.36-.64.67.67,0,0,0-.68-.76l-.83-.07c-.06,0-.08,0-.09.08L21.65,14C21.65,14.05,21.68,14.07,21.74,14.08Zm.59-1.73c0-.06,0-.08.09-.08l.26,0a.22.22,0,0,1,.21.25.38.38,0,0,1-.16.26.17.17,0,0,1-.1,0l-.26,0c-.07,0-.08,0-.08-.08Z" style="fill:#fff"/><path d="M32.12,35.25a3.45,3.45,0,0,0-.28.26l-.11.12-.1.12a3.36,3.36,0,0,0-.29.44l-.12.2-.14.2a1.86,1.86,0,0,1-.41.38,2.62,2.62,0,0,0-.6.61l0,.06,0-.1.1-.23.19-.45.17-.43c.05-.14.11-.28.16-.42v0l.09-.13a1.59,1.59,0,0,1,.25-.28,2,2,0,0,1,.49-.29,2.62,2.62,0,0,0,.4-.23,1.46,1.46,0,0,0,.32-.3,1.75,1.75,0,0,0,.24-.42,2.49,2.49,0,0,0,.09-.26c0-.09,0-.2.06-.31a2.73,2.73,0,0,1,.13-.54,1.6,1.6,0,0,1,.15-.33c.1-.17.19-.24.2-.3s-.41-.06-.72.32a3.57,3.57,0,0,0-.35.5,3.31,3.31,0,0,0-.19.42,2.15,2.15,0,0,1-.48.78,2.52,2.52,0,0,0-.42.61c.07-.24.14-.46.2-.67l.15-.59,0-.11h0l.27-.57.13-.28.11-.27c.07-.17.13-.32.17-.43s.12-.43.16-.64,0-.21.06-.31,0-.2,0-.29a5,5,0,0,0,0-.52,2,2,0,0,0,0-.39c0-.19-.08-.36-.12-.52s-.09-.3-.12-.41-.14-.37-.19-.37-.12.14-.2.36l-.14.4-.18.49a1.88,1.88,0,0,0-.09.37c0,.14,0,.31-.06.49s0,.18,0,.28,0,.2,0,.3,0,.42,0,.63,0,.27,0,.45l0,.28c0,.1,0,.2,0,.3s0,.42,0,.61l0,.11-.15.58c-.06.21-.13.43-.2.67a2.08,2.08,0,0,0,0-.72,2.15,2.15,0,0,1-.05-.87,2.87,2.87,0,0,0,0-.44,1.91,1.91,0,0,0-.14-.55c-.17-.43-.56-.6-.58-.49s.05.14.09.31a1.2,1.2,0,0,1,0,.32,2.13,2.13,0,0,1-.09.48,1.74,1.74,0,0,0,.25,1.7,1.2,1.2,0,0,1,.27.85s0,.1,0,.15v0c0,.14-.1.27-.16.41l-.17.43c-.06.14-.13.29-.19.44l-.1.22-.05.11v-.06a2.08,2.08,0,0,0,0-.82,1.76,1.76,0,0,1,0-.53c0-.08,0-.15,0-.22s0-.15,0-.22a2.73,2.73,0,0,0,0-.48s0-.09,0-.14,0-.1,0-.15a2.6,2.6,0,0,0-.1-.34c-.17-.49-.67-.74-.69-.62s.06.16.09.35a1.16,1.16,0,0,1,0,.35,1.24,1.24,0,0,1,0,.23,2.32,2.32,0,0,1-.1.27,1.78,1.78,0,0,0,.17,1.91c.06.1.11.19.16.29a1.18,1.18,0,0,1,.1.31,1.44,1.44,0,0,1,0,.41,1.6,1.6,0,0,1,0,.22l-.15.28-.13.24-.14.24-.3.48-.16.24,0,0v0a2.25,2.25,0,0,0,.08-.24c0-.08,0-.15,0-.22a1.5,1.5,0,0,0,0-.35,2.17,2.17,0,0,1,0-.28,1.69,1.69,0,0,1,0-.24,3.59,3.59,0,0,1,.12-.43,2,2,0,0,0,.06-.22,2.21,2.21,0,0,0,0-.25,1.94,1.94,0,0,0,0-.63c-.11-.51-.56-.81-.6-.7s0,.16,0,.35a1.06,1.06,0,0,1,0,.35,1.94,1.94,0,0,1-.22.48l-.08.13-.07.12a1.74,1.74,0,0,0-.1.24,1.59,1.59,0,0,0-.08.46,1.63,1.63,0,0,0,.06.45c0,.08,0,.16.07.24l0,.13,0,.13a1.7,1.7,0,0,1,.16.63,1.44,1.44,0,0,1-.13.59,14.3,14.3,0,0,1-1.13,1.34,2.87,2.87,0,0,0,.2-.4,1.13,1.13,0,0,0,.05-.18,1.2,1.2,0,0,0,0-.16,1.74,1.74,0,0,1,.12-.51c.05-.14.12-.27.18-.4l.09-.21a1.37,1.37,0,0,0,.08-.24,2.24,2.24,0,0,0,.06-.63,1,1,0,0,0-.08-.35,1.15,1.15,0,0,0-.16-.27c-.11-.14-.23-.21-.26-.16s0,.17,0,.35a1.07,1.07,0,0,1-.09.33,1.62,1.62,0,0,1-.11.21,1.4,1.4,0,0,1-.17.23,2,2,0,0,0-.32.45,1.38,1.38,0,0,0-.15.43,1.83,1.83,0,0,0,0,.46,3.6,3.6,0,0,0,.08.51,1.31,1.31,0,0,1-.15,1.16,13.89,13.89,0,0,1-1.35,1.12l0,0,.07-.1.12-.19A1.49,1.49,0,0,0,25.3,43l0-.14,0-.13a1.71,1.71,0,0,1,.11-.22c.08-.13.17-.24.26-.36a2.73,2.73,0,0,0,.24-.41,1.68,1.68,0,0,0,.1-.27,2.49,2.49,0,0,0,.06-.34,1.1,1.1,0,0,0-.13-.64c-.09-.16-.19-.24-.23-.2s0,.16-.06.34a1.12,1.12,0,0,1-.14.31,1,1,0,0,1-.14.18l-.21.19-.22.2-.17.19a1.39,1.39,0,0,0-.22.4,2.35,2.35,0,0,0-.11,1,1.64,1.64,0,0,1-.07.64,1.26,1.26,0,0,1-.08.17,1.14,1.14,0,0,1-.12.18l-.07.08a14.34,14.34,0,0,1-1.56.86,2.89,2.89,0,0,0,.28-.25,1.44,1.44,0,0,0,.2-.29,1.78,1.78,0,0,1,.3-.43,3.7,3.7,0,0,1,.32-.31,2,2,0,0,0,.59-.91c.14-.5-.11-1-.2-.89s0,.16-.12.33a.89.89,0,0,1-.2.28l-.17.15-.11.08-.13.07a2,2,0,0,0-.45.3l-.17.16a1.29,1.29,0,0,0-.13.18,1.73,1.73,0,0,0-.18.42,3.69,3.69,0,0,0-.12.5,1.65,1.65,0,0,1-.2.62,1.44,1.44,0,0,1-.27.3l-.06,0-.2.08a15.14,15.14,0,0,1-1.49.45,2.06,2.06,0,0,0,.53-.4,1.92,1.92,0,0,1,.38-.37l.19-.12.1-.05.09-.06a2,2,0,0,0,.77-.79c.25-.44.09-1,0-.9s-.07.14-.18.29a1.26,1.26,0,0,1-.71.45L21,44l-.23.11a1.36,1.36,0,0,0-.36.28l-.14.17-.13.19a3.88,3.88,0,0,0-.22.47,1.54,1.54,0,0,1-.32.56,1.51,1.51,0,0,1-.33.25l0,0-.08,0-.15,0-.29,0c-.38.06-.76.08-1.13.11h-.09l.05,0,.21-.09a1.56,1.56,0,0,0,.3-.18l.23-.16.22-.12a3.81,3.81,0,0,1,.42-.16l.11,0,.11,0,.22-.12.23-.17a1.67,1.67,0,0,0,.24-.24,1.13,1.13,0,0,0,.18-.31c.12-.31.07-.6,0-.58s-.1.13-.24.25a.9.9,0,0,1-.29.18,2,2,0,0,1-.5.12l-.29,0-.25.06a1.59,1.59,0,0,0-.41.21,2.74,2.74,0,0,0-.63.73,2,2,0,0,1-.45.49,1.62,1.62,0,0,1-.35.18,1.62,1.62,0,0,1-.35-.18,2,2,0,0,1-.45-.49,2.74,2.74,0,0,0-.63-.73,1.59,1.59,0,0,0-.41-.21l-.25-.06-.29,0a2,2,0,0,1-.5-.12.9.9,0,0,1-.29-.18c-.14-.13-.18-.24-.24-.25s-.13.26,0,.58a1.13,1.13,0,0,0,.18.31,1.67,1.67,0,0,0,.24.24l.23.17.22.12.11,0,.11,0a3.81,3.81,0,0,1,.42.16l.22.12.23.16a1.56,1.56,0,0,0,.3.18l.21.09.05,0h-.1l-.49,0h-.3l-.28,0-.29,0-.27,0,0,0a1.51,1.51,0,0,1-.33-.25,1.54,1.54,0,0,1-.32-.56,3.88,3.88,0,0,0-.22-.47l-.13-.19-.14-.17a1.36,1.36,0,0,0-.36-.28L12.15,44l-.27-.1a1.26,1.26,0,0,1-.71-.45c-.11-.15-.13-.26-.18-.29s-.26.46,0,.9a2,2,0,0,0,.77.79l.09.06.1.05.19.12a1.92,1.92,0,0,1,.38.37,2,2,0,0,0,.53.4,14.88,14.88,0,0,1-1.45-.43l-.24-.1-.06,0A1.44,1.44,0,0,1,11,45a1.65,1.65,0,0,1-.2-.62,3.69,3.69,0,0,0-.12-.5,1.73,1.73,0,0,0-.18-.42,1.28,1.28,0,0,0-.13-.18l-.17-.16a2,2,0,0,0-.45-.3l-.13-.07-.11-.08-.17-.15a.89.89,0,0,1-.2-.28c-.08-.17-.07-.29-.12-.33s-.34.39-.2.89a2,2,0,0,0,.59.91,3.71,3.71,0,0,1,.32.31,1.78,1.78,0,0,1,.3.43,1.44,1.44,0,0,0,.2.29,2.88,2.88,0,0,0,.27.25A14.3,14.3,0,0,1,9,44.12L8.88,44a1.15,1.15,0,0,1-.12-.18,1.26,1.26,0,0,1-.08-.17A1.64,1.64,0,0,1,8.61,43a2.35,2.35,0,0,0-.11-1,1.39,1.39,0,0,0-.22-.4l-.17-.19-.22-.2-.21-.19a1,1,0,0,1-.14-.18,1.12,1.12,0,0,1-.14-.31c0-.18,0-.3-.06-.34s-.14,0-.23.2a1.1,1.1,0,0,0-.13.64,2.49,2.49,0,0,0,.06.34,1.67,1.67,0,0,0,.1.27,2.73,2.73,0,0,0,.24.41c.09.12.18.23.26.36a1.7,1.7,0,0,1,.11.22l0,.13,0,.14a1.49,1.49,0,0,0,.14.31l.12.19.07.1,0,0-.06,0-.5-.39L7.4,43l-.24-.21-.24-.21-.05-.05a1.31,1.31,0,0,1-.16-1.18,3.6,3.6,0,0,0,.08-.51,1.83,1.83,0,0,0,0-.46,1.38,1.38,0,0,0-.15-.43,2,2,0,0,0-.32-.45,1.4,1.4,0,0,1-.17-.23A1.62,1.62,0,0,1,6,39.06a1.07,1.07,0,0,1-.09-.33c0-.19,0-.3,0-.35s-.15,0-.26.16a1.15,1.15,0,0,0-.16.27,1,1,0,0,0-.08.35,2.24,2.24,0,0,0,.06.63,1.37,1.37,0,0,0,.08.24l.09.21c.07.13.13.26.18.4a1.74,1.74,0,0,1,.12.51,1.2,1.2,0,0,0,0,.16,1.13,1.13,0,0,0,.05.18,2.87,2.87,0,0,0,.2.4l-.39-.43L5.45,41l-.19-.24-.16-.21A1.44,1.44,0,0,1,5,40a1.7,1.7,0,0,1,.16-.63l0-.13,0-.13c0-.08.05-.16.07-.24a1.63,1.63,0,0,0,.06-.45,1.59,1.59,0,0,0-.08-.46,1.73,1.73,0,0,0-.1-.24l-.07-.12L5,37.43a1.94,1.94,0,0,1-.22-.48,1.06,1.06,0,0,1,0-.35c0-.19.07-.3,0-.35s-.49.19-.6.7a1.94,1.94,0,0,0,0,.63,2.2,2.2,0,0,0,0,.25,2,2,0,0,0,.06.22,3.58,3.58,0,0,1,.12.43,1.7,1.7,0,0,1,0,.24,2.17,2.17,0,0,1,0,.28,1.5,1.5,0,0,0,0,.35c0,.07,0,.14,0,.22a2.24,2.24,0,0,0,.08.24v0l0,0-.16-.24-.3-.48L4,39,4,38.85l-.13-.24-.16-.3a1.61,1.61,0,0,1,0-.22,1.44,1.44,0,0,1,0-.41,1.18,1.18,0,0,1,.1-.31c0-.1.1-.19.16-.29a1.78,1.78,0,0,0,.17-1.91A2.31,2.31,0,0,1,4,34.9a1.23,1.23,0,0,1,0-.23,1.16,1.16,0,0,1,0-.35C4,34.13,4,34,4,34s-.52.13-.69.62a2.59,2.59,0,0,0-.1.34c0,.05,0,.1,0,.15s0,.09,0,.14a2.72,2.72,0,0,0,0,.48c0,.07,0,.15,0,.22s0,.15,0,.22a1.77,1.77,0,0,1,0,.53,2.08,2.08,0,0,0,0,.82l0,.07,0-.11-.1-.23L3,36.79l-.17-.43c-.06-.14-.11-.27-.16-.41v0c0-.05,0-.1,0-.15a1.2,1.2,0,0,1,.27-.85,1.74,1.74,0,0,0,.25-1.7A2.13,2.13,0,0,1,3,32.73a1.21,1.21,0,0,1,0-.32c0-.17.1-.25.09-.31s-.41.06-.58.49a1.91,1.91,0,0,0-.14.55,2.86,2.86,0,0,0,0,.44,2.15,2.15,0,0,1-.05.87,2.08,2.08,0,0,0,0,.72c-.07-.24-.14-.46-.2-.66L2,33.92l0-.12c0-.19,0-.41,0-.61s0-.2,0-.3l0-.28c0-.18,0-.33,0-.45s0-.43,0-.63,0-.2,0-.3,0-.19,0-.28,0-.34-.06-.49a1.88,1.88,0,0,0-.09-.37l-.18-.49-.14-.4c-.09-.23-.16-.36-.2-.36s-.11.14-.19.37-.08.26-.12.41-.08.33-.12.52a2,2,0,0,0,0,.39,5,5,0,0,0,0,.52c0,.09,0,.19,0,.29s0,.2.06.31.1.42.16.64.1.26.17.43l.11.27.13.28.27.57h0l0,.1.15.59c.06.21.13.43.2.67a2.52,2.52,0,0,0-.42-.61,2.15,2.15,0,0,1-.48-.78,3.32,3.32,0,0,0-.19-.42,3.56,3.56,0,0,0-.35-.5C.41,32.54,0,32.47,0,32.6s.1.13.2.3a1.6,1.6,0,0,1,.15.33,2.73,2.73,0,0,1,.13.54c0,.11,0,.21.06.31a2.48,2.48,0,0,0,.09.26,1.75,1.75,0,0,0,.24.42,1.46,1.46,0,0,0,.32.3,2.62,2.62,0,0,0,.4.23,2,2,0,0,1,.49.29,1.59,1.59,0,0,1,.25.28l.09.13v0c0,.14.1.27.16.41l.17.43c.06.15.13.29.19.44l.1.23.06.12,0-.06a2.62,2.62,0,0,0-.6-.61,1.86,1.86,0,0,1-.41-.38l-.14-.2-.12-.2a3.36,3.36,0,0,0-.29-.44l-.1-.12-.11-.12A3.45,3.45,0,0,0,1,35.25c-.44-.37-1-.39-1-.25s.14.14.29.31a1.63,1.63,0,0,1,.22.35c0,.08.07.16.11.26a3.21,3.21,0,0,1,.1.33,1.88,1.88,0,0,0,1.54,1.51l.33.09A1.51,1.51,0,0,1,3,38a1.68,1.68,0,0,1,.33.26l.18.19.14.26.13.24.14.24.3.49.16.24,0,0h0l-.19-.17L4,39.61a1.82,1.82,0,0,0-.31-.2,1.8,1.8,0,0,1-.26-.15l-.2-.17a4.14,4.14,0,0,1-.32-.36l-.16-.19-.19-.2A3.81,3.81,0,0,0,2,37.9c-.48-.32-1-.26-1-.13s.16.12.33.27a1.83,1.83,0,0,1,.27.32,2.81,2.81,0,0,1,.3.56l.07.17.08.15a2.55,2.55,0,0,0,.18.26,1.61,1.61,0,0,0,.4.38,1.87,1.87,0,0,0,.47.22l.26.07.14,0,.15,0a2.29,2.29,0,0,1,.68.13,2.37,2.37,0,0,1,.54.33A14.53,14.53,0,0,0,6,42a3.4,3.4,0,0,0-.4-.24l-.18-.09-.16-.06a1.94,1.94,0,0,1-.51-.24,3.48,3.48,0,0,1-.37-.32l-.19-.17L4,40.76a3.19,3.19,0,0,0-.62-.35A1.65,1.65,0,0,0,3,40.28a1.3,1.3,0,0,0-.33,0c-.19,0-.31.08-.27.15s.18.1.36.23a1.83,1.83,0,0,1,.32.28l.18.22.2.29A3,3,0,0,0,3.9,42a1.84,1.84,0,0,0,.47.32,1.72,1.72,0,0,0,.5.15,3.1,3.1,0,0,0,.57,0,2,2,0,0,1,1.25.25,14.11,14.11,0,0,0,1.37,1.15l-.07,0-.12,0-.22-.08a1.91,1.91,0,0,0-.36-.08l-.16,0-.14,0-.25-.1a3.61,3.61,0,0,1-.43-.24,3.63,3.63,0,0,0-.46-.27l-.3-.13-.37-.12a1.49,1.49,0,0,0-.74,0c-.18,0-.29.13-.24.18s.19.07.4.17a1.8,1.8,0,0,1,.36.23l.22.19.25.26a3,3,0,0,0,.26.26l.26.2a1.88,1.88,0,0,0,.51.24,2.31,2.31,0,0,0,1.09,0,2.37,2.37,0,0,1,.69-.11l.2,0,.23,0,.15,0a14.63,14.63,0,0,0,1.56.86L10,45.17a2,2,0,0,0-.37,0,2,2,0,0,1-.58,0,4.35,4.35,0,0,1-.47-.17,3.82,3.82,0,0,0-1.22-.31c-.58-.07-1.05.23-.93.32a2.82,2.82,0,0,0,.43.1,2.46,2.46,0,0,1,.41.16l.26.15.14.1.15.11a3.26,3.26,0,0,0,.61.35,1.49,1.49,0,0,0,.28.09l.28,0a1.85,1.85,0,0,0,.53,0,3,3,0,0,0,.54-.19,2.37,2.37,0,0,1,.65-.23,1.76,1.76,0,0,1,.31,0l.07,0c.23.1.54.22.94.35l.67.19a2.17,2.17,0,0,0-.47.07,1.89,1.89,0,0,1-.57.06l-.25,0-.12,0-.12,0a3.92,3.92,0,0,0-1.26-.07c-.59.06-1,.43-.85.5s.21,0,.44,0a3,3,0,0,1,1.05.32l.35.15a2.18,2.18,0,0,0,.32.08,2,2,0,0,0,.58,0,1.33,1.33,0,0,0,.26-.05l.25-.09a2.92,2.92,0,0,0,.49-.28,2.61,2.61,0,0,1,.59-.36,1.72,1.72,0,0,1,.33-.08,16,16,0,0,0,1.6.19l.29,0h0l-.23.05a1.92,1.92,0,0,0-.35.13,1.84,1.84,0,0,1-.29.12l-.26.05a4.43,4.43,0,0,1-.5,0h-.26l-.28,0-.32.06-.38.1c-.56.16-.88.61-.72.65a2.87,2.87,0,0,0,.44-.07,2.65,2.65,0,0,1,.44,0,3.25,3.25,0,0,1,.66.12,2.23,2.23,0,0,0,.37.07l.33,0a1.75,1.75,0,0,0,.57-.08,2.11,2.11,0,0,0,.91-.61,2,2,0,0,1,.48-.46,1.63,1.63,0,0,1,.37-.16,1.63,1.63,0,0,1,.37.16,2,2,0,0,1,.48.46,2.11,2.11,0,0,0,.91.61,1.75,1.75,0,0,0,.57.08l.33,0a2.23,2.23,0,0,0,.37-.07,3.25,3.25,0,0,1,.66-.12,2.65,2.65,0,0,1,.44,0,2.87,2.87,0,0,0,.44.07c.15,0-.16-.49-.72-.65L20,47,19.7,47l-.28,0h-.26a4.43,4.43,0,0,1-.5,0l-.26-.05a1.84,1.84,0,0,1-.29-.12,1.92,1.92,0,0,0-.35-.13l-.23-.05h.22a16,16,0,0,0,1.65-.19,1.72,1.72,0,0,1,.33.08,2.61,2.61,0,0,1,.59.36,2.92,2.92,0,0,0,.49.28l.25.09a1.33,1.33,0,0,0,.26.05,2,2,0,0,0,.58,0,2.18,2.18,0,0,0,.32-.08l.35-.15a3,3,0,0,1,1.05-.32c.24,0,.38,0,.44,0s-.26-.44-.85-.5a3.92,3.92,0,0,0-1.26.07l-.12,0-.12,0-.25,0a1.89,1.89,0,0,1-.57-.06,2.17,2.17,0,0,0-.47-.07l.64-.18c.4-.13.73-.25,1-.35l.09,0a1.76,1.76,0,0,1,.31,0,2.37,2.37,0,0,1,.65.23,3,3,0,0,0,.54.19,1.85,1.85,0,0,0,.53,0l.28,0a1.49,1.49,0,0,0,.28-.09,3.26,3.26,0,0,0,.61-.35l.15-.11.14-.1.26-.15a2.46,2.46,0,0,1,.41-.16,2.83,2.83,0,0,0,.43-.1c.12-.1-.35-.39-.93-.32a3.82,3.82,0,0,0-1.22.31,4.35,4.35,0,0,1-.47.17,2,2,0,0,1-.58,0,2,2,0,0,0-.37,0l-.39.06a14.59,14.59,0,0,0,1.56-.86l.15,0,.23,0,.2,0a2.37,2.37,0,0,1,.69.11,2.31,2.31,0,0,0,1.09,0,1.88,1.88,0,0,0,.51-.24l.26-.2a3,3,0,0,0,.26-.26l.25-.26.22-.19a1.8,1.8,0,0,1,.36-.23c.21-.1.35-.11.4-.17s-.05-.14-.24-.18a1.49,1.49,0,0,0-.74,0l-.37.12-.3.13a3.62,3.62,0,0,0-.46.27,3.61,3.61,0,0,1-.43.24l-.25.1-.14,0-.16,0a1.91,1.91,0,0,0-.36.08l-.22.08-.12,0-.06,0,.07-.05.51-.4.25-.21.24-.21.24-.22.07-.06a2,2,0,0,1,1.24-.24,3.1,3.1,0,0,0,.57,0,1.72,1.72,0,0,0,.5-.15,1.84,1.84,0,0,0,.47-.32,3,3,0,0,0,.42-.53l.2-.29.18-.22a1.83,1.83,0,0,1,.32-.28c.18-.13.32-.16.36-.23s-.08-.13-.27-.15a1.3,1.3,0,0,0-.33,0,1.65,1.65,0,0,0-.39.12,3.19,3.19,0,0,0-.62.35l-.22.17-.19.17a3.47,3.47,0,0,1-.37.32,1.94,1.94,0,0,1-.51.24l-.16.06-.18.09a3.4,3.4,0,0,0-.4.24l.4-.44.39-.48.19-.24.16-.22a2.36,2.36,0,0,1,.54-.33,2.29,2.29,0,0,1,.68-.13l.15,0,.14,0,.26-.07a1.87,1.87,0,0,0,.47-.22,1.61,1.61,0,0,0,.4-.38,2.54,2.54,0,0,0,.18-.26l.08-.15.07-.17a2.81,2.81,0,0,1,.3-.56,1.84,1.84,0,0,1,.27-.32c.17-.15.3-.2.33-.27s-.5-.19-1,.13a3.81,3.81,0,0,0-.55.44l-.19.2-.16.19a4.15,4.15,0,0,1-.32.36l-.2.17a1.8,1.8,0,0,1-.26.15,1.82,1.82,0,0,0-.31.2l-.18.15-.19.17v0l0,0,.16-.24.3-.49.07-.12.07-.12.13-.24.15-.28.18-.19a1.68,1.68,0,0,1,.33-.26,1.51,1.51,0,0,1,.32-.14l.33-.09a1.88,1.88,0,0,0,1.54-1.51,3.2,3.2,0,0,1,.1-.33c0-.1.07-.18.11-.26a1.63,1.63,0,0,1,.22-.35c.14-.17.27-.24.29-.31S32.56,34.88,32.12,35.25Z" style="fill:#8dc440"/><path d="M13.14,44c.06,0,.1.13.24.25a.9.9,0,0,0,.29.18,2,2,0,0,0,.5.12l.29,0,.25.06a1.59,1.59,0,0,1,.41.21,2.74,2.74,0,0,1,.63.73,2,2,0,0,0,.45.49,1.62,1.62,0,0,0,.35.18,1.62,1.62,0,0,0,.35-.18,2,2,0,0,0,.45-.49,2.74,2.74,0,0,1,.63-.73,1.59,1.59,0,0,1,.41-.21l.25-.06.29,0a2,2,0,0,0,.5-.12.9.9,0,0,0,.29-.18c.14-.13.18-.24.24-.25s.13.26,0,.58a25.62,25.62,0,0,0,11-21V10.72h0a72,72,0,0,0-28.85,0V23.54a25.62,25.62,0,0,0,11,21C13,44.25,13.06,44,13.14,44ZM3.55,11.88a70.58,70.58,0,0,1,26,0v6.71a72.42,72.42,0,0,0-26,0ZM8.33,38c-.38-.52-.75-1.05-1.1-1.6A24.19,24.19,0,0,1,3.94,27.9l1.74.48,1.9-6.06-4-1.18v-.88a70.82,70.82,0,0,1,26,0v.88l-3.11.62,1.13,6.17,1.63-.32a24.19,24.19,0,0,1-3.34,8.76c-.34.54-.69,1.06-1.07,1.56l-8.21-3.7Zm1.4,1.72,6.89-3.12,6.81,3.08A24.18,24.18,0,0,1,16.57,45,24.18,24.18,0,0,1,9.73,39.7Z" style="fill:#231f20"/><path d="M18.22,33.37a.65.65,0,0,0,.2-.49c0-.26-.32-.5-.77-.82l-.28-.19a.68.68,0,0,1-.19.61l-.64.63a3,3,0,0,0,1.29.49A.55.55,0,0,0,18.22,33.37Z" style="fill:#231f20"/><path d="M12,28.21a.68.68,0,0,1,1,0l.24.24a.68.68,0,0,1,.07.87.67.67,0,0,1,.73.16l.24.24a.68.68,0,0,1,.13.77l.09-.09a.68.68,0,0,1,1,0l.24.24a.68.68,0,0,1,.16.71l.1-.1a.68.68,0,0,1,1,0l.24.24h0l.22.15.32.22a5.29,5.29,0,0,0,1.39.75h.11a.88.88,0,0,0,.7-.52.54.54,0,0,0-.15-.6c-.59-.59-1.7-1.49-1.71-1.5a.1.1,0,1,1,.12-.15h0a18.2,18.2,0,0,0,2.4,1.72l.16,0a1.06,1.06,0,0,0,.75-.57c.27-.5-.11-.86-.75-1.4l-.34-.3-.18-.16c-.48-.36-.88-.71-.88-.72a.1.1,0,0,1,.12-.15s.48.37.88.72a3.36,3.36,0,0,0,1.4.76.78.78,0,0,0,.73-.42.83.83,0,0,0,0-.79,6.56,6.56,0,0,0-.77-.91l-.66-.63c-.44-.43-.94-.93-1.4-1.32l-.18-.15c-.61-.53-1.45-1.25-1.91-1.22a.26.26,0,0,0-.19.09,3.19,3.19,0,0,1-1.92,1.32,1.46,1.46,0,0,1-1.43-.46.19.19,0,0,1,.05-.23,9,9,0,0,0,.67-.78l.74-.89.21-.23a12,12,0,0,0-2,.7,3.89,3.89,0,0,1-1.31.34,2.83,2.83,0,0,1-.5,0l-1.55,4.91.42.3a.67.67,0,0,1,.1-.13Z" style="fill:#231f20"/><path d="M14.94,24.43a8.37,8.37,0,0,1-.7.8.2.2,0,0,0,.06.08,1.53,1.53,0,0,0,1.17.27,3,3,0,0,0,1.8-1.25.45.45,0,0,1,.33-.16c.53,0,1.37.69,2,1.26l.18.15c.47.4,1,.89,1.41,1.33s.69.68.91.86a1.43,1.43,0,0,0,.7.34l-.92-5-.23,0a9.57,9.57,0,0,1-2,0l-.88-.17a7.6,7.6,0,0,0-1.86-.27h0c-.34.09-.62.16-1.23.87Z" style="fill:#231f20"/><path d="M13.11,29.29a.49.49,0,0,0,0-.7l-.24-.24a.49.49,0,0,0-.7,0l-1.11,1.09a.49.49,0,0,0,0,.7l.24.24a.51.51,0,0,0,.7,0Z" style="fill:#231f20"/><path d="M14.15,29.87l-.24-.24a.49.49,0,0,0-.7,0l-1.11,1.09a.49.49,0,0,0,0,.7l.24.24a.51.51,0,0,0,.7,0l1.11-1.09A.49.49,0,0,0,14.15,29.87Z" style="fill:#231f20"/><path d="M15.58,30.8l-.24-.24a.49.49,0,0,0-.7,0l-1.11,1.09a.49.49,0,0,0,0,.7l.24.24a.51.51,0,0,0,.7,0l1.11-1.09A.49.49,0,0,0,15.58,30.8Z" style="fill:#231f20"/><path d="M17.19,32a.48.48,0,0,0-.14-.35l-.24-.24a.49.49,0,0,0-.7,0L15,32.5a.49.49,0,0,0,0,.7l.24.24a.51.51,0,0,0,.7,0L17,32.36A.49.49,0,0,0,17.19,32Z" style="fill:#231f20"/><polygon points="7.76 22.4 5.89 28.38 10.04 29.67 11.94 23.61 7.76 22.4" style="fill:#231f20"/><polygon points="23.04 28.13 23.07 28.32 23.18 28.88 27.44 28.08 26.3 21.83 22.03 22.71 23.03 28.1 23.04 28.13" style="fill:#231f20"/></g></g></svg>