<svg id="Layer_1" data-name="Layer 1" xmlns="http://www.w3.org/2000/svg" viewBox="0 0 56.77 56.77"><title>supplier-management</title><path d="M22.45,12.3h0a44.8,44.8,0,0,1,11.7,0h0a9.73,9.73,0,0,1,3.36-5.11,2.84,2.84,0,0,0-2.68,1.17,1.24,1.24,0,0,0-1.75.26s1.51,0,1,1a.79.79,0,0,1-1.4,0,2.18,2.18,0,0,1-.11-1.76.53.53,0,1,0-.38-.11c-.29.38-1.35,1.61-2.61.87a1.62,1.62,0,0,1-.79-2,.76.76,0,0,0,.71.25.77.77,0,0,0-.13-1.53.77.77,0,0,0-.29.06A1.51,1.51,0,0,0,29.15,5a4.57,4.57,0,0,0-.85-2.25A4.57,4.57,0,0,0,27.45,5a1.49,1.49,0,0,0,.07.46.77.77,0,0,0-.57,0,.76.76,0,0,0-.46.5.77.77,0,0,0,1.32.73,1.62,1.62,0,0,1-.79,2c-1.26.74-2.32-.49-2.61-.87a.53.53,0,1,0-.38.11,2.18,2.18,0,0,1-.11,1.76.79.79,0,0,1-1.4,0c-.5-1,1-1,1-1a1.24,1.24,0,0,0-1.75-.26A2.84,2.84,0,0,0,19.1,7.19,9.73,9.73,0,0,1,22.45,12.3Z" style="fill:#ffc843"/><path d="M37.24,43.36c.4-.54.78-1.1,1.14-1.67A25.9,25.9,0,0,0,42,32.31l-1.75.34L39,26l3.33-.67v-.94a75.83,75.83,0,0,0-27.89,0v.94l4.32,1.26-2,6.49-1.86-.52a25.9,25.9,0,0,0,3.52,9.08c.37.59.76,1.16,1.17,1.71l8.88-4ZM38.8,26.11,40,32.79l-4.57.86L35.35,33l0-.2v0L34.23,27ZM28.75,27h0a8.14,8.14,0,0,1,2,.28l.94.19a10.24,10.24,0,0,0,2.14,0l.24,0,1,5.34a1.53,1.53,0,0,1-.75-.36c-.24-.2-.58-.53-1-.92s-1-1-1.51-1.42L31.67,30c-.72-.62-1.62-1.39-2.19-1.35a.48.48,0,0,0-.35.17,3.25,3.25,0,0,1-1.92,1.34A1.64,1.64,0,0,1,26,29.84a.21.21,0,0,1-.06-.08,9,9,0,0,0,.75-.86c.24-.29.51-.62.79-1C28.09,27.18,28.38,27.1,28.75,27Zm-11.8,6.12,2-6.41L23.43,28l-2,6.49Zm4.84.79,1.66-5.26a3,3,0,0,0,.53,0,4.17,4.17,0,0,0,1.41-.37,12.79,12.79,0,0,1,2.12-.75l-.23.25c-.29.33-.56.66-.8,1a9.66,9.66,0,0,1-.72.83.2.2,0,0,0-.06.24,1.56,1.56,0,0,0,1.53.49,3.42,3.42,0,0,0,2.05-1.41.28.28,0,0,1,.21-.1c.49,0,1.39.74,2,1.3l.19.16c.49.42,1,.95,1.5,1.41l.7.68a7,7,0,0,1,.82,1,.89.89,0,0,1,0,.85.84.84,0,0,1-.78.45,3.59,3.59,0,0,1-1.5-.81c-.43-.37-.94-.77-.94-.77a.1.1,0,0,0-.13.16s.43.39.94.77l.19.17.37.32c.69.58,1.09,1,.8,1.5a1.13,1.13,0,0,1-.8.61l-.17,0a19.49,19.49,0,0,1-2.57-1.84h0a.1.1,0,1,0-.13.16s1.21,1,1.83,1.6a.57.57,0,0,1,.16.64.94.94,0,0,1-.75.56h-.11a5.67,5.67,0,0,1-1.49-.8l-.34-.23-.23-.16h0l-.26-.26a.73.73,0,0,0-1,0l-.11.1a.73.73,0,0,0-.17-.76l-.26-.26a.73.73,0,0,0-1,0l-.09.09a.73.73,0,0,0-.14-.82l-.26-.26a.72.72,0,0,0-.78-.17.73.73,0,0,0-.08-.93l-.26-.26a.73.73,0,0,0-1,0L22.35,34.1a.72.72,0,0,0-.11.14Zm1,1.34L22.49,35a.53.53,0,0,1,0-.75l1.18-1.17a.53.53,0,0,1,.75,0l.26.26a.53.53,0,0,1,0,.74l-1.18,1.17A.54.54,0,0,1,22.75,35.25Zm1.11,1.37-.26-.26a.53.53,0,0,1,0-.75l1.18-1.16a.53.53,0,0,1,.74,0l.26.26a.53.53,0,0,1,0,.75l-1.18,1.17A.54.54,0,0,1,23.86,36.61Zm1.53,1-.26-.26a.53.53,0,0,1,0-.74l1.18-1.17a.53.53,0,0,1,.75,0l.26.26a.53.53,0,0,1,0,.75l-1.18,1.17A.54.54,0,0,1,25.39,37.61Zm1.57.92-.26-.26a.53.53,0,0,1,0-.74l1.18-1.17a.53.53,0,0,1,.74,0l.26.26a.53.53,0,0,1,0,.74l-1.18,1.16A.54.54,0,0,1,27,38.53Zm2.07-1a.73.73,0,0,0,.21-.65l.3.2c.48.33.79.6.83.87a.69.69,0,0,1-.21.52.59.59,0,0,1-.43.26,3.18,3.18,0,0,1-1.38-.53Z" style="fill:#ffc843"/><path d="M35.74,45.2l-7.29-3.3-7.38,3.34a25.89,25.89,0,0,0,7.32,5.68A25.89,25.89,0,0,0,35.74,45.2ZM28,49.47l-.24,0h0l-.23-.06h0A3.1,3.1,0,0,1,25.72,48h0v0a3,3,0,0,1-.33-2.21.09.09,0,0,1,0,0,3.07,3.07,0,0,1,.16-.48l0,0a3.08,3.08,0,0,1,.27-.5h0l.17-.23h0l.19-.21h0a3.08,3.08,0,0,1,4.37,0h0l.19.21h0l.17.23h0a3.08,3.08,0,0,1,.27.5l0,0a3.06,3.06,0,0,1,.16.48.11.11,0,0,1,0,0,3,3,0,0,1-.33,2.21v0h0a3.1,3.1,0,0,1-1.8,1.41h0l-.23.06h0l-.24,0H28Z" style="fill:#006098"/><path d="M30.65,47.58l.28.17a2.87,2.87,0,0,0,.28-1.93l-.19,0-.36.64Z" style="fill:#006098"/><path d="M30.28,44.54l.1-.22a2.87,2.87,0,0,0-1.89-.8v.35l1,.58Z" style="fill:#006098"/><polygon points="29.48 44.66 29.29 45.11 29.22 45.27 29.79 46.3 30.49 46.3 30.84 45.68 30.68 45.42 30.28 44.75 29.48 44.66" style="fill:#006098"/><path d="M29.59,48.33l-.46.64.12.17a2.89,2.89,0,0,0,1.57-1.23l-.28-.17Z" style="fill:#006098"/><path d="M26.23,47.76l-.28.17a2.89,2.89,0,0,0,1.57,1.23l.12-.17-.46-.64Z" style="fill:#006098"/><polygon points="29.4 48.25 29.05 47.64 27.73 47.64 27.61 47.84 27.38 48.25 27.82 48.87 28.95 48.87 29.4 48.25" style="fill:#006098"/><path d="M26.12,46.43l-.36-.64-.19,0a2.87,2.87,0,0,0,.28,1.93l.28-.17Z" style="fill:#006098"/><polygon points="27.45 45.89 27.17 46.4 27.45 46.92 27.73 47.43 29.05 47.43 29.61 46.4 29.05 45.37 27.73 45.37 27.45 45.89" style="fill:#006098"/><path d="M27.32,44.45l1-.58v-.35a2.87,2.87,0,0,0-1.89.8l.1.22Z" style="fill:#006098"/><polygon points="26.99 46.3 27.55 45.27 27.29 44.66 26.49 44.75 25.93 45.68 26.29 46.3 26.99 46.3" style="fill:#006098"/><path d="M25.82,16.13h.26a.22.22,0,0,0,.22-.23.22.22,0,0,0-.23-.23h-.26c-.07,0-.07,0-.07.09V16C25.75,16.11,25.77,16.13,25.82,16.13Z" style="fill:#006098"/><path d="M34.6,16.45l.27,0a.19.19,0,0,0,.1,0,.4.4,0,0,0,.17-.28.24.24,0,0,0-.23-.27l-.27,0c-.08,0-.09,0-.1.08l0,.41S34.53,16.44,34.6,16.45Z" style="fill:#006098"/><path d="M21.28,19.71l-.12-.41s0,0,0,0l0,.42,0,.42s0,0,0,0l.28,0s0,0,0-.06Z" style="fill:#006098"/><path d="M27.82,16.09h.26a.22.22,0,0,0,.22-.23.22.22,0,0,0-.23-.23h-.26c-.07,0-.07,0-.07.09V16C27.74,16.07,27.77,16.09,27.82,16.09Z" style="fill:#006098"/><path d="M42.33,22.64V15.45a75.57,75.57,0,0,0-27.89,0v7.19A77.55,77.55,0,0,1,42.33,22.64Zm-12-1.95c0,.06,0,.1-.08.1l-1.42,0a.09.09,0,0,1-.1-.1l0-2.3a.09.09,0,0,1,.1-.1l1.39,0s.08,0,.08.09v.33c0,.06,0,.1-.08.1h-.82c-.08,0-.1,0-.1.08v.27c0,.08,0,.1.1.1h.67c.06,0,.08,0,.08.1v.32c0,.06,0,.1-.09.1h-.68c-.08,0-.09,0-.09.08v.33c0,.07,0,.09.12.09h.83s.08,0,.08.09ZM35,19c0,.06,0,.09-.09.09L34.09,19c-.08,0-.1,0-.1.07l0,.27c0,.08,0,.1.09.11l.67,0c.06,0,.08,0,.08.1l0,.32c0,.06,0,.1-.09.09L34,19.95c-.08,0-.09,0-.09.08l0,.33c0,.07,0,.09.11.1l.83.06s.08,0,.07.1l0,.33c0,.06,0,.09-.09.09l-1.42-.1a.09.09,0,0,1-.09-.1l.17-2.3a.09.09,0,0,1,.1-.09l1.39.1s.08,0,.07.09Zm2.47.25,0-.32c0-.06,0-.09.1-.09l1.54.19c.06,0,.07,0,.06.11l0,.32c0,.06,0,.09-.09.09l-.42-.05c-.07,0-.09,0-.1.06l-.24,1.81c0,.06,0,.08-.11.07l-.37,0c-.06,0-.09,0-.09-.09L38,19.44s0-.08-.07-.09l-.38,0C37.46,19.3,37.45,19.26,37.46,19.2Zm-1.54-.49L36.53,20h0s0,0,0,0l.12-1.19c0-.06,0-.08.11-.07l.35,0c.06,0,.1,0,.09.09L37,21.15c0,.06,0,.08-.11.08l-.25,0c-.06,0-.11,0-.14-.08l-.62-1.27s0,0,0,0L35.73,21c0,.06,0,.07-.11.07l-.35,0c-.06,0-.1,0-.09-.09l.23-2.32c0-.06,0-.08.11-.08l.26,0A.14.14,0,0,1,35.92,18.71ZM34,15.41c0-.06,0-.09.09-.09l.89.07a.71.71,0,0,1,.73.81,1,1,0,0,1-.39.68s0,0,0,.1l.32.87s0,.09-.08.09l-.4,0c-.13,0-.15-.06-.17-.11L34.73,17a.05.05,0,0,0-.05,0h-.17s0,0,0,0l-.06.76c0,.06,0,.08-.11.07l-.37,0c-.06,0-.1,0-.09-.09Zm-1.95-.11a.09.09,0,0,1,.1-.09l1.39.08s.08,0,.08.09l0,.33c0,.06,0,.1-.09.09l-.81,0c-.08,0-.1,0-.1.07l0,.27c0,.08,0,.1.1.11l.67,0c.06,0,.08,0,.08.1l0,.32c0,.06,0,.1-.09.09l-.68,0c-.08,0-.09,0-.09.08l0,.33c0,.07,0,.09.11.1l.83,0s.08,0,.08.1l0,.33c0,.06,0,.1-.09.09L32,17.69a.09.09,0,0,1-.09-.1Zm-1,0c0-.06,0-.08.1-.08h.38c.05,0,.1,0,.09.09l-.09,2.33c0,.06,0,.08-.1.08h-.38c-.06,0-.1,0-.09-.08Zm.07,3.07c.06,0,.11,0,.15.09.09.25.2.57.3.82l.21.63s0,0,0,0l.27-.6.37-.79a.16.16,0,0,1,.16-.08h.31c.06,0,.1,0,.1.09l-.1,2.32c0,.06,0,.09-.11.08l-.36,0c-.06,0-.1,0-.09-.08l0-1h0l-.18.4L32,20.7c0,.06-.06.08-.12.08h-.21c-.06,0-.1,0-.13-.07l-.17-.54-.13-.42h0l0,1c0,.06,0,.07-.1.07l-.36,0c-.06,0-.1,0-.1-.09l.1-2.32c0-.05,0-.09.11-.08Zm-1.92-3.12c0-.06,0-.08.1-.07h.38c.06,0,.1,0,.1.08l0,1.81c0,.06,0,.09.07.09l.87,0s.08,0,.08.09v.34c0,.06,0,.1-.08.1l-1.43,0a.09.09,0,0,1-.1-.1Zm-1.93-.07h.81a.75.75,0,1,1,0,1.49h-.27c-.05,0-.06,0-.06.06v.87c0,.06,0,.09-.1.09h-.38c-.06,0-.1,0-.1-.08V15.2C27.16,15.14,27.2,15.12,27.26,15.12Zm-2,.06.81,0a.75.75,0,1,1,0,1.49h-.27c-.05,0-.06,0-.06.06l0,.86c0,.06,0,.09-.1.09h-.38c-.06,0-.1,0-.1-.08l-.07-2.33C25.14,15.2,25.18,15.17,25.24,15.17ZM23,15.29l.37,0c.06,0,.1,0,.11.07l.1,1.66a.28.28,0,0,0,.33.24.28.28,0,0,0,.3-.28l-.1-1.66c0-.06,0-.08.1-.08l.38,0c.06,0,.11,0,.11.07l.1,1.66A.9.9,0,0,1,23,17l-.1-1.66C22.93,15.31,23,15.29,23,15.29Zm-1.34.07a1.32,1.32,0,0,1,.73.12c.07,0,.09.05,0,.16l-.1.24a.1.1,0,0,1-.14.06,1.38,1.38,0,0,0-.48-.09c-.14,0-.27.08-.26.24s.27.22.39.25c.34.08.82.19.86.71a.78.78,0,0,1-.81.83,1.35,1.35,0,0,1-.9-.22c-.08-.05-.1-.09,0-.18l.14-.23c.06-.09.1-.07.17,0a1.16,1.16,0,0,0,.57.16c.27,0,.3-.15.29-.24s-.24-.25-.62-.35a.7.7,0,0,1-.62-.64A.77.77,0,0,1,21.69,15.36Zm-1.62,5.84-.36,0c-.06,0-.1,0-.11-.06l-.12-1h0c0,.14-.07.29-.11.43l-.14.54c0,.06,0,.09-.1.1l-.21,0c-.06,0-.1,0-.14-.05l-.26-.5-.2-.39h0l.12,1c0,.06,0,.08-.09.08l-.36,0c-.06,0-.1,0-.11-.08l-.28-2.3c0-.05,0-.09.09-.1l.34,0c.06,0,.11,0,.16.07l.43.76.31.58s0,0,0,0l.16-.64.23-.84a.16.16,0,0,1,.14-.1l.31,0c.06,0,.11,0,.12.08l.28,2.3C20.18,21.17,20.14,21.2,20.08,21.21Zm2.13-.2-.41,0a.1.1,0,0,1-.11-.06l-.09-.28c0-.07,0-.09-.09-.08l-.48,0c-.07,0-.07,0-.08.09l0,.3a.1.1,0,0,1-.09.08l-.4,0c-.11,0-.1,0-.09-.09l.37-2.37a.1.1,0,0,1,.09-.08l.57-.05s.08,0,.11.06l.8,2.26S22.3,21,22.21,21Zm2-.13-.25,0c-.06,0-.11,0-.15-.06L23,19.68s0,0,0,0L23,20.87c0,.06,0,.08-.1.08l-.35,0c-.06,0-.1,0-.11-.07l-.15-2.33c0-.06,0-.09.09-.1l.26,0a.14.14,0,0,1,.16.07l.81,1.16h0s0,0,0,0l-.08-1.19c0-.06,0-.09.1-.09l.35,0c.06,0,.1,0,.11.08l.15,2.32C24.29,20.84,24.26,20.87,24.19,20.88Zm2.16-.09-.41,0a.1.1,0,0,1-.1-.07l-.07-.28c0-.07,0-.09-.09-.09l-.48,0c-.07,0-.07,0-.08.09l0,.3a.1.1,0,0,1-.1.08l-.4,0c-.11,0-.09-.05-.08-.1L25,18.41a.1.1,0,0,1,.1-.07l.57,0s.08,0,.1.06l.68,2.3S26.45,20.78,26.36,20.79Zm1.12,0a.77.77,0,0,1-.87-.72V19a.76.76,0,0,1,.82-.74.87.87,0,0,1,.85.42.09.09,0,0,1,0,.12l-.29.21c-.07,0-.1,0-.13,0a.43.43,0,0,0-.37-.19.27.27,0,0,0-.28.25v1.05c0,.14.14.23.3.23a.28.28,0,0,0,.3-.27v-.13a.05.05,0,0,0-.06-.06h-.14c-.06,0-.09,0-.09-.08v-.32c0-.06,0-.09.09-.09h.66c.06,0,.11,0,.11.09V20C28.36,20.53,28,20.79,27.48,20.79Z" style="fill:#006098"/><path d="M25.5,19.44,25.4,19s0,0,0,0l-.06.42-.06.41s0,0,0,0h.28s0,0,0-.05Z" style="fill:#006098"/><path d="M24.72,49.82c.06,0,.11.14.26.27a1,1,0,0,0,.31.2,2.11,2.11,0,0,0,.54.13l.31,0,.27.07a1.71,1.71,0,0,1,.44.22,2.93,2.93,0,0,1,.68.79,2.09,2.09,0,0,0,.49.52,1.73,1.73,0,0,0,.38.19,1.73,1.73,0,0,0,.38-.19,2.09,2.09,0,0,0,.49-.52,2.93,2.93,0,0,1,.68-.79,1.7,1.7,0,0,1,.44-.22l.27-.07.31,0a2.11,2.11,0,0,0,.54-.13,1,1,0,0,0,.31-.2c.15-.14.2-.25.26-.27s.14.28,0,.62A27.43,27.43,0,0,0,43.83,27.93V14.21h0a77.07,77.07,0,0,0-30.89,0V27.93A27.43,27.43,0,0,0,24.71,50.44C24.58,50.11,24.63,49.8,24.72,49.82ZM14.44,15.45a75.57,75.57,0,0,1,27.89,0v7.19a77.55,77.55,0,0,0-27.89,0Zm5.13,28c-.41-.55-.81-1.12-1.17-1.71a25.9,25.9,0,0,1-3.52-9.08l1.86.52,2-6.49-4.32-1.26v-.94a75.83,75.83,0,0,1,27.89,0v.94L39,26l1.21,6.61L42,32.31a25.9,25.9,0,0,1-3.58,9.38c-.36.57-.74,1.13-1.14,1.67l-8.79-4Zm1.5,1.84,7.38-3.34,7.29,3.3a25.89,25.89,0,0,1-7.36,5.72A25.89,25.89,0,0,1,21.07,45.24Z" style="fill:#003056"/><path d="M30.16,38.46a.69.69,0,0,0,.21-.52c0-.28-.34-.54-.83-.87l-.3-.2a.73.73,0,0,1-.21.65l-.68.67a3.18,3.18,0,0,0,1.38.53A.59.59,0,0,0,30.16,38.46Z" style="fill:#003056"/><path d="M23.54,32.93a.73.73,0,0,1,1,0l.26.26a.73.73,0,0,1,.08.93.72.72,0,0,1,.78.17l.26.26a.73.73,0,0,1,.14.82l.09-.09a.73.73,0,0,1,1,0l.26.26a.73.73,0,0,1,.17.76l.11-.1a.73.73,0,0,1,1,0l.26.26h0l.23.16.34.23a5.67,5.67,0,0,0,1.49.8h.11a.94.94,0,0,0,.75-.56.57.57,0,0,0-.16-.64c-.63-.64-1.82-1.59-1.83-1.6a.1.1,0,1,1,.13-.16h0a19.49,19.49,0,0,0,2.57,1.84l.17,0a1.13,1.13,0,0,0,.8-.61c.29-.54-.11-.92-.8-1.5l-.37-.32L32.33,34c-.51-.38-.94-.76-.94-.77a.1.1,0,0,1,.13-.16s.51.4.94.77a3.59,3.59,0,0,0,1.5.81.84.84,0,0,0,.78-.45.89.89,0,0,0,0-.85,7,7,0,0,0-.82-1l-.7-.68c-.47-.46-1-1-1.5-1.41l-.19-.16c-.66-.56-1.56-1.33-2-1.3a.28.28,0,0,0-.21.1,3.42,3.42,0,0,1-2.05,1.41,1.56,1.56,0,0,1-1.53-.49.2.2,0,0,1,.06-.24,9.66,9.66,0,0,0,.72-.83c.24-.29.51-.62.8-1l.23-.25a12.79,12.79,0,0,0-2.12.75,4.17,4.17,0,0,1-1.41.37,3,3,0,0,1-.53,0l-1.66,5.26.45.32a.72.72,0,0,1,.11-.14Z" style="fill:#003056"/><path d="M26.64,28.89a9,9,0,0,1-.75.86.21.21,0,0,0,.06.08,1.64,1.64,0,0,0,1.25.29,3.25,3.25,0,0,0,1.92-1.34.48.48,0,0,1,.35-.17c.57,0,1.47.73,2.19,1.35l.19.16c.5.42,1,1,1.51,1.42s.74.72,1,.92a1.53,1.53,0,0,0,.75.36l-1-5.34-.24,0a10.24,10.24,0,0,1-2.14,0l-.94-.19a8.14,8.14,0,0,0-2-.28h0c-.37.09-.66.17-1.31.93C27.15,28.27,26.88,28.6,26.64,28.89Z" style="fill:#003056"/><path d="M24.68,34.09a.53.53,0,0,0,0-.74l-.26-.26a.53.53,0,0,0-.75,0L22.5,34.24a.53.53,0,0,0,0,.75l.26.26a.54.54,0,0,0,.74,0Z" style="fill:#003056"/><path d="M25.8,34.71l-.26-.26a.53.53,0,0,0-.74,0l-1.18,1.16a.53.53,0,0,0,0,.75l.26.26a.54.54,0,0,0,.74,0l1.18-1.17A.53.53,0,0,0,25.8,34.71Z" style="fill:#003056"/><path d="M27.33,35.71l-.26-.26a.53.53,0,0,0-.75,0l-1.18,1.17a.53.53,0,0,0,0,.74l.26.26a.54.54,0,0,0,.75,0l1.18-1.17A.53.53,0,0,0,27.33,35.71Z" style="fill:#003056"/><path d="M29,37a.52.52,0,0,0-.15-.37l-.26-.26a.53.53,0,0,0-.74,0l-1.18,1.17a.53.53,0,0,0,0,.74l.26.26a.54.54,0,0,0,.75,0l1.18-1.16A.52.52,0,0,0,29,37Z" style="fill:#003056"/><polygon points="18.95 26.71 16.95 33.12 21.39 34.5 23.43 28.01 18.95 26.71" style="fill:#003056"/><polygon points="35.31 32.85 35.35 33.05 35.46 33.66 40.03 32.8 38.8 26.11 34.23 27.05 35.3 32.82 35.31 32.85" style="fill:#003056"/><path d="M28.67,49.48h.07l.24,0h0l.23-.06h0A3.1,3.1,0,0,0,31.05,48h0v0a3,3,0,0,0,.33-2.21.11.11,0,0,0,0,0,3.06,3.06,0,0,0-.16-.48l0,0a3.08,3.08,0,0,0-.27-.5h0l-.17-.23h0l-.19-.21h0a3.08,3.08,0,0,0-4.37,0h0l-.19.21h0l-.17.23h0a3.08,3.08,0,0,0-.27.5l0,0a3.07,3.07,0,0,0-.16.48.09.09,0,0,0,0,0,3,3,0,0,0,.33,2.21v0h0a3.1,3.1,0,0,0,1.8,1.41h0l.23.06h0l.24,0h.63Zm.59-.33L29.13,49l.46-.64,1-.58.28.17A2.89,2.89,0,0,1,29.26,49.15ZM31,45.79l.19,0a2.87,2.87,0,0,1-.28,1.93l-.28-.17V46.43Zm-.33-.38.16.27-.35.62h-.7l-.56-1,.06-.15.19-.45.8.09Zm-2.19-1.89a2.87,2.87,0,0,1,1.89.8l-.1.22-.83-.09-1-.58ZM29,45.37l.56,1-.56,1H27.73l-.28-.51-.28-.51.28-.51.28-.51Zm-.76-1.85v.35l-1,.58-.83.09-.1-.22A2.87,2.87,0,0,1,28.28,43.53Zm-1.79,1.22.8-.09.26.6-.56,1h-.7l-.35-.62Zm-1,1.65a2.88,2.88,0,0,1,.06-.58l.19,0,.36.64v1.15l-.28.17A2.86,2.86,0,0,1,25.51,46.4Zm2,2.75a2.89,2.89,0,0,1-1.57-1.23l.28-.17,1,.58.46.64Zm.3-.28-.45-.62.23-.41.12-.2H29l.35.61-.45.62Z" style="fill:#fff"/><path d="M19.77,18.73l-.31,0a.16.16,0,0,0-.14.1l-.23.84-.16.64s0,0,0,0l-.31-.58L18.15,19c-.05-.09-.11-.07-.16-.07l-.34,0c-.07,0-.1,0-.09.1l.28,2.3c0,.06.05.08.11.08l.36,0c.06,0,.1,0,.09-.08l-.12-1h0l.2.39.26.5c0,.07.08.06.14.05l.21,0c.06,0,.08,0,.1-.1l.14-.54c0-.13.07-.29.11-.43h0l.12,1c0,.06,0,.07.11.06l.36,0c.06,0,.1,0,.09-.1l-.28-2.3C19.88,18.75,19.83,18.72,19.77,18.73Z" style="fill:#fff"/><path d="M21.48,18.64c0-.07-.07-.06-.11-.06l-.57.05a.1.1,0,0,0-.09.08l-.37,2.37s0,.1.09.09l.4,0a.1.1,0,0,0,.09-.08l0-.3s0-.09.08-.09l.48,0c.05,0,.07,0,.09.08l.09.28a.1.1,0,0,0,.11.06l.41,0c.1,0,.09-.08.08-.11Zm-.1,1.51-.28,0s0,0,0,0l0-.42,0-.42s0,0,0,0l.12.41.12.39S21.4,20.15,21.37,20.15Z" style="fill:#fff"/><path d="M24,18.38l-.35,0c-.06,0-.1,0-.1.09l.08,1.19s0,0,0,0h0l-.81-1.16a.14.14,0,0,0-.16-.07l-.26,0c-.06,0-.1,0-.09.1l.15,2.33c0,.06,0,.07.11.07l.35,0c.06,0,.1,0,.1-.08L23,19.69s0,0,0,0l.82,1.15c0,.07.09.06.15.06l.25,0c.06,0,.1,0,.1-.1l-.15-2.32C24.14,18.4,24.09,18.38,24,18.38Z" style="fill:#fff"/><path d="M25.76,18.38c0-.07-.06-.07-.1-.06l-.57,0a.1.1,0,0,0-.1.07l-.49,2.35s0,.1.08.1l.4,0a.1.1,0,0,0,.1-.08l0-.3s0-.09.08-.09l.48,0c.05,0,.07,0,.09.09l.07.28a.1.1,0,0,0,.1.07l.41,0c.1,0,.09-.07.08-.1Zm-.18,1.51h-.28s0,0,0,0l.06-.41.06-.42s0,0,0,0l.1.41.1.4S25.59,19.89,25.57,19.89Z" style="fill:#fff"/><path d="M28.24,19.32h-.66c-.06,0-.09,0-.09.09v.32c0,.06,0,.08.09.08h.14a.05.05,0,0,1,.06.06V20a.28.28,0,0,1-.3.27c-.17,0-.3-.09-.3-.23V19a.27.27,0,0,1,.28-.25.43.43,0,0,1,.37.19s.07.08.13,0l.29-.21a.09.09,0,0,0,0-.12.87.87,0,0,0-.85-.42.76.76,0,0,0-.82.74v1.1a.77.77,0,0,0,.87.72c.49,0,.88-.26.87-.76v-.63C28.34,19.34,28.3,19.32,28.24,19.32Z" style="fill:#fff"/><path d="M30.21,20.27h-.83c-.08,0-.12,0-.12-.09v-.33c0-.06,0-.08.09-.08H30c.06,0,.09,0,.09-.1v-.32c0-.06,0-.1-.08-.1h-.67c-.08,0-.1,0-.1-.1v-.27c0-.05,0-.08.1-.08h.82c.06,0,.08,0,.08-.1v-.33c0-.06,0-.09-.08-.09l-1.39,0a.09.09,0,0,0-.1.1l0,2.3a.09.09,0,0,0,.1.1l1.42,0c.06,0,.08,0,.08-.1v-.33C30.29,20.3,30.26,20.27,30.21,20.27Z" style="fill:#fff"/><path d="M30.67,18.38l-.1,2.32c0,.06,0,.09.1.09l.36,0c.06,0,.1,0,.1-.07l0-1h0l.13.42.17.54c0,.07.07.07.13.07h.21c.06,0,.09,0,.12-.08l.23-.51.18-.4h0l0,1c0,.06,0,.07.09.08l.36,0c.06,0,.11,0,.11-.08l.1-2.32c0-.06,0-.09-.1-.09H32.6a.16.16,0,0,0-.16.08l-.37.79-.27.6s0,0,0,0l-.21-.63c-.09-.25-.2-.57-.3-.82,0-.09-.09-.09-.15-.09l-.34,0C30.71,18.29,30.67,18.33,30.67,18.38Z" style="fill:#fff"/><path d="M34.94,18.54l-1.39-.1a.09.09,0,0,0-.1.09l-.17,2.3a.09.09,0,0,0,.09.1l1.42.1c.06,0,.08,0,.09-.09l0-.33c0-.06,0-.1-.07-.1L34,20.45c-.08,0-.12,0-.11-.1l0-.33c0-.06,0-.08.09-.08l.68.05c.06,0,.09,0,.09-.09l0-.32c0-.06,0-.1-.08-.1l-.67,0c-.08,0-.1,0-.09-.11l0-.27c0-.05,0-.08.1-.07l.81.06c.06,0,.08,0,.09-.09l0-.33C35,18.57,35,18.54,34.94,18.54Z" style="fill:#fff"/><path d="M35.4,18.66,35.17,21c0,.06,0,.08.09.09l.35,0c.06,0,.11,0,.11-.07l.12-1.18s0,0,0,0l.62,1.27c0,.08.08.08.14.08l.25,0c.06,0,.1,0,.11-.08l.23-2.31c0-.06,0-.09-.09-.09l-.35,0c-.06,0-.1,0-.11.07L36.55,20s0,0,0,0h0l-.61-1.27a.14.14,0,0,0-.14-.1l-.26,0C35.45,18.58,35.41,18.6,35.4,18.66Z" style="fill:#fff"/><path d="M37.53,19.31l.38,0c.08,0,.08,0,.07.09l-.23,1.81c0,.06,0,.09.09.09l.37,0c.06,0,.1,0,.11-.07l.24-1.81s0-.07.1-.06l.42.05c.06,0,.08,0,.09-.09l0-.32c0-.06,0-.1-.06-.11l-1.54-.19c-.06,0-.09,0-.1.09l0,.32C37.45,19.26,37.46,19.3,37.53,19.31Z" style="fill:#fff"/><path d="M21.54,16.81c.38.09.61.17.62.35s0,.22-.29.24a1.16,1.16,0,0,1-.57-.16c-.06,0-.11-.06-.17,0L21,17.5c-.06.09,0,.13,0,.18a1.35,1.35,0,0,0,.9.22.78.78,0,0,0,.81-.83c0-.51-.52-.62-.86-.71-.12,0-.38-.08-.39-.25s.12-.23.26-.24a1.38,1.38,0,0,1,.48.09.1.1,0,0,0,.14-.06l.1-.24c0-.11,0-.12,0-.16a1.32,1.32,0,0,0-.73-.12.77.77,0,0,0-.77.81A.7.7,0,0,0,21.54,16.81Z" style="fill:#fff"/><path d="M24,17.76a.8.8,0,0,0,.84-.83l-.1-1.66c0-.06,0-.07-.11-.07l-.38,0c-.06,0-.1,0-.1.08l.1,1.66a.28.28,0,0,1-.3.28.28.28,0,0,1-.33-.24l-.1-1.66c0-.06,0-.07-.11-.07l-.37,0c-.06,0-.1,0-.1.08L23,17A.8.8,0,0,0,24,17.76Z" style="fill:#fff"/><path d="M25.32,17.67h.38c.06,0,.1,0,.1-.09l0-.86s0-.06.06-.06h.27a.75.75,0,1,0,0-1.49l-.81,0c-.06,0-.1,0-.1.09l.07,2.33C25.22,17.65,25.25,17.67,25.32,17.67Zm.49-2h.26a.22.22,0,0,1,.23.23.22.22,0,0,1-.22.23h-.26s-.07,0-.08-.09v-.29S25.74,15.67,25.81,15.67Z" style="fill:#fff"/><path d="M29.24,17.61l1.43,0c.06,0,.08,0,.08-.1v-.34c0-.06,0-.09-.08-.09l-.87,0c-.08,0-.08,0-.07-.09l0-1.81c0-.06,0-.08-.1-.08h-.38c-.06,0-.1,0-.1.07l0,2.32A.09.09,0,0,0,29.24,17.61Z" style="fill:#fff"/><path d="M31.05,17.66h.38c.06,0,.1,0,.1-.08l.09-2.33c0-.06,0-.09-.09-.09h-.38c-.06,0-.1,0-.1.08L31,17.57C31,17.63,31,17.65,31.05,17.66Z" style="fill:#fff"/><path d="M32,17.69l1.42.08c.06,0,.08,0,.09-.09l0-.33c0-.06,0-.09-.08-.1l-.83,0c-.08,0-.12,0-.11-.1l0-.33c0-.06,0-.08.09-.08l.68,0c.06,0,.09,0,.09-.09l0-.32c0-.06,0-.1-.08-.1l-.67,0c-.08,0-.1,0-.1-.11l0-.27c0-.05,0-.08.1-.07l.81,0c.06,0,.08,0,.09-.09l0-.33c0-.06,0-.09-.08-.09l-1.39-.08a.09.09,0,0,0-.1.09l-.13,2.3A.09.09,0,0,0,32,17.69Z" style="fill:#fff"/><path d="M33.92,17.8l.37,0c.06,0,.1,0,.11-.07l.06-.76s0,0,0,0h.17a.05.05,0,0,1,.05,0l.26.79c0,.05,0,.1.17.11l.4,0c.07,0,.09,0,.08-.09L35.32,17c0-.05,0-.06,0-.1a1,1,0,0,0,.39-.68.71.71,0,0,0-.73-.81l-.89-.07c-.06,0-.09,0-.09.09l-.19,2.31C33.82,17.78,33.86,17.8,33.92,17.8ZM34.55,16c0-.06,0-.09.1-.08l.27,0a.24.24,0,0,1,.23.27.4.4,0,0,1-.17.28.19.19,0,0,1-.1,0l-.27,0c-.07,0-.09,0-.08-.09Z" style="fill:#fff"/><path d="M45,40.47a3.69,3.69,0,0,0-.3.28l-.12.13-.1.13a3.59,3.59,0,0,0-.31.47l-.13.22-.15.21a2,2,0,0,1-.44.41,2.81,2.81,0,0,0-.64.65l0,.06,0-.11.11-.24.21-.48.18-.46c.06-.15.12-.3.17-.44v0l.09-.14a1.7,1.7,0,0,1,.27-.3,2.13,2.13,0,0,1,.53-.31,2.81,2.81,0,0,0,.43-.25,1.56,1.56,0,0,0,.34-.32,1.87,1.87,0,0,0,.25-.44,2.66,2.66,0,0,0,.1-.28c0-.1,0-.21.06-.33a2.93,2.93,0,0,1,.14-.57,1.72,1.72,0,0,1,.16-.35c.11-.18.2-.25.22-.32s-.44-.06-.78.34a3.82,3.82,0,0,0-.37.53,3.54,3.54,0,0,0-.21.45,2.3,2.3,0,0,1-.51.83,2.7,2.7,0,0,0-.45.65c.08-.25.15-.49.21-.71l.16-.63,0-.11h0l.29-.61.14-.3.12-.29c.08-.18.14-.34.18-.47s.12-.46.17-.68,0-.22.07-.33,0-.21,0-.31a5.39,5.39,0,0,0,0-.55,2.18,2.18,0,0,0,0-.42c0-.2-.09-.39-.13-.56S45,34.13,45,34s-.15-.4-.2-.4-.13.15-.22.39l-.15.42-.19.52a2,2,0,0,0-.09.39c0,.15-.05.33-.07.52s0,.2,0,.3,0,.21,0,.32,0,.44,0,.68,0,.29,0,.48l0,.3c0,.11,0,.21,0,.32s0,.44,0,.65L44,39l-.16.62c-.06.22-.14.46-.22.71a2.23,2.23,0,0,0,0-.77,2.3,2.3,0,0,1-.06-.93,3.07,3.07,0,0,0,0-.47,2,2,0,0,0-.15-.59c-.18-.46-.6-.64-.62-.52s.06.15.1.33a1.29,1.29,0,0,1,0,.34,2.28,2.28,0,0,1-.1.51,1.86,1.86,0,0,0,.27,1.82,1.28,1.28,0,0,1,.29.91s0,.1,0,.16v0c0,.14-.11.29-.17.44L43,42.1c-.06.15-.14.31-.21.47l-.11.24-.06.12,0-.07a2.23,2.23,0,0,0,0-.87,1.89,1.89,0,0,1-.05-.56c0-.08,0-.16,0-.24s0-.16,0-.23a2.92,2.92,0,0,0,0-.51s0-.1,0-.15,0-.1,0-.16a2.78,2.78,0,0,0-.1-.36c-.18-.53-.71-.79-.74-.67s.06.17.1.37a1.24,1.24,0,0,1,0,.38,1.32,1.32,0,0,1,0,.25,2.48,2.48,0,0,1-.11.29,1.91,1.91,0,0,0,.19,2c.06.11.12.2.17.31a1.27,1.27,0,0,1,.1.33,1.54,1.54,0,0,1,0,.43,1.71,1.71,0,0,1,0,.23L42,44l-.14.25-.15.25-.32.51-.17.25,0,0v0a2.41,2.41,0,0,0,.09-.25c0-.08,0-.16.05-.23a1.6,1.6,0,0,0,0-.37,2.32,2.32,0,0,1,0-.3,1.81,1.81,0,0,1,0-.26,3.84,3.84,0,0,1,.13-.46,2.09,2.09,0,0,0,.06-.24,2.36,2.36,0,0,0,0-.27,2.08,2.08,0,0,0,0-.68c-.12-.55-.6-.87-.65-.75s0,.17.05.38a1.13,1.13,0,0,1,0,.37,2.08,2.08,0,0,1-.23.51l-.08.14-.07.13a1.86,1.86,0,0,0-.11.26,1.7,1.7,0,0,0-.09.49,1.75,1.75,0,0,0,.06.49c0,.08,0,.17.08.26l0,.13.05.14a1.82,1.82,0,0,1,.17.67,1.54,1.54,0,0,1-.14.63,15.31,15.31,0,0,1-1.21,1.43,3.08,3.08,0,0,0,.21-.43,1.21,1.21,0,0,0,.06-.2,1.29,1.29,0,0,0,0-.17,1.87,1.87,0,0,1,.13-.55c.06-.15.12-.29.19-.43l.1-.22a1.47,1.47,0,0,0,.08-.25,2.4,2.4,0,0,0,.06-.67,1.11,1.11,0,0,0-.09-.38,1.23,1.23,0,0,0-.17-.29c-.12-.15-.24-.22-.28-.17s0,.18,0,.38a1.14,1.14,0,0,1-.1.35,1.73,1.73,0,0,1-.12.22,1.5,1.5,0,0,1-.19.25,2.15,2.15,0,0,0-.34.48,1.47,1.47,0,0,0-.17.46,2,2,0,0,0,0,.49,3.85,3.85,0,0,0,.09.54,1.4,1.4,0,0,1-.16,1.24,14.87,14.87,0,0,1-1.44,1.2l0,0,.08-.11.13-.2a1.6,1.6,0,0,0,.15-.34l.05-.15.05-.14a1.83,1.83,0,0,1,.12-.23c.08-.14.18-.26.27-.39a2.92,2.92,0,0,0,.26-.44,1.8,1.8,0,0,0,.11-.29,2.66,2.66,0,0,0,.06-.36,1.18,1.18,0,0,0-.14-.69c-.1-.17-.21-.26-.24-.21s0,.17-.07.37a1.19,1.19,0,0,1-.15.34,1.09,1.09,0,0,1-.15.19l-.23.21-.23.21a1.8,1.8,0,0,0-.19.2,1.49,1.49,0,0,0-.24.43,2.51,2.51,0,0,0-.12,1,1.75,1.75,0,0,1-.08.68,1.35,1.35,0,0,1-.08.18,1.22,1.22,0,0,1-.13.2l-.07.08a15.35,15.35,0,0,1-1.67.92,3.09,3.09,0,0,0,.29-.27,1.54,1.54,0,0,0,.22-.31,1.91,1.91,0,0,1,.32-.46,4,4,0,0,1,.34-.34,2.08,2.08,0,0,0,.63-1c.15-.53-.12-1-.21-1s0,.17-.13.35a1,1,0,0,1-.21.3l-.19.16-.12.08-.14.08a2.1,2.1,0,0,0-.49.32L35,49a1.38,1.38,0,0,0-.14.19,1.86,1.86,0,0,0-.19.45,4,4,0,0,0-.13.53,1.76,1.76,0,0,1-.21.66,1.55,1.55,0,0,1-.29.32l-.06,0-.21.09a16.21,16.21,0,0,1-1.6.48,2.2,2.2,0,0,0,.57-.43,2.06,2.06,0,0,1,.41-.4l.2-.13.1-.06.1-.06a2.09,2.09,0,0,0,.82-.84c.27-.48.09-1,0-1s-.08.15-.2.31a1.35,1.35,0,0,1-.76.48l-.29.11-.25.11a1.45,1.45,0,0,0-.39.3l-.15.18-.13.21a4.16,4.16,0,0,0-.23.5,1.64,1.64,0,0,1-.35.6,1.61,1.61,0,0,1-.35.27l-.05,0-.08,0-.16,0-.31,0c-.41.07-.81.09-1.21.12h-.1l.06,0,.23-.1a1.67,1.67,0,0,0,.32-.2l.25-.18.23-.13a4.08,4.08,0,0,1,.45-.17l.11,0,.12-.05.24-.13.25-.18a1.78,1.78,0,0,0,.26-.26,1.21,1.21,0,0,0,.2-.34c.13-.34.08-.64,0-.62s-.11.14-.26.27a1,1,0,0,1-.31.2,2.11,2.11,0,0,1-.54.13l-.31,0-.27.07a1.7,1.7,0,0,0-.44.22,2.93,2.93,0,0,0-.68.79,2.09,2.09,0,0,1-.49.52,1.73,1.73,0,0,1-.38.19,1.73,1.73,0,0,1-.38-.19,2.09,2.09,0,0,1-.49-.52,2.93,2.93,0,0,0-.68-.79,1.71,1.71,0,0,0-.44-.22l-.27-.07-.31,0a2.11,2.11,0,0,1-.54-.13,1,1,0,0,1-.31-.2c-.15-.14-.2-.25-.26-.27s-.14.28,0,.62a1.21,1.21,0,0,0,.2.34,1.79,1.79,0,0,0,.26.26l.25.18.24.13.12.05.11,0a4.08,4.08,0,0,1,.45.17l.23.13.25.18a1.67,1.67,0,0,0,.32.2l.23.1.06,0h-.11l-.53,0h-.32l-.3,0-.31,0-.29,0-.05,0a1.62,1.62,0,0,1-.35-.27,1.64,1.64,0,0,1-.35-.6,4.15,4.15,0,0,0-.23-.5l-.13-.21-.15-.18a1.45,1.45,0,0,0-.39-.3l-.25-.11-.29-.11a1.35,1.35,0,0,1-.76-.48c-.12-.16-.14-.28-.2-.31s-.28.49,0,1a2.09,2.09,0,0,0,.82.84l.1.06.1.06.2.13a2.06,2.06,0,0,1,.41.4,2.19,2.19,0,0,0,.57.43A15.93,15.93,0,0,1,23,51.35l-.25-.1-.06,0a1.55,1.55,0,0,1-.29-.32,1.76,1.76,0,0,1-.21-.66,4,4,0,0,0-.13-.53,1.85,1.85,0,0,0-.19-.45,1.37,1.37,0,0,0-.14-.19l-.18-.17a2.1,2.1,0,0,0-.49-.32L21,48.47l-.12-.08-.19-.16a1,1,0,0,1-.21-.3c-.08-.18-.08-.31-.13-.35s-.37.42-.21,1a2.08,2.08,0,0,0,.63,1,4,4,0,0,1,.34.34,1.91,1.91,0,0,1,.32.46,1.54,1.54,0,0,0,.22.31,3.09,3.09,0,0,0,.29.26A15.32,15.32,0,0,1,20.23,50l-.07-.09a1.23,1.23,0,0,1-.13-.2,1.35,1.35,0,0,1-.08-.18,1.75,1.75,0,0,1-.08-.68,2.51,2.51,0,0,0-.12-1,1.49,1.49,0,0,0-.24-.43,1.8,1.8,0,0,0-.19-.2L19.09,47l-.23-.21a1.09,1.09,0,0,1-.15-.19,1.19,1.19,0,0,1-.15-.34c0-.19,0-.32-.07-.37s-.15,0-.24.21a1.18,1.18,0,0,0-.14.69,2.67,2.67,0,0,0,.06.36,1.79,1.79,0,0,0,.11.29,2.92,2.92,0,0,0,.26.44c.09.13.19.24.27.39a1.82,1.82,0,0,1,.12.23l.05.14.05.15a1.59,1.59,0,0,0,.15.34l.13.2.08.11,0,0-.07,0L18.83,49l-.26-.22-.26-.22-.25-.22L18,48.25A1.4,1.4,0,0,1,17.83,47a3.86,3.86,0,0,0,.09-.54,2,2,0,0,0,0-.49,1.48,1.48,0,0,0-.17-.46A2.16,2.16,0,0,0,17.4,45a1.5,1.5,0,0,1-.19-.25,1.74,1.74,0,0,1-.12-.22,1.14,1.14,0,0,1-.1-.35c0-.2,0-.33,0-.38s-.16,0-.28.17a1.23,1.23,0,0,0-.17.29,1.11,1.11,0,0,0-.09.38,2.4,2.4,0,0,0,.06.67,1.47,1.47,0,0,0,.08.25l.1.22c.07.14.14.28.19.43a1.87,1.87,0,0,1,.13.55,1.29,1.29,0,0,0,0,.17,1.21,1.21,0,0,0,.06.2,3.08,3.08,0,0,0,.21.43l-.42-.46-.42-.5-.2-.25-.17-.22a1.55,1.55,0,0,1-.14-.63,1.82,1.82,0,0,1,.17-.67l.05-.14,0-.13c0-.09.06-.17.08-.26a1.75,1.75,0,0,0,.06-.49,1.71,1.71,0,0,0-.09-.49,1.86,1.86,0,0,0-.11-.26l-.07-.13L16,42.8a2.08,2.08,0,0,1-.23-.51,1.14,1.14,0,0,1,0-.37c0-.2.08-.32.05-.38s-.53.21-.65.75a2.08,2.08,0,0,0,0,.68,2.35,2.35,0,0,0,0,.27,2.09,2.09,0,0,0,.06.24,3.84,3.84,0,0,1,.13.46,1.82,1.82,0,0,1,0,.26,2.32,2.32,0,0,1,0,.3,1.61,1.61,0,0,0,0,.37c0,.07,0,.15.05.23a2.4,2.4,0,0,0,.09.25v0l0,0-.17-.26-.32-.51L15,44.45l-.07-.13-.14-.25-.18-.32a1.72,1.72,0,0,1,0-.24,1.54,1.54,0,0,1,0-.43,1.27,1.27,0,0,1,.1-.33c0-.1.11-.2.17-.31a1.91,1.91,0,0,0,.19-2,2.47,2.47,0,0,1-.11-.29,1.32,1.32,0,0,1,0-.25,1.24,1.24,0,0,1,0-.38c0-.2.11-.31.1-.37s-.56.14-.74.67a2.78,2.78,0,0,0-.1.36c0,.06,0,.11,0,.16s0,.1,0,.15a2.92,2.92,0,0,0,0,.51c0,.08,0,.16,0,.23s0,.16,0,.24a1.89,1.89,0,0,1-.05.56,2.23,2.23,0,0,0,0,.87l0,.08-.05-.11L14,42.59l-.21-.47-.18-.46c-.06-.15-.12-.29-.17-.44v0c0-.06,0-.11,0-.16a1.28,1.28,0,0,1,.29-.91A1.86,1.86,0,0,0,14,38.29a2.28,2.28,0,0,1-.1-.51,1.29,1.29,0,0,1,0-.34c0-.18.11-.27.1-.33s-.44.06-.62.52a2,2,0,0,0-.15.59,3.06,3.06,0,0,0,0,.47,2.3,2.3,0,0,1-.06.93,2.23,2.23,0,0,0,0,.77c-.08-.25-.15-.49-.22-.71L12.78,39l0-.13c0-.21,0-.43,0-.65s0-.22,0-.32l0-.3c0-.19,0-.36,0-.48s0-.46,0-.68,0-.21,0-.32,0-.2,0-.3,0-.37-.07-.52a2,2,0,0,0-.09-.39l-.19-.52L12.24,34c-.09-.24-.17-.39-.22-.39s-.12.15-.2.4-.09.27-.13.44-.09.36-.13.56a2.18,2.18,0,0,0,0,.42,5.38,5.38,0,0,0,0,.55c0,.1,0,.21,0,.31s0,.22.07.33.1.45.17.68.1.28.18.47l.12.29.14.3.29.61h0l0,.11.16.63c.06.22.14.46.21.72a2.7,2.7,0,0,0-.45-.65A2.3,2.3,0,0,1,12,39a3.55,3.55,0,0,0-.21-.45,3.82,3.82,0,0,0-.37-.53c-.33-.4-.8-.48-.78-.34s.11.14.22.32a1.71,1.71,0,0,1,.16.35,2.93,2.93,0,0,1,.14.57c0,.12,0,.23.06.33a2.66,2.66,0,0,0,.1.28,1.87,1.87,0,0,0,.25.44,1.56,1.56,0,0,0,.34.32,2.81,2.81,0,0,0,.43.25,2.13,2.13,0,0,1,.53.31,1.7,1.7,0,0,1,.27.3l.09.14v0c0,.15.11.29.17.44l.18.46c.06.16.14.31.21.48l.11.24L14,43,13.92,43a2.81,2.81,0,0,0-.64-.65,2,2,0,0,1-.44-.41l-.15-.21-.13-.22a3.6,3.6,0,0,0-.31-.47l-.1-.13L12,40.76a3.7,3.7,0,0,0-.3-.28c-.47-.4-1.06-.42-1-.27s.15.15.31.33a1.75,1.75,0,0,1,.24.37c0,.08.07.17.12.28a3.44,3.44,0,0,1,.11.35,2,2,0,0,0,1.65,1.62l.35.1a1.62,1.62,0,0,1,.34.15,1.79,1.79,0,0,1,.36.28l.19.2.15.28.14.26.15.26.32.52.17.26,0,.05,0,0-.21-.19-.19-.16a1.94,1.94,0,0,0-.33-.21,1.93,1.93,0,0,1-.28-.16l-.21-.18a4.43,4.43,0,0,1-.34-.39L13.6,44l-.2-.22a4.08,4.08,0,0,0-.59-.47c-.51-.34-1.11-.28-1-.14s.17.13.35.29a2,2,0,0,1,.29.34,3,3,0,0,1,.32.6l.08.18.09.16a2.73,2.73,0,0,0,.19.28,1.73,1.73,0,0,0,.43.41,2,2,0,0,0,.51.24l.28.07.15,0,.16,0a2.45,2.45,0,0,1,.73.14,2.53,2.53,0,0,1,.57.36,15.55,15.55,0,0,0,1.22,1.47,3.64,3.64,0,0,0-.43-.26l-.19-.09-.17-.06a2.08,2.08,0,0,1-.55-.26,3.72,3.72,0,0,1-.4-.34l-.2-.18-.23-.18a3.42,3.42,0,0,0-.66-.38,1.77,1.77,0,0,0-.41-.13,1.39,1.39,0,0,0-.35,0c-.2,0-.33.09-.28.16s.19.1.39.24a2,2,0,0,1,.35.3l.2.24.21.31a3.26,3.26,0,0,0,.45.57,2,2,0,0,0,.5.34,1.85,1.85,0,0,0,.54.16,3.32,3.32,0,0,0,.61,0,2.1,2.1,0,0,1,1.34.27,15.11,15.11,0,0,0,1.46,1.23l-.07,0-.13-.05-.24-.09a2,2,0,0,0-.39-.09l-.17,0-.15,0-.27-.1a3.87,3.87,0,0,1-.46-.26,3.88,3.88,0,0,0-.49-.29l-.32-.14-.4-.13a1.59,1.59,0,0,0-.79,0c-.2,0-.31.14-.25.2s.21.07.43.18A1.92,1.92,0,0,1,16,49l.24.2.27.27a3.26,3.26,0,0,0,.28.28L17,50a2,2,0,0,0,.55.26,2.47,2.47,0,0,0,1.17,0,2.54,2.54,0,0,1,.74-.11l.21,0,.24.05.16,0a15.67,15.67,0,0,0,1.67.93l-.41-.06a2.18,2.18,0,0,0-.39,0,2.12,2.12,0,0,1-.62,0,4.66,4.66,0,0,1-.5-.18,4.09,4.09,0,0,0-1.31-.33c-.62-.07-1.13.24-1,.35A3,3,0,0,0,18,51a2.64,2.64,0,0,1,.44.17l.28.16.15.11.17.12a3.49,3.49,0,0,0,.65.38A1.59,1.59,0,0,0,20,52l.3,0a2,2,0,0,0,.57,0,3.25,3.25,0,0,0,.58-.2,2.54,2.54,0,0,1,.7-.24,1.89,1.89,0,0,1,.34,0l.08,0c.24.1.58.24,1,.37l.72.2a2.32,2.32,0,0,0-.5.07,2,2,0,0,1-.61.06l-.27,0-.13,0-.13,0a4.2,4.2,0,0,0-1.35-.08c-.64.07-1.06.46-.91.54s.22,0,.48,0A3.22,3.22,0,0,1,22,53l.37.16a2.34,2.34,0,0,0,.35.09,2.16,2.16,0,0,0,.62,0,1.42,1.42,0,0,0,.28-.06l.27-.1a3.12,3.12,0,0,0,.52-.3,2.79,2.79,0,0,1,.63-.38,1.84,1.84,0,0,1,.35-.09,17.15,17.15,0,0,0,1.71.2l.31,0h0l-.24.06a2.06,2.06,0,0,0-.37.14,2,2,0,0,1-.31.13l-.28.06a4.74,4.74,0,0,1-.53,0h-.28L25,53l-.35.06-.41.11c-.6.17-.94.66-.78.7a3.07,3.07,0,0,0,.47-.08,2.84,2.84,0,0,1,.47,0,3.48,3.48,0,0,1,.7.12,2.39,2.39,0,0,0,.39.08l.35,0A1.88,1.88,0,0,0,26.5,54a2.26,2.26,0,0,0,1-.65,2.1,2.1,0,0,1,.52-.5,1.75,1.75,0,0,1,.4-.17,1.75,1.75,0,0,1,.4.17,2.1,2.1,0,0,1,.52.5,2.26,2.26,0,0,0,1,.65,1.88,1.88,0,0,0,.61.09l.35,0a2.39,2.39,0,0,0,.39-.08,3.48,3.48,0,0,1,.7-.12,2.84,2.84,0,0,1,.47,0,3.07,3.07,0,0,0,.47.08c.17,0-.17-.53-.78-.7l-.41-.11L31.74,53l-.3,0h-.28a4.74,4.74,0,0,1-.53,0l-.28-.06A2,2,0,0,1,30,52.8a2.06,2.06,0,0,0-.37-.14l-.24-.06h.24a17.16,17.16,0,0,0,1.76-.21,1.84,1.84,0,0,1,.35.09,2.79,2.79,0,0,1,.63.38,3.12,3.12,0,0,0,.52.3l.27.1a1.42,1.42,0,0,0,.28.06,2.16,2.16,0,0,0,.62,0,2.34,2.34,0,0,0,.35-.09l.37-.16a3.22,3.22,0,0,1,1.13-.34c.25,0,.4,0,.48,0s-.27-.47-.91-.54a4.2,4.2,0,0,0-1.35.08l-.13,0-.13,0-.27,0a2,2,0,0,1-.61-.06,2.32,2.32,0,0,0-.5-.07L33.2,52c.43-.13.78-.27,1-.37l.09,0a1.89,1.89,0,0,1,.34,0,2.54,2.54,0,0,1,.7.24,3.25,3.25,0,0,0,.58.2,2,2,0,0,0,.57,0l.3,0a1.59,1.59,0,0,0,.31-.1,3.49,3.49,0,0,0,.65-.38l.17-.12.15-.11.28-.16a2.64,2.64,0,0,1,.44-.17,3,3,0,0,0,.46-.11c.13-.1-.37-.42-1-.35a4.09,4.09,0,0,0-1.31.33,4.66,4.66,0,0,1-.5.18,2.12,2.12,0,0,1-.62,0,2.18,2.18,0,0,0-.39,0l-.42.07a15.63,15.63,0,0,0,1.67-.93l.16,0,.24-.05.21,0a2.54,2.54,0,0,1,.74.11,2.47,2.47,0,0,0,1.17,0,2,2,0,0,0,.55-.26l.28-.21a3.26,3.26,0,0,0,.28-.28l.27-.27.24-.2a1.92,1.92,0,0,1,.39-.25c.22-.11.38-.12.43-.18s-.06-.15-.25-.2a1.6,1.6,0,0,0-.79,0l-.4.13-.32.14a3.88,3.88,0,0,0-.49.29,3.87,3.87,0,0,1-.46.26l-.27.1-.15,0-.17,0a2,2,0,0,0-.39.09l-.24.09-.13.05-.07,0,.08-.05.55-.43.26-.22.26-.23.26-.23.07-.07a2.09,2.09,0,0,1,1.33-.26,3.32,3.32,0,0,0,.61,0,1.85,1.85,0,0,0,.54-.16,2,2,0,0,0,.5-.34,3.26,3.26,0,0,0,.45-.57l.21-.31.2-.24a2,2,0,0,1,.35-.3c.2-.14.34-.18.39-.24s-.08-.14-.28-.16a1.39,1.39,0,0,0-.35,0,1.77,1.77,0,0,0-.41.13,3.42,3.42,0,0,0-.66.38l-.23.18-.2.18a3.72,3.72,0,0,1-.4.34,2.08,2.08,0,0,1-.55.26l-.17.06-.19.09a3.64,3.64,0,0,0-.43.26l.42-.47.42-.51.2-.26.17-.23a2.53,2.53,0,0,1,.57-.35,2.45,2.45,0,0,1,.73-.14l.16,0,.15,0,.28-.07a2,2,0,0,0,.51-.24A1.72,1.72,0,0,0,43.7,45a2.72,2.72,0,0,0,.19-.28l.09-.16.08-.18a3,3,0,0,1,.32-.6,2,2,0,0,1,.29-.34c.18-.16.32-.22.35-.29s-.53-.2-1,.14a4.08,4.08,0,0,0-.59.47l-.2.22L43,44.2a4.44,4.44,0,0,1-.34.39l-.21.18a1.93,1.93,0,0,1-.28.16,2,2,0,0,0-.33.21l-.19.16-.21.19,0,0,0,0,.17-.26.32-.52.08-.13.07-.13.14-.26.16-.3.19-.2a1.8,1.8,0,0,1,.36-.28,1.62,1.62,0,0,1,.34-.15l.35-.1a2,2,0,0,0,1.65-1.62,3.43,3.43,0,0,1,.11-.35c0-.1.08-.2.12-.28a1.75,1.75,0,0,1,.24-.37c.15-.18.29-.25.31-.33S45.51,40.08,45,40.47Z" style="fill:#8cc540"/></svg>