<svg id="Layer_1" data-name="Layer 1" xmlns="http://www.w3.org/2000/svg" viewBox="0 0 56.77 56.77"><title>travel-services</title><polygon points="31.65 33.81 28.39 37.15 25.13 33.81 10.89 47.68 15.66 48.6 16.72 53.66 28.39 42.29 40.05 53.66 41.12 48.6 45.88 47.68 31.65 33.81" style="fill:#144a6c"/><path d="M28.39,7.33,11.86,10.06V33.34C11.86,41.19,25.58,52,28.39,52S44.92,41.19,44.92,33.34V10.06Z" style="fill:#e9bb1f"/><path d="M28.39,8.52,13.12,11.25v22c0,7.25,12.67,17.26,15.27,17.26s15.27-10,15.27-17.26v-22Z" style="fill:#9ab33b"/><path d="M28.39,8.53,13.13,11.26v22c0,7.24,12.67,17.25,15.26,17.25s15.26-10,15.26-17.25v-22Z" style="fill:none;stroke:#fff;stroke-miterlimit:10;stroke-width:0.710374543287466px"/><path d="M24.55,44.27h0L24,44.6l-.08-.36.69-.41H25v3.52h-.41Z" style="fill:#144a6c"/><path d="M26.36,47a1.57,1.57,0,0,0,.35,0,1.15,1.15,0,0,0,.66-.34,1.61,1.61,0,0,0,.42-.94h0a.89.89,0,0,1-.74.38A1,1,0,0,1,26.09,45a1.16,1.16,0,0,1,1.08-1.25c.65,0,1,.58,1,1.48a2.36,2.36,0,0,1-.55,1.65,1.52,1.52,0,0,1-.92.47,1.79,1.79,0,0,1-.39,0Zm.16-2c0,.44.24.75.61.75a.69.69,0,0,0,.62-.37.35.35,0,0,0,0-.17c0-.6-.2-1.06-.65-1.06S26.51,44.49,26.51,45Z" style="fill:#144a6c"/><path d="M28.85,47a1.57,1.57,0,0,0,.35,0,1.14,1.14,0,0,0,.66-.34,1.61,1.61,0,0,0,.42-.94h0a.9.9,0,0,1-.74.38A1,1,0,0,1,28.59,45a1.16,1.16,0,0,1,1.08-1.25c.65,0,1,.58,1,1.48a2.36,2.36,0,0,1-.55,1.65,1.51,1.51,0,0,1-.92.47,1.79,1.79,0,0,1-.39,0ZM29,45c0,.44.24.75.61.75a.69.69,0,0,0,.62-.37.34.34,0,0,0,0-.17c0-.6-.2-1.06-.65-1.06S29,44.49,29,45Z" style="fill:#144a6c"/><path d="M32.43,47.34v-1H31v-.31l1.41-2.24h.46V46h.44v.37h-.44v1Zm0-1.33V44.84q0-.28,0-.55h0c-.1.21-.18.36-.26.52L31.39,46h1Z" style="fill:#144a6c"/><polygon points="34.49 42.15 34.84 43.22 35.97 43.22 35.05 43.89 35.4 44.96 34.49 44.3 33.58 44.96 33.93 43.89 33.01 43.22 34.14 43.22 34.49 42.15" style="fill:#fff;fill-rule:evenodd"/><polygon points="37.51 39.6 37.76 40.39 38.59 40.39 37.92 40.88 38.17 41.67 37.51 41.18 36.83 41.67 37.09 40.88 36.42 40.39 37.25 40.39 37.51 39.6" style="fill:#fff;fill-rule:evenodd"/><polygon points="39.69 36.79 39.92 37.5 40.67 37.5 40.06 37.94 40.29 38.65 39.69 38.21 39.09 38.65 39.32 37.94 38.72 37.5 39.46 37.5 39.69 36.79" style="fill:#fff;fill-rule:evenodd"/><polygon points="41.34 34.2 41.55 34.83 42.21 34.83 41.67 35.22 41.88 35.85 41.34 35.46 40.81 35.85 41.01 35.22 40.47 34.83 41.14 34.83 41.34 34.2" style="fill:#fff;fill-rule:evenodd"/><polygon points="22.28 42.15 21.93 43.22 20.81 43.22 21.72 43.89 21.37 44.96 22.28 44.3 23.2 44.96 22.85 43.89 23.76 43.22 22.63 43.22 22.28 42.15" style="fill:#fff;fill-rule:evenodd"/><polygon points="19.27 39.6 19.01 40.39 18.18 40.39 18.86 40.88 18.6 41.67 19.27 41.18 19.94 41.67 19.68 40.88 20.35 40.39 19.53 40.39 19.27 39.6" style="fill:#fff;fill-rule:evenodd"/><polygon points="17.08 36.79 16.85 37.5 16.11 37.5 16.71 37.94 16.48 38.65 17.08 38.21 17.69 38.65 17.46 37.94 18.06 37.5 17.31 37.5 17.08 36.79" style="fill:#fff;fill-rule:evenodd"/><polygon points="15.43 34.2 15.23 34.83 14.56 34.83 15.1 35.22 14.9 35.85 15.43 35.46 15.97 35.85 15.76 35.22 16.3 34.83 15.64 34.83 15.43 34.2" style="fill:#fff;fill-rule:evenodd"/><polygon points="44.92 33.21 47.03 31.12 44.92 31.12 44.92 33.21" style="fill:#0c2f45;fill-rule:evenodd"/><polygon points="47.03 31.12 34.14 35.19 34.14 26.32 47.03 22.25 47.03 31.12" style="fill:#144a6c;fill-rule:evenodd"/><polygon points="11.86 33.21 9.74 31.12 11.86 31.12 11.86 33.21" style="fill:#0c2f45;fill-rule:evenodd"/><polygon points="9.74 31.12 22.64 35.19 22.64 26.32 9.74 22.25 9.74 31.12" style="fill:#144a6c;fill-rule:evenodd"/><polygon points="47.03 30.08 34.03 34.19 34.03 33.88 47.03 29.76 47.03 30.08" style="fill:#9ab33b;fill-rule:evenodd"/><polygon points="47.03 23.54 34.03 27.65 34.03 27.34 47.03 23.22 47.03 23.54" style="fill:#9ab33b;fill-rule:evenodd"/><polygon points="9.74 30.08 22.74 34.19 22.74 33.88 9.74 29.76 9.74 30.08" style="fill:#9ab33b;fill-rule:evenodd"/><polygon points="9.74 23.54 22.74 27.65 22.74 27.34 9.74 23.22 9.74 23.54" style="fill:#9ab33b;fill-rule:evenodd"/><circle cx="28.39" cy="31.96" r="9.83" transform="matrix(0.98, -0.18, 0.18, 0.98, -5.24, 5.56)" style="fill:#144a6c"/><path d="M36.65,32.56h0a.94.94,0,0,0,0-1.18h0a.94.94,0,0,1-.13-1h0a.94.94,0,0,0-.31-1.14h0a.94.94,0,0,1-.38-.91h0a.94.94,0,0,0-.59-1h0a.94.94,0,0,1-.6-.78h0a.94.94,0,0,0-.84-.84h0a.94.94,0,0,1-.78-.6h0a.94.94,0,0,0-1-.59h0a.94.94,0,0,1-.91-.38h0A.94.94,0,0,0,30,23.83h0a.94.94,0,0,1-1-.13h0a.94.94,0,0,0-1.18,0h0a.94.94,0,0,1-1,.13h0a.94.94,0,0,0-1.14.31h0a.94.94,0,0,1-.91.38h0a.94.94,0,0,0-1,.59h0a.94.94,0,0,1-.78.6h0a.94.94,0,0,0-.84.84h0a.94.94,0,0,1-.6.78h0a.94.94,0,0,0-.59,1h0a.94.94,0,0,1-.38.91h0a.94.94,0,0,0-.31,1.14h0a.94.94,0,0,1-.13,1h0a.94.94,0,0,0,0,1.18h0a.94.94,0,0,1,.13,1h0a.94.94,0,0,0,.31,1.14h0a.94.94,0,0,1,.38.91h0a.94.94,0,0,0,.59,1h0a.94.94,0,0,1,.6.78h0a.94.94,0,0,0,.84.84h0a.94.94,0,0,1,.78.6h0a.94.94,0,0,0,1,.59h0a.94.94,0,0,1,.91.38h0a.94.94,0,0,0,1.14.31h0a.94.94,0,0,1,1,.13h0a.94.94,0,0,0,1.18,0h0a.94.94,0,0,1,1-.13h0a.94.94,0,0,0,1.14-.31h0a.94.94,0,0,1,.91-.38h0a.94.94,0,0,0,1-.59h0a.94.94,0,0,1,.78-.6h0a.94.94,0,0,0,.84-.84h0a.94.94,0,0,1,.6-.78h0a.94.94,0,0,0,.59-1h0a.94.94,0,0,1,.38-.91h0a.94.94,0,0,0,.31-1.14h0A.94.94,0,0,1,36.65,32.56Z" style="fill:#e9bb1f"/><circle cx="28.39" cy="32.07" r="7.04" style="fill:#144a6c"/><path d="M34.57,34.33a6.61,6.61,0,1,0-4.54,4,6.66,6.66,0,0,0,4.54-4" style="fill:#fff;fill-rule:evenodd"/><path d="M26.21,31.56a6.52,6.52,0,0,1,1.38-1.44q.26-.2.53-.38c.05,0,.17-.14.24-.15s.15.07.2.08l.54.24a12.73,12.73,0,0,1,1.31.68,2.56,2.56,0,0,1,.44.32c.16.16,0,.7,0,.91a7.59,7.59,0,0,1-.45,1.63c-.11.28-.13.27-.44.34a8.69,8.69,0,0,1-1.8.24,5.13,5.13,0,0,1-.6,0c-.15,0-.23-.21-.31-.33a8.91,8.91,0,0,1-.51-.93q-.29-.59-.53-1.21" style="fill:#144a6c;fill-rule:evenodd"/><path d="M27.45,34.18c-.16,0-.37-.43-.44-.55-.17-.29-.33-.6-.47-.91s-.23-.49-.33-.75a1.86,1.86,0,0,0-.14-.35h0c.15-.06.15-.06.29,0-.11-.07-.12-.1-.23-.05s-.06-.07,0-.13A6.26,6.26,0,0,1,27,30.39a12.07,12.07,0,0,1,1.25-.94c.08-.08.21,0,.29.05l1,.44a4.92,4.92,0,0,1,1.49.92c.14.16,0,.63,0,.83a6.42,6.42,0,0,1-.21,1q-.11.39-.26.77a1.58,1.58,0,0,0-.13.31c0,.09-.1.09-.17.11-.25.07-.51.12-.76.17a7,7,0,0,1-2,.11h0m2-.43c.24,0,.49-.1.73-.16a8.29,8.29,0,0,0,.3-.83A5,5,0,0,0,30.73,31c-.08-.16-.41-.3-.55-.38s-.52-.29-.79-.42l-1-.47a7.31,7.31,0,0,0-.67.47,6.42,6.42,0,0,0-1.3,1.33h0q.18.45.38.88a7,7,0,0,0,.78,1.4,6.73,6.73,0,0,0,1.88-.11" style="fill:#144a6c"/><path d="M24,35.7a4.46,4.46,0,0,0,1.56.23,3.42,3.42,0,0,1,.74,0,4.24,4.24,0,0,0,1.66,1.9,3.27,3.27,0,0,1-1,.46.86.86,0,0,1-.42,0l-.34-.12c-.26-.09-.52-.2-.77-.32a6,6,0,0,1-.72-.41c-.22-.14-.72-.42-.77-.68A2,2,0,0,1,24,35.7" style="fill:#144a6c;fill-rule:evenodd"/><path d="M26.93,38.44l-.33,0a1.27,1.27,0,0,1-.47-.15c-.26-.09-.51-.19-.76-.31a6.25,6.25,0,0,1-1.54-1c-.05-.05-.05-.1-.07-.18h0a2.15,2.15,0,0,1,.09-1.18s0-.15.08-.14l.37.13a4.84,4.84,0,0,0,1.2.15,4.11,4.11,0,0,0,.78,0c.13,0,.14,0,.19.14a5.39,5.39,0,0,0,.41.68A3.54,3.54,0,0,0,28,37.67l.26.14a4.38,4.38,0,0,1-1.34.62h0m-.06-.32a2.17,2.17,0,0,0,.76-.31,4.7,4.7,0,0,1-1.44-1.74,5.67,5.67,0,0,1-2.09-.17l0,.12a2.1,2.1,0,0,0,0,.73h0v0a7.21,7.21,0,0,0,2.52,1.37l.27,0" style="fill:#144a6c"/><path d="M30.57,37.43a5.2,5.2,0,0,0,1.23-2c0-.06.48-.12.55-.14a4.1,4.1,0,0,0,1.46-.76,1.32,1.32,0,0,1-.07,1.36,7.68,7.68,0,0,1-1,1.07,5.92,5.92,0,0,1-.62.5,1.06,1.06,0,0,1-.73.31,2.27,2.27,0,0,1-.86-.29" style="fill:#144a6c;fill-rule:evenodd"/><path d="M31.61,37.9a2.54,2.54,0,0,1-1.13-.34h0l.09-.13.12.11-.12-.11-.09.13-.16-.11a5.61,5.61,0,0,0,1.27-2,.7.7,0,0,1,.06-.18c0-.14.13-.11.24-.13a4,4,0,0,0,1.82-.83l.14-.12a1.73,1.73,0,0,1,.23.47,2.21,2.21,0,0,1-.07,1,1.31,1.31,0,0,1-.28.4,8,8,0,0,1-.57.65,6,6,0,0,1-1.47,1.13.1.1,0,0,1-.09,0h0m-.7-.49a2.57,2.57,0,0,0,.68.17,6.45,6.45,0,0,0,2.12-2,1.69,1.69,0,0,0,0-.87,4.42,4.42,0,0,1-1.81.77h0a5.53,5.53,0,0,1-1.09,1.87h0l.07,0" style="fill:#144a6c"/><path d="M34.18,31.7A4,4,0,0,0,33,30.47a3.88,3.88,0,0,1-.52-.28,7.84,7.84,0,0,0,.06-1,2.18,2.18,0,0,0-.29-1.35,5.5,5.5,0,0,1,1.34.38l.3.11c.1,0,.15.19.21.28s.26.44.37.68a5,5,0,0,1,.28.72.8.8,0,0,1,0,.45,3.23,3.23,0,0,1-.12.4,4,4,0,0,1-.45.87" style="fill:#144a6c;fill-rule:evenodd"/><path d="M34,31.79a3.67,3.67,0,0,0-1.5-1.37l-.15-.06c-.14,0-.13,0-.11-.18s0-.4.05-.6a2.6,2.6,0,0,0-.24-1.67l-.25-.3a7.76,7.76,0,0,1,2.14.56,7.89,7.89,0,0,1,.49.78,5.43,5.43,0,0,1,.48,1.28,2,2,0,0,1-.3,1c-.1.2-.22.38-.33.58l-.14.2-.13-.2h0m.14-.09.14-.09-.14.09h0m0-.3.12-.21a3.64,3.64,0,0,0,.26-.65,1.2,1.2,0,0,0-.1-.82,7.85,7.85,0,0,0-.65-1.28A10,10,0,0,0,32.51,28h0a4.7,4.7,0,0,1,.1,2.07h0a3.88,3.88,0,0,1,1.56,1.31" style="fill:#144a6c"/><path d="M30.26,26.73a3.42,3.42,0,0,0-1.4.38l-.54.28s-.17.12-.19.11A6.55,6.55,0,0,0,25.77,27a3.29,3.29,0,0,1,.18-.71l.12-.28c.07-.15.08-.25.25-.29A9.43,9.43,0,0,1,28,25.39a6.67,6.67,0,0,1,1,0,.61.61,0,0,1,.43.2,4,4,0,0,1,.37.36,3.62,3.62,0,0,1,.55.78" style="fill:#144a6c;fill-rule:evenodd"/><path d="M28.07,27.65s-.36-.14-.83-.27a5,5,0,0,0-1.47-.25h-.19A5.6,5.6,0,0,1,26,25.64c0-.08.18-.11.27-.13.27-.07.54-.13.81-.18a7.16,7.16,0,0,1,2-.09c.14,0,.27.18.37.27a4.22,4.22,0,0,1,.5.54,4,4,0,0,1,.39.61l-.15.07v0l.15-.07.11.23a3.18,3.18,0,0,0-.59,0,4.47,4.47,0,0,0-1.15.41c-.07,0-.55.22-.56.31a.1.1,0,0,1-.14,0h0m0-.33a5.48,5.48,0,0,1,1.76-.72l.12,0-.14-.21a3.82,3.82,0,0,0-.79-.82,6.86,6.86,0,0,0-1.88.09c-.29.05-.58.12-.87.19a4.31,4.31,0,0,0-.35,1h0a7.65,7.65,0,0,1,2.15.52" style="fill:#144a6c"/><path d="M23.68,28.93a4.63,4.63,0,0,0,.27,1.8c.06.16.24.39.11.53a5.11,5.11,0,0,0-1.36,1.92,3.75,3.75,0,0,1-.88-1.25,1.29,1.29,0,0,1,0-.58,6.24,6.24,0,0,1,.11-.72,6.87,6.87,0,0,1,.21-.78c.08-.24.47-.41.69-.53a5.5,5.5,0,0,1,.85-.38" style="fill:#144a6c;fill-rule:evenodd"/><path d="M22.59,33.29a3.59,3.59,0,0,1-1-1.38,2.13,2.13,0,0,1,0-.87A6.78,6.78,0,0,1,22,29.69c0-.13.23-.21.34-.29a5.21,5.21,0,0,1,.58-.34c.23-.11.46-.19.69-.29l.23-.08a4.87,4.87,0,0,0,0,1.22h0a5.32,5.32,0,0,0,.23.86,2.35,2.35,0,0,1,.14.34c.08.11,0,.14-.06.22s-.41.44-.6.67a3.42,3.42,0,0,0-.76,1.21l-.07.26-.2-.18h0m0-.41a6,6,0,0,1,1-1.45l.21-.23c.08-.08,0-.14,0-.24a5.61,5.61,0,0,1-.28-1h0a4.51,4.51,0,0,1-.07-.81l-.27.12a4.6,4.6,0,0,0-.93.56,7,7,0,0,0-.36,2h0a3.59,3.59,0,0,0,.69,1.07" style="fill:#144a6c"/><path d="M25.85,26.78A10.84,10.84,0,0,0,23.5,29l.18.16a20.38,20.38,0,0,1,1.43-1.5,5.39,5.39,0,0,1,.78-.61C26,27,25.91,26.89,25.85,26.78Z" style="fill:#144a6c"/><path d="M28.19,27.39H28a9.82,9.82,0,0,0,.26,2.35l.24-.07A10.18,10.18,0,0,1,28.19,27.39Z" style="fill:#144a6c"/><path d="M30.06,26.77l.06-.26a6,6,0,0,1,2.34,1.31c-.07.08-.12.11-.19.19l-.71-.52a4.46,4.46,0,0,0-1.5-.72h0" style="fill:#144a6c"/><path d="M32.4,30a3.28,3.28,0,0,1-1.67.82,1.53,1.53,0,0,0,0,.27,3.56,3.56,0,0,0,1.83-.91Z" style="fill:#144a6c"/><path d="M34,31.48a5.54,5.54,0,0,1-.33,3.07.84.84,0,0,0,.19.11,5.69,5.69,0,0,0,.36-3.21Z" style="fill:#144a6c"/><path d="M30.11,33.71l.19-.15a10.92,10.92,0,0,0,1,1.25,3.14,3.14,0,0,0,.59.48s-.07.18-.1.23a7.18,7.18,0,0,1-1.71-1.82h0" style="fill:#144a6c"/><path d="M26.13,35.87a4.82,4.82,0,0,0,1.23-2l.26.08a5.48,5.48,0,0,1-1.32,2.17l-.22-.24h0" style="fill:#144a6c"/><path d="M27.84,37.91c0-.08,0-.27,0-.27l.47,0a4.37,4.37,0,0,0,1.09-.06,4.85,4.85,0,0,0,1.27-.46c0,.1.08.14.13.24a5,5,0,0,1-1.35.49,6.23,6.23,0,0,1-1.65,0h0" style="fill:#144a6c"/><path d="M22.54,33.11l.21,0h.07q0,.19.09.38a5.06,5.06,0,0,0,.43,1.13,5.53,5.53,0,0,0,.56.84c0,.06.27.28.22.32l-.18.17a5.56,5.56,0,0,1-1.39-2.79h0" style="fill:#144a6c"/><path d="M24.06,31l0,.27,2.19.45c.19,0,.14-.08.18-.26Z" style="fill:#144a6c"/><path d="M16.77,13.44v4.44H15.69V13.44h-.91v-1h2.9v1Z" style="fill:#144a6c;stroke:#fff;stroke-miterlimit:10;stroke-width:0.177593635821866px"/><path d="M20.35,17.88l-.66-2.11h-.36v2.11H18.25V12.47H19.8c1.18,0,1.51.62,1.51,1.65a1.49,1.49,0,0,1-.62,1.42l.79,2.34Zm-.56-4.44h-.46V14.8h.46c.41,0,.43-.37.43-.68S20.2,13.44,19.79,13.44Z" style="fill:#144a6c;stroke:#fff;stroke-miterlimit:10;stroke-width:0.177593635821866px"/><path d="M24.43,17.88,24.26,17H23l-.17.84H21.71l1.39-5.41h1.06l1.39,5.41Zm-.8-3.82-.42,2h.84Z" style="fill:#144a6c;stroke:#fff;stroke-miterlimit:10;stroke-width:0.177593635821866px"/><path d="M27.7,17.88H26.58l-1.21-5.41h1.19l.59,3.82.59-3.82h1.19Z" style="fill:#144a6c;stroke:#fff;stroke-miterlimit:10;stroke-width:0.177593635821866px"/><path d="M29.37,17.88V12.47h2.49v1H30.45v1.22h1.22v1H30.45v1.27h1.41v1Z" style="fill:#144a6c;stroke:#fff;stroke-miterlimit:10;stroke-width:0.177593635821866px"/><path d="M32.52,17.88V12.47H33.6v4.44H35v1Z" style="fill:#144a6c;stroke:#fff;stroke-miterlimit:10;stroke-width:0.177593635821866px"/><path d="M35.62,17.88V12.47h2.49v1H36.7v1.22h1.22v1H36.7v1.27h1.41v1Z" style="fill:#144a6c;stroke:#fff;stroke-miterlimit:10;stroke-width:0.177593635821866px"/><path d="M40.87,17.88l-.66-2.11h-.36v2.11H38.77V12.47h1.54c1.18,0,1.51.62,1.51,1.65a1.49,1.49,0,0,1-.62,1.42L42,17.88Zm-.56-4.44h-.46V14.8h.46c.41,0,.43-.37.43-.68S40.72,13.44,40.31,13.44Z" style="fill:#144a6c;stroke:#fff;stroke-miterlimit:10;stroke-width:0.177593635821866px"/><path d="M23.82,20.93a.75.75,0,0,1-.53.18.72.72,0,0,1-.52-.18.71.71,0,0,1-.16-.54h.48a.32.32,0,0,0,.05.22.19.19,0,0,0,.15.06.17.17,0,0,0,.15-.06.32.32,0,0,0,0-.2c0-.23,0-.27-.21-.34L23,19.94c-.24-.1-.35-.23-.35-.61a.68.68,0,0,1,.22-.54.66.66,0,0,1,.45-.15.67.67,0,0,1,.48.15.73.73,0,0,1,.19.56h-.48a.36.36,0,0,0,0-.22.16.16,0,0,0-.14-.06.16.16,0,0,0-.14.06.27.27,0,0,0,0,.17c0,.15,0,.2.17.26l.3.12c.31.13.39.26.39.7A.69.69,0,0,1,23.82,20.93Z" style="fill:#144a6c;stroke:#fff;stroke-miterlimit:10;stroke-width:0.118395757214577px"/><path d="M24.28,21.08V18.66h1.12v.44h-.63v.55h.54v.44h-.54v.57h.63v.44Z" style="fill:#144a6c;stroke:#fff;stroke-miterlimit:10;stroke-width:0.118395757214577px"/><path d="M26.63,21.08l-.3-.94h-.16v.94h-.48V18.66h.69c.53,0,.67.28.67.74a.66.66,0,0,1-.28.64l.35,1Zm-.25-2h-.2v.61h.2c.18,0,.19-.17.19-.31S26.56,19.09,26.37,19.09Z" style="fill:#144a6c;stroke:#fff;stroke-miterlimit:10;stroke-width:0.118395757214577px"/><path d="M28.25,21.08h-.5l-.54-2.42h.53L28,20.37l.27-1.71h.53Z" style="fill:#144a6c;stroke:#fff;stroke-miterlimit:10;stroke-width:0.118395757214577px"/><path d="M29,21.08V18.66h.48v2.42Z" style="fill:#144a6c;stroke:#fff;stroke-miterlimit:10;stroke-width:0.118395757214577px"/><path d="M31,20.93a.7.7,0,0,1-1-.07,1.59,1.59,0,0,1-.18-1,1.59,1.59,0,0,1,.18-1,.7.7,0,0,1,1-.07.78.78,0,0,1,.22.54H30.7a.46.46,0,0,0,0-.19.16.16,0,0,0-.16-.09.17.17,0,0,0-.16.1,2.21,2.21,0,0,0-.06.71,2.21,2.21,0,0,0,.06.71.17.17,0,0,0,.16.1.16.16,0,0,0,.16-.1.46.46,0,0,0,0-.19h.48A.79.79,0,0,1,31,20.93Z" style="fill:#144a6c;stroke:#fff;stroke-miterlimit:10;stroke-width:0.118395757214577px"/><path d="M31.47,21.08V18.66h1.12v.44H32v.55h.54v.44H32v.57h.63v.44Z" style="fill:#144a6c;stroke:#fff;stroke-miterlimit:10;stroke-width:0.118395757214577px"/><path d="M34,20.93a.75.75,0,0,1-.53.18.72.72,0,0,1-.52-.18.71.71,0,0,1-.16-.54h.48a.32.32,0,0,0,.05.22.19.19,0,0,0,.15.06.17.17,0,0,0,.15-.06.32.32,0,0,0,0-.2c0-.23,0-.27-.21-.34l-.31-.13c-.24-.1-.35-.23-.35-.61a.68.68,0,0,1,.22-.54.66.66,0,0,1,.45-.15.67.67,0,0,1,.48.15.73.73,0,0,1,.19.56h-.48a.36.36,0,0,0,0-.22.16.16,0,0,0-.14-.06.16.16,0,0,0-.14.06.27.27,0,0,0,0,.17c0,.15,0,.2.17.26l.3.12c.31.13.39.26.39.7A.69.69,0,0,1,34,20.93Z" style="fill:#144a6c;stroke:#fff;stroke-miterlimit:10;stroke-width:0.118395757214577px"/><circle cx="28.39" cy="6.98" r="3.87" style="fill:#e9bb1f"/><path d="M29.86,5.57H29V5.29A.28.28,0,0,0,28.73,5H28a.28.28,0,0,0-.26.32v.28h-.78V8.71h2.93Zm-1.09-.05a.08.08,0,0,1,0,.05H28a.07.07,0,0,1,0-.05V5.26A.08.08,0,0,1,28,5.18h.67a.08.08,0,0,1,.08.08Z" style="fill:#144a6c"/><path d="M25.77,6.26l0,1.89a.54.54,0,0,0,.57.59h.28V5.58h-.33C25.94,5.58,25.77,5.85,25.77,6.26Z" style="fill:#144a6c"/><path d="M31,8.15V6.26c0-.43-.23-.7-.54-.7H30.1V8.74h.37A.53.53,0,0,0,31,8.15Z" style="fill:#144a6c"/><path d="M32.22,25.88c2.1-.94,3.84-1.08,4.64-.21.61.67.57,1.82,0,3.22a.42.42,0,0,0-.12-.15.82.82,0,0,0-.81,0,2,2,0,0,0-.76.54l-.37.46-.55.71v0c1.11-1.81,1.45-3.38.73-4.16-.5-.55-1.45-.62-2.64-.3ZM22,35.59a2.24,2.24,0,0,0,.19,2.21c1.1,1.21,4.37.11,7.59-2.48l.05,0,.4.16.2.08c-.11.25-.27.58,0,.81a.39.39,0,0,0,.12.07h0c-3.75,3-7.51,4.21-8.8,2.8-.67-.74-.55-2.1.22-3.71" style="fill:#fff;fill-rule:evenodd"/><path d="M32.07,37.11h0c-.21,0-.28-.13-.57-.57l-.21-.31c-.29.21-.4.26-.53.26h-.14l-.12-.09h0c-.22-.19-.17-.4,0-.8l-.36-.15c-.48-.19-.6-.24-.67-.43a.46.46,0,0,1,0-.39,1.16,1.16,0,0,1,.71-.51l.2,0a3.45,3.45,0,0,1,.66.1l.21,0c.28-.37,1-1.38,1.33-1.84a5.11,5.11,0,0,0-.76-.52c-.18-.09-1-.36-1.52-.56-1-.34-1-.34-1-.41a.43.43,0,0,1-.14-.42,1,1,0,0,1,.68-.62l.18,0a17.91,17.91,0,0,1,2.09.35l.57.11c.18-.25.48-.63.71-.66h.05c.3,0,.67.39.68.41a.49.49,0,0,1,.15.37.42.42,0,0,1,0,.12h0c.24-.31.65-.85,1-1.22a1.9,1.9,0,0,1,1.25-.66.45.45,0,0,1,.3.1c.35.29.1,1.2-.24,1.62s-.72.86-1,1.12l-.06.06h0l.13-.06h.09a1.16,1.16,0,0,1,.82.7v0h0c0,.25-.29.6-.5.82l.22.53c.7,1.66.79,2,.77,2.15s-.22.83-.65.83h0a.43.43,0,0,1-.26-.09c-.08-.07-.09-.07-.62-1-.3-.5-.72-1.19-.84-1.35a5.26,5.26,0,0,0-.67-.64c-.39.4-1.24,1.31-1.55,1.66l.08.19a2,2,0,0,1,.25.84c0,.38-.27.91-.67.91Z" style="fill:#fff"/><path d="M36.63,35.67c0-.23-1.07-2.68-1.06-2.75a3.35,3.35,0,0,0,.57-.69,1,1,0,0,0-.43-.35,1.84,1.84,0,0,0-.37.44,2.14,2.14,0,0,1-.25-.92c.06-.07.7-.79,1.1-1.29a1.39,1.39,0,0,0,.3-1.06,1.4,1.4,0,0,0-1,.5c-.4.49-1,1.26-1,1.34a2.28,2.28,0,0,1-1-.07,2.2,2.2,0,0,0,.36-.45,1.07,1.07,0,0,0-.44-.35,3.67,3.67,0,0,0-.57.7c-.07,0-2.69-.56-2.91-.49s-.47.3-.4.35,2.11.73,2.48.92a4.62,4.62,0,0,1,1.09.81c0,.08-1.54,2.21-1.64,2.3s-.89-.2-1.17-.13-.49.31-.47.37,1.21.46,1.16.56a3.43,3.43,0,0,0-.26.65s.52-.34.59-.39.71,1,.78,1,.26-.24.27-.53-.43-1-.36-1.12S33.86,33,33.94,33a4.59,4.59,0,0,1,1,.9c.25.32,1.33,2.18,1.4,2.24s.25-.23.27-.46Z" style="fill:#144a6c"/></svg>