<svg id="Layer_1" data-name="Layer 1" xmlns="http://www.w3.org/2000/svg" viewBox="0 0 56.77 56.77"><title>ventas</title><path d="M44.48,7.37a73.53,73.53,0,0,0-16.43-1.7A63.77,63.77,0,0,0,12.27,7.38l-.61.17V41.86L28.39,54.31,45.12,41.86V7.53Z" style="fill:#292929"/><path d="M13.55,9V40.9l14.84,11,14.84-11V9.05A75.79,75.79,0,0,0,28.05,7.58,66.85,66.85,0,0,0,13.55,9Zm1.53,13.05a54.06,54.06,0,0,1,8.41-1.28V45.9l-8.41-6.26ZM41.69,39.64,33.28,45.9V20.81a54.06,54.06,0,0,1,8.41,1.28Z" style="fill:#003a5d"/><path d="M28.05,7.24A66.78,66.78,0,0,0,13.34,8.73l-.13,0V41.07l15.18,11.3,15.18-11.3V8.77l-.14,0A75.83,75.83,0,0,0,28.05,7.24ZM43.22,40.9l-14.84,11-14.84-11V9a66.85,66.85,0,0,1,14.5-1.45A75.79,75.79,0,0,1,43.22,9.05Z" style="fill:#e62445"/><path d="M23.49,20.81a54.06,54.06,0,0,0-8.41,1.28V39.64l8.41,6.26Z" style="fill:#e62445"/><path d="M33.28,45.9l8.41-6.26V22.09a54.06,54.06,0,0,0-8.41-1.28Z" style="fill:#e62445"/><path d="M17.39,18.53q.5-4.21,1-8.11l1.21.2c-.43,3.07-.86,6.26-1.29,9.61q-1,.17-2,.38c-.43-3.44-.86-7-1.28-10.87l1.32.29Q16.89,14.45,17.39,18.53Z" style="fill:#fff"/><path d="M21.42,14.62l1.82,0q0,.61,0,1.22l-1.82,0q0,1.3,0,2.61,1.14-.1,2.29-.16v1.21q-1.81.15-3.61.4V10.7q1.8.26,3.61.4v1.21q-1.15-.07-2.29-.16Q21.42,13.38,21.42,14.62Z" style="fill:#fff"/><path d="M25.6,13.48q0,3,0,5.94l-1.2.07V11.15l1.67.09c.46,1.65.91,3.27,1.37,4.88V11.28h1.19v8.07H27.26C26.71,17.43,26.15,15.48,25.6,13.48Z" style="fill:#fff"/><path d="M29.08,11.28q2.06,0,4.11-.2V12.3l-1.39.07q0,3.55,0,7.09l-1.33-.06q0-3.49,0-7l-1.39,0Z" style="fill:#fff"/><path d="M37.48,20.07l-1.33-.2-.23-1.67-1.63-.12-.23,1.55-1.22-.11c.45-2.77.9-5.6,1.35-8.54q1-.1,1.94-.23C36.58,13.74,37,16.84,37.48,20.07Zm-3-3.16,1.28.05q-.32-2.29-.64-4.5Q34.78,14.73,34.46,16.92Z" style="fill:#fff"/><path d="M39.74,10.05c1.28-.28,1.93.57,1.93,2.38v.35l-1.24.13q0-.22,0-.44c0-.76-.24-1-.66-.95s-.66.37-.66,1.09c0,2,2.56,2.37,2.56,5.62,0,1.8-.66,2.65-2,2.37a2.5,2.5,0,0,1-2-2.78v-.59l1.24.09V18c0,.71.26,1,.68,1.07s.68-.17.68-.92c0-2.22-2.57-2.66-2.57-5.35C37.8,11.3,38.46,10.32,39.74,10.05Z" style="fill:#fff"/><polygon points="28.39 44.18 28.93 45.84 30.68 45.84 29.26 46.87 29.8 48.53 28.39 47.5 26.97 48.53 27.51 46.87 26.1 45.84 27.85 45.84 28.39 44.18" style="fill:#fff;fill-rule:evenodd"/><path d="M28.05,6.47A67.81,67.81,0,0,0,13.11,8l-.73.17V41.59l16,11.92,16-11.92V8.16L43.65,8A76.94,76.94,0,0,0,28.05,6.47Zm16.18,35,0,0L28.39,53.31l0,0L12.54,41.51V8.29l.61-.14A67.63,67.63,0,0,1,28.05,6.63,76.78,76.78,0,0,1,43.62,8.16l.62.13Z" style="fill:#fff"/><circle cx="28.39" cy="6.6" r="3.32" style="fill:#003a5d"/><path d="M28.39,2.46A4.13,4.13,0,1,0,32.52,6.6,4.13,4.13,0,0,0,28.39,2.46Zm0,7.72A3.58,3.58,0,1,1,32,6.6,3.59,3.59,0,0,1,28.39,10.18Z" style="fill:#292929"/><path d="M28.39,3A3.58,3.58,0,1,0,32,6.6,3.59,3.59,0,0,0,28.39,3Zm0,6.91A3.32,3.32,0,1,1,31.71,6.6,3.32,3.32,0,0,1,28.39,9.92Z" style="fill:#e62445"/><path d="M28.87,3.95l-.49.26-.49-.26a.12.12,0,0,0-.17.14L28,5a1.3,1.3,0,0,1,.78,0L29,4.09a.12.12,0,0,0-.17-.14Zm0,0" style="fill:#fff"/><path d="M30.29,7.6c0-1-.85-2.54-1.9-2.54s-1.9,1.49-1.9,2.54.85,1.28,1.9,1.28,1.9-.23,1.9-1.28Zm-1.74.28v.19a.11.11,0,0,1-.11.11h-.09a.11.11,0,0,1-.11-.11V7.9a1,1,0,0,1-.41-.15.11.11,0,0,1,0-.14l.1-.15a.1.1,0,0,1,.14,0,.56.56,0,0,0,.3.1c.14,0,.2,0,.2-.16s-.72-.25-.72-.74a.51.51,0,0,1,.43-.54V5.91a.1.1,0,0,1,.1-.1h.1a.1.1,0,0,1,.1.1v.18a.69.69,0,0,1,.34.16.1.1,0,0,1,0,.15l-.11.12a.11.11,0,0,1-.14,0,.36.36,0,0,0-.22-.08c-.12,0-.18,0-.18.14s.72.22.72.73a.53.53,0,0,1-.43.55Zm0,0" style="fill:#fff"/><path d="M28.39,42.64a10,10,0,1,1,1.91-19.9A.82.82,0,0,1,31,22.4h.09a3.07,3.07,0,0,1,2.19,1.06,3.45,3.45,0,0,1,.5.69,10,10,0,0,1-5.42,18.49Z" style="fill:#fff"/><circle cx="28.39" cy="32.6" r="9.83" style="fill:#292929"/><path d="M31.16,41.34l-.4-.56,1.46-2.05,3.05-1.83.9.53A9.22,9.22,0,0,1,31.16,41.34Z" style="fill:#fff"/><path d="M36.76,30.64l.62.08a9.16,9.16,0,0,1-.88,6.15l-.9-.54V32.67Z" style="fill:#fff"/><polygon points="35.7 29.44 36.21 30.29 35.09 32.26 32.85 32.26 31.05 28.96 31.25 28.48 31.87 27.04 34.42 27.32 35.7 29.44" style="fill:#fff"/><path d="M28.72,23.42a9.14,9.14,0,0,1,6,2.54l-.31.7-2.64-.29-3.06-1.84Z" style="fill:#fff"/><polygon points="30.49 29.31 32.28 32.59 30.49 35.87 26.29 35.87 25.39 34.23 24.5 32.59 25.39 30.95 26.29 29.31 30.49 29.31" style="fill:#fff"/><path d="M28.06,23.42v1.11L25,26.36l-2.64.29L22,26A9.14,9.14,0,0,1,28.06,23.42Z" style="fill:#fff"/><polygon points="22.35 27.32 24.9 27.04 25.73 28.96 23.93 32.26 21.69 32.26 20.57 30.29 22.35 27.32" style="fill:#fff"/><path d="M19.2,32.59a9.19,9.19,0,0,1,.19-1.86l.62-.08,1.16,2v3.66l-.9.54A9.12,9.12,0,0,1,19.2,32.59Z" style="fill:#fff"/><path d="M25.62,41.34a9.22,9.22,0,0,1-5-3.9l.9-.53,3.05,1.83L26,40.79Z" style="fill:#fff"/><polygon points="26.59 40.46 25.17 38.47 25.91 37.17 26.28 36.52 30.49 36.52 31.61 38.47 30.19 40.46 26.59 40.46" style="fill:#fff"/><path d="M30.87,35.86a.2.2,0,0,1,0-.14l.56-5.34a.21.21,0,0,1,0-.11l1-1.19A.2.2,0,0,1,32.6,29l2.61.28a.21.21,0,0,1,.14.08l0,0,.71,1.36a.21.21,0,0,1,0,.12l-.56,5.34a.21.21,0,0,1-.23.18L31,35.95A.2.2,0,0,1,30.87,35.86Z" style="fill:#292929"/><polygon points="35.34 36.2 31.03 35.74 31.59 30.4 32.57 29.22 35.19 29.49 35.9 30.86 35.34 36.2" style="fill:#e62445"/><circle cx="33.82" cy="29.99" r="0.55" transform="translate(0.39 60.41) rotate(-83.86)" style="fill:#292929"/><path d="M33.15,34.7A2.55,2.55,0,0,1,32,34.13l.46-.55a2,2,0,0,0,.79.45l.06-.53c-.7-.24-1-.53-1-1.08h0c.06-.53.48-.85,1.16-.82l0-.25.46,0,0,.27a2,2,0,0,1,.9.45l-.43.56a1.79,1.79,0,0,0-.57-.33l-.06.52c.69.24,1,.53,1,1.08h0c-.06.54-.51.83-1.15.82l0,.44-.46,0Zm.3-2.46c-.22,0-.31.07-.33.19h0c0,.12,0,.19.28.28ZM34,33.92h0c0-.12,0-.19-.27-.29l-.05.49C33.87,34.11,34,34,34,33.92Z" style="fill:#fff"/><path d="M33.82,30.42a.43.43,0,0,1-.43-.43c0-.22,0-.51,0-.82.08-1.45.21-3.88-.85-5a3.09,3.09,0,0,0-1.93-.92h-.21V23s0-.39.61-.41h.08a2.87,2.87,0,0,1,2,1c1.36,1.44,1.21,4.15,1.13,5.61,0,.31,0,.58,0,.78A.43.43,0,0,1,33.82,30.42Z" style="fill:#292929"/><path d="M33.82,30.21A.22.22,0,0,1,33.6,30c0-.21,0-.49,0-.81.08-1.49.22-4-.91-5.17a3.29,3.29,0,0,0-2.08-1s0-.18.4-.19a2.63,2.63,0,0,1,2,.92c1.26,1.33,1.16,3.9,1.07,5.45,0,.31,0,.58,0,.79A.22.22,0,0,1,33.82,30.21Z" style="fill:#fff"/></svg>